<svg width="458" height="447" viewBox="0 0 458 447" fill="none" xmlns="http://www.w3.org/2000/svg">
<g opacity="0.05">
<path d="M243.416 289.028C260.141 295.527 276.387 300.077 291.122 303.218C293.664 288.667 295.506 272.202 295.653 254.546C295.69 248.697 295.579 242.884 295.248 237.179C291.011 241.078 286.628 244.797 282.133 248.408C282.76 250.033 283.091 251.838 283.017 253.68C282.796 261.407 276.202 267.472 268.319 267.256C265.151 267.184 262.278 266.1 259.957 264.295C249.605 270.939 238.701 276.932 227.318 282.204C232.549 284.623 237.928 286.898 243.416 289.028Z" fill="white"/>
<path d="M301.289 110.941C285.854 101.265 268.246 94.5849 249.274 91.7686C255.5 99.8925 261.209 108.269 266.367 116.827C277.639 114.263 289.28 112.277 301.289 110.941Z" fill="white"/>
<path d="M274.876 132.036C275.723 131.928 276.608 131.855 277.529 131.855C285.412 132.072 291.601 138.535 291.38 146.226C291.269 150.486 289.169 154.241 286.038 156.733C293.922 177.025 299.153 198.255 301.731 220.208C319.008 202.227 333.891 181.466 346.342 157.924C337.501 142.326 325.529 128.678 311.235 117.774C298.6 118.821 284.823 120.734 270.529 123.912C272.04 126.62 273.476 129.328 274.876 132.036Z" fill="white"/>
<path d="M291.27 337.914C302.542 332.137 312.857 324.807 321.956 316.214C314.625 315.348 306.373 314.156 297.421 312.459C295.543 321.955 293.406 330.512 291.27 337.914Z" fill="white"/>
<path d="M303.573 254.977C303.426 273.031 301.51 289.929 298.895 304.841C310.204 307.007 320.408 308.343 328.955 309.174C349.326 286.896 362.072 257.685 363.03 225.406C363.656 204.32 359.162 184.244 350.652 166.335C337.28 190.455 321.219 211.794 302.652 230.136C303.352 238.296 303.647 246.601 303.573 254.977Z" fill="white"/>
<path d="M262.832 145.428C262.942 141.312 264.895 137.665 267.878 135.173C266.258 132.032 264.563 128.891 262.795 125.822C238.629 131.96 213.432 141.889 190.26 157.74C168.71 172.472 150.659 191.03 136.145 213.272C158.506 240.027 185.877 261.583 218.147 277.795C231.261 272.126 243.676 265.555 255.353 258.117C254.727 256.492 254.396 254.687 254.469 252.845C254.69 245.118 261.284 239.052 269.131 239.269C272.299 239.341 275.209 240.461 277.53 242.266C283.387 237.572 289.06 232.625 294.476 227.39C292.339 203.704 287.145 181.137 278.856 159.69C278.119 159.798 277.383 159.834 276.609 159.798C268.799 159.618 262.611 153.155 262.832 145.428Z" fill="white"/>
<path d="M281.656 342.393C284.935 341.021 288.14 339.541 291.271 337.916L281.656 342.393C281.693 342.285 281.73 342.176 281.766 342.068C284.382 333.583 287.255 323.04 289.687 310.908C274.62 307.695 257.932 303.037 240.802 296.393C232.956 293.36 225.33 290.002 217.926 286.392C210.3 289.605 202.491 292.494 194.497 295.093C170.736 302.784 148.081 306.828 129.146 308.886C152.796 334.919 186.945 351.745 225.33 352.828C245.297 353.37 264.379 349.614 281.656 342.393Z" fill="white"/>
<path d="M208.753 281.697C182.487 267.652 159.242 249.851 139.387 228.512C136.845 225.768 134.34 222.952 131.909 220.099C130.546 222.338 129.256 224.649 127.967 226.96C131.687 229.595 134.045 233.892 133.898 238.73C133.677 246.457 127.083 252.523 119.236 252.307C118.131 252.27 117.1 252.126 116.068 251.873C112.863 259.708 109.953 267.832 107.411 276.317C111.648 285.38 116.915 293.901 123.067 301.7C142.555 299.895 166.794 295.923 192.323 287.619C197.886 285.777 203.375 283.792 208.753 281.697Z" fill="white"/>
<path d="M102.622 178.433L106.306 169.19C104.979 172.187 103.764 175.292 102.622 178.433Z" fill="white"/>
<path d="M109.142 247.794C106.711 245.194 105.237 241.692 105.348 237.901C105.569 230.174 112.163 224.108 120.046 224.325C120.157 224.325 120.267 224.361 120.378 224.361C122.367 220.714 124.43 217.139 126.603 213.673C117.836 202.733 109.879 190.998 102.695 178.469C98.3118 190.817 95.7331 204.069 95.3279 217.825C94.849 234.326 97.5013 250.213 102.732 264.945C104.685 259.023 106.821 253.318 109.142 247.794Z" fill="white"/>
<path d="M185.765 151.316C206.947 136.837 231.444 125.861 258.594 118.748C252.626 109.107 245.958 99.7195 238.591 90.5845C236.749 90.4762 234.907 90.3679 233.028 90.3318C176.739 88.7431 127.524 121.456 106.305 169.153C113.599 182.621 121.814 195.186 130.913 206.812C145.759 184.715 164.03 166.192 185.765 151.316Z" fill="white"/>
<path d="M259.736 53.8644C300.663 61.0135 337.722 82.4248 364.062 114.126C364.062 114.126 364.062 114.126 364.062 114.163C369.219 120.373 373.934 126.944 378.097 133.66C383.807 142.904 394.232 147.633 404.51 146.659C408.489 146.261 412.467 145.034 416.114 142.867C429.228 135.104 433.428 118.423 425.508 105.605C420.019 96.723 413.793 88.0574 407.015 79.8612L406.978 79.8251C372.24 38.0497 323.392 9.85033 269.424 0.426485C254.358 -2.2093 239.991 7.64782 237.302 22.3794C234.649 37.147 244.669 51.2286 259.736 53.8644Z" fill="url(#paint0_linear)"/>
<path d="M166.242 62.7713C173.757 59.9189 181.604 57.5358 189.487 55.7305C204.37 52.3365 213.653 37.7494 210.19 23.1261C206.727 8.53904 191.845 -0.52374 176.925 2.83418C166.5 5.25333 156.186 8.35851 146.239 12.1497C146.239 12.1497 146.239 12.1497 146.202 12.1497C95.1816 31.539 52.8178 68.3679 26.9206 115.848C19.7003 129.063 24.8208 145.528 38.3036 152.569C43.3135 155.204 48.7656 156.143 53.9966 155.638C62.9114 154.771 71.2368 149.716 75.7679 141.412C95.4026 105.413 127.562 77.4667 166.242 62.7713Z" fill="url(#paint1_linear)"/>
<path d="M56.1694 238.045C55.9483 235.806 55.8378 233.604 55.6905 231.401C55.2116 223.494 55.3221 215.442 55.9852 207.498C57.2377 192.55 45.8915 179.444 30.6405 178.216C15.3896 176.988 2.01733 188.109 0.76483 203.057C-0.119284 213.528 -0.229799 224.144 0.396449 234.542C0.543802 237.178 0.727992 240.139 1.05954 243.28C6.10636 294.299 28.025 340.732 64.3843 377.597C70.4994 383.771 78.8616 386.515 87.0029 385.757C93.0075 385.179 98.8647 382.688 103.543 378.247C114.521 367.812 114.816 350.625 104.206 339.866C76.5777 311.955 60.0005 276.751 56.1694 238.045Z" fill="url(#paint2_linear)"/>
<path d="M305.416 374.706C286.776 383.625 266.773 389.149 245.996 391.135C225.477 393.085 205.032 391.532 185.25 386.441C177.477 384.455 169.704 381.892 162.189 378.786C148.08 373.009 131.872 379.509 125.941 393.337C120.047 407.166 126.678 423.053 140.787 428.866C150.733 432.947 160.974 436.341 171.252 438.976C197.37 445.656 224.299 447.75 251.338 445.151C278.745 442.551 305.085 435.257 329.692 423.487C343.433 416.915 349.143 400.667 342.438 387.199C335.734 373.732 319.157 368.135 305.416 374.706Z" fill="url(#paint3_linear)"/>
<path d="M455.016 188.977C452.769 174.138 438.66 163.919 423.52 166.158C408.379 168.397 397.954 182.189 400.238 197.029C403.295 217.141 402.669 237.505 398.359 257.508C394.086 277.294 386.424 295.925 375.52 312.859C371.246 319.539 366.421 326.002 361.116 332.104C351.243 343.55 352.68 360.665 364.358 370.377C376.035 380.054 393.497 378.646 403.406 367.2C410.368 359.148 416.741 350.591 422.414 341.781C436.781 319.395 446.912 294.842 452.511 268.773C458.221 242.379 459.068 215.516 455.016 188.977Z" fill="url(#paint4_linear)"/>
<path d="M183.26 56.5283C198.58 56.5283 210.999 44.3556 210.999 29.3399C210.999 14.3242 198.58 2.15161 183.26 2.15161C167.94 2.15161 155.521 14.3242 155.521 29.3399C155.521 44.3556 167.94 56.5283 183.26 56.5283Z" fill="white"/>
<path d="M401.785 146.804C417.105 146.804 429.524 134.632 429.524 119.616C429.524 104.6 417.105 92.4277 401.785 92.4277C386.465 92.4277 374.046 104.6 374.046 119.616C374.046 134.632 386.465 146.804 401.785 146.804Z" fill="white"/>
<path d="M382.297 376.801C397.617 376.801 410.036 364.629 410.036 349.613C410.036 334.597 397.617 322.425 382.297 322.425C366.977 322.425 354.558 334.597 354.558 349.613C354.558 364.629 366.977 376.801 382.297 376.801Z" fill="white"/>
<path d="M151.507 431.069C166.827 431.069 179.246 418.896 179.246 403.881C179.246 388.865 166.827 376.692 151.507 376.692C136.187 376.692 123.768 388.865 123.768 403.881C123.768 418.896 136.187 431.069 151.507 431.069Z" fill="white"/>
<path d="M28.3123 232.522C43.6322 232.522 56.0515 220.349 56.0515 205.333C56.0515 190.318 43.6322 178.145 28.3123 178.145C12.9925 178.145 0.573242 190.318 0.573242 205.333C0.573242 220.349 12.9925 232.522 28.3123 232.522Z" fill="white"/>
</g>
<defs>
<linearGradient id="paint0_linear" x1="252.663" y1="6.39889" x2="422.515" y2="132.43" gradientUnits="userSpaceOnUse">
<stop stop-color="white" stop-opacity="0.62"/>
<stop offset="1" stop-color="#E5E5E5"/>
</linearGradient>
<linearGradient id="paint1_linear" x1="32.4039" y1="148.084" x2="190.917" y2="-0.89751" gradientUnits="userSpaceOnUse">
<stop stop-color="#F2F6F9" stop-opacity="0.4"/>
<stop offset="1" stop-color="#E0E0E0"/>
</linearGradient>
<linearGradient id="paint2_linear" x1="4.8126" y1="193.665" x2="98.3609" y2="378.103" gradientUnits="userSpaceOnUse">
<stop stop-color="#E5E5E5"/>
<stop offset="1" stop-color="white" stop-opacity="0.65"/>
</linearGradient>
<linearGradient id="paint3_linear" x1="123.77" y1="409.109" x2="345.251" y2="409.109" gradientUnits="userSpaceOnUse">
<stop stop-color="#E5E5E5"/>
<stop offset="1" stop-color="white"/>
</linearGradient>
<linearGradient id="paint4_linear" x1="433.876" y1="166.543" x2="391.163" y2="373.542" gradientUnits="userSpaceOnUse">
<stop stop-color="white"/>
<stop offset="1" stop-color="#E5E5E5"/>
</linearGradient>
</defs>
</svg>
