<svg width="140" height="140" viewBox="0 0 140 140" fill="none" xmlns="http://www.w3.org/2000/svg">
<g clip-path="url(#clip0)">
<rect width="140" height="140" rx="8" fill="#F1F6F9"/>
<g filter="url(#filter0_d)">
<path d="M116.877 57.452C115.83 47.7445 107.986 40.0921 98.235 39.409C93.709 29.7132 83.9023 23 72.5333 23C59.5815 23 48.6543 31.7153 45.2518 43.6282C44.26 43.4575 43.239 43.3691 42.2004 43.3691C33.5961 43.3691 26.3873 49.3756 24.4886 57.452C24.1697 58.8123 24 60.2286 24 61.686C24 63.1111 24.1609 64.4979 24.4681 65.8317C24.9713 68.0135 25.8607 70.048 27.0602 71.8559C30.3252 76.7671 35.8868 80 42.2004 80H96.8102C103.422 80 109.294 76.7995 112.974 71.8559C114.317 70.0539 115.368 68.0253 116.058 65.8317C116.669 63.8914 117 61.8244 117 59.678C117 58.9242 116.959 58.1822 116.877 57.452ZM107.302 65.8317C105.634 68.7672 101.851 71.8559 96.8073 71.8559C96.4123 71.8559 42.5427 71.8235 42.2091 71.8235C37.6188 71.8235 32.1099 68.2049 32.1099 61.6713C32.1099 56.7042 35.9347 51.6914 42.1535 51.5309C42.8381 51.5309 43.5696 51.5957 44.2161 51.7252C47.4489 52.376 50.0674 54.5106 51.3985 57.452H46.583C46.0037 56.8367 45.3015 56.345 44.5116 56.0122C43.7861 55.706 42.9961 55.5735 42.1623 55.5735C40.521 55.5735 38.9119 56.3067 37.8031 57.4844C36.7616 58.5856 36.1472 60.0372 36.1472 61.6743C36.1472 63.276 36.7558 64.7423 37.768 65.8258C38.8183 66.9506 40.4274 67.775 42.2091 67.775C43.9908 67.775 45.5414 67.0595 46.6561 65.8347H56.2346C58.5195 65.8347 60.3744 63.9826 60.3978 61.689V61.6448C60.3978 61.6242 60.3978 61.6036 60.3949 61.583C60.4153 55.3527 57.2147 49.7319 52.8467 46.817C54.962 37.8514 62.9782 31.206 72.5333 31.206C79.7304 31.206 86.0497 34.9895 89.6336 40.6839C90.5406 42.1237 91.3861 43.3632 91.9975 44.7824C92.0005 44.7883 92.0824 44.9826 92.1175 45.0739C92.7582 46.4843 94.1742 47.4647 95.8155 47.4647H96.8102C98.1736 47.4647 99.4872 47.6915 100.71 48.1096C104.824 49.514 107.945 53.0767 108.747 57.455C108.878 58.1764 108.949 58.9213 108.949 59.6809C108.949 61.9216 108.334 64.015 107.302 65.8317Z" fill="#0C3255"/>
<path d="M42.2096 64.0627C43.5216 64.0627 44.5852 62.9923 44.5852 61.6718C44.5852 60.3514 43.5216 59.281 42.2096 59.281C40.8976 59.281 39.834 60.3514 39.834 61.6718C39.834 62.9923 40.8976 64.0627 42.2096 64.0627Z" fill="#F1F6F9"/>
</g>
<path d="M12.632 95.592V105H14.792V95.592H17.992V93.544H9.432V95.592H12.632ZM18.6302 93.544V105H20.7262V100.856C20.7262 100.216 20.9023 99.656 21.2543 99.208C21.6062 98.76 22.0703 98.536 22.6302 98.536C23.0943 98.536 23.4623 98.68 23.7502 98.968C24.0382 99.256 24.1823 99.672 24.1823 100.184V105H26.2783V99.928C26.2783 98.888 26.0063 98.072 25.4783 97.48C24.9503 96.888 24.1983 96.584 23.2063 96.584C22.6782 96.584 22.1982 96.712 21.7502 96.936C21.3022 97.176 20.9502 97.48 20.7262 97.864H20.5982L20.7262 96.44V93.544H18.6302ZM31.2792 105.256C32.9752 105.256 34.2393 104.536 35.0712 103.08L33.3752 102.248C33.1673 102.6 32.8952 102.888 32.5433 103.096C32.1912 103.304 31.7912 103.4 31.3112 103.4C30.7352 103.4 30.2392 103.24 29.8232 102.904C29.4072 102.568 29.1512 102.072 29.0552 101.416H35.1833C35.2153 101.192 35.2312 100.968 35.2312 100.712C35.2312 99.944 35.0712 99.256 34.7513 98.616C34.4312 97.992 33.9833 97.496 33.3752 97.128C32.7673 96.776 32.0312 96.584 31.1992 96.584C30.3992 96.584 29.6952 96.792 29.0552 97.176C28.4152 97.576 27.9032 98.104 27.5512 98.776C27.1832 99.448 27.0072 100.168 27.0072 100.936C27.0072 101.768 27.1832 102.504 27.5512 103.16C27.9192 103.816 28.4312 104.328 29.0872 104.696C29.7272 105.08 30.4632 105.256 31.2792 105.256ZM33.2153 99.928H29.1512C29.3112 99.432 29.5672 99.032 29.9192 98.744C30.2712 98.456 30.7032 98.296 31.2153 98.296C31.5992 98.296 31.9513 98.392 32.2392 98.552C32.5272 98.712 32.7673 98.92 32.9272 99.176C33.0872 99.432 33.1832 99.672 33.2153 99.928ZM36.0459 96.84V105H38.1419V100.888C38.1419 100.184 38.2859 99.624 38.6059 99.192C38.9259 98.76 39.3419 98.536 39.8539 98.536C40.3019 98.536 40.6539 98.68 40.9099 98.952C41.1659 99.24 41.2939 99.624 41.2939 100.136V105H43.3899V100.888C43.3899 100.184 43.5499 99.624 43.8699 99.192C44.1899 98.76 44.6379 98.536 45.1819 98.536C45.5979 98.536 45.9339 98.68 46.1739 98.952C46.4139 99.24 46.5419 99.624 46.5419 100.136V105H48.6219V99.752C48.6219 98.792 48.3659 98.024 47.8859 97.448C47.4059 96.872 46.7019 96.584 45.7739 96.584C45.1339 96.584 44.5899 96.728 44.1259 96.984C43.6619 97.256 43.2939 97.608 43.0379 98.024C42.8459 97.608 42.5419 97.272 42.1259 97C41.6939 96.728 41.1979 96.584 40.6219 96.584C40.0779 96.584 39.5979 96.712 39.1659 96.936C38.7339 97.16 38.3979 97.48 38.1419 97.864H38.0139V96.84H36.0459ZM53.648 105.256C55.344 105.256 56.608 104.536 57.44 103.08L55.744 102.248C55.536 102.6 55.264 102.888 54.912 103.096C54.56 103.304 54.16 103.4 53.68 103.4C53.104 103.4 52.608 103.24 52.192 102.904C51.776 102.568 51.52 102.072 51.424 101.416H57.552C57.584 101.192 57.6 100.968 57.6 100.712C57.6 99.944 57.44 99.256 57.12 98.616C56.8 97.992 56.352 97.496 55.744 97.128C55.136 96.776 54.4 96.584 53.568 96.584C52.768 96.584 52.064 96.792 51.424 97.176C50.784 97.576 50.272 98.104 49.92 98.776C49.552 99.448 49.376 100.168 49.376 100.936C49.376 101.768 49.552 102.504 49.92 103.16C50.288 103.816 50.8 104.328 51.456 104.696C52.096 105.08 52.832 105.256 53.648 105.256ZM55.584 99.928H51.52C51.68 99.432 51.936 99.032 52.288 98.744C52.64 98.456 53.072 98.296 53.584 98.296C53.968 98.296 54.32 98.392 54.608 98.552C54.896 98.712 55.136 98.92 55.296 99.176C55.456 99.432 55.552 99.672 55.584 99.928Z" fill="#0C3255"/>
<path d="M61.6526 93.544V105H63.8126V100.424H68.4046V98.376H63.8126V95.592H68.9166V93.544H61.6526ZM69.424 96.84V105H71.52V100.936C71.52 100.264 71.696 99.688 72.064 99.24C72.416 98.792 72.912 98.568 73.536 98.568C73.76 98.568 73.968 98.6 74.16 98.648C74.352 98.696 74.608 98.776 74.896 98.872V96.776C74.576 96.664 74.24 96.6 73.872 96.6C73.36 96.6 72.88 96.728 72.464 96.984C72.032 97.24 71.712 97.544 71.52 97.928H71.392V96.84H69.424ZM78.8717 105.256C79.7037 105.256 80.4397 105.08 81.1117 104.696C81.7677 104.312 82.2797 103.8 82.6477 103.144C83.0157 102.488 83.2077 101.752 83.2077 100.92C83.2077 100.12 83.0157 99.384 82.6477 98.712C82.2797 98.056 81.7677 97.544 81.1117 97.16C80.4397 96.776 79.7037 96.584 78.8717 96.584C78.0237 96.584 77.2717 96.776 76.6157 97.16C75.9437 97.544 75.4317 98.056 75.0637 98.712C74.6957 99.384 74.5197 100.12 74.5197 100.92C74.5197 101.752 74.6957 102.488 75.0637 103.144C75.4317 103.8 75.9437 104.312 76.6157 104.696C77.2717 105.08 78.0237 105.256 78.8717 105.256ZM78.8717 103.32C78.4557 103.32 78.0877 103.224 77.7517 103.032C77.3997 102.84 77.1277 102.568 76.9197 102.2C76.7117 101.832 76.6157 101.4 76.6157 100.92C76.6157 100.44 76.7117 100.024 76.9197 99.656C77.1277 99.304 77.3997 99.016 77.7517 98.824C78.0877 98.632 78.4557 98.536 78.8717 98.536C79.2717 98.536 79.6397 98.632 79.9917 98.824C80.3277 99.016 80.5997 99.304 80.8077 99.656C80.9997 100.024 81.1117 100.44 81.1117 100.92C81.1117 101.416 80.9997 101.848 80.8077 102.2C80.5997 102.568 80.3277 102.84 79.9917 103.032C79.6397 103.224 79.2717 103.32 78.8717 103.32ZM83.8553 96.84V105H85.9513V100.84C85.9513 100.184 86.1113 99.64 86.4633 99.192C86.8153 98.76 87.2633 98.536 87.8393 98.536C88.3193 98.536 88.6873 98.68 88.9593 98.968C89.2153 99.256 89.3593 99.672 89.3593 100.184V105H91.4553V99.928C91.4553 98.904 91.1993 98.088 90.6873 97.48C90.1753 96.888 89.4233 96.584 88.4473 96.584C87.9193 96.584 87.4393 96.712 86.9913 96.936C86.5433 97.16 86.1913 97.48 85.9513 97.864H85.8233V96.84H83.8553ZM95.7791 105.128C96.2911 105.128 96.7711 105.048 97.2351 104.856V102.808C97.0111 102.936 96.8351 103.032 96.7071 103.08C96.5791 103.144 96.4031 103.16 96.2111 103.16C95.8431 103.16 95.5871 103.08 95.4431 102.904C95.2511 102.728 95.1711 102.424 95.1711 102.008V98.632H97.1711V96.84H95.1711V94.536H93.0751V96.84H91.6511V98.632H93.0751V102.392C93.0751 103.288 93.3151 103.96 93.8271 104.44C94.0351 104.664 94.3071 104.824 94.6591 104.952C94.9951 105.08 95.3631 105.128 95.7791 105.128ZM98.0986 99.112V100.968H103.523V99.112H98.0986ZM108.576 105.256C110.272 105.256 111.536 104.536 112.368 103.08L110.672 102.248C110.464 102.6 110.192 102.888 109.84 103.096C109.488 103.304 109.088 103.4 108.608 103.4C108.032 103.4 107.536 103.24 107.12 102.904C106.704 102.568 106.448 102.072 106.352 101.416H112.48C112.512 101.192 112.528 100.968 112.528 100.712C112.528 99.944 112.368 99.256 112.048 98.616C111.728 97.992 111.28 97.496 110.672 97.128C110.064 96.776 109.328 96.584 108.496 96.584C107.696 96.584 106.992 96.792 106.352 97.176C105.712 97.576 105.2 98.104 104.848 98.776C104.48 99.448 104.304 100.168 104.304 100.936C104.304 101.768 104.48 102.504 104.848 103.16C105.216 103.816 105.728 104.328 106.384 104.696C107.024 105.08 107.76 105.256 108.576 105.256ZM110.512 99.928H106.448C106.608 99.432 106.864 99.032 107.216 98.744C107.568 98.456 108 98.296 108.512 98.296C108.896 98.296 109.248 98.392 109.536 98.552C109.824 98.712 110.064 98.92 110.224 99.176C110.384 99.432 110.48 99.672 110.512 99.928ZM113.343 96.84V105H115.439V100.84C115.439 100.184 115.599 99.64 115.951 99.192C116.303 98.76 116.751 98.536 117.327 98.536C117.807 98.536 118.175 98.68 118.447 98.968C118.703 99.256 118.847 99.672 118.847 100.184V105H120.943V99.928C120.943 98.904 120.687 98.088 120.175 97.48C119.663 96.888 118.911 96.584 117.935 96.584C117.407 96.584 116.927 96.712 116.479 96.936C116.031 97.16 115.679 97.48 115.439 97.864H115.311V96.84H113.343ZM125.625 105.256C126.169 105.256 126.665 105.144 127.097 104.904C127.529 104.68 127.849 104.376 128.073 104.024H128.201V105H130.153V93.544H128.073V96.68L128.201 97.832H128.073C127.849 97.48 127.513 97.192 127.097 96.952C126.665 96.712 126.169 96.584 125.625 96.584C124.889 96.584 124.217 96.776 123.609 97.144C123.001 97.512 122.537 98.024 122.185 98.68C121.833 99.352 121.673 100.088 121.673 100.92C121.673 101.768 121.833 102.52 122.185 103.176C122.537 103.832 123.001 104.344 123.609 104.712C124.217 105.08 124.889 105.256 125.625 105.256ZM125.977 103.32C125.593 103.32 125.225 103.224 124.889 103.016C124.537 102.824 124.265 102.536 124.073 102.168C123.865 101.816 123.769 101.4 123.769 100.92C123.769 100.456 123.865 100.04 124.073 99.672C124.265 99.32 124.537 99.032 124.889 98.84C125.225 98.648 125.593 98.536 125.977 98.536C126.361 98.536 126.729 98.648 127.081 98.84C127.417 99.032 127.689 99.32 127.897 99.672C128.089 100.04 128.201 100.456 128.201 100.92C128.201 101.4 128.089 101.816 127.897 102.168C127.689 102.536 127.417 102.824 127.081 103.016C126.729 103.224 126.361 103.32 125.977 103.32Z" fill="#1C73C4"/>
<path d="M10.5 112.118V116.56H12.1495C12.3941 116.56 12.6159 116.511 12.8206 116.412C13.0254 116.312 13.1847 116.163 13.3041 115.977C13.4236 115.791 13.4861 115.574 13.4861 115.326C13.4861 115.078 13.4236 114.86 13.2984 114.68C13.1733 114.501 13.0027 114.37 12.7922 114.283V114.234C12.9515 114.147 13.0823 114.023 13.1847 113.861C13.287 113.7 13.3382 113.502 13.3382 113.278C13.3382 113.067 13.2814 112.875 13.1733 112.695C13.0595 112.521 12.9116 112.378 12.7183 112.273C12.5249 112.174 12.3201 112.118 12.0926 112.118H10.5ZM12.0357 113.93H11.2679V112.869H12.0585C12.2177 112.869 12.3429 112.925 12.4396 113.024C12.5362 113.123 12.5874 113.247 12.5874 113.396C12.5874 113.551 12.5362 113.681 12.4339 113.781C12.3315 113.88 12.2007 113.93 12.0357 113.93ZM12.121 115.797H11.2679V114.649H12.0983C12.2917 114.649 12.4452 114.705 12.5533 114.811C12.6557 114.922 12.7126 115.059 12.7126 115.226C12.7126 115.4 12.6557 115.537 12.5533 115.642C12.4509 115.748 12.303 115.797 12.121 115.797Z" fill="#70AFEB"/>
<path d="M15.4397 116.66C16.0426 116.66 16.4919 116.381 16.7877 115.816L16.1848 115.493C16.1108 115.63 16.0141 115.741 15.889 115.822C15.7639 115.903 15.6217 115.94 15.451 115.94C15.2463 115.94 15.07 115.878 14.9221 115.748C14.7742 115.617 14.6832 115.425 14.6491 115.171H16.8275C16.8389 115.084 16.8446 114.997 16.8446 114.898C16.8446 114.6 16.7877 114.333 16.6739 114.085C16.5602 113.843 16.4009 113.65 16.1848 113.508C15.9686 113.371 15.707 113.297 15.4112 113.297C15.1268 113.297 14.8766 113.377 14.6491 113.526C14.4215 113.681 14.2395 113.886 14.1144 114.147C13.9836 114.407 13.921 114.687 13.921 114.984C13.921 115.307 13.9836 115.593 14.1144 115.847C14.2452 116.101 14.4272 116.3 14.6604 116.443C14.8879 116.592 15.1496 116.66 15.4397 116.66ZM16.1279 114.594H14.6832C14.7401 114.401 14.8311 114.246 14.9562 114.134C15.0813 114.023 15.2349 113.961 15.4169 113.961C15.5534 113.961 15.6786 113.998 15.7809 114.06C15.8833 114.122 15.9686 114.203 16.0255 114.302C16.0824 114.401 16.1165 114.494 16.1279 114.594Z" fill="#70AFEB"/>
<path d="M18.5979 116.61C18.7572 116.61 18.9051 116.585 19.0302 116.529V115.748C18.962 115.785 18.9108 115.816 18.8766 115.828C18.8425 115.841 18.797 115.847 18.7401 115.847C18.615 115.847 18.5297 115.816 18.4785 115.748C18.4102 115.679 18.3818 115.562 18.3818 115.4V114.091H19.4796V115.549C19.4796 115.884 19.5649 116.151 19.7469 116.343C19.8265 116.43 19.9232 116.492 20.0426 116.542C20.1621 116.592 20.2929 116.61 20.4408 116.61C20.6228 116.61 20.7934 116.579 20.9584 116.505V115.71C20.8788 115.76 20.8162 115.797 20.7707 115.816C20.7252 115.841 20.6683 115.847 20.6001 115.847C20.4749 115.847 20.3782 115.816 20.3214 115.748C20.2531 115.673 20.2247 115.562 20.2247 115.4V114.091H20.9356V113.396H20.2247V112.503H19.4796V113.396H18.3818V112.503H17.6367V113.396H17.1305V114.091H17.6367V115.549C17.6367 115.897 17.722 116.157 17.904 116.343C17.978 116.43 18.0747 116.492 18.1998 116.542C18.3192 116.592 18.4501 116.61 18.5979 116.61Z" fill="#70AFEB"/>
<path d="M22.8161 116.66C23.419 116.66 23.8683 116.381 24.1641 115.816L23.5612 115.493C23.4873 115.63 23.3906 115.741 23.2654 115.822C23.1403 115.903 22.9981 115.94 22.8275 115.94C22.6227 115.94 22.4464 115.878 22.2985 115.748C22.1506 115.617 22.0596 115.425 22.0255 115.171H24.2039C24.2153 115.084 24.221 114.997 24.221 114.898C24.221 114.6 24.1641 114.333 24.0504 114.085C23.9366 113.843 23.7773 113.65 23.5612 113.508C23.3451 113.371 23.0834 113.297 22.7877 113.297C22.5033 113.297 22.253 113.377 22.0255 113.526C21.798 113.681 21.616 113.886 21.4908 114.147C21.36 114.407 21.2974 114.687 21.2974 114.984C21.2974 115.307 21.36 115.593 21.4908 115.847C21.6216 116.101 21.8037 116.3 22.0369 116.443C22.2644 116.592 22.526 116.66 22.8161 116.66ZM23.5043 114.594H22.0596C22.1165 114.401 22.2075 114.246 22.3326 114.134C22.4578 114.023 22.6113 113.961 22.7933 113.961C22.9298 113.961 23.055 113.998 23.1574 114.06C23.2597 114.122 23.3451 114.203 23.4019 114.302C23.4588 114.401 23.4929 114.494 23.5043 114.594Z" fill="#70AFEB"/>
<path d="M24.795 113.396V116.56H25.5401V114.984C25.5401 114.724 25.6026 114.501 25.7335 114.327C25.8586 114.153 26.0349 114.066 26.2567 114.066C26.3364 114.066 26.4103 114.079 26.4786 114.097C26.5468 114.116 26.6378 114.147 26.7402 114.184V113.371C26.6265 113.328 26.507 113.303 26.3762 113.303C26.1942 113.303 26.0235 113.353 25.8757 113.452C25.7221 113.551 25.6083 113.669 25.5401 113.818H25.4946V113.396H24.795Z" fill="#70AFEB"/>
<path d="M28.6578 112.118V116.56H31.2401V115.766H29.4256V114.736H31.058V113.942H29.4256V112.912H31.2401V112.118H28.6578Z" fill="#70AFEB"/>
<path d="M31.8715 113.396V116.56H32.6166V114.947C32.6166 114.693 32.6734 114.482 32.7986 114.308C32.9237 114.141 33.083 114.054 33.2877 114.054C33.4584 114.054 33.5892 114.11 33.6859 114.221C33.7769 114.333 33.8281 114.494 33.8281 114.693V116.56H34.5732V114.594C34.5732 114.196 34.4822 113.88 34.3002 113.644C34.1181 113.415 33.8508 113.297 33.5039 113.297C33.3162 113.297 33.1455 113.346 32.9863 113.433C32.827 113.52 32.7019 113.644 32.6166 113.793H32.5711V113.396H31.8715Z" fill="#70AFEB"/>
<path d="M36.3947 116.61C36.5767 116.61 36.7473 116.579 36.9123 116.505V115.71C36.8326 115.76 36.7701 115.797 36.7246 115.816C36.6791 115.841 36.6165 115.847 36.5482 115.847C36.4174 115.847 36.3264 115.816 36.2752 115.748C36.207 115.679 36.1785 115.562 36.1785 115.4V114.091H36.8895V113.396H36.1785V112.503H35.4334V113.396H34.9272V114.091H35.4334V115.549C35.4334 115.897 35.5187 116.157 35.7007 116.343C35.7747 116.43 35.8714 116.492 35.9965 116.542C36.116 116.592 36.2468 116.61 36.3947 116.61Z" fill="#70AFEB"/>
<path d="M38.7687 116.66C39.3716 116.66 39.821 116.381 40.1167 115.816L39.5138 115.493C39.4399 115.63 39.3432 115.741 39.2181 115.822C39.0929 115.903 38.9507 115.94 38.7801 115.94C38.5753 115.94 38.399 115.878 38.2511 115.748C38.1032 115.617 38.0122 115.425 37.9781 115.171H40.1566C40.1679 115.084 40.1736 114.997 40.1736 114.898C40.1736 114.6 40.1167 114.333 40.003 114.085C39.8892 113.843 39.73 113.65 39.5138 113.508C39.2977 113.371 39.036 113.297 38.7403 113.297C38.4559 113.297 38.2056 113.377 37.9781 113.526C37.7506 113.681 37.5686 113.886 37.4435 114.147C37.3126 114.407 37.2501 114.687 37.2501 114.984C37.2501 115.307 37.3126 115.593 37.4435 115.847C37.5743 116.101 37.7563 116.3 37.9895 116.443C38.217 116.592 38.4786 116.66 38.7687 116.66ZM39.4569 114.594H38.0122C38.0691 114.401 38.1601 114.246 38.2852 114.134C38.4104 114.023 38.564 113.961 38.746 113.961C38.8825 113.961 39.0076 113.998 39.11 114.06C39.2124 114.122 39.2977 114.203 39.3546 114.302C39.4114 114.401 39.4456 114.494 39.4569 114.594Z" fill="#70AFEB"/>
<path d="M40.7476 113.396V116.56H41.4927V114.984C41.4927 114.724 41.5553 114.501 41.6861 114.327C41.8112 114.153 41.9875 114.066 42.2094 114.066C42.289 114.066 42.3629 114.079 42.4312 114.097C42.4995 114.116 42.5905 114.147 42.6928 114.184V113.371C42.5791 113.328 42.4596 113.303 42.3288 113.303C42.1468 113.303 41.9762 113.353 41.8283 113.452C41.6747 113.551 41.561 113.669 41.4927 113.818H41.4472V113.396H40.7476Z" fill="#70AFEB"/>
<path d="M43.1522 113.396V117.901H43.8973V116.629L43.8518 116.182H43.8973C43.9712 116.319 44.085 116.436 44.2386 116.523C44.3921 116.616 44.5685 116.66 44.7675 116.66C45.0292 116.66 45.2624 116.592 45.4785 116.449C45.6946 116.306 45.8596 116.108 45.9847 115.853C46.1042 115.599 46.1667 115.307 46.1667 114.978C46.1667 114.656 46.1042 114.37 45.9847 114.11C45.8596 113.855 45.6946 113.657 45.4785 113.514C45.2624 113.371 45.0292 113.297 44.7675 113.297C44.5685 113.297 44.3921 113.346 44.2442 113.44C44.0907 113.533 43.9769 113.644 43.8973 113.781H43.8518V113.396H43.1522ZM44.6367 115.909C44.5002 115.909 44.3694 115.872 44.2499 115.791C44.1248 115.717 44.0281 115.605 43.9599 115.462C43.8859 115.326 43.8518 115.164 43.8518 114.978C43.8518 114.798 43.8859 114.637 43.9599 114.494C44.0281 114.358 44.1248 114.246 44.2499 114.172C44.3694 114.097 44.5002 114.054 44.6367 114.054C44.7732 114.054 44.904 114.097 45.0292 114.172C45.1486 114.246 45.2453 114.358 45.3192 114.494C45.3875 114.637 45.4273 114.798 45.4273 114.978C45.4273 115.164 45.3875 115.326 45.3192 115.462C45.2453 115.605 45.1486 115.717 45.0292 115.791C44.904 115.872 44.7732 115.909 44.6367 115.909Z" fill="#70AFEB"/>
<path d="M46.7132 113.396V116.56H47.4583V114.984C47.4583 114.724 47.5208 114.501 47.6517 114.327C47.7768 114.153 47.9531 114.066 48.1749 114.066C48.2546 114.066 48.3285 114.079 48.3968 114.097C48.465 114.116 48.556 114.147 48.6584 114.184V113.371C48.5447 113.328 48.4252 113.303 48.2944 113.303C48.1124 113.303 47.9417 113.353 47.7939 113.452C47.6403 113.551 47.5265 113.669 47.4583 113.818H47.4128V113.396H46.7132Z" fill="#70AFEB"/>
<path d="M49.5614 113.049C49.6922 113.049 49.806 112.999 49.897 112.893C49.988 112.794 50.0392 112.67 50.0392 112.521C50.0392 112.378 49.988 112.254 49.897 112.155C49.806 112.056 49.6922 112 49.5614 112C49.4249 112 49.3111 112.056 49.2201 112.155C49.1234 112.254 49.0779 112.378 49.0779 112.521C49.0779 112.67 49.1234 112.794 49.2201 112.893C49.3111 112.999 49.4249 113.049 49.5614 113.049ZM49.186 113.396V116.56H49.9311V113.396H49.186Z" fill="#70AFEB"/>
<path d="M51.8103 116.66C52.0378 116.66 52.2426 116.616 52.4303 116.529C52.618 116.443 52.7659 116.325 52.8739 116.17C52.982 116.014 53.0389 115.835 53.0389 115.63C53.0389 115.394 52.965 115.195 52.8171 115.034C52.6692 114.873 52.453 114.755 52.1687 114.674L51.7421 114.563C51.4804 114.488 51.3553 114.376 51.3553 114.228C51.3553 114.153 51.3894 114.085 51.4691 114.035C51.543 113.986 51.6454 113.954 51.7762 113.954C52.0265 113.954 52.2085 114.066 52.3222 114.29L52.9593 113.986C52.7545 113.526 52.3564 113.297 51.7591 113.297C51.5487 113.297 51.3553 113.34 51.1847 113.415C51.014 113.495 50.8775 113.607 50.7751 113.75C50.6728 113.899 50.6273 114.06 50.6273 114.24C50.6273 114.488 50.7012 114.693 50.8605 114.854C51.014 115.016 51.2074 115.127 51.4463 115.189L51.7876 115.27C51.9525 115.313 52.0776 115.363 52.163 115.413C52.2426 115.462 52.2881 115.543 52.2881 115.642C52.2881 115.754 52.2426 115.828 52.1516 115.878C52.0606 115.928 51.9468 115.946 51.8103 115.946C51.6624 115.946 51.5316 115.909 51.4179 115.835C51.3041 115.76 51.2188 115.642 51.1619 115.493L50.4964 115.81C50.5817 116.064 50.7353 116.269 50.9515 116.424C51.1676 116.585 51.4577 116.66 51.8103 116.66Z" fill="#70AFEB"/>
<path d="M54.9657 116.66C55.5687 116.66 56.018 116.381 56.3138 115.816L55.7108 115.493C55.6369 115.63 55.5402 115.741 55.4151 115.822C55.2899 115.903 55.1478 115.94 54.9771 115.94C54.7724 115.94 54.596 115.878 54.4481 115.748C54.3003 115.617 54.2093 115.425 54.1751 115.171H56.3536C56.365 115.084 56.3706 114.997 56.3706 114.898C56.3706 114.6 56.3138 114.333 56.2 114.085C56.0862 113.843 55.927 113.65 55.7108 113.508C55.4947 113.371 55.2331 113.297 54.9373 113.297C54.6529 113.297 54.4026 113.377 54.1751 113.526C53.9476 113.681 53.7656 113.886 53.6405 114.147C53.5097 114.407 53.4471 114.687 53.4471 114.984C53.4471 115.307 53.5097 115.593 53.6405 115.847C53.7713 116.101 53.9533 116.3 54.1865 116.443C54.414 116.592 54.6757 116.66 54.9657 116.66ZM55.654 114.594H54.2093C54.2661 114.401 54.3571 114.246 54.4823 114.134C54.6074 114.023 54.761 113.961 54.943 113.961C55.0795 113.961 55.2046 113.998 55.307 114.06C55.4094 114.122 55.4947 114.203 55.5516 114.302C55.6085 114.401 55.6426 114.494 55.654 114.594Z" fill="#70AFEB"/>
<path d="M58.3801 112.118V116.56H59.1366V114.37L59.0911 113.632H59.1366L60.1775 116.56H60.7747L61.8099 113.632H61.8554L61.8099 114.37V116.56H62.572V112.118H61.5767L60.496 115.239H60.4505L59.3698 112.118H58.3801Z" fill="#70AFEB"/>
<path d="M64.203 116.66C64.385 116.66 64.5499 116.623 64.6921 116.542C64.8343 116.467 64.9481 116.362 65.0391 116.238H65.0846V116.56H65.8183V114.612C65.8183 114.184 65.6989 113.855 65.4714 113.632C65.2382 113.408 64.9026 113.297 64.4589 113.297C64.2087 113.297 63.9755 113.353 63.765 113.458C63.5489 113.57 63.3726 113.719 63.236 113.917L63.7138 114.327C63.7935 114.215 63.9015 114.128 64.0267 114.06C64.1518 113.992 64.2883 113.954 64.4248 113.954C64.6239 113.954 64.7831 114.01 64.9026 114.116C65.022 114.228 65.0846 114.364 65.0846 114.538V114.674C64.8685 114.581 64.6125 114.532 64.3167 114.532C64.1006 114.532 63.9015 114.575 63.7252 114.662C63.5432 114.749 63.4067 114.873 63.3043 115.034C63.2019 115.195 63.1507 115.382 63.1507 115.593C63.1507 115.915 63.2474 116.17 63.4465 116.368C63.6399 116.567 63.8958 116.66 64.203 116.66ZM64.3793 116.027C64.22 116.027 64.1006 115.99 64.021 115.909C63.9357 115.828 63.8958 115.723 63.8958 115.593C63.8958 115.282 64.0892 115.121 64.476 115.121C64.6864 115.121 64.8912 115.171 65.0846 115.27C65.0846 115.475 65.0163 115.655 64.8912 115.804C64.7661 115.952 64.5954 116.027 64.3793 116.027Z" fill="#70AFEB"/>
<path d="M66.504 113.396V116.56H67.2491V114.947C67.2491 114.693 67.306 114.482 67.4311 114.308C67.5562 114.141 67.7155 114.054 67.9203 114.054C68.0909 114.054 68.2217 114.11 68.3184 114.221C68.4094 114.333 68.4606 114.494 68.4606 114.693V116.56H69.2057V114.594C69.2057 114.196 69.1147 113.88 68.9327 113.644C68.7507 113.415 68.4833 113.297 68.1364 113.297C67.9487 113.297 67.7781 113.346 67.6188 113.433C67.4595 113.52 67.3344 113.644 67.2491 113.793H67.2036V113.396H66.504Z" fill="#70AFEB"/>
<path d="M70.7684 116.66C70.9504 116.66 71.1154 116.623 71.2576 116.542C71.3998 116.467 71.5135 116.362 71.6046 116.238H71.6501V116.56H72.3838V114.612C72.3838 114.184 72.2643 113.855 72.0368 113.632C71.8036 113.408 71.468 113.297 71.0244 113.297C70.7741 113.297 70.5409 113.353 70.3305 113.458C70.1143 113.57 69.938 113.719 69.8015 113.917L70.2793 114.327C70.3589 114.215 70.467 114.128 70.5921 114.06C70.7172 113.992 70.8538 113.954 70.9903 113.954C71.1893 113.954 71.3486 114.01 71.468 114.116C71.5875 114.228 71.6501 114.364 71.6501 114.538V114.674C71.4339 114.581 71.178 114.532 70.8822 114.532C70.6661 114.532 70.467 114.575 70.2907 114.662C70.1086 114.749 69.9721 114.873 69.8698 115.034C69.7674 115.195 69.7162 115.382 69.7162 115.593C69.7162 115.915 69.8129 116.17 70.012 116.368C70.2053 116.567 70.4613 116.66 70.7684 116.66ZM70.9448 116.027C70.7855 116.027 70.6661 115.99 70.5864 115.909C70.5011 115.828 70.4613 115.723 70.4613 115.593C70.4613 115.282 70.6547 115.121 71.0415 115.121C71.2519 115.121 71.4567 115.171 71.6501 115.27C71.6501 115.475 71.5818 115.655 71.4567 115.804C71.3315 115.952 71.1609 116.027 70.9448 116.027Z" fill="#70AFEB"/>
<path d="M74.4061 118C74.7019 118 74.9635 117.938 75.191 117.801C75.4128 117.665 75.5835 117.473 75.7086 117.224C75.828 116.976 75.8906 116.685 75.8906 116.343V113.396H75.1739V113.731H75.1284C75.0374 113.595 74.918 113.483 74.7701 113.408C74.6222 113.334 74.4516 113.297 74.2639 113.297C74.025 113.297 73.7975 113.365 73.5927 113.502C73.388 113.638 73.223 113.824 73.0979 114.072C72.9727 114.321 72.9102 114.606 72.9102 114.929C72.9102 115.257 72.9727 115.543 73.0979 115.791C73.223 116.039 73.388 116.225 73.5927 116.362C73.7975 116.498 74.025 116.56 74.2639 116.56C74.4516 116.56 74.6222 116.523 74.7701 116.449C74.918 116.374 75.0374 116.269 75.1284 116.126H75.1739V116.374C75.1739 116.666 75.1 116.889 74.9635 117.044C74.827 117.206 74.6393 117.28 74.4061 117.28C74.2468 117.28 74.1046 117.237 73.9795 117.144C73.8544 117.057 73.7577 116.933 73.7008 116.771L73.0012 117.082C73.0808 117.336 73.2458 117.553 73.4903 117.733C73.7292 117.913 74.0364 118 74.4061 118ZM74.4175 115.822C74.2013 115.822 74.025 115.748 73.8771 115.586C73.7292 115.431 73.6553 115.214 73.6553 114.929C73.6553 114.649 73.7292 114.432 73.8771 114.271C74.025 114.116 74.2013 114.035 74.4175 114.035C74.6279 114.035 74.8042 114.116 74.9521 114.271C75.1 114.426 75.1739 114.643 75.1739 114.929C75.1739 115.208 75.1 115.425 74.9521 115.586C74.8042 115.748 74.6222 115.822 74.4175 115.822Z" fill="#70AFEB"/>
<path d="M77.9504 116.66C78.5533 116.66 79.0027 116.381 79.2984 115.816L78.6955 115.493C78.6216 115.63 78.5249 115.741 78.3997 115.822C78.2746 115.903 78.1324 115.94 77.9618 115.94C77.757 115.94 77.5807 115.878 77.4328 115.748C77.2849 115.617 77.1939 115.425 77.1598 115.171H79.3382C79.3496 115.084 79.3553 114.997 79.3553 114.898C79.3553 114.6 79.2984 114.333 79.1847 114.085C79.0709 113.843 78.9117 113.65 78.6955 113.508C78.4794 113.371 78.2177 113.297 77.922 113.297C77.6376 113.297 77.3873 113.377 77.1598 113.526C76.9323 113.681 76.7503 113.886 76.6251 114.147C76.4943 114.407 76.4317 114.687 76.4317 114.984C76.4317 115.307 76.4943 115.593 76.6251 115.847C76.756 116.101 76.938 116.3 77.1712 116.443C77.3987 116.592 77.6603 116.66 77.9504 116.66ZM78.6386 114.594H77.1939C77.2508 114.401 77.3418 114.246 77.4669 114.134C77.5921 114.023 77.7456 113.961 77.9277 113.961C78.0642 113.961 78.1893 113.998 78.2917 114.06C78.3941 114.122 78.4794 114.203 78.5363 114.302C78.5931 114.401 78.6273 114.494 78.6386 114.594Z" fill="#70AFEB"/>
<path d="M79.9293 113.396V116.56H80.6744V114.966C80.6744 114.693 80.7256 114.476 80.8393 114.308C80.9531 114.141 81.101 114.054 81.283 114.054C81.4423 114.054 81.5674 114.11 81.6584 114.215C81.7494 114.327 81.7949 114.476 81.7949 114.674V116.56H82.54V114.966C82.54 114.693 82.5969 114.476 82.7106 114.308C82.8244 114.141 82.9837 114.054 83.177 114.054C83.3249 114.054 83.4444 114.11 83.5297 114.215C83.615 114.327 83.6605 114.476 83.6605 114.674V116.56H84.3999V114.525C84.3999 114.153 84.3089 113.855 84.1383 113.632C83.9677 113.408 83.7174 113.297 83.3875 113.297C83.16 113.297 82.9666 113.353 82.8016 113.452C82.6367 113.557 82.5059 113.694 82.4149 113.855C82.3466 113.694 82.2386 113.564 82.0907 113.458C81.9371 113.353 81.7608 113.297 81.556 113.297C81.3626 113.297 81.192 113.346 81.0384 113.433C80.8848 113.52 80.7654 113.644 80.6744 113.793H80.6289V113.396H79.9293Z" fill="#70AFEB"/>
<path d="M86.4711 116.66C87.074 116.66 87.5233 116.381 87.8191 115.816L87.2162 115.493C87.1422 115.63 87.0455 115.741 86.9204 115.822C86.7953 115.903 86.6531 115.94 86.4824 115.94C86.2777 115.94 86.1014 115.878 85.9535 115.748C85.8056 115.617 85.7146 115.425 85.6804 115.171H87.8589C87.8703 115.084 87.876 114.997 87.876 114.898C87.876 114.6 87.8191 114.333 87.7053 114.085C87.5916 113.843 87.4323 113.65 87.2162 113.508C87 113.371 86.7384 113.297 86.4426 113.297C86.1582 113.297 85.908 113.377 85.6804 113.526C85.4529 113.681 85.2709 113.886 85.1458 114.147C85.015 114.407 84.9524 114.687 84.9524 114.984C84.9524 115.307 85.015 115.593 85.1458 115.847C85.2766 116.101 85.4586 116.3 85.6918 116.443C85.9193 116.592 86.181 116.66 86.4711 116.66ZM87.1593 114.594H85.7146C85.7715 114.401 85.8625 114.246 85.9876 114.134C86.1127 114.023 86.2663 113.961 86.4483 113.961C86.5848 113.961 86.71 113.998 86.8123 114.06C86.9147 114.122 87 114.203 87.0569 114.302C87.1138 114.401 87.1479 114.494 87.1593 114.594Z" fill="#70AFEB"/>
<path d="M88.4499 113.396V116.56H89.1951V114.947C89.1951 114.693 89.2519 114.482 89.3771 114.308C89.5022 114.141 89.6615 114.054 89.8662 114.054C90.0369 114.054 90.1677 114.11 90.2644 114.221C90.3554 114.333 90.4066 114.494 90.4066 114.693V116.56H91.1517V114.594C91.1517 114.196 91.0607 113.88 90.8787 113.644C90.6966 113.415 90.4293 113.297 90.0824 113.297C89.8947 113.297 89.724 113.346 89.5648 113.433C89.4055 113.52 89.2804 113.644 89.1951 113.793H89.1496V113.396H88.4499Z" fill="#70AFEB"/>
<path d="M92.9732 116.61C93.1552 116.61 93.3258 116.579 93.4908 116.505V115.71C93.4111 115.76 93.3486 115.797 93.3031 115.816C93.2576 115.841 93.195 115.847 93.1267 115.847C92.9959 115.847 92.9049 115.816 92.8537 115.748C92.7855 115.679 92.757 115.562 92.757 115.4V114.091H93.468V113.396H92.757V112.503H92.0119V113.396H91.5057V114.091H92.0119V115.549C92.0119 115.897 92.0972 116.157 92.2792 116.343C92.3532 116.43 92.4499 116.492 92.575 116.542C92.6945 116.592 92.8253 116.61 92.9732 116.61Z" fill="#70AFEB"/>
<path d="M97.4458 116.66C97.8439 116.66 98.2022 116.56 98.5265 116.356C98.8507 116.151 99.1066 115.872 99.2943 115.512C99.4763 115.158 99.573 114.767 99.573 114.339C99.573 113.917 99.4763 113.526 99.2943 113.166C99.1066 112.813 98.8507 112.534 98.5265 112.329C98.2022 112.124 97.8439 112.019 97.4458 112.019C97.0476 112.019 96.6836 112.124 96.3594 112.329C96.0352 112.534 95.7792 112.813 95.5972 113.166C95.4095 113.526 95.3185 113.917 95.3185 114.339C95.3185 114.767 95.4095 115.158 95.5972 115.512C95.7792 115.872 96.0352 116.151 96.3594 116.356C96.6836 116.56 97.0476 116.66 97.4458 116.66ZM97.4458 115.866C97.1955 115.866 96.9623 115.804 96.7575 115.673C96.5528 115.549 96.3878 115.369 96.2684 115.133C96.1489 114.904 96.092 114.637 96.092 114.339C96.092 114.041 96.1489 113.781 96.2684 113.545C96.3878 113.315 96.5528 113.135 96.7575 113.005C96.9623 112.881 97.1955 112.813 97.4458 112.813C97.696 112.813 97.9235 112.881 98.134 113.005C98.3388 113.135 98.5037 113.315 98.6231 113.545C98.7426 113.781 98.8052 114.041 98.8052 114.339C98.8052 114.637 98.7426 114.904 98.6231 115.133C98.5037 115.369 98.3388 115.549 98.134 115.673C97.9235 115.804 97.696 115.866 97.4458 115.866Z" fill="#70AFEB"/>
<path d="M100.175 113.396V117.901H100.92V116.629L100.875 116.182H100.92C100.994 116.319 101.108 116.436 101.261 116.523C101.415 116.616 101.591 116.66 101.79 116.66C102.052 116.66 102.285 116.592 102.501 116.449C102.718 116.306 102.882 116.108 103.008 115.853C103.127 115.599 103.19 115.307 103.19 114.978C103.19 114.656 103.127 114.37 103.008 114.11C102.882 113.855 102.718 113.657 102.501 113.514C102.285 113.371 102.052 113.297 101.79 113.297C101.591 113.297 101.415 113.346 101.267 113.44C101.114 113.533 101 113.644 100.92 113.781H100.875V113.396H100.175ZM101.66 115.909C101.523 115.909 101.392 115.872 101.273 115.791C101.148 115.717 101.051 115.605 100.983 115.462C100.909 115.326 100.875 115.164 100.875 114.978C100.875 114.798 100.909 114.637 100.983 114.494C101.051 114.358 101.148 114.246 101.273 114.172C101.392 114.097 101.523 114.054 101.66 114.054C101.796 114.054 101.927 114.097 102.052 114.172C102.171 114.246 102.268 114.358 102.342 114.494C102.41 114.637 102.45 114.798 102.45 114.978C102.45 115.164 102.41 115.326 102.342 115.462C102.268 115.605 102.171 115.717 102.052 115.791C101.927 115.872 101.796 115.909 101.66 115.909Z" fill="#70AFEB"/>
<path d="M104.915 116.61C105.097 116.61 105.268 116.579 105.433 116.505V115.71C105.353 115.76 105.291 115.797 105.245 115.816C105.2 115.841 105.137 115.847 105.069 115.847C104.938 115.847 104.847 115.816 104.796 115.748C104.728 115.679 104.699 115.562 104.699 115.4V114.091H105.41V113.396H104.699V112.503H103.954V113.396H103.448V114.091H103.954V115.549C103.954 115.897 104.039 116.157 104.221 116.343C104.295 116.43 104.392 116.492 104.517 116.542C104.637 116.592 104.768 116.61 104.915 116.61Z" fill="#70AFEB"/>
<path d="M106.479 113.049C106.61 113.049 106.723 112.999 106.814 112.893C106.905 112.794 106.956 112.67 106.956 112.521C106.956 112.378 106.905 112.254 106.814 112.155C106.723 112.056 106.61 112 106.479 112C106.342 112 106.228 112.056 106.137 112.155C106.041 112.254 105.995 112.378 105.995 112.521C105.995 112.67 106.041 112.794 106.137 112.893C106.228 112.999 106.342 113.049 106.479 113.049ZM106.103 113.396V116.56H106.848V113.396H106.103Z" fill="#70AFEB"/>
<path d="M107.624 113.396V116.56H108.369V114.966C108.369 114.693 108.421 114.476 108.534 114.308C108.648 114.141 108.796 114.054 108.978 114.054C109.137 114.054 109.262 114.11 109.353 114.215C109.444 114.327 109.49 114.476 109.49 114.674V116.56H110.235V114.966C110.235 114.693 110.292 114.476 110.406 114.308C110.519 114.141 110.679 114.054 110.872 114.054C111.02 114.054 111.139 114.11 111.225 114.215C111.31 114.327 111.355 114.476 111.355 114.674V116.56H112.095V114.525C112.095 114.153 112.004 113.855 111.833 113.632C111.663 113.408 111.412 113.297 111.082 113.297C110.855 113.297 110.662 113.353 110.497 113.452C110.332 113.557 110.201 113.694 110.11 113.855C110.042 113.694 109.933 113.564 109.786 113.458C109.632 113.353 109.456 113.297 109.251 113.297C109.058 113.297 108.887 113.346 108.733 113.433C108.58 113.52 108.46 113.644 108.369 113.793H108.324V113.396H107.624Z" fill="#70AFEB"/>
<path d="M113.227 113.049C113.358 113.049 113.472 112.999 113.563 112.893C113.654 112.794 113.705 112.67 113.705 112.521C113.705 112.378 113.654 112.254 113.563 112.155C113.472 112.056 113.358 112 113.227 112C113.091 112 112.977 112.056 112.886 112.155C112.79 112.254 112.744 112.378 112.744 112.521C112.744 112.67 112.79 112.794 112.886 112.893C112.977 112.999 113.091 113.049 113.227 113.049ZM112.852 113.396V116.56H113.597V113.396H112.852Z" fill="#70AFEB"/>
<path d="M114.225 115.897V116.56H116.699V115.872H115.141L116.654 114.06V113.396H114.271V114.085H115.738L114.225 115.897Z" fill="#70AFEB"/>
<path d="M118.11 116.66C118.292 116.66 118.457 116.623 118.599 116.542C118.741 116.467 118.855 116.362 118.946 116.238H118.991V116.56H119.725V114.612C119.725 114.184 119.606 113.855 119.378 113.632C119.145 113.408 118.809 113.297 118.366 113.297C118.115 113.297 117.882 113.353 117.672 113.458C117.456 113.57 117.279 113.719 117.143 113.917L117.621 114.327C117.7 114.215 117.808 114.128 117.933 114.06C118.059 113.992 118.195 113.954 118.332 113.954C118.531 113.954 118.69 114.01 118.809 114.116C118.929 114.228 118.991 114.364 118.991 114.538V114.674C118.775 114.581 118.519 114.532 118.224 114.532C118.007 114.532 117.808 114.575 117.632 114.662C117.45 114.749 117.313 114.873 117.211 115.034C117.109 115.195 117.057 115.382 117.057 115.593C117.057 115.915 117.154 116.17 117.353 116.368C117.547 116.567 117.803 116.66 118.11 116.66ZM118.286 116.027C118.127 116.027 118.007 115.99 117.928 115.909C117.842 115.828 117.803 115.723 117.803 115.593C117.803 115.282 117.996 115.121 118.383 115.121C118.593 115.121 118.798 115.171 118.991 115.27C118.991 115.475 118.923 115.655 118.798 115.804C118.673 115.952 118.502 116.027 118.286 116.027Z" fill="#70AFEB"/>
<path d="M121.673 116.61C121.855 116.61 122.026 116.579 122.191 116.505V115.71C122.111 115.76 122.049 115.797 122.003 115.816C121.958 115.841 121.895 115.847 121.827 115.847C121.696 115.847 121.605 115.816 121.554 115.748C121.486 115.679 121.457 115.562 121.457 115.4V114.091H122.168V113.396H121.457V112.503H120.712V113.396H120.206V114.091H120.712V115.549C120.712 115.897 120.798 116.157 120.98 116.343C121.053 116.43 121.15 116.492 121.275 116.542C121.395 116.592 121.526 116.61 121.673 116.61Z" fill="#70AFEB"/>
<path d="M123.237 113.049C123.368 113.049 123.481 112.999 123.572 112.893C123.663 112.794 123.715 112.67 123.715 112.521C123.715 112.378 123.663 112.254 123.572 112.155C123.481 112.056 123.368 112 123.237 112C123.1 112 122.986 112.056 122.895 112.155C122.799 112.254 122.753 112.378 122.753 112.521C122.753 112.67 122.799 112.794 122.895 112.893C122.986 112.999 123.1 113.049 123.237 113.049ZM122.861 113.396V116.56H123.606V113.396H122.861Z" fill="#70AFEB"/>
<path d="M125.742 116.66C126.038 116.66 126.3 116.592 126.539 116.443C126.772 116.294 126.954 116.095 127.085 115.841C127.215 115.586 127.284 115.301 127.284 114.978C127.284 114.668 127.215 114.383 127.085 114.122C126.954 113.868 126.772 113.669 126.539 113.52C126.3 113.371 126.038 113.297 125.742 113.297C125.441 113.297 125.174 113.371 124.94 113.52C124.701 113.669 124.519 113.868 124.389 114.122C124.258 114.383 124.195 114.668 124.195 114.978C124.195 115.301 124.258 115.586 124.389 115.841C124.519 116.095 124.701 116.294 124.94 116.443C125.174 116.592 125.441 116.66 125.742 116.66ZM125.742 115.909C125.594 115.909 125.464 115.872 125.344 115.797C125.219 115.723 125.122 115.617 125.048 115.475C124.974 115.332 124.94 115.164 124.94 114.978C124.94 114.792 124.974 114.631 125.048 114.488C125.122 114.352 125.219 114.24 125.344 114.165C125.464 114.091 125.594 114.054 125.742 114.054C125.884 114.054 126.015 114.091 126.14 114.165C126.26 114.24 126.357 114.352 126.431 114.488C126.499 114.631 126.539 114.792 126.539 114.978C126.539 115.171 126.499 115.338 126.431 115.475C126.357 115.617 126.26 115.723 126.14 115.797C126.015 115.872 125.884 115.909 125.742 115.909Z" fill="#70AFEB"/>
<path d="M127.798 113.396V116.56H128.543V114.947C128.543 114.693 128.6 114.482 128.725 114.308C128.851 114.141 129.01 114.054 129.215 114.054C129.385 114.054 129.516 114.11 129.613 114.221C129.704 114.333 129.755 114.494 129.755 114.693V116.56H130.5V114.594C130.5 114.196 130.409 113.88 130.227 113.644C130.045 113.415 129.778 113.297 129.431 113.297C129.243 113.297 129.072 113.346 128.913 113.433C128.754 113.52 128.629 113.644 128.543 113.793H128.498V113.396H127.798Z" fill="#70AFEB"/>
<g opacity="0.15">
<path d="M147.873 27.2L-7.99999 65.4147L-8 143L147.873 143L147.873 27.2Z" fill="url(#paint0_linear)" fill-opacity="0.32"/>
<path d="M-7.99999 -4.24577L147.873 143L-8 143L-7.99999 -4.24577Z" fill="url(#paint1_linear)" fill-opacity="0.43"/>
<path d="M-7.99999 -4.24577L147.873 4.83946L147.873 143L69.9332 143L-7.99999 -4.24577Z" fill="url(#paint2_linear)" fill-opacity="0.42"/>
<path d="M-7.99999 65.4147L147.767 117.231L147.873 143L-8 143L-7.99999 65.4147Z" fill="url(#paint3_linear)" fill-opacity="0.45"/>
<path d="M-8 143L147.873 143L147.873 65.0279L-8 143Z" fill="url(#paint4_linear)"/>
<path d="M-8 116.986L147.873 91.4627L147.873 143L-8 143L-8 116.986Z" fill="url(#paint5_linear)"/>
<path d="M147.873 143L-7.99999 65.4147L-8 143L147.873 143Z" fill="url(#paint6_linear)" fill-opacity="0.23"/>
<path d="M49.9639 143L147.872 4.83938L147.872 143L49.9639 143Z" fill="url(#paint7_linear)" fill-opacity="0.36"/>
</g>
</g>
<defs>
<filter id="filter0_d" x="18" y="20" width="105" height="69" filterUnits="userSpaceOnUse" color-interpolation-filters="sRGB">
<feFlood flood-opacity="0" result="BackgroundImageFix"/>
<feColorMatrix in="SourceAlpha" type="matrix" values="0 0 0 0 0 0 0 0 0 0 0 0 0 0 0 0 0 0 127 0"/>
<feOffset dy="3"/>
<feGaussianBlur stdDeviation="3"/>
<feColorMatrix type="matrix" values="0 0 0 0 0.0470588 0 0 0 0 0.196078 0 0 0 0 0.333333 0 0 0 0.25 0"/>
<feBlend mode="normal" in2="BackgroundImageFix" result="effect1_dropShadow"/>
<feBlend mode="normal" in="SourceGraphic" in2="effect1_dropShadow" result="shape"/>
</filter>
<linearGradient id="paint0_linear" x1="14.7919" y1="54.0387" x2="127.714" y2="185.831" gradientUnits="userSpaceOnUse">
<stop stop-color="#1FBEF2"/>
<stop offset="1" stop-color="#0047B4"/>
</linearGradient>
<linearGradient id="paint1_linear" x1="-52.21" y1="44.4734" x2="97.9699" y2="219.749" gradientUnits="userSpaceOnUse">
<stop stop-color="#007FD3" stop-opacity="0.3"/>
<stop offset="0.2738" stop-color="#0E71C5" stop-opacity="0.4917"/>
<stop offset="0.7934" stop-color="#344CA2" stop-opacity="0.8554"/>
<stop offset="1" stop-color="#453C92"/>
</linearGradient>
<linearGradient id="paint2_linear" x1="81.7516" y1="-7.15422" x2="71.8624" y2="125.55" gradientUnits="userSpaceOnUse">
<stop stop-color="#3E87E2" stop-opacity="0"/>
<stop offset="0.3834" stop-color="#2971D2" stop-opacity="0.3834"/>
<stop offset="1" stop-color="#0047B4"/>
</linearGradient>
<linearGradient id="paint3_linear" x1="-16.9271" y1="81.2162" x2="95.995" y2="213.008" gradientUnits="userSpaceOnUse">
<stop stop-color="#007FD3"/>
<stop offset="0.00613207" stop-color="#017ED2"/>
<stop offset="0.2651" stop-color="#1E61B6"/>
<stop offset="0.5203" stop-color="#344DA2"/>
<stop offset="0.7681" stop-color="#414096"/>
<stop offset="1" stop-color="#453C92"/>
</linearGradient>
<linearGradient id="paint4_linear" x1="69.9351" y1="65.0283" x2="69.9351" y2="143" gradientUnits="userSpaceOnUse">
<stop stop-color="#3E87E2"/>
<stop offset="1" stop-color="#0047B4"/>
</linearGradient>
<linearGradient id="paint5_linear" x1="-26.3006" y1="169.975" x2="124.618" y2="40.059" gradientUnits="userSpaceOnUse">
<stop stop-color="#1FBEF2"/>
<stop offset="1" stop-color="#0047B4"/>
</linearGradient>
<linearGradient id="paint6_linear" x1="-25.9796" y1="88.9726" x2="86.9424" y2="220.765" gradientUnits="userSpaceOnUse">
<stop stop-color="#007FD3"/>
<stop offset="0.1094" stop-color="#126EC2"/>
<stop offset="0.2903" stop-color="#2858AD"/>
<stop offset="0.4864" stop-color="#38489E"/>
<stop offset="0.7064" stop-color="#423F95"/>
<stop offset="1" stop-color="#453C92"/>
</linearGradient>
<linearGradient id="paint7_linear" x1="83.5643" y1="65.2708" x2="157.457" y2="151.511" gradientUnits="userSpaceOnUse">
<stop stop-color="#3C436E" stop-opacity="0"/>
<stop offset="0.1959" stop-color="#2F365A" stop-opacity="0.1959"/>
<stop offset="0.4889" stop-color="#202643" stop-opacity="0.4889"/>
<stop offset="0.7637" stop-color="#171C35" stop-opacity="0.7637"/>
<stop offset="1" stop-color="#141930"/>
</linearGradient>
<clipPath id="clip0">
<rect width="140" height="140" rx="8" fill="white"/>
</clipPath>
</defs>
</svg>
