<svg width="417" height="86" viewBox="0 0 417 86" fill="none" xmlns="http://www.w3.org/2000/svg">
<path d="M139.815 51.9803C138.238 37.3338 126.431 25.788 111.752 24.7574C104.938 10.1286 90.1755 0 73.0609 0C53.5636 0 37.114 13.1494 31.9919 31.1233C30.4989 30.8656 28.9619 30.7324 27.3984 30.7324C14.4457 30.7324 3.59381 39.7948 0.735498 51.9803C0.255442 54.0326 0 56.1694 0 58.3684C0 60.5185 0.24223 62.6109 0.704668 64.6233C1.46219 67.9151 2.80106 70.9848 4.60677 73.7124C9.52183 81.1223 17.8942 86 27.3984 86H109.607C119.56 86 128.399 81.1711 133.94 73.7124C135.961 70.9936 137.542 67.9328 138.582 64.6233C139.502 61.6958 140 58.5772 140 55.3387C140 54.2015 139.938 53.082 139.815 51.9803ZM125.4 64.6233C122.89 69.0523 117.195 73.7124 109.602 73.7124C109.008 73.7124 27.9137 73.6635 27.4116 73.6635C20.5014 73.6635 12.2084 68.2038 12.2084 58.3462C12.2084 50.8519 17.9663 43.2887 27.3279 43.0466C28.3585 43.0466 29.4595 43.1444 30.4329 43.3398C35.2995 44.3216 39.2412 47.5423 41.2451 51.9803H33.9958C33.1238 51.0518 32.0668 50.3099 30.8777 49.8079C29.7855 49.3459 28.5963 49.146 27.3411 49.146C24.8704 49.146 22.4481 50.2522 20.7789 52.0291C19.211 53.6906 18.2861 55.8807 18.2861 58.3506C18.2861 60.7673 19.2022 62.9796 20.7261 64.6144C22.3072 66.3114 24.7295 67.5553 27.4116 67.5553C30.0937 67.5553 32.428 66.4757 34.1059 64.6277H48.5252C51.9649 64.6277 54.7571 61.8335 54.7924 58.3728V58.3062C54.7924 58.2751 54.7924 58.244 54.788 58.2129C54.8188 48.8129 50.0006 40.3324 43.4252 35.9344C46.6094 22.4074 58.6769 12.3809 73.0609 12.3809C83.8952 12.3809 93.4082 18.0894 98.8033 26.6809C100.169 28.8532 101.441 30.7235 102.362 32.8647C102.366 32.8736 102.49 33.1668 102.542 33.3045C103.507 35.4324 105.639 36.9117 108.109 36.9117H109.607C111.659 36.9117 113.637 37.2538 115.478 37.8846C121.67 40.0036 126.369 45.3789 127.576 51.9847C127.774 53.0731 127.88 54.197 127.88 55.3431C127.88 58.7238 126.955 61.8823 125.4 64.6233Z" fill="white"/>
<path d="M27.4121 61.9547C29.3872 61.9547 30.9883 60.3397 30.9883 58.3474C30.9883 56.3552 29.3872 54.7402 27.4121 54.7402C25.4371 54.7402 23.8359 56.3552 23.8359 58.3474C23.8359 60.3397 25.4371 61.9547 27.4121 61.9547Z" fill="#006C85"/>
<path d="M293.533 49.5978C294.724 49.5978 295.716 49.1887 296.56 48.3192C297.404 47.4498 297.85 46.3758 297.85 45.1483C297.85 43.9209 297.404 42.898 296.56 42.0286C295.716 41.2103 294.724 40.75 293.533 40.75C292.341 40.75 291.299 41.2103 290.456 42.0286C289.612 42.898 289.215 43.9209 289.215 45.1483C289.215 46.3758 289.612 47.4498 290.456 48.3192C291.299 49.1887 292.341 49.5978 293.533 49.5978Z" fill="white"/>
<path d="M164 13V49.1913H178.34C180.467 49.1913 182.395 48.7869 184.175 47.9781C185.955 47.1694 187.34 45.9563 188.378 44.4399C189.417 42.9235 189.961 41.1544 189.961 39.1325C189.961 37.1107 189.417 35.3415 188.329 33.8757C187.241 32.4098 185.758 31.3484 183.928 30.6407V30.2363C185.313 29.5287 186.45 28.5178 187.34 27.2035C188.23 25.8893 188.675 24.2719 188.675 22.4522C188.675 20.7336 188.181 19.1667 187.241 17.7008C186.252 16.2855 184.966 15.123 183.285 14.2637C181.604 13.4549 179.824 13 177.846 13H164ZM177.351 27.7596H170.676V19.1161H177.549C178.934 19.1161 180.022 19.571 180.862 20.3798C181.703 21.1885 182.148 22.1995 182.148 23.4126C182.148 24.6762 181.703 25.7377 180.813 26.5464C179.923 27.3552 178.785 27.7596 177.351 27.7596ZM178.093 42.974H170.676V33.6229H177.895C179.576 33.6229 180.912 34.0779 181.851 34.9372C182.741 35.847 183.236 36.959 183.236 38.3238C183.236 39.7391 182.741 40.8511 181.851 41.7104C180.961 42.5697 179.675 42.974 178.093 42.974Z" fill="white"/>
<path d="M204.472 50C209.714 50 213.62 47.7254 216.192 43.1257L210.95 40.4973C210.307 41.6093 209.467 42.5191 208.379 43.1762C207.291 43.8333 206.055 44.1366 204.571 44.1366C202.791 44.1366 201.258 43.6311 199.972 42.5697C198.687 41.5082 197.895 39.9413 197.599 37.8689H216.538C216.637 37.1612 216.686 36.4536 216.686 35.6448C216.686 33.2186 216.192 31.0451 215.203 29.0232C214.214 27.0519 212.829 25.485 210.95 24.3224C209.071 23.2104 206.796 22.6038 204.225 22.6038C201.752 22.6038 199.577 23.2609 197.599 24.474C195.621 25.7377 194.038 27.4057 192.951 29.5287C191.813 31.6516 191.269 33.9262 191.269 36.3525C191.269 38.9809 191.813 41.306 192.951 43.3784C194.088 45.4508 195.67 47.0683 197.698 48.2309C199.676 49.444 201.95 50 204.472 50ZM210.456 33.168H197.895C198.39 31.6011 199.181 30.3374 200.269 29.4276C201.357 28.5178 202.692 28.0123 204.274 28.0123C205.461 28.0123 206.549 28.3156 207.439 28.821C208.329 29.3265 209.071 29.9836 209.565 30.7923C210.06 31.6011 210.357 32.3593 210.456 33.168Z" fill="white"/>
<path d="M219.204 23.4126V49.1913H225.682V36.2008C225.682 33.9768 226.127 32.2076 227.116 30.8429C228.105 29.4781 229.39 28.7705 230.973 28.7705C232.357 28.7705 233.445 29.2254 234.236 30.0847C235.027 30.9945 235.423 32.2076 235.423 33.8251V49.1913H241.901V36.2008C241.901 33.9768 242.395 32.2076 243.384 30.8429C244.373 29.4781 245.758 28.7705 247.439 28.7705C248.725 28.7705 249.763 29.2254 250.505 30.0847C251.247 30.9945 251.642 32.2076 251.642 33.8251V49.1913H258.071V32.612C258.071 29.5792 257.28 27.153 255.796 25.3333C254.313 23.5137 252.137 22.6038 249.269 22.6038C247.291 22.6038 245.61 23.0587 244.176 23.8675C242.742 24.7268 241.604 25.8388 240.813 27.153C240.22 25.8388 239.28 24.7773 237.994 23.918C236.659 23.0587 235.126 22.6038 233.346 22.6038C231.665 22.6038 230.181 23.0082 228.846 23.7158C227.511 24.4235 226.473 25.4344 225.682 26.6475H225.286V23.4126H219.204Z" fill="white"/>
<path d="M273.852 50C276.423 50 278.698 49.444 280.774 48.2309C282.802 47.0178 284.384 45.4003 285.522 43.3279C286.659 41.2555 287.252 38.9303 287.252 36.3019C287.252 33.7746 286.659 31.4495 285.522 29.3265C284.384 27.2541 282.802 25.6366 280.774 24.4235C278.698 23.2104 276.423 22.6038 273.852 22.6038C271.231 22.6038 268.907 23.2104 266.879 24.4235C264.802 25.6366 263.22 27.2541 262.083 29.3265C260.945 31.4495 260.401 33.7746 260.401 36.3019C260.401 38.9303 260.945 41.2555 262.083 43.3279C263.22 45.4003 264.802 47.0178 266.879 48.2309C268.907 49.444 271.231 50 273.852 50ZM273.852 43.8839C272.566 43.8839 271.429 43.5806 270.39 42.974C269.302 42.3675 268.462 41.5082 267.819 40.3456C267.176 39.1831 266.879 37.8183 266.879 36.3019C266.879 34.7855 267.176 33.4713 267.819 32.3087C268.462 31.1967 269.302 30.2869 270.39 29.6803C271.429 29.0738 272.566 28.7705 273.852 28.7705C275.088 28.7705 276.225 29.0738 277.313 29.6803C278.351 30.2869 279.192 31.1967 279.835 32.3087C280.428 33.4713 280.774 34.7855 280.774 36.3019C280.774 37.8689 280.428 39.2336 279.835 40.3456C279.192 41.5082 278.351 42.3675 277.313 42.974C276.225 43.5806 275.088 43.8839 273.852 43.8839Z" fill="white"/>
<path d="M313.344 50C316.089 50 318.442 49.3934 320.452 48.1298C322.413 46.9167 323.981 45.1475 325.06 42.8729L319.226 40.2445C318.001 42.6708 316.04 43.8839 313.344 43.8839C311.383 43.8839 309.766 43.2268 308.491 41.8115C307.217 40.4467 306.629 38.627 306.629 36.3019C306.629 34.0779 307.217 32.2582 308.491 30.8429C309.766 29.4781 311.383 28.7705 313.344 28.7705C315.991 28.7705 317.854 29.9331 318.932 32.2076L324.815 29.6803C323.932 27.4563 322.462 25.6872 320.501 24.474C318.491 23.2609 316.089 22.6038 313.344 22.6038C310.795 22.6038 308.54 23.2104 306.58 24.3729C304.57 25.5861 303.001 27.2035 301.874 29.276C300.746 31.3484 300.207 33.6735 300.207 36.3019C300.207 38.9303 300.746 41.306 301.874 43.3784C303.001 45.5014 304.57 47.1189 306.58 48.2814C308.54 49.444 310.795 50 313.344 50Z" fill="white"/>
<path d="M327.228 13V49.1913H333.65V13H327.228Z" fill="white"/>
<path d="M349.232 50C351.781 50 354.036 49.444 356.095 48.2309C358.105 47.0178 359.673 45.4003 360.801 43.3279C361.928 41.2555 362.517 38.9303 362.517 36.3019C362.517 33.7746 361.928 31.4495 360.801 29.3265C359.673 27.2541 358.105 25.6366 356.095 24.4235C354.036 23.2104 351.781 22.6038 349.232 22.6038C346.634 22.6038 344.33 23.2104 342.321 24.4235C340.262 25.6366 338.693 27.2541 337.566 29.3265C336.438 31.4495 335.899 33.7746 335.899 36.3019C335.899 38.9303 336.438 41.2555 337.566 43.3279C338.693 45.4003 340.262 47.0178 342.321 48.2309C344.33 49.444 346.634 50 349.232 50ZM349.232 43.8839C347.958 43.8839 346.83 43.5806 345.801 42.974C344.723 42.3675 343.889 41.5082 343.252 40.3456C342.615 39.1831 342.321 37.8183 342.321 36.3019C342.321 34.7855 342.615 33.4713 343.252 32.3087C343.889 31.1967 344.723 30.2869 345.801 29.6803C346.83 29.0738 347.958 28.7705 349.232 28.7705C350.458 28.7705 351.585 29.0738 352.664 29.6803C353.693 30.2869 354.526 31.1967 355.164 32.3087C355.752 33.4713 356.095 34.7855 356.095 36.3019C356.095 37.8689 355.752 39.2336 355.164 40.3456C354.526 41.5082 353.693 42.3675 352.664 42.974C351.585 43.5806 350.458 43.8839 349.232 43.8839Z" fill="white"/>
<path d="M373.759 50C375.377 50 376.847 49.6462 378.22 48.9385C379.592 48.2309 380.622 47.2199 381.406 45.9563H381.798V49.1913H387.828V23.4126H381.406V36.5546C381.406 38.6776 380.867 40.4467 379.789 41.8115C378.71 43.2268 377.24 43.8839 375.426 43.8839C374.053 43.8839 372.975 43.429 372.191 42.418C371.357 41.4071 370.965 40.0423 370.965 38.2732V23.4126H364.544V39.082C364.544 42.5191 365.328 45.1981 366.896 47.1189C368.465 49.0396 370.72 50 373.759 50Z" fill="white"/>
<path d="M402.129 50C403.796 50 405.315 49.6462 406.639 48.888C407.962 48.1803 408.943 47.2199 409.629 46.1079H410.021V49.1913H416.001V13H409.629V22.9071L410.021 26.5464H409.629C408.943 25.4344 407.913 24.5246 406.639 23.7664C405.315 23.0082 403.796 22.6038 402.129 22.6038C399.874 22.6038 397.815 23.2104 395.953 24.3729C394.09 25.5355 392.668 27.153 391.59 29.2254C390.511 31.3484 390.021 33.6735 390.021 36.3019C390.021 38.9809 390.511 41.3566 391.59 43.429C392.668 45.5014 394.09 47.1189 395.953 48.2814C397.815 49.444 399.874 50 402.129 50ZM403.207 43.8839C402.031 43.8839 400.904 43.5806 399.874 42.9235C398.796 42.3169 397.962 41.4071 397.374 40.2445C396.737 39.1325 396.443 37.8183 396.443 36.3019C396.443 34.8361 396.737 33.5219 397.374 32.3593C397.962 31.2473 398.796 30.3374 399.874 29.7309C400.904 29.1243 402.031 28.7705 403.207 28.7705C404.384 28.7705 405.511 29.1243 406.59 29.7309C407.619 30.3374 408.452 31.2473 409.09 32.3593C409.678 33.5219 410.021 34.8361 410.021 36.3019C410.021 37.8183 409.678 39.1325 409.09 40.2445C408.452 41.4071 407.619 42.3169 406.59 42.9235C405.511 43.5806 404.384 43.8839 403.207 43.8839Z" fill="white"/>
<path d="M164 62.2161V70.3609H167.464C167.978 70.3609 168.443 70.2699 168.873 70.0879C169.303 69.9059 169.638 69.6329 169.889 69.2916C170.139 68.9504 170.271 68.5522 170.271 68.0972C170.271 67.6422 170.139 67.2441 169.877 66.9142C169.614 66.5843 169.256 66.3454 168.814 66.1861V66.0951C169.148 65.9359 169.423 65.7084 169.638 65.4126C169.853 65.1169 169.96 64.7528 169.96 64.3433C169.96 63.9566 169.841 63.6039 169.614 63.274C169.375 62.9555 169.064 62.6939 168.658 62.5005C168.252 62.3185 167.822 62.2161 167.344 62.2161H164ZM167.225 65.5377H165.613V63.5926H167.273C167.607 63.5926 167.87 63.6949 168.073 63.8769C168.276 64.0589 168.384 64.2865 168.384 64.5595C168.384 64.8438 168.276 65.0827 168.061 65.2647C167.846 65.4467 167.571 65.5377 167.225 65.5377ZM167.404 68.9617H165.613V66.8573H167.356C167.763 66.8573 168.085 66.9597 168.312 67.1531C168.527 67.3578 168.646 67.6081 168.646 67.9152C168.646 68.2337 168.527 68.484 168.312 68.6774C168.097 68.8707 167.786 68.9617 167.404 68.9617Z" fill="white"/>
<path d="M174.373 70.5429C175.639 70.5429 176.583 70.031 177.204 68.9959L175.938 68.4043C175.783 68.6546 175.58 68.8594 175.317 69.0072C175.054 69.1551 174.756 69.2234 174.397 69.2234C173.967 69.2234 173.597 69.1096 173.286 68.8707C172.976 68.6319 172.785 68.2792 172.713 67.8128H177.288C177.312 67.6536 177.324 67.4943 177.324 67.3123C177.324 66.7663 177.204 66.2771 176.965 65.8221C176.726 65.3785 176.392 65.0259 175.938 64.7642C175.484 64.514 174.935 64.3775 174.314 64.3775C173.716 64.3775 173.191 64.5253 172.713 64.7983C172.235 65.0827 171.853 65.4581 171.59 65.9359C171.316 66.4137 171.184 66.9255 171.184 67.4716C171.184 68.0631 171.316 68.5863 171.59 69.0527C171.865 69.5191 172.247 69.8831 172.737 70.1448C173.215 70.4178 173.764 70.5429 174.373 70.5429ZM175.819 66.7549H172.785C172.904 66.4023 173.095 66.1179 173.358 65.9131C173.621 65.7084 173.943 65.5946 174.326 65.5946C174.612 65.5946 174.875 65.6629 175.09 65.7766C175.305 65.8904 175.484 66.0383 175.604 66.2203C175.723 66.4023 175.795 66.5729 175.819 66.7549Z" fill="white"/>
<path d="M181.006 70.4519C181.34 70.4519 181.651 70.4064 181.913 70.304V68.8707C181.77 68.939 181.663 68.9959 181.591 69.0186C181.519 69.0414 181.424 69.0527 181.304 69.0527C181.041 69.0527 180.862 68.9959 180.755 68.8707C180.611 68.7456 180.552 68.5295 180.552 68.2337V65.8335H182.857V68.5067C182.857 69.121 183.036 69.6101 183.418 69.9628C183.586 70.122 183.789 70.2358 184.04 70.3268C184.29 70.4178 184.565 70.4519 184.876 70.4519C185.258 70.4519 185.616 70.395 185.963 70.2585V68.8025C185.795 68.8935 185.664 68.9617 185.568 68.9959C185.473 69.0414 185.353 69.0527 185.21 69.0527C184.947 69.0527 184.744 68.9959 184.625 68.8707C184.482 68.7342 184.422 68.5295 184.422 68.2337V65.8335H185.915V64.5595H184.422V62.9214H182.857V64.5595H180.552V62.9214H178.987V64.5595H177.924V65.8335H178.987V68.5067C178.987 69.1437 179.166 69.6215 179.548 69.9628C179.704 70.122 179.907 70.2358 180.17 70.3268C180.42 70.4178 180.695 70.4519 181.006 70.4519Z" fill="white"/>
<path d="M189.864 70.5429C191.13 70.5429 192.074 70.031 192.695 68.9959L191.429 68.4043C191.273 68.6546 191.07 68.8594 190.807 69.0072C190.545 69.1551 190.246 69.2234 189.888 69.2234C189.458 69.2234 189.087 69.1096 188.777 68.8707C188.466 68.6319 188.275 68.2792 188.204 67.8128H192.778C192.802 67.6536 192.814 67.4943 192.814 67.3123C192.814 66.7663 192.695 66.2771 192.456 65.8221C192.217 65.3785 191.882 65.0259 191.429 64.7642C190.975 64.514 190.425 64.3775 189.804 64.3775C189.207 64.3775 188.681 64.5253 188.204 64.7983C187.726 65.0827 187.344 65.4581 187.081 65.9359C186.806 66.4137 186.675 66.9255 186.675 67.4716C186.675 68.0631 186.806 68.5863 187.081 69.0527C187.355 69.5191 187.738 69.8831 188.227 70.1448C188.705 70.4178 189.255 70.5429 189.864 70.5429ZM191.309 66.7549H188.275C188.395 66.4023 188.586 66.1179 188.849 65.9131C189.111 65.7084 189.434 65.5946 189.816 65.5946C190.103 65.5946 190.365 65.6629 190.58 65.7766C190.795 65.8904 190.975 66.0383 191.094 66.2203C191.214 66.4023 191.285 66.5729 191.309 66.7549Z" fill="white"/>
<path d="M194.019 64.5595V70.3609H195.584V67.4716C195.584 66.9938 195.716 66.5843 195.99 66.2658C196.253 65.9473 196.623 65.788 197.089 65.788C197.256 65.788 197.412 65.8108 197.555 65.8449C197.698 65.879 197.889 65.9359 198.104 66.0041V64.514C197.866 64.4343 197.615 64.3888 197.34 64.3888C196.958 64.3888 196.599 64.4798 196.289 64.6618C195.966 64.8438 195.728 65.06 195.584 65.333H195.489V64.5595H194.019Z" fill="white"/>
<path d="M202.131 62.2161V70.3609H207.554V68.9049H203.744V67.0165H207.172V65.5605H203.744V63.6722H207.554V62.2161H202.131Z" fill="white"/>
<path d="M208.88 64.5595V70.3609H210.445V67.4033C210.445 66.9369 210.564 66.5502 210.827 66.2316C211.09 65.9245 211.424 65.7653 211.854 65.7653C212.213 65.7653 212.487 65.8676 212.69 66.0724C212.881 66.2771 212.989 66.5729 212.989 66.9369V70.3609H214.554V66.7549C214.554 66.0269 214.363 65.4467 213.98 65.0145C213.598 64.5936 213.037 64.3775 212.308 64.3775C211.914 64.3775 211.556 64.4685 211.221 64.6277C210.887 64.787 210.624 65.0145 210.445 65.2875H210.349V64.5595H208.88Z" fill="white"/>
<path d="M218.379 70.4519C218.761 70.4519 219.119 70.395 219.466 70.2585V68.8025C219.299 68.8935 219.167 68.9617 219.072 68.9959C218.976 69.0414 218.845 69.0527 218.701 69.0527C218.427 69.0527 218.235 68.9959 218.128 68.8707C217.985 68.7456 217.925 68.5295 217.925 68.2337V65.8335H219.418V64.5595H217.925V62.9214H216.36V64.5595H215.297V65.8335H216.36V68.5067C216.36 69.1437 216.539 69.6215 216.922 69.9628C217.077 70.122 217.28 70.2358 217.543 70.3268C217.794 70.4178 218.068 70.4519 218.379 70.4519Z" fill="white"/>
<path d="M223.364 70.5429C224.63 70.5429 225.574 70.031 226.195 68.9959L224.929 68.4043C224.774 68.6546 224.571 68.8594 224.308 69.0072C224.045 69.1551 223.747 69.2234 223.388 69.2234C222.958 69.2234 222.588 69.1096 222.277 68.8707C221.967 68.6319 221.776 68.2792 221.704 67.8128H226.279C226.303 67.6536 226.315 67.4943 226.315 67.3123C226.315 66.7663 226.195 66.2771 225.956 65.8221C225.717 65.3785 225.383 65.0259 224.929 64.7642C224.475 64.514 223.926 64.3775 223.305 64.3775C222.707 64.3775 222.182 64.5253 221.704 64.7983C221.226 65.0827 220.844 65.4581 220.581 65.9359C220.307 66.4137 220.175 66.9255 220.175 67.4716C220.175 68.0631 220.307 68.5863 220.581 69.0527C220.856 69.5191 221.238 69.8831 221.728 70.1448C222.206 70.4178 222.755 70.5429 223.364 70.5429ZM224.81 66.7549H221.776C221.895 66.4023 222.086 66.1179 222.349 65.9131C222.612 65.7084 222.934 65.5946 223.317 65.5946C223.603 65.5946 223.866 65.6629 224.081 65.7766C224.296 65.8904 224.475 66.0383 224.595 66.2203C224.714 66.4023 224.786 66.5729 224.81 66.7549Z" fill="white"/>
<path d="M227.52 64.5595V70.3609H229.085V67.4716C229.085 66.9938 229.216 66.5843 229.491 66.2658C229.754 65.9473 230.124 65.788 230.59 65.788C230.757 65.788 230.912 65.8108 231.056 65.8449C231.199 65.879 231.39 65.9359 231.605 66.0041V64.514C231.366 64.4343 231.115 64.3888 230.841 64.3888C230.458 64.3888 230.1 64.4798 229.789 64.6618C229.467 64.8438 229.228 65.06 229.085 65.333H228.989V64.5595H227.52Z" fill="white"/>
<path d="M232.57 64.5595V72.818H234.134V70.486L234.039 69.667H234.134C234.29 69.9173 234.528 70.1334 234.851 70.2927C235.173 70.4633 235.544 70.5429 235.962 70.5429C236.511 70.5429 237.001 70.4178 237.455 70.1562C237.909 69.8945 238.255 69.5305 238.518 69.0641C238.769 68.5977 238.9 68.0631 238.9 67.4602C238.9 66.8687 238.769 66.3454 238.518 65.8676C238.255 65.4012 237.909 65.0372 237.455 64.7756C237.001 64.514 236.511 64.3775 235.962 64.3775C235.544 64.3775 235.173 64.4685 234.863 64.6391C234.54 64.8097 234.302 65.0145 234.134 65.2647H234.039V64.5595H232.57ZM235.687 69.1665C235.4 69.1665 235.126 69.0982 234.875 68.9504C234.612 68.8139 234.409 68.6091 234.266 68.3475C234.11 68.0972 234.039 67.8014 234.039 67.4602C234.039 67.1303 234.11 66.8345 234.266 66.5729C234.409 66.3226 234.612 66.1179 234.875 65.9814C235.126 65.8449 235.4 65.7653 235.687 65.7653C235.974 65.7653 236.248 65.8449 236.511 65.9814C236.762 66.1179 236.965 66.3226 237.12 66.5729C237.264 66.8345 237.347 67.1303 237.347 67.4602C237.347 67.8014 237.264 68.0972 237.12 68.3475C236.965 68.6091 236.762 68.8139 236.511 68.9504C236.248 69.0982 235.974 69.1665 235.687 69.1665Z" fill="white"/>
<path d="M240.048 64.5595V70.3609H241.612V67.4716C241.612 66.9938 241.744 66.5843 242.018 66.2658C242.281 65.9473 242.652 65.788 243.117 65.788C243.285 65.788 243.44 65.8108 243.583 65.8449C243.727 65.879 243.918 65.9359 244.133 66.0041V64.514C243.894 64.4343 243.643 64.3888 243.368 64.3888C242.986 64.3888 242.628 64.4798 242.317 64.6618C241.995 64.8438 241.756 65.06 241.612 65.333H241.517V64.5595H240.048Z" fill="white"/>
<path d="M246.029 63.9224C246.304 63.9224 246.543 63.8314 246.734 63.6381C246.925 63.456 247.032 63.2285 247.032 62.9555C247.032 62.6939 246.925 62.4664 246.734 62.2844C246.543 62.1024 246.304 62 246.029 62C245.742 62 245.503 62.1024 245.312 62.2844C245.109 62.4664 245.014 62.6939 245.014 62.9555C245.014 63.2285 245.109 63.456 245.312 63.6381C245.503 63.8314 245.742 63.9224 246.029 63.9224ZM245.241 64.5595V70.3609H246.805V64.5595H245.241Z" fill="white"/>
<path d="M250.752 70.5429C251.229 70.5429 251.659 70.4633 252.054 70.304C252.448 70.1448 252.758 69.9286 252.985 69.6443C253.212 69.3599 253.332 69.03 253.332 68.6546C253.332 68.2223 253.176 67.8583 252.866 67.5626C252.555 67.2668 252.101 67.0507 251.504 66.9028L250.608 66.698C250.059 66.5615 249.796 66.3568 249.796 66.0838C249.796 65.9473 249.868 65.8221 250.035 65.7311C250.19 65.6401 250.405 65.5832 250.68 65.5832C251.206 65.5832 251.588 65.788 251.827 66.1975L253.164 65.6401C252.734 64.7983 251.898 64.3775 250.644 64.3775C250.202 64.3775 249.796 64.4571 249.438 64.5936C249.079 64.7415 248.793 64.9462 248.578 65.2079C248.363 65.4809 248.267 65.7766 248.267 66.1065C248.267 66.5615 248.423 66.9369 248.757 67.2327C249.079 67.5284 249.486 67.7332 249.987 67.8469L250.704 67.9948C251.05 68.0745 251.313 68.1655 251.492 68.2565C251.659 68.3475 251.755 68.4953 251.755 68.6774C251.755 68.8821 251.659 69.0186 251.468 69.1096C251.277 69.2006 251.038 69.2347 250.752 69.2347C250.441 69.2347 250.166 69.1665 249.928 69.03C249.689 68.8935 249.509 68.6774 249.39 68.4043L247.993 68.9845C248.172 69.4509 248.494 69.8263 248.948 70.1107C249.402 70.4064 250.011 70.5429 250.752 70.5429Z" fill="white"/>
<path d="M257.378 70.5429C258.644 70.5429 259.588 70.031 260.209 68.9959L258.943 68.4043C258.788 68.6546 258.584 68.8594 258.322 69.0072C258.059 69.1551 257.76 69.2234 257.402 69.2234C256.972 69.2234 256.602 69.1096 256.291 68.8707C255.981 68.6319 255.789 68.2792 255.718 67.8128H260.293C260.316 67.6536 260.328 67.4943 260.328 67.3123C260.328 66.7663 260.209 66.2771 259.97 65.8221C259.731 65.3785 259.397 65.0259 258.943 64.7642C258.489 64.514 257.939 64.3775 257.318 64.3775C256.721 64.3775 256.196 64.5253 255.718 64.7983C255.24 65.0827 254.858 65.4581 254.595 65.9359C254.32 66.4137 254.189 66.9255 254.189 67.4716C254.189 68.0631 254.32 68.5863 254.595 69.0527C254.87 69.5191 255.252 69.8831 255.742 70.1448C256.219 70.4178 256.769 70.5429 257.378 70.5429ZM258.823 66.7549H255.789C255.909 66.4023 256.1 66.1179 256.363 65.9131C256.626 65.7084 256.948 65.5946 257.33 65.5946C257.617 65.5946 257.88 65.6629 258.095 65.7766C258.31 65.8904 258.489 66.0383 258.608 66.2203C258.728 66.4023 258.799 66.5729 258.823 66.7549Z" fill="white"/>
<path d="M264.548 62.2161V70.3609H266.137V66.3454L266.041 64.9917H266.137L268.323 70.3609H269.577L271.751 64.9917H271.846L271.751 66.3454V70.3609H273.351V62.2161H271.261L268.992 67.938H268.896L266.627 62.2161H264.548Z" fill="white"/>
<path d="M276.776 70.5429C277.158 70.5429 277.505 70.4747 277.803 70.3268C278.102 70.1903 278.341 69.9969 278.532 69.7694H278.628V70.3609H280.168V66.789C280.168 66.0041 279.918 65.4012 279.44 64.9917C278.95 64.5822 278.245 64.3775 277.314 64.3775C276.788 64.3775 276.298 64.4798 275.857 64.6732C275.403 64.878 275.032 65.151 274.746 65.515L275.749 66.2658C275.916 66.061 276.143 65.9018 276.406 65.7766C276.669 65.6515 276.955 65.5832 277.242 65.5832C277.66 65.5832 277.995 65.6856 278.245 65.879C278.496 66.0838 278.628 66.334 278.628 66.6525V66.9028C278.174 66.7322 277.636 66.6412 277.015 66.6412C276.561 66.6412 276.143 66.7208 275.773 66.88C275.391 67.0393 275.104 67.2668 274.889 67.5626C274.674 67.8583 274.567 68.1996 274.567 68.5863C274.567 69.1779 274.77 69.6443 275.188 70.0083C275.594 70.3723 276.131 70.5429 276.776 70.5429ZM277.147 69.3826C276.812 69.3826 276.561 69.3144 276.394 69.1665C276.215 69.0186 276.131 68.8252 276.131 68.5863C276.131 68.0176 276.537 67.7218 277.35 67.7218C277.792 67.7218 278.222 67.8128 278.628 67.9948C278.628 68.3702 278.484 68.7001 278.222 68.9731C277.959 69.2461 277.6 69.3826 277.147 69.3826Z" fill="white"/>
<path d="M281.608 64.5595V70.3609H283.173V67.4033C283.173 66.9369 283.293 66.5502 283.555 66.2316C283.818 65.9245 284.153 65.7653 284.583 65.7653C284.941 65.7653 285.216 65.8676 285.419 66.0724C285.61 66.2771 285.717 66.5729 285.717 66.9369V70.3609H287.282V66.7549C287.282 66.0269 287.091 65.4467 286.709 65.0145C286.326 64.5936 285.765 64.3775 285.036 64.3775C284.642 64.3775 284.284 64.4685 283.949 64.6277C283.615 64.787 283.352 65.0145 283.173 65.2875H283.078V64.5595H281.608Z" fill="white"/>
<path d="M290.564 70.5429C290.946 70.5429 291.292 70.4747 291.591 70.3268C291.89 70.1903 292.128 69.9969 292.32 69.7694H292.415V70.3609H293.956V66.789C293.956 66.0041 293.705 65.4012 293.227 64.9917C292.738 64.5822 292.033 64.3775 291.101 64.3775C290.576 64.3775 290.086 64.4798 289.644 64.6732C289.19 64.878 288.82 65.151 288.533 65.515L289.536 66.2658C289.704 66.061 289.931 65.9018 290.193 65.7766C290.456 65.6515 290.743 65.5832 291.03 65.5832C291.448 65.5832 291.782 65.6856 292.033 65.879C292.284 66.0838 292.415 66.334 292.415 66.6525V66.9028C291.961 66.7322 291.424 66.6412 290.803 66.6412C290.349 66.6412 289.931 66.7208 289.56 66.88C289.178 67.0393 288.891 67.2668 288.676 67.5626C288.461 67.8583 288.354 68.1996 288.354 68.5863C288.354 69.1779 288.557 69.6443 288.975 70.0083C289.381 70.3723 289.919 70.5429 290.564 70.5429ZM290.934 69.3826C290.6 69.3826 290.349 69.3144 290.181 69.1665C290.002 69.0186 289.919 68.8252 289.919 68.5863C289.919 68.0176 290.325 67.7218 291.137 67.7218C291.579 67.7218 292.009 67.8128 292.415 67.9948C292.415 68.3702 292.272 68.7001 292.009 68.9731C291.746 69.2461 291.388 69.3826 290.934 69.3826Z" fill="white"/>
<path d="M298.203 73C298.824 73 299.373 72.8862 299.851 72.636C300.317 72.3857 300.675 72.0331 300.938 71.5781C301.189 71.1231 301.32 70.5884 301.32 69.9628V64.5595H299.815V65.1737H299.72C299.529 64.9235 299.278 64.7187 298.967 64.5822C298.657 64.4457 298.298 64.3775 297.904 64.3775C297.402 64.3775 296.925 64.5026 296.495 64.7528C296.065 65.0031 295.718 65.3444 295.456 65.7994C295.193 66.2544 295.061 66.7777 295.061 67.3692C295.061 67.9721 295.193 68.4953 295.456 68.9504C295.718 69.4054 296.065 69.7466 296.495 69.9969C296.925 70.2472 297.402 70.3609 297.904 70.3609C298.298 70.3609 298.657 70.2927 298.967 70.1562C299.278 70.0196 299.529 69.8263 299.72 69.5646H299.815V70.0196C299.815 70.5543 299.66 70.9638 299.373 71.2482C299.087 71.544 298.692 71.6805 298.203 71.6805C297.868 71.6805 297.57 71.6008 297.307 71.4302C297.044 71.2709 296.841 71.0434 296.722 70.7477L295.252 71.3164C295.42 71.7828 295.766 72.181 296.28 72.5109C296.781 72.8407 297.426 73 298.203 73ZM298.227 69.0072C297.773 69.0072 297.402 68.8707 297.092 68.575C296.781 68.2906 296.626 67.8925 296.626 67.3692C296.626 66.8573 296.781 66.4592 297.092 66.1634C297.402 65.879 297.773 65.7311 298.227 65.7311C298.669 65.7311 299.039 65.879 299.349 66.1634C299.66 66.4478 299.815 66.8459 299.815 67.3692C299.815 67.8811 299.66 68.2792 299.349 68.575C299.039 68.8707 298.657 69.0072 298.227 69.0072Z" fill="white"/>
<path d="M305.646 70.5429C306.912 70.5429 307.856 70.031 308.477 68.9959L307.211 68.4043C307.055 68.6546 306.852 68.8594 306.589 69.0072C306.327 69.1551 306.028 69.2234 305.67 69.2234C305.24 69.2234 304.869 69.1096 304.559 68.8707C304.248 68.6319 304.057 68.2792 303.986 67.8128H308.56C308.584 67.6536 308.596 67.4943 308.596 67.3123C308.596 66.7663 308.477 66.2771 308.238 65.8221C307.999 65.3785 307.664 65.0259 307.211 64.7642C306.757 64.514 306.207 64.3775 305.586 64.3775C304.989 64.3775 304.463 64.5253 303.986 64.7983C303.508 65.0827 303.126 65.4581 302.863 65.9359C302.588 66.4137 302.457 66.9255 302.457 67.4716C302.457 68.0631 302.588 68.5863 302.863 69.0527C303.138 69.5191 303.52 69.8831 304.009 70.1448C304.487 70.4178 305.037 70.5429 305.646 70.5429ZM307.091 66.7549H304.057C304.177 66.4023 304.368 66.1179 304.631 65.9131C304.893 65.7084 305.216 65.5946 305.598 65.5946C305.885 65.5946 306.148 65.6629 306.363 65.7766C306.578 65.8904 306.757 66.0383 306.876 66.2203C306.996 66.4023 307.067 66.5729 307.091 66.7549Z" fill="white"/>
<path d="M309.801 64.5595V70.3609H311.366V67.4374C311.366 66.9369 311.474 66.5388 311.713 66.2316C311.952 65.9245 312.262 65.7653 312.644 65.7653C312.979 65.7653 313.242 65.8676 313.433 66.061C313.624 66.2658 313.719 66.5388 313.719 66.9028V70.3609H315.284V67.4374C315.284 66.9369 315.403 66.5388 315.642 66.2316C315.881 65.9245 316.216 65.7653 316.622 65.7653C316.932 65.7653 317.183 65.8676 317.362 66.061C317.542 66.2658 317.637 66.5388 317.637 66.9028V70.3609H319.19V66.6298C319.19 65.9473 318.999 65.4012 318.64 64.9917C318.282 64.5822 317.757 64.3775 317.064 64.3775C316.586 64.3775 316.18 64.4798 315.833 64.6618C315.487 64.8552 315.212 65.1055 315.021 65.4012C314.878 65.1055 314.651 64.8666 314.34 64.6732C314.018 64.4798 313.648 64.3775 313.218 64.3775C312.812 64.3775 312.453 64.4685 312.131 64.6277C311.808 64.787 311.557 65.0145 311.366 65.2875H311.271V64.5595H309.801Z" fill="white"/>
<path d="M323.539 70.5429C324.805 70.5429 325.749 70.031 326.37 68.9959L325.104 68.4043C324.949 68.6546 324.746 68.8594 324.483 69.0072C324.22 69.1551 323.921 69.2234 323.563 69.2234C323.133 69.2234 322.763 69.1096 322.452 68.8707C322.142 68.6319 321.951 68.2792 321.879 67.8128H326.454C326.478 67.6536 326.49 67.4943 326.49 67.3123C326.49 66.7663 326.37 66.2771 326.131 65.8221C325.892 65.3785 325.558 65.0259 325.104 64.7642C324.65 64.514 324.101 64.3775 323.48 64.3775C322.882 64.3775 322.357 64.5253 321.879 64.7983C321.401 65.0827 321.019 65.4581 320.756 65.9359C320.481 66.4137 320.35 66.9255 320.35 67.4716C320.35 68.0631 320.481 68.5863 320.756 69.0527C321.031 69.5191 321.413 69.8831 321.903 70.1448C322.381 70.4178 322.93 70.5429 323.539 70.5429ZM324.985 66.7549H321.951C322.07 66.4023 322.261 66.1179 322.524 65.9131C322.787 65.7084 323.109 65.5946 323.491 65.5946C323.778 65.5946 324.041 65.6629 324.256 65.7766C324.471 65.8904 324.65 66.0383 324.77 66.2203C324.889 66.4023 324.961 66.5729 324.985 66.7549Z" fill="white"/>
<path d="M327.695 64.5595V70.3609H329.26V67.4033C329.26 66.9369 329.379 66.5502 329.642 66.2316C329.905 65.9245 330.239 65.7653 330.669 65.7653C331.027 65.7653 331.302 65.8676 331.505 66.0724C331.696 66.2771 331.804 66.5729 331.804 66.9369V70.3609H333.368V66.7549C333.368 66.0269 333.177 65.4467 332.795 65.0145C332.413 64.5936 331.852 64.3775 331.123 64.3775C330.729 64.3775 330.37 64.4685 330.036 64.6277C329.702 64.787 329.439 65.0145 329.26 65.2875H329.164V64.5595H327.695Z" fill="white"/>
<path d="M337.194 70.4519C337.576 70.4519 337.934 70.395 338.281 70.2585V68.8025C338.113 68.8935 337.982 68.9617 337.886 68.9959C337.791 69.0414 337.659 69.0527 337.516 69.0527C337.241 69.0527 337.05 68.9959 336.943 68.8707C336.799 68.7456 336.74 68.5295 336.74 68.2337V65.8335H338.233V64.5595H336.74V62.9214H335.175V64.5595H334.112V65.8335H335.175V68.5067C335.175 69.1437 335.354 69.6215 335.736 69.9628C335.892 70.122 336.095 70.2358 336.358 70.3268C336.608 70.4178 336.883 70.4519 337.194 70.4519Z" fill="white"/>
<path d="M346.586 70.5429C347.422 70.5429 348.175 70.3609 348.856 69.9855C349.536 69.6101 350.074 69.0982 350.468 68.4385C350.85 67.7901 351.053 67.0734 351.053 66.2885C351.053 65.515 350.85 64.7983 350.468 64.1386C350.074 63.4902 349.536 62.9783 348.856 62.6029C348.175 62.2275 347.422 62.0341 346.586 62.0341C345.75 62.0341 344.986 62.2275 344.305 62.6029C343.624 62.9783 343.086 63.4902 342.704 64.1386C342.31 64.7983 342.119 65.515 342.119 66.2885C342.119 67.0734 342.31 67.7901 342.704 68.4385C343.086 69.0982 343.624 69.6101 344.305 69.9855C344.986 70.3609 345.75 70.5429 346.586 70.5429ZM346.586 69.0869C346.061 69.0869 345.571 68.9731 345.141 68.7342C344.711 68.5067 344.364 68.1768 344.114 67.7446C343.863 67.3237 343.743 66.8345 343.743 66.2885C343.743 65.7425 343.863 65.2647 344.114 64.8325C344.364 64.4116 344.711 64.0817 345.141 63.8428C345.571 63.6153 346.061 63.4902 346.586 63.4902C347.112 63.4902 347.589 63.6153 348.031 63.8428C348.461 64.0817 348.808 64.4116 349.059 64.8325C349.309 65.2647 349.441 65.7425 349.441 66.2885C349.441 66.8345 349.309 67.3237 349.059 67.7446C348.808 68.1768 348.461 68.5067 348.031 68.7342C347.589 68.9731 347.112 69.0869 346.586 69.0869Z" fill="white"/>
<path d="M352.318 64.5595V72.818H353.882V70.486L353.787 69.667H353.882C354.038 69.9173 354.276 70.1334 354.599 70.2927C354.921 70.4633 355.292 70.5429 355.71 70.5429C356.259 70.5429 356.749 70.4178 357.203 70.1562C357.657 69.8945 358.003 69.5305 358.266 69.0641C358.517 68.5977 358.648 68.0631 358.648 67.4602C358.648 66.8687 358.517 66.3454 358.266 65.8676C358.003 65.4012 357.657 65.0372 357.203 64.7756C356.749 64.514 356.259 64.3775 355.71 64.3775C355.292 64.3775 354.921 64.4685 354.611 64.6391C354.288 64.8097 354.05 65.0145 353.882 65.2647H353.787V64.5595H352.318ZM355.435 69.1665C355.148 69.1665 354.874 69.0982 354.623 68.9504C354.36 68.8139 354.157 68.6091 354.014 68.3475C353.858 68.0972 353.787 67.8014 353.787 67.4602C353.787 67.1303 353.858 66.8345 354.014 66.5729C354.157 66.3226 354.36 66.1179 354.623 65.9814C354.874 65.8449 355.148 65.7653 355.435 65.7653C355.722 65.7653 355.996 65.8449 356.259 65.9814C356.51 66.1179 356.713 66.3226 356.868 66.5729C357.012 66.8345 357.095 67.1303 357.095 67.4602C357.095 67.8014 357.012 68.0972 356.868 68.3475C356.713 68.6091 356.51 68.8139 356.259 68.9504C355.996 69.0982 355.722 69.1665 355.435 69.1665Z" fill="white"/>
<path d="M362.272 70.4519C362.655 70.4519 363.013 70.395 363.359 70.2585V68.8025C363.192 68.8935 363.061 68.9617 362.965 68.9959C362.87 69.0414 362.738 69.0527 362.595 69.0527C362.32 69.0527 362.129 68.9959 362.022 68.8707C361.878 68.7456 361.818 68.5295 361.818 68.2337V65.8335H363.312V64.5595H361.818V62.9214H360.254V64.5595H359.191V65.8335H360.254V68.5067C360.254 69.1437 360.433 69.6215 360.815 69.9628C360.97 70.122 361.173 70.2358 361.436 70.3268C361.687 70.4178 361.962 70.4519 362.272 70.4519Z" fill="white"/>
<path d="M365.555 63.9224C365.83 63.9224 366.069 63.8314 366.26 63.6381C366.451 63.456 366.559 63.2285 366.559 62.9555C366.559 62.6939 366.451 62.4664 366.26 62.2844C366.069 62.1024 365.83 62 365.555 62C365.269 62 365.03 62.1024 364.839 62.2844C364.636 62.4664 364.54 62.6939 364.54 62.9555C364.54 63.2285 364.636 63.456 364.839 63.6381C365.03 63.8314 365.269 63.9224 365.555 63.9224ZM364.767 64.5595V70.3609H366.332V64.5595H364.767Z" fill="white"/>
<path d="M367.961 64.5595V70.3609H369.526V67.4374C369.526 66.9369 369.633 66.5388 369.872 66.2316C370.111 65.9245 370.421 65.7653 370.804 65.7653C371.138 65.7653 371.401 65.8676 371.592 66.061C371.783 66.2658 371.879 66.5388 371.879 66.9028V70.3609H373.443V67.4374C373.443 66.9369 373.563 66.5388 373.802 66.2316C374.041 65.9245 374.375 65.7653 374.781 65.7653C375.092 65.7653 375.342 65.8676 375.522 66.061C375.701 66.2658 375.796 66.5388 375.796 66.9028V70.3609H377.349V66.6298C377.349 65.9473 377.158 65.4012 376.8 64.9917C376.441 64.5822 375.916 64.3775 375.223 64.3775C374.745 64.3775 374.339 64.4798 373.993 64.6618C373.646 64.8552 373.372 65.1055 373.181 65.4012C373.037 65.1055 372.81 64.8666 372.5 64.6732C372.177 64.4798 371.807 64.3775 371.377 64.3775C370.971 64.3775 370.613 64.4685 370.29 64.6277C369.967 64.787 369.717 65.0145 369.526 65.2875H369.43V64.5595H367.961Z" fill="white"/>
<path d="M379.728 63.9224C380.002 63.9224 380.241 63.8314 380.432 63.6381C380.624 63.456 380.731 63.2285 380.731 62.9555C380.731 62.6939 380.624 62.4664 380.432 62.2844C380.241 62.1024 380.002 62 379.728 62C379.441 62 379.202 62.1024 379.011 62.2844C378.808 62.4664 378.712 62.6939 378.712 62.9555C378.712 63.2285 378.808 63.456 379.011 63.6381C379.202 63.8314 379.441 63.9224 379.728 63.9224ZM378.939 64.5595V70.3609H380.504V64.5595H378.939Z" fill="white"/>
<path d="M381.823 69.1437V70.3609H387.019V69.0982H383.746L386.923 65.7766V64.5595H381.918V65.8221H385L381.823 69.1437Z" fill="white"/>
<path d="M389.98 70.5429C390.363 70.5429 390.709 70.4747 391.008 70.3268C391.306 70.1903 391.545 69.9969 391.736 69.7694H391.832V70.3609H393.373V66.789C393.373 66.0041 393.122 65.4012 392.644 64.9917C392.154 64.5822 391.45 64.3775 390.518 64.3775C389.992 64.3775 389.503 64.4798 389.061 64.6732C388.607 64.878 388.237 65.151 387.95 65.515L388.953 66.2658C389.12 66.061 389.347 65.9018 389.61 65.7766C389.873 65.6515 390.16 65.5832 390.446 65.5832C390.864 65.5832 391.199 65.6856 391.45 65.879C391.7 66.0838 391.832 66.334 391.832 66.6525V66.9028C391.378 66.7322 390.84 66.6412 390.219 66.6412C389.765 66.6412 389.347 66.7208 388.977 66.88C388.595 67.0393 388.308 67.2668 388.093 67.5626C387.878 67.8583 387.771 68.1996 387.771 68.5863C387.771 69.1779 387.974 69.6443 388.392 70.0083C388.798 70.3723 389.335 70.5429 389.98 70.5429ZM390.351 69.3826C390.016 69.3826 389.765 69.3144 389.598 69.1665C389.419 69.0186 389.335 68.8252 389.335 68.5863C389.335 68.0176 389.742 67.7218 390.554 67.7218C390.996 67.7218 391.426 67.8128 391.832 67.9948C391.832 68.3702 391.689 68.7001 391.426 68.9731C391.163 69.2461 390.805 69.3826 390.351 69.3826Z" fill="white"/>
<path d="M397.464 70.4519C397.846 70.4519 398.205 70.395 398.551 70.2585V68.8025C398.384 68.8935 398.253 68.9617 398.157 68.9959C398.061 69.0414 397.93 69.0527 397.787 69.0527C397.512 69.0527 397.321 68.9959 397.213 68.8707C397.07 68.7456 397.01 68.5295 397.01 68.2337V65.8335H398.503V64.5595H397.01V62.9214H395.446V64.5595H394.383V65.8335H395.446V68.5067C395.446 69.1437 395.625 69.6215 396.007 69.9628C396.162 70.122 396.365 70.2358 396.628 70.3268C396.879 70.4178 397.154 70.4519 397.464 70.4519Z" fill="white"/>
<path d="M400.747 63.9224C401.022 63.9224 401.261 63.8314 401.452 63.6381C401.643 63.456 401.751 63.2285 401.751 62.9555C401.751 62.6939 401.643 62.4664 401.452 62.2844C401.261 62.1024 401.022 62 400.747 62C400.461 62 400.222 62.1024 400.031 62.2844C399.827 62.4664 399.732 62.6939 399.732 62.9555C399.732 63.2285 399.827 63.456 400.031 63.6381C400.222 63.8314 400.461 63.9224 400.747 63.9224ZM399.959 64.5595V70.3609H401.524V64.5595H399.959Z" fill="white"/>
<path d="M406.009 70.5429C406.63 70.5429 407.179 70.4178 407.681 70.1448C408.171 69.8718 408.553 69.5078 408.828 69.0414C409.102 68.575 409.246 68.0517 409.246 67.4602C409.246 66.8914 409.102 66.3681 408.828 65.8904C408.553 65.424 408.171 65.06 407.681 64.787C407.179 64.514 406.63 64.3775 406.009 64.3775C405.376 64.3775 404.814 64.514 404.325 64.787C403.823 65.06 403.441 65.424 403.166 65.8904C402.891 66.3681 402.76 66.8914 402.76 67.4602C402.76 68.0517 402.891 68.575 403.166 69.0414C403.441 69.5078 403.823 69.8718 404.325 70.1448C404.814 70.4178 405.376 70.5429 406.009 70.5429ZM406.009 69.1665C405.698 69.1665 405.424 69.0982 405.173 68.9617C404.91 68.8252 404.707 68.6319 404.552 68.3702C404.396 68.1086 404.325 67.8014 404.325 67.4602C404.325 67.1189 404.396 66.8232 404.552 66.5615C404.707 66.3113 404.91 66.1065 405.173 65.97C405.424 65.8335 405.698 65.7653 406.009 65.7653C406.307 65.7653 406.582 65.8335 406.845 65.97C407.096 66.1065 407.299 66.3113 407.454 66.5615C407.597 66.8232 407.681 67.1189 407.681 67.4602C407.681 67.8128 407.597 68.12 407.454 68.3702C407.299 68.6319 407.096 68.8252 406.845 68.9617C406.582 69.0982 406.307 69.1665 406.009 69.1665Z" fill="white"/>
<path d="M410.326 64.5595V70.3609H411.891V67.4033C411.891 66.9369 412.011 66.5502 412.273 66.2316C412.536 65.9245 412.871 65.7653 413.301 65.7653C413.659 65.7653 413.934 65.8676 414.137 66.0724C414.328 66.2771 414.435 66.5729 414.435 66.9369V70.3609H416V66.7549C416 66.0269 415.809 65.4467 415.427 65.0145C415.044 64.5936 414.483 64.3775 413.754 64.3775C413.36 64.3775 413.002 64.4685 412.667 64.6277C412.333 64.787 412.07 65.0145 411.891 65.2875H411.796V64.5595H410.326Z" fill="white"/>
</svg>
