<svg width="192" height="40" viewBox="0 0 192 40" fill="none" xmlns="http://www.w3.org/2000/svg">
<path fill-rule="evenodd" clip-rule="evenodd" d="M51.4242 11.5151C58.179 11.9944 63.6124 17.3645 64.338 24.1769C64.3947 24.6893 64.4231 25.21 64.4231 25.7389C64.4231 27.2452 64.1941 28.6957 63.7705 30.0573C63.2922 31.5967 62.5647 33.0203 61.6344 34.2848C59.0849 37.754 55.0174 40 50.4372 40H12.6078C8.23427 40 4.38161 37.7313 2.11987 34.2848C1.28895 33.0162 0.672847 31.5884 0.324264 30.0573C0.111466 29.1213 0 28.1481 0 27.1481C0 26.1253 0.117546 25.1315 0.33845 24.1769C1.65374 18.5092 6.6474 14.2941 12.6078 14.2941C13.3272 14.2941 14.0345 14.3561 14.7216 14.476C17.0786 6.11602 24.6481 0 33.6201 0C41.4956 0 48.2889 4.71099 51.4242 11.5151ZM50.4352 34.2848C53.9291 34.2848 56.5496 32.1174 57.7048 30.0573C58.4202 28.7825 58.8457 27.3134 58.8457 25.741C58.8457 25.2079 58.7971 24.6852 58.7059 24.1789C58.1506 21.1065 55.9882 18.6063 53.1387 17.6207C52.2916 17.3273 51.3816 17.1682 50.4372 17.1682H49.7481C48.6112 17.1682 47.6303 16.4802 47.1864 15.4905C47.1621 15.4264 47.1054 15.29 47.1034 15.2859C46.7473 14.4489 46.2768 13.7009 45.7628 12.8836C45.6652 12.7285 45.566 12.5709 45.4658 12.4097C42.9832 8.41366 38.6056 5.75856 33.6201 5.75856C27.001 5.75856 21.448 10.422 19.9828 16.7137C23.0085 18.7592 25.2257 22.7037 25.2115 27.0758C25.2135 27.0902 25.2135 27.1047 25.2135 27.1192V27.1502C25.1973 28.7598 23.9124 30.0594 22.3296 30.0594H15.6944C14.9222 30.919 13.8481 31.421 12.6139 31.421C11.3796 31.421 10.265 30.8425 9.53741 30.0532C8.83619 29.2928 8.41464 28.2639 8.41464 27.1398C8.41464 25.991 8.84024 24.9724 9.56173 24.1996C10.3298 23.3731 11.4445 22.8586 12.5814 22.8586C13.159 22.8586 13.7062 22.9516 14.2088 23.1665C14.756 23.4 15.2424 23.745 15.6437 24.1769H18.9796C18.0574 22.1127 16.2436 20.6147 14.0041 20.1581C13.5562 20.0672 13.0496 20.0217 12.5754 20.0217C8.26744 20.1343 5.61787 23.652 5.61787 27.1378C5.61787 31.7227 9.43405 34.2621 12.6139 34.2621C12.7245 34.2621 21.3397 34.2673 30.319 34.2727C40.0903 34.2787 50.2926 34.2848 50.4352 34.2848ZM14.2606 27.1385C14.2606 28.0651 13.5238 28.8162 12.615 28.8162C11.7061 28.8162 10.9693 28.0651 10.9693 27.1385C10.9693 26.2118 11.7061 25.4607 12.615 25.4607C13.5238 25.4607 14.2606 26.2118 14.2606 27.1385Z" fill="white"/>
<path d="M135.075 28.4178C135.623 28.4178 136.08 28.2275 136.468 27.8231C136.856 27.4187 137.062 26.9191 137.062 26.3482C137.062 25.7773 136.856 25.3016 136.468 24.8972C136.08 24.5166 135.623 24.3025 135.075 24.3025C134.527 24.3025 134.047 24.5166 133.659 24.8972C133.271 25.3016 133.088 25.7773 133.088 26.3482C133.088 26.9191 133.271 27.4187 133.659 27.8231C134.047 28.2275 134.527 28.4178 135.075 28.4178Z" fill="white"/>
<path d="M75.468 11.3955V28.2286H82.0669C83.0453 28.2286 83.9328 28.0406 84.752 27.6644C85.5711 27.2882 86.2083 26.724 86.6861 26.0187C87.164 25.3134 87.4143 24.4906 87.4143 23.5502C87.4143 22.6098 87.164 21.7869 86.6634 21.1051C86.1627 20.4233 85.4801 19.9296 84.6382 19.6005V19.4124C85.2753 19.0833 85.7987 18.6131 86.2083 18.0018C86.6178 17.3905 86.8226 16.6382 86.8226 15.7919C86.8226 14.9925 86.5951 14.2637 86.1627 13.5819C85.7077 12.9237 85.116 12.3829 84.3424 11.9833C83.5687 11.6071 82.7495 11.3955 81.8393 11.3955H75.468ZM81.6118 18.2604H78.5399V14.2402H81.7028C82.34 14.2402 82.8406 14.4518 83.2274 14.828C83.6142 15.2041 83.819 15.6743 83.819 16.2386C83.819 16.8263 83.6142 17.32 83.2046 17.6962C82.795 18.0723 82.2717 18.2604 81.6118 18.2604ZM81.9531 25.3369H78.5399V20.9876H81.8621C82.6358 20.9876 83.2501 21.1992 83.6825 21.5988C84.0921 22.022 84.3196 22.5392 84.3196 23.174C84.3196 23.8323 84.0921 24.3495 83.6825 24.7492C83.2729 25.1488 82.6813 25.3369 81.9531 25.3369Z" fill="white"/>
<path d="M94.0919 28.6048C96.5039 28.6048 98.3015 27.5469 99.4848 25.4074L97.0728 24.1849C96.7769 24.7021 96.3901 25.1253 95.8895 25.431C95.3889 25.7366 94.82 25.8776 94.1374 25.8776C93.3182 25.8776 92.6128 25.6425 92.0212 25.1488C91.4296 24.6551 91.0655 23.9263 90.929 22.9624H99.644C99.6896 22.6333 99.7123 22.3041 99.7123 21.928C99.7123 20.7995 99.4848 19.7886 99.0297 18.8482C98.5746 17.9313 97.9374 17.2025 97.0728 16.6617C96.2081 16.1445 95.1614 15.8624 93.9781 15.8624C92.8404 15.8624 91.8392 16.168 90.929 16.7323C90.0188 17.32 89.2906 18.0958 88.79 19.0833C88.2667 20.0707 88.0164 21.1286 88.0164 22.2571C88.0164 23.4796 88.2667 24.5611 88.79 25.525C89.3134 26.4889 90.0415 27.2412 90.9745 27.782C91.8847 28.3462 92.9314 28.6048 94.0919 28.6048ZM96.8452 20.776H91.0655C91.2931 20.0472 91.6571 19.4594 92.1577 19.0362C92.6583 18.6131 93.2727 18.378 94.0009 18.378C94.547 18.378 95.0476 18.519 95.4572 18.7541C95.8668 18.9892 96.2081 19.2949 96.4356 19.671C96.6632 20.0472 96.7997 20.3998 96.8452 20.776Z" fill="white"/>
<path d="M100.871 16.2386V28.2286H103.852V22.1866C103.852 21.1521 104.057 20.3293 104.512 19.6945C104.967 19.0598 105.558 18.7306 106.286 18.7306C106.924 18.7306 107.424 18.9422 107.788 19.3419C108.152 19.7651 108.334 20.3293 108.334 21.0816V28.2286H111.315V22.1866C111.315 21.1521 111.543 20.3293 111.998 19.6945C112.453 19.0598 113.09 18.7306 113.864 18.7306C114.455 18.7306 114.933 18.9422 115.275 19.3419C115.616 19.7651 115.798 20.3293 115.798 21.0816V28.2286H118.756V20.5174C118.756 19.1068 118.392 17.9783 117.709 17.1319C117.027 16.2856 116.026 15.8624 114.706 15.8624C113.796 15.8624 113.022 16.074 112.362 16.4502C111.702 16.8498 111.179 17.367 110.815 17.9783C110.542 17.367 110.109 16.8733 109.518 16.4737C108.903 16.074 108.198 15.8624 107.379 15.8624C106.605 15.8624 105.922 16.0505 105.308 16.3796C104.694 16.7088 104.216 17.179 103.852 17.7432H103.67V16.2386H100.871Z" fill="white"/>
<path d="M126.018 28.6048C127.201 28.6048 128.248 28.3462 129.204 27.782C130.136 27.2177 130.865 26.4654 131.388 25.5015C131.911 24.5376 132.184 23.4561 132.184 22.2336C132.184 21.0581 131.911 19.9766 131.388 18.9892C130.865 18.0253 130.136 17.273 129.204 16.7088C128.248 16.1445 127.201 15.8624 126.018 15.8624C124.812 15.8624 123.742 16.1445 122.809 16.7088C121.854 17.273 121.126 18.0253 120.602 18.9892C120.079 19.9766 119.829 21.0581 119.829 22.2336C119.829 23.4561 120.079 24.5376 120.602 25.5015C121.126 26.4654 121.854 27.2177 122.809 27.782C123.742 28.3462 124.812 28.6048 126.018 28.6048ZM126.018 25.7601C125.426 25.7601 124.903 25.619 124.425 25.3369C123.924 25.0548 123.538 24.6551 123.242 24.1144C122.946 23.5737 122.809 22.9389 122.809 22.2336C122.809 21.5283 122.946 20.917 123.242 20.3763C123.538 19.8591 123.924 19.4359 124.425 19.1538C124.903 18.8717 125.426 18.7306 126.018 18.7306C126.587 18.7306 127.11 18.8717 127.611 19.1538C128.089 19.4359 128.475 19.8591 128.771 20.3763C129.044 20.917 129.204 21.5283 129.204 22.2336C129.204 22.9624 129.044 23.5972 128.771 24.1144C128.475 24.6551 128.089 25.0548 127.611 25.3369C127.11 25.619 126.587 25.7601 126.018 25.7601Z" fill="white"/>
<path d="M144.19 28.6048C145.453 28.6048 146.536 28.3227 147.461 27.7349C148.363 27.1707 149.085 26.3478 149.581 25.2899L146.897 24.0674C146.333 25.1959 145.43 25.7601 144.19 25.7601C143.288 25.7601 142.543 25.4545 141.957 24.7962C141.37 24.1614 141.1 23.3151 141.1 22.2336C141.1 21.1992 141.37 20.3528 141.957 19.6945C142.543 19.0598 143.288 18.7306 144.19 18.7306C145.408 18.7306 146.265 19.2713 146.761 20.3293L149.468 19.1538C149.062 18.1194 148.385 17.2965 147.483 16.7323C146.558 16.168 145.453 15.8624 144.19 15.8624C143.017 15.8624 141.979 16.1445 141.077 16.6853C140.152 17.2495 139.43 18.0018 138.912 18.9657C138.393 19.9296 138.145 21.0111 138.145 22.2336C138.145 23.4561 138.393 24.5611 138.912 25.525C139.43 26.5124 140.152 27.2647 141.077 27.8055C141.979 28.3462 143.017 28.6048 144.19 28.6048Z" fill="white"/>
<path d="M150.579 11.3955V28.2286H153.534V11.3955H150.579Z" fill="white"/>
<path d="M160.704 28.6048C161.877 28.6048 162.915 28.3462 163.862 27.782C164.787 27.2177 165.509 26.4654 166.028 25.5015C166.547 24.5376 166.817 23.4561 166.817 22.2336C166.817 21.0581 166.547 19.9766 166.028 18.9892C165.509 18.0253 164.787 17.273 163.862 16.7088C162.915 16.1445 161.877 15.8624 160.704 15.8624C159.509 15.8624 158.449 16.1445 157.524 16.7088C156.576 17.273 155.855 18.0253 155.336 18.9892C154.817 19.9766 154.569 21.0581 154.569 22.2336C154.569 23.4561 154.817 24.5376 155.336 25.5015C155.855 26.4654 156.576 27.2177 157.524 27.782C158.449 28.3462 159.509 28.6048 160.704 28.6048ZM160.704 25.7601C160.118 25.7601 159.599 25.619 159.125 25.3369C158.629 25.0548 158.246 24.6551 157.952 24.1144C157.659 23.5737 157.524 22.9389 157.524 22.2336C157.524 21.5283 157.659 20.917 157.952 20.3763C158.246 19.8591 158.629 19.4359 159.125 19.1538C159.599 18.8717 160.118 18.7306 160.704 18.7306C161.268 18.7306 161.787 18.8717 162.283 19.1538C162.757 19.4359 163.14 19.8591 163.434 20.3763C163.704 20.917 163.862 21.5283 163.862 22.2336C163.862 22.9624 163.704 23.5972 163.434 24.1144C163.14 24.6551 162.757 25.0548 162.283 25.3369C161.787 25.619 161.268 25.7601 160.704 25.7601Z" fill="white"/>
<path d="M171.991 28.6048C172.735 28.6048 173.412 28.4402 174.043 28.1111C174.675 27.782 175.149 27.3118 175.51 26.724H175.69V28.2286H178.464V16.2386H175.51V22.3512C175.51 23.3386 175.261 24.1614 174.765 24.7962C174.269 25.4545 173.592 25.7601 172.758 25.7601C172.126 25.7601 171.63 25.5485 171.269 25.0783C170.885 24.6081 170.705 23.9733 170.705 23.1505V16.2386H167.75V23.5267C167.75 25.1253 168.111 26.3714 168.833 27.2647C169.555 28.1581 170.592 28.6048 171.991 28.6048Z" fill="white"/>
<path d="M185.045 28.6048C185.812 28.6048 186.512 28.4402 187.121 28.0876C187.73 27.7584 188.181 27.3118 188.497 26.7945H188.677V28.2286H191.429V11.3955H188.497V16.0035L188.677 17.6962H188.497C188.181 17.179 187.707 16.7558 187.121 16.4031C186.512 16.0505 185.812 15.8624 185.045 15.8624C184.008 15.8624 183.06 16.1445 182.203 16.6853C181.346 17.226 180.692 17.9783 180.196 18.9422C179.699 19.9296 179.474 21.0111 179.474 22.2336C179.474 23.4796 179.699 24.5846 180.196 25.5485C180.692 26.5124 181.346 27.2647 182.203 27.8055C183.06 28.3462 184.008 28.6048 185.045 28.6048ZM185.542 25.7601C185 25.7601 184.482 25.619 184.008 25.3134C183.512 25.0313 183.128 24.6081 182.857 24.0674C182.564 23.5502 182.429 22.9389 182.429 22.2336C182.429 21.5518 182.564 20.9406 182.857 20.3998C183.128 19.8826 183.512 19.4594 184.008 19.1773C184.482 18.8952 185 18.7306 185.542 18.7306C186.083 18.7306 186.602 18.8952 187.098 19.1773C187.572 19.4594 187.955 19.8826 188.249 20.3998C188.519 20.9406 188.677 21.5518 188.677 22.2336C188.677 22.9389 188.519 23.5502 188.249 24.0674C187.955 24.6081 187.572 25.0313 187.098 25.3134C186.602 25.619 186.083 25.7601 185.542 25.7601Z" fill="white"/>
</svg>
