<svg width="32" height="32" viewBox="0 0 32 32" fill="none" xmlns="http://www.w3.org/2000/svg">
<path fill-rule="evenodd" clip-rule="evenodd" d="M25.5432 11.7575C28.8985 11.9972 31.5973 14.6823 31.9577 18.0884C31.9859 18.3446 32 18.605 32 18.8695C32 19.6226 31.8862 20.3478 31.6759 21.0287C31.4383 21.7983 31.0769 22.5101 30.6148 23.1424C29.3484 24.877 27.328 26 25.053 26H6.26249C4.0901 26 2.17642 24.8656 1.05298 23.1424C0.640242 22.5081 0.334214 21.7942 0.161067 21.0287C0.0553668 20.5607 0 20.0741 0 19.574C0 19.0627 0.0583868 18.5657 0.168114 18.0884C0.821442 15.2546 3.30187 13.1471 6.26249 13.1471C6.61986 13.1471 6.97118 13.1781 7.31245 13.238C8.4832 9.05801 12.2431 6 16.6996 6C20.6116 6 23.9859 8.35549 25.5432 11.7575ZM25.052 23.1424C26.7875 23.1424 28.0891 22.0587 28.6629 21.0287C29.0182 20.3912 29.2296 19.6567 29.2296 18.8705C29.2296 18.604 29.2055 18.3426 29.1602 18.0895C28.8844 16.5532 27.8102 15.3032 26.3949 14.8104C25.9741 14.6637 25.5221 14.5841 25.053 14.5841H24.7107C24.146 14.5841 23.6587 14.2401 23.4383 13.7452C23.4262 13.7132 23.398 13.645 23.397 13.643C23.2202 13.2244 22.9865 12.8504 22.7311 12.4418C22.6826 12.3643 22.6334 12.2855 22.5836 12.2049C21.3504 10.2068 19.176 8.87928 16.6996 8.87928C13.4119 8.87928 10.6536 11.211 9.92576 14.3568C11.4287 15.3796 12.53 17.3518 12.523 19.5379C12.524 19.5451 12.524 19.5524 12.524 19.5596V19.5751C12.5159 20.3799 11.8777 21.0297 11.0915 21.0297H7.79565C7.4121 21.4595 6.87857 21.7105 6.26551 21.7105C5.65245 21.7105 5.09878 21.4213 4.73738 21.0266C4.38908 20.6464 4.17969 20.1319 4.17969 19.5699C4.17969 18.9955 4.39109 18.4862 4.74946 18.0998C5.13099 17.6866 5.68466 17.4293 6.2494 17.4293C6.5363 17.4293 6.8081 17.4758 7.05776 17.5832C7.32956 17.7 7.57116 17.8725 7.77048 18.0884H9.42746C8.96942 17.0564 8.06845 16.3074 6.95608 16.079C6.73361 16.0336 6.48194 16.0108 6.24638 16.0108C4.10657 16.0671 2.79049 17.826 2.79049 19.5689C2.79049 21.8614 4.68604 23.1311 6.26551 23.1311L25.052 23.1424ZM7.08349 19.5692C7.08349 20.0325 6.71752 20.4081 6.26607 20.4081C5.81463 20.4081 5.44866 20.0325 5.44866 19.5692C5.44866 19.1059 5.81463 18.7303 6.26607 18.7303C6.71752 18.7303 7.08349 19.1059 7.08349 19.5692Z" fill="white"/>
</svg>
