<svg width="24" height="24" viewBox="0 0 24 24" fill="none" xmlns="http://www.w3.org/2000/svg">
<path d="M20.8125 11.7338L19 10.2304V7.22371C19 7.09843 18.875 6.97315 18.75 6.97315H17.75C17.5938 7.00447 17.5 7.09843 17.5 7.22371V9.00895L13.0938 5.37584C12.8438 5.1566 12.3438 5 12 5C11.625 5 11.125 5.1566 10.875 5.37584L3.15625 11.7338C3.0625 11.8277 3 11.9843 3 12.1096C3 12.2036 3.03125 12.3602 3.09375 12.4228L3.4375 12.83C3.5 12.9239 3.6875 12.9866 3.8125 12.9866C3.90625 12.9866 4.0625 12.9553 4.125 12.8926L5 12.1723V17.9978C5 18.5615 5.4375 19 6 19H10C10.5312 19 10.9688 18.5615 11 17.9978V14.7405H13V17.9978C13 18.5615 13.4375 19 14 19H18C18.5312 19 18.9688 18.5615 19 18.0291V12.1723L19.8438 12.8926C19.9062 12.9553 20.0625 13.0179 20.1562 13.0179C20.2812 13.0179 20.4688 12.9239 20.5625 12.83L20.875 12.4228C20.9375 12.3602 21 12.2036 21 12.1096C21 11.9843 20.9062 11.8277 20.8125 11.7338ZM17.4688 17.4966H14.5V14.2394C14.4688 13.7069 14.0312 13.2685 13.5 13.2371H10.5C9.9375 13.2685 9.5 13.7069 9.5 14.2394V17.4966H6.5V10.9508L12 6.4094L17.5 10.9508L17.4688 17.4966Z" fill="#4C9CE6"/>
</svg>
