<svg width="16" height="16" viewBox="0 0 16 16" fill="none" xmlns="http://www.w3.org/2000/svg">
<path d="M12.3337 4H3.66699C3.10449 4 2.66699 4.45833 2.66699 5V11C2.66699 11.5625 3.10449 12 3.66699 12H12.3337C12.8753 12 13.3337 11.5625 13.3337 11V5C13.3337 4.45833 12.8753 4 12.3337 4ZM12.3337 5V5.85417C11.8545 6.25 11.1045 6.83333 9.52116 8.08333C9.16699 8.35417 8.47949 9.02083 8.00033 9C7.50033 9.02083 6.81283 8.35417 6.45866 8.08333C4.87533 6.83333 4.12533 6.25 3.66699 5.85417V5H12.3337ZM3.66699 11V7.14583C4.12533 7.52083 4.81283 8.0625 5.83366 8.875C6.29199 9.22917 7.10449 10.0208 8.00033 10C8.87533 10.0208 9.66699 9.22917 10.1462 8.875C11.167 8.0625 11.8545 7.52083 12.3337 7.14583V11H3.66699Z" fill="#858585"/>
</svg>
