<svg width="24" height="24" viewBox="0 0 24 24" fill="none" xmlns="http://www.w3.org/2000/svg">
<path d="M12 12C11.4375 12 11 12.4688 11 13C11 13.5625 11.4375 14 12 14C12.5312 14 13 13.5625 13 13C13 12.4688 12.5312 12 12 12ZM18 4H6C4.875 4 4 4.90625 4 6V15C4 16.125 4.875 17 6 17H9V19.625C9 19.875 9.15625 20 9.375 20C9.4375 20 9.5 20 9.59375 19.9375L13.5 17H18C19.0938 17 20 16.125 20 15V6C20 4.90625 19.0938 4 18 4ZM18.5 15C18.5 15.2812 18.25 15.5 18 15.5H13L12.5938 15.8125L10.5 17.375V15.5H6C5.71875 15.5 5.5 15.2812 5.5 15V6C5.5 5.75 5.71875 5.5 6 5.5H18C18.25 5.5 18.5 5.75 18.5 6V15ZM12.875 7H11.0938C10.7812 7 10.5312 7.3125 10.5938 7.59375L11.1562 10.5938C11.2188 10.8438 11.4062 11 11.6562 11H12.3125C12.5625 11 12.7812 10.8438 12.8125 10.5938L13.375 7.59375C13.4375 7.3125 13.1875 7 12.875 7Z" fill="#175EA1"/>
</svg>
