<svg width="24" height="24" viewBox="0 0 24 24" fill="none" xmlns="http://www.w3.org/2000/svg">
<path d="M18.8754 4.69484L15.9391 4.03756C15.2519 3.88107 14.5646 4.22535 14.3147 4.85133L12.9403 8.04382C12.6904 8.6072 12.8465 9.29578 13.3463 9.70266L14.5959 10.7355C13.7212 12.3631 12.3467 13.7089 10.7224 14.6166L9.69153 13.3646C9.28544 12.8639 8.5982 12.7074 8.03592 12.9577L4.84967 14.3036C4.22491 14.5853 3.8813 15.2739 4.03749 15.9624L4.69348 18.9045C4.84967 19.5618 5.44319 20 6.09918 20C13.7524 20 20 13.8028 20 6.10329C20 5.44601 19.5314 4.85133 18.8754 4.69484ZM6.16166 18.4977L5.50566 15.6808L8.56697 14.3662L10.3163 16.4945C13.4088 15.0235 15.002 13.4272 16.4701 10.3286L14.346 8.5759L15.6579 5.50861L18.5006 6.16589C18.4693 12.9577 12.9403 18.4664 6.16166 18.4977Z" fill="#858585"/>
</svg>
