<svg width="24" height="24" viewBox="0 0 24 24" fill="none" xmlns="http://www.w3.org/2000/svg">
<path d="M18.2774 13.375C18.3713 12.9375 18.434 12.4688 18.434 12C18.434 8.46875 15.553 5.59375 12.0145 5.59375C11.5448 5.59375 11.075 5.65625 10.6366 5.75C10.0417 5.28125 9.2901 5 8.50724 5C6.56573 5 5 6.59375 5 8.5C5 9.3125 5.25052 10.0625 5.72024 10.6562C5.62629 11.0938 5.56366 11.5625 5.56366 12C5.56366 15.5625 8.44461 18.4375 11.9832 18.4375C12.4529 18.4375 12.9226 18.375 13.361 18.2812C13.956 18.75 14.7075 19 15.4904 19C17.4319 19 18.9976 17.4375 18.9976 15.5C19.029 14.7188 18.7471 13.9688 18.2774 13.375ZM12.2024 16.25C10.1356 16.25 8.41329 15.3438 8.41329 14.2188C8.41329 13.7188 8.69513 13.25 9.35273 13.25C10.3235 13.25 10.4174 14.6562 12.1084 14.6562C12.8913 14.6562 13.4236 14.3125 13.4236 13.8438C13.4236 13.25 12.9226 13.1562 12.1084 12.9688C10.1669 12.4688 8.41329 12.2812 8.41329 10.25C8.41329 8.375 10.2609 7.6875 11.8266 7.6875C13.5489 7.6875 15.3025 8.375 15.3025 9.4375C15.3025 9.96875 14.958 10.4375 14.3631 10.4375C13.4863 10.4375 13.4549 9.375 12.0145 9.375C11.2003 9.375 10.6993 9.59375 10.6993 10.0938C10.6993 10.6875 11.3569 10.75 12.86 11.125C14.1439 11.4062 15.7096 11.9375 15.7096 13.5312C15.7096 15.375 13.9247 16.25 12.2024 16.25Z" fill="#858585"/>
</svg>
