<svg width="24" height="24" viewBox="0 0 24 24" fill="none" xmlns="http://www.w3.org/2000/svg">
<path d="M12 4C7.58065 4 4 7.58065 4 12C4 16.4194 7.58065 20 12 20C16.4194 20 20 16.4194 20 12C20 7.58065 16.4194 4 12 4ZM17.7742 9.16129H15.6129C15.3871 8 15.0323 6.96774 14.5806 6.12903C15.9677 6.74194 17.0968 7.80645 17.7742 9.16129ZM12 5.54839C12.5806 5.54839 13.5484 6.90323 14.0323 9.16129H9.93548C10.4194 6.90323 11.3871 5.54839 12 5.54839ZM5.54839 12C5.54839 11.5806 5.58065 11.129 5.67742 10.7097H8.16129C8.12903 11.1613 8.12903 11.5806 8.12903 12C8.12903 12.4516 8.12903 12.871 8.16129 13.2903H5.67742C5.58065 12.9032 5.54839 12.4516 5.54839 12ZM6.19355 14.8387H8.35484C8.58064 16.0323 8.93548 17.0645 9.3871 17.9032C8 17.2903 6.87097 16.1935 6.19355 14.8387ZM8.35484 9.16129H6.19355C6.87097 7.80645 8 6.74194 9.3871 6.12903C8.93548 6.96774 8.58064 8 8.35484 9.16129ZM12 18.4516C11.3871 18.4516 10.4194 17.129 9.93548 14.8387H14.0323C13.5484 17.129 12.5806 18.4516 12 18.4516ZM14.2581 13.2903H9.70968C9.67742 12.9032 9.67742 12.4516 9.67742 12C9.67742 11.5484 9.67742 11.129 9.70968 10.7097H14.2581C14.2903 11.129 14.3226 11.5484 14.3226 12C14.3226 12.4516 14.2903 12.9032 14.2581 13.2903ZM14.5806 17.9032C15.0323 17.0645 15.3871 16.0323 15.6129 14.8387H17.7742C17.0968 16.1935 15.9677 17.2903 14.5806 17.9032ZM15.8065 13.2903C15.8387 12.871 15.871 12.4516 15.871 12C15.871 11.5806 15.8387 11.1613 15.8065 10.7097H18.3226C18.3871 11.129 18.4516 11.5806 18.4516 12C18.4516 12.4516 18.3871 12.9032 18.3226 13.2903H15.8065Z" fill="#4C9CE6"/>
</svg>
