<svg width="80" height="60" viewBox="0 0 80 60" fill="none" xmlns="http://www.w3.org/2000/svg">
<rect width="80" height="60" fill="#0C3255" fill-opacity="0.25"/>
<path d="M57.7044 23.8094C57.3159 20.2001 54.4061 17.3549 50.7888 17.1009C49.1098 13.496 45.4718 11 41.2543 11C36.4496 11 32.396 14.2404 31.1337 18.6697C30.7658 18.6062 30.387 18.5733 30.0017 18.5733C26.8098 18.5733 24.1356 20.8066 23.4312 23.8094C23.3129 24.3152 23.25 24.8418 23.25 25.3836C23.25 25.9135 23.3097 26.4291 23.4237 26.925C23.6103 27.7362 23.9403 28.4927 24.3852 29.1648C25.5965 30.9908 27.6596 32.1929 30.0017 32.1929H50.2602C52.7131 32.1929 54.8913 31.0029 56.2566 29.1648C56.7548 28.4949 57.1444 27.7406 57.4005 26.925C57.6274 26.2036 57.75 25.4351 57.75 24.637C57.75 24.3568 57.7348 24.0809 57.7044 23.8094ZM54.1522 26.925C53.5336 28.0165 52.1302 29.1648 50.2592 29.1648C50.1126 29.1648 30.1287 29.1528 30.005 29.1528C28.3021 29.1528 26.2585 27.8074 26.2585 25.3782C26.2585 23.5314 27.6774 21.6676 29.9844 21.6079C30.2383 21.6079 30.5097 21.632 30.7495 21.6802C31.9488 21.9221 32.9202 22.7158 33.414 23.8094H31.6275C31.4127 23.5806 31.1522 23.3978 30.8591 23.2741C30.59 23.1602 30.297 23.111 29.9876 23.111C29.3788 23.111 28.7819 23.3836 28.3705 23.8215C27.9841 24.2309 27.7562 24.7706 27.7562 25.3793C27.7562 25.9748 27.982 26.52 28.3575 26.9228C28.7471 27.341 29.344 27.6475 30.005 27.6475C30.666 27.6475 31.2412 27.3815 31.6547 26.9261H35.208C36.0556 26.9261 36.7437 26.2375 36.7524 25.3847V25.3683C36.7524 25.3607 36.7524 25.353 36.7513 25.3453C36.7589 23.0289 35.5716 20.939 33.9512 19.8553C34.7359 16.5218 37.7097 14.051 41.2543 14.051C43.9242 14.051 46.2684 15.4577 47.598 17.5749C47.9344 18.1103 48.2481 18.5711 48.4749 19.0988C48.476 19.101 48.5064 19.1732 48.5194 19.2072C48.7571 19.7316 49.2824 20.0961 49.8912 20.0961H50.2602C50.766 20.0961 51.2533 20.1804 51.707 20.3358C53.2329 20.858 54.391 22.1827 54.6883 23.8105C54.7372 24.0787 54.7632 24.3557 54.7632 24.6381C54.7632 25.4712 54.5353 26.2496 54.1522 26.925Z" fill="#B8D7F5"/>
<path d="M30.0053 26.2673C30.492 26.2673 30.8866 25.8694 30.8866 25.3784C30.8866 24.8875 30.492 24.4895 30.0053 24.4895C29.5186 24.4895 29.124 24.8875 29.124 25.3784C29.124 25.8694 29.5186 26.2673 30.0053 26.2673Z" fill="#F1F6F9"/>
<path d="M41.3273 48.1059C41.6062 48.1059 41.8386 48.0175 42.0361 47.8295C42.2336 47.6415 42.3382 47.4093 42.3382 47.1439C42.3382 46.8785 42.2336 46.6573 42.0361 46.4693C41.8386 46.2924 41.6062 46.1929 41.3273 46.1929C41.0484 46.1929 40.8044 46.2924 40.6069 46.4693C40.4094 46.6573 40.3164 46.8785 40.3164 47.1439C40.3164 47.4093 40.4094 47.6415 40.6069 47.8295C40.8044 48.0175 41.0484 48.1059 41.3273 48.1059Z" fill="#B8D7F5"/>
<path d="M11 40.1929V48.018H14.3574C14.8553 48.018 15.3068 47.9306 15.7236 47.7557C16.1404 47.5808 16.4645 47.3186 16.7076 46.9907C16.9508 46.6628 17.0781 46.2803 17.0781 45.8431C17.0781 45.406 16.9508 45.0235 16.6961 44.7065C16.4414 44.3896 16.094 44.1601 15.6657 44.0071V43.9196C15.9898 43.7666 16.2561 43.5481 16.4645 43.2639C16.6729 42.9798 16.7771 42.63 16.7771 42.2366C16.7771 41.865 16.6613 41.5262 16.4414 41.2093C16.2098 40.9033 15.9088 40.6519 15.5152 40.4661C15.1215 40.2912 14.7048 40.1929 14.2417 40.1929H11ZM14.1259 43.3841H12.5629V41.5153H14.1722C14.4964 41.5153 14.7511 41.6136 14.9479 41.7885C15.1447 41.9634 15.2489 42.1819 15.2489 42.4442C15.2489 42.7175 15.1447 42.947 14.9363 43.1218C14.7279 43.2967 14.4616 43.3841 14.1259 43.3841ZM14.2996 46.6737H12.5629V44.6519H14.2532C14.6469 44.6519 14.9595 44.7502 15.1794 44.936C15.3878 45.1328 15.5036 45.3732 15.5036 45.6683C15.5036 45.9743 15.3878 46.2147 15.1794 46.4005C14.971 46.5863 14.67 46.6737 14.2996 46.6737Z" fill="#B8D7F5"/>
<path d="M20.4756 48.1929C21.7028 48.1929 22.6174 47.7011 23.2195 46.7065L21.9923 46.1382C21.8418 46.3787 21.6449 46.5754 21.3902 46.7175C21.1355 46.8595 20.8461 46.9251 20.4988 46.9251C20.082 46.9251 19.7231 46.8158 19.4221 46.5863C19.1211 46.3568 18.9358 46.018 18.8664 45.5699H23.3005C23.3237 45.4169 23.3352 45.2639 23.3352 45.089C23.3352 44.5645 23.2195 44.0945 22.9879 43.6574C22.7564 43.2311 22.4322 42.8923 21.9923 42.641C21.5523 42.4005 21.0198 42.2694 20.4177 42.2694C19.8389 42.2694 19.3295 42.4115 18.8664 42.6737C18.4033 42.947 18.0328 43.3076 17.7781 43.7666C17.5118 44.2257 17.3845 44.7175 17.3845 45.2421C17.3845 45.8104 17.5118 46.3131 17.7781 46.7612C18.0444 47.2093 18.4149 47.559 18.8895 47.8104C19.3526 48.0727 19.8852 48.1929 20.4756 48.1929ZM21.8765 44.5535H18.9358C19.0516 44.2147 19.2368 43.9415 19.4916 43.7448C19.7463 43.5481 20.0588 43.4388 20.4293 43.4388C20.7072 43.4388 20.9619 43.5043 21.1703 43.6136C21.3787 43.7229 21.5523 43.865 21.6681 44.0399C21.7839 44.2147 21.8533 44.3787 21.8765 44.5535Z" fill="#B8D7F5"/>
<path d="M23.9247 42.4442V48.018H25.4413V45.2093C25.4413 44.7284 25.5455 44.3459 25.7771 44.0508C26.0086 43.7557 26.3096 43.6027 26.6801 43.6027C27.0043 43.6027 27.259 43.7011 27.4442 43.8869C27.6295 44.0836 27.7221 44.3459 27.7221 44.6956V48.018H29.2387V45.2093C29.2387 44.7284 29.3545 44.3459 29.586 44.0508C29.8176 43.7557 30.1417 43.6027 30.5354 43.6027C30.8364 43.6027 31.0795 43.7011 31.2532 43.8869C31.4268 44.0836 31.5194 44.3459 31.5194 44.6956V48.018H33.0245V44.4333C33.0245 43.7776 32.8393 43.253 32.4919 42.8595C32.1446 42.4661 31.6352 42.2694 30.9637 42.2694C30.5006 42.2694 30.107 42.3677 29.7713 42.5426C29.4355 42.7284 29.1692 42.9688 28.984 43.253C28.8451 42.9688 28.6251 42.7393 28.3241 42.5535C28.0115 42.3677 27.6526 42.2694 27.2358 42.2694C26.8422 42.2694 26.4949 42.3568 26.1823 42.5098C25.8697 42.6628 25.6266 42.8814 25.4413 43.1437H25.3487V42.4442H23.9247Z" fill="#B8D7F5"/>
<path d="M36.7192 48.1929C37.3212 48.1929 37.8538 48.0727 38.3401 47.8104C38.8147 47.5481 39.1852 47.1983 39.4515 46.7502C39.7178 46.3022 39.8567 45.7994 39.8567 45.2311C39.8567 44.6847 39.7178 44.1819 39.4515 43.7229C39.1852 43.2748 38.8147 42.9251 38.3401 42.6628C37.8538 42.4005 37.3212 42.2694 36.7192 42.2694C36.1056 42.2694 35.5615 42.4005 35.0868 42.6628C34.6006 42.9251 34.2301 43.2748 33.9638 43.7229C33.6975 44.1819 33.5702 44.6847 33.5702 45.2311C33.5702 45.7994 33.6975 46.3022 33.9638 46.7502C34.2301 47.1983 34.6006 47.5481 35.0868 47.8104C35.5615 48.0727 36.1056 48.1929 36.7192 48.1929ZM36.7192 46.8705C36.4182 46.8705 36.1519 46.8049 35.9088 46.6737C35.6541 46.5426 35.4573 46.3568 35.3068 46.1054C35.1563 45.8541 35.0868 45.559 35.0868 45.2311C35.0868 44.9033 35.1563 44.6191 35.3068 44.3677C35.4573 44.1273 35.6541 43.9306 35.9088 43.7994C36.1519 43.6683 36.4182 43.6027 36.7192 43.6027C37.0087 43.6027 37.2749 43.6683 37.5296 43.7994C37.7728 43.9306 37.9696 44.1273 38.1201 44.3677C38.259 44.6191 38.3401 44.9033 38.3401 45.2311C38.3401 45.5699 38.259 45.865 38.1201 46.1054C37.9696 46.3568 37.7728 46.5426 37.5296 46.6737C37.2749 46.8049 37.0087 46.8705 36.7192 46.8705Z" fill="#B8D7F5"/>
<path d="M45.9654 48.1929C46.6081 48.1929 47.159 48.0617 47.6295 47.7885C48.0886 47.5262 48.4559 47.1437 48.7083 46.6519L47.3426 46.0836C47.0557 46.6082 46.5966 46.8705 45.9654 46.8705C45.5063 46.8705 45.1276 46.7284 44.8292 46.4224C44.5308 46.1273 44.3931 45.7339 44.3931 45.2311C44.3931 44.7502 44.5308 44.3568 44.8292 44.0508C45.1276 43.7557 45.5063 43.6027 45.9654 43.6027C46.5851 43.6027 47.0213 43.8541 47.2738 44.3459L48.651 43.7994C48.4444 43.3186 48.1001 42.936 47.641 42.6737C47.1705 42.4115 46.6081 42.2694 45.9654 42.2694C45.3686 42.2694 44.8407 42.4005 44.3816 42.6519C43.9111 42.9142 43.5438 43.2639 43.2799 43.712C43.0159 44.1601 42.8896 44.6628 42.8896 45.2311C42.8896 45.7994 43.0159 46.3131 43.2799 46.7612C43.5438 47.2202 43.9111 47.5699 44.3816 47.8213C44.8407 48.0727 45.3686 48.1929 45.9654 48.1929Z" fill="#B8D7F5"/>
<path d="M49.2161 40.1929V48.018H50.7195V40.1929H49.2161Z" fill="#B8D7F5"/>
<path d="M54.3678 48.1929C54.9646 48.1929 55.4925 48.0727 55.9745 47.8104C56.4451 47.5481 56.8123 47.1983 57.0763 46.7502C57.3403 46.3022 57.478 45.7994 57.478 45.2311C57.478 44.6847 57.3403 44.1819 57.0763 43.7229C56.8123 43.2748 56.4451 42.9251 55.9745 42.6628C55.4925 42.4005 54.9646 42.2694 54.3678 42.2694C53.7595 42.2694 53.2201 42.4005 52.7496 42.6628C52.2676 42.9251 51.9003 43.2748 51.6363 43.7229C51.3724 44.1819 51.2461 44.6847 51.2461 45.2311C51.2461 45.7994 51.3724 46.3022 51.6363 46.7502C51.9003 47.1983 52.2676 47.5481 52.7496 47.8104C53.2201 48.0727 53.7595 48.1929 54.3678 48.1929ZM54.3678 46.8705C54.0694 46.8705 53.8054 46.8049 53.5644 46.6737C53.3119 46.5426 53.1168 46.3568 52.9676 46.1054C52.8184 45.8541 52.7496 45.559 52.7496 45.2311C52.7496 44.9033 52.8184 44.6191 52.9676 44.3677C53.1168 44.1273 53.3119 43.9306 53.5644 43.7994C53.8054 43.6683 54.0694 43.6027 54.3678 43.6027C54.6547 43.6027 54.9187 43.6683 55.1712 43.7994C55.4122 43.9306 55.6073 44.1273 55.7565 44.3677C55.8942 44.6191 55.9745 44.9033 55.9745 45.2311C55.9745 45.5699 55.8942 45.865 55.7565 46.1054C55.6073 46.3568 55.4122 46.5426 55.1712 46.6737C54.9187 46.8049 54.6547 46.8705 54.3678 46.8705Z" fill="#B8D7F5"/>
<path d="M60.1102 48.1929C60.4889 48.1929 60.8332 48.1164 61.1546 47.9634C61.4759 47.8104 61.7169 47.5918 61.9005 47.3186H61.9924V48.018H63.404V42.4442H61.9005V45.2858C61.9005 45.7448 61.7743 46.1273 61.5218 46.4224C61.2693 46.7284 60.925 46.8705 60.5004 46.8705C60.179 46.8705 59.9266 46.7721 59.7429 46.5535C59.5478 46.3349 59.456 46.0399 59.456 45.6574V42.4442H57.9526V45.8322C57.9526 46.5754 58.1362 47.1546 58.5034 47.5699C58.8707 47.9852 59.3986 48.1929 60.1102 48.1929Z" fill="#B8D7F5"/>
<path d="M66.7523 48.1929C67.1425 48.1929 67.4983 48.1164 67.8082 47.9524C68.1181 47.7994 68.3476 47.5918 68.5083 47.3513H68.6001V48.018H70.0002V40.1929H68.5083V42.3349L68.6001 43.1218H68.5083C68.3476 42.8814 68.1066 42.6847 67.8082 42.5207C67.4983 42.3568 67.1425 42.2694 66.7523 42.2694C66.2244 42.2694 65.7424 42.4005 65.3063 42.6519C64.8701 42.9033 64.5373 43.253 64.2848 43.7011C64.0323 44.1601 63.9176 44.6628 63.9176 45.2311C63.9176 45.8104 64.0323 46.324 64.2848 46.7721C64.5373 47.2202 64.8701 47.5699 65.3063 47.8213C65.7424 48.0727 66.2244 48.1929 66.7523 48.1929ZM67.0048 46.8705C66.7294 46.8705 66.4654 46.8049 66.2244 46.6628C65.9719 46.5317 65.7768 46.3349 65.6391 46.0836C65.4899 45.8431 65.421 45.559 65.421 45.2311C65.421 44.9142 65.4899 44.63 65.6391 44.3787C65.7768 44.1382 65.9719 43.9415 66.2244 43.8104C66.4654 43.6792 66.7294 43.6027 67.0048 43.6027C67.2803 43.6027 67.5442 43.6792 67.7967 43.8104C68.0377 43.9415 68.2328 44.1382 68.382 44.3787C68.5197 44.63 68.6001 44.9142 68.6001 45.2311C68.6001 45.559 68.5197 45.8431 68.382 46.0836C68.2328 46.3349 68.0377 46.5317 67.7967 46.6628C67.5442 46.8049 67.2803 46.8705 67.0048 46.8705Z" fill="#B8D7F5"/>
</svg>
