<svg width="140" height="140" viewBox="0 0 140 140" fill="none" xmlns="http://www.w3.org/2000/svg">
<g clip-path="url(#clip0)">
<rect width="140" height="140" rx="8" fill="#F1F6F9"/>
<g filter="url(#filter0_d)">
<path d="M116.377 57.452C115.33 47.7445 107.486 40.0921 97.735 39.409C93.209 29.7132 83.4023 23 72.0333 23C59.0815 23 48.1543 31.7153 44.7518 43.6282C43.76 43.4575 42.739 43.3691 41.7004 43.3691C33.0961 43.3691 25.8873 49.3756 23.9886 57.452C23.6697 58.8123 23.5 60.2286 23.5 61.686C23.5 63.1111 23.6609 64.4979 23.9681 65.8317C24.4713 68.0135 25.3607 70.048 26.5602 71.8559C29.8252 76.7671 35.3868 80 41.7004 80H96.3102C102.922 80 108.794 76.7995 112.474 71.8559C113.817 70.0539 114.868 68.0253 115.558 65.8317C116.169 63.8914 116.5 61.8244 116.5 59.678C116.5 58.9242 116.459 58.1822 116.377 57.452ZM106.802 65.8317C105.134 68.7672 101.351 71.8559 96.3073 71.8559C95.9123 71.8559 42.0427 71.8235 41.7091 71.8235C37.1188 71.8235 31.6099 68.2049 31.6099 61.6713C31.6099 56.7042 35.4347 51.6914 41.6535 51.5309C42.3381 51.5309 43.0696 51.5957 43.7161 51.7252C46.9489 52.376 49.5674 54.5106 50.8985 57.452H46.083C45.5037 56.8367 44.8015 56.345 44.0116 56.0122C43.2861 55.706 42.4961 55.5735 41.6623 55.5735C40.021 55.5735 38.4119 56.3067 37.3031 57.4844C36.2616 58.5856 35.6472 60.0372 35.6472 61.6743C35.6472 63.276 36.2558 64.7423 37.268 65.8258C38.3183 66.9506 39.9274 67.775 41.7091 67.775C43.4908 67.775 45.0414 67.0595 46.1561 65.8347H55.7346C58.0195 65.8347 59.8744 63.9826 59.8978 61.689V61.6448C59.8978 61.6242 59.8978 61.6036 59.8949 61.583C59.9153 55.3527 56.7147 49.7319 52.3467 46.817C54.462 37.8514 62.4782 31.206 72.0333 31.206C79.2304 31.206 85.5497 34.9895 89.1336 40.6839C90.0406 42.1237 90.8861 43.3632 91.4975 44.7824C91.5005 44.7883 91.5824 44.9826 91.6175 45.0739C92.2582 46.4843 93.6742 47.4647 95.3155 47.4647H96.3102C97.6736 47.4647 98.9872 47.6915 100.21 48.1096C104.324 49.514 107.445 53.0767 108.247 57.455C108.378 58.1764 108.449 58.9213 108.449 59.6809C108.449 61.9216 107.834 64.015 106.802 65.8317Z" fill="#0C3255"/>
<path d="M41.7096 64.0627C43.0216 64.0627 44.0852 62.9923 44.0852 61.6718C44.0852 60.3514 43.0216 59.281 41.7096 59.281C40.3976 59.281 39.334 60.3514 39.334 61.6718C39.334 62.9923 40.3976 64.0627 41.7096 64.0627Z" fill="#F1F6F9"/>
</g>
<path d="M23.736 105.256C22.6267 105.256 21.6133 104.995 20.696 104.472C19.7787 103.939 19.0533 103.219 18.52 102.312C17.9973 101.395 17.736 100.381 17.736 99.272C17.736 98.1627 17.9973 97.1547 18.52 96.248C19.0533 95.3307 19.7787 94.6107 20.696 94.088C21.6133 93.5547 22.6267 93.288 23.736 93.288C25.464 93.288 26.8933 93.912 28.024 95.16L26.504 96.632C25.768 95.768 24.8507 95.336 23.752 95.336C23.0373 95.336 22.3867 95.5013 21.8 95.832C21.2133 96.152 20.7493 96.6107 20.408 97.208C20.0773 97.8053 19.912 98.4933 19.912 99.272C19.912 100.051 20.0773 100.739 20.408 101.336C20.7493 101.933 21.2133 102.397 21.8 102.728C22.3867 103.048 23.0373 103.208 23.752 103.208C24.9573 103.208 25.9653 102.707 26.776 101.704L28.312 103.16C27.7467 103.843 27.0747 104.365 26.296 104.728C25.528 105.08 24.6747 105.256 23.736 105.256ZM31.4075 105.256C30.5435 105.256 29.8342 105.005 29.2795 104.504C28.7248 103.992 28.4475 103.325 28.4475 102.504C28.4475 101.96 28.5915 101.48 28.8795 101.064C29.1675 100.648 29.5622 100.328 30.0635 100.104C30.5648 99.88 31.1195 99.768 31.7275 99.768C32.5702 99.768 33.2902 99.8907 33.8875 100.136V99.784C33.8875 99.336 33.7168 98.9733 33.3755 98.696C33.0448 98.4187 32.5968 98.28 32.0315 98.28C31.6475 98.28 31.2742 98.3707 30.9115 98.552C30.5595 98.7227 30.2662 98.952 30.0315 99.24L28.6875 98.184C29.0822 97.672 29.5782 97.2773 30.1755 97C30.7728 96.7227 31.4235 96.584 32.1275 96.584C33.3755 96.584 34.3248 96.872 34.9755 97.448C35.6262 98.024 35.9515 98.8667 35.9515 99.976V105H33.8875V104.168H33.7595C33.5142 104.488 33.1888 104.749 32.7835 104.952C32.3888 105.155 31.9302 105.256 31.4075 105.256ZM31.9035 103.624C32.5115 103.624 32.9915 103.432 33.3435 103.048C33.7062 102.653 33.8875 102.195 33.8875 101.672C33.3435 101.416 32.7728 101.288 32.1755 101.288C31.0875 101.288 30.5435 101.693 30.5435 102.504C30.5435 102.835 30.6608 103.107 30.8955 103.32C31.1302 103.523 31.4662 103.624 31.9035 103.624ZM40.6322 105.128C40.2269 105.128 39.8536 105.069 39.5122 104.952C39.1709 104.824 38.8936 104.653 38.6802 104.44C38.1789 103.96 37.9282 103.277 37.9282 102.392V98.632H36.5042V96.84H37.9282V94.536H40.0242V96.84H42.0243V98.632H40.0242V102.008C40.0242 102.424 40.1149 102.723 40.2962 102.904C40.4456 103.075 40.7016 103.16 41.0642 103.16C41.2669 103.16 41.4322 103.133 41.5602 103.08C41.6989 103.027 41.8749 102.936 42.0882 102.808V104.856C41.6296 105.037 41.1442 105.128 40.6322 105.128ZM46.5105 105.256C45.6998 105.256 44.9692 105.069 44.3185 104.696C43.6678 104.323 43.1558 103.811 42.7825 103.16C42.4198 102.499 42.2385 101.757 42.2385 100.936C42.2385 100.157 42.4198 99.4373 42.7825 98.776C43.1452 98.104 43.6465 97.5707 44.2865 97.176C44.9265 96.7813 45.6412 96.584 46.4305 96.584C47.2732 96.584 47.9985 96.7653 48.6065 97.128C49.2145 97.4907 49.6732 97.9867 49.9825 98.616C50.3025 99.2453 50.4625 99.944 50.4625 100.712C50.4625 100.957 50.4465 101.192 50.4145 101.416H44.2865C44.3932 102.067 44.6492 102.563 45.0545 102.904C45.4705 103.235 45.9665 103.4 46.5425 103.4C47.0225 103.4 47.4332 103.299 47.7745 103.096C48.1265 102.883 48.4038 102.6 48.6065 102.248L50.3025 103.08C49.4705 104.531 48.2065 105.256 46.5105 105.256ZM48.4465 99.928C48.4252 99.672 48.3292 99.4213 48.1585 99.176C47.9985 98.92 47.7692 98.712 47.4705 98.552C47.1825 98.3813 46.8412 98.296 46.4465 98.296C45.9452 98.296 45.5132 98.4453 45.1505 98.744C44.7985 99.032 44.5425 99.4267 44.3825 99.928H48.4465ZM55.1152 108.712C54.0806 108.712 53.2219 108.477 52.5392 108.008C51.8566 107.549 51.3979 106.995 51.1632 106.344L53.1312 105.544C53.3019 105.949 53.5632 106.269 53.9152 106.504C54.2672 106.739 54.6672 106.856 55.1152 106.856C55.7766 106.856 56.2992 106.653 56.6832 106.248C57.0779 105.843 57.2752 105.267 57.2752 104.52V103.88H57.1472C56.8912 104.243 56.5552 104.52 56.1392 104.712C55.7232 104.904 55.2486 105 54.7152 105C54.0432 105 53.4139 104.829 52.8272 104.488C52.2512 104.136 51.7872 103.645 51.4352 103.016C51.0832 102.376 50.9072 101.635 50.9072 100.792C50.9072 99.9493 51.0832 99.2133 51.4352 98.584C51.7872 97.944 52.2512 97.4533 52.8272 97.112C53.4139 96.76 54.0432 96.584 54.7152 96.584C55.2486 96.584 55.7232 96.68 56.1392 96.872C56.5552 97.064 56.8912 97.3413 57.1472 97.704H57.2752V96.84H59.2912V104.44C59.2912 105.315 59.1206 106.072 58.7792 106.712C58.4379 107.352 57.9526 107.843 57.3232 108.184C56.6939 108.536 55.9579 108.712 55.1152 108.712ZM55.1472 103.096C55.7339 103.096 56.2352 102.893 56.6512 102.488C57.0672 102.072 57.2752 101.507 57.2752 100.792C57.2752 100.056 57.0672 99.4907 56.6512 99.096C56.2459 98.6907 55.7446 98.488 55.1472 98.488C54.5499 98.488 54.0432 98.6907 53.6272 99.096C53.2112 99.5013 53.0032 100.067 53.0032 100.792C53.0032 101.517 53.2112 102.083 53.6272 102.488C54.0432 102.893 54.5499 103.096 55.1472 103.096ZM64.3655 105.256C63.5228 105.256 62.7708 105.069 62.1095 104.696C61.4482 104.312 60.9308 103.795 60.5575 103.144C60.1948 102.483 60.0135 101.741 60.0135 100.92C60.0135 100.109 60.1948 99.3733 60.5575 98.712C60.9308 98.0507 61.4482 97.5333 62.1095 97.16C62.7708 96.776 63.5228 96.584 64.3655 96.584C65.1975 96.584 65.9442 96.776 66.6055 97.16C67.2668 97.5333 67.7788 98.0507 68.1415 98.712C68.5148 99.3733 68.7015 100.109 68.7015 100.92C68.7015 101.741 68.5148 102.483 68.1415 103.144C67.7788 103.795 67.2668 104.312 66.6055 104.696C65.9442 105.069 65.1975 105.256 64.3655 105.256ZM63.2455 103.032C63.5868 103.224 63.9602 103.32 64.3655 103.32C64.7708 103.32 65.1442 103.224 65.4855 103.032C65.8268 102.84 66.0988 102.563 66.3015 102.2C66.5042 101.837 66.6055 101.411 66.6055 100.92C66.6055 100.44 66.5042 100.019 66.3015 99.656C66.0988 99.2933 65.8268 99.016 65.4855 98.824C65.1442 98.632 64.7708 98.536 64.3655 98.536C63.9602 98.536 63.5868 98.632 63.2455 98.824C62.9042 99.016 62.6268 99.2933 62.4135 99.656C62.2108 100.019 62.1095 100.44 62.1095 100.92C62.1095 101.4 62.2108 101.827 62.4135 102.2C62.6268 102.563 62.9042 102.84 63.2455 103.032ZM69.349 96.84H71.317V97.928H71.445C71.6477 97.544 71.9623 97.2293 72.389 96.984C72.8157 96.728 73.285 96.6 73.797 96.6C74.1703 96.6 74.5117 96.6587 74.821 96.776V98.872C74.533 98.7653 74.2877 98.6907 74.085 98.648C73.893 98.5947 73.685 98.568 73.461 98.568C72.8423 98.568 72.3517 98.792 71.989 99.24C71.6263 99.688 71.445 100.253 71.445 100.936V105H69.349V96.84ZM78.2805 104.616L74.8405 96.84H77.2245L79.3365 101.912H79.4645L81.4965 96.84H83.8325L78.7925 108.456H76.5365L78.2805 104.616Z" fill="#0C3255"/>
<path d="M90.6405 93.544H93.1205L97.4245 105H95.0405L94.0805 102.264H89.6965L88.7365 105H86.3525L90.6405 93.544ZM93.3765 100.28L92.3685 97.4L91.9525 96.024H91.8245L91.4085 97.4L90.3845 100.28H93.3765ZM97.4444 96.84H99.4124V97.832H99.5404C99.7644 97.48 100.09 97.1867 100.516 96.952C100.943 96.7067 101.434 96.584 101.988 96.584C102.724 96.584 103.391 96.7707 103.988 97.144C104.596 97.5067 105.071 98.0187 105.412 98.68C105.754 99.3413 105.924 100.088 105.924 100.92C105.924 101.763 105.754 102.515 105.412 103.176C105.071 103.827 104.596 104.339 103.988 104.712C103.391 105.075 102.724 105.256 101.988 105.256C101.434 105.256 100.938 105.139 100.5 104.904C100.074 104.669 99.7537 104.376 99.5404 104.024H99.4124L99.5404 105.176V108.456H97.4444V96.84ZM101.62 103.32C102.015 103.32 102.383 103.219 102.724 103.016C103.066 102.813 103.338 102.531 103.54 102.168C103.743 101.805 103.844 101.389 103.844 100.92C103.844 100.451 103.743 100.035 103.54 99.672C103.338 99.3093 103.066 99.032 102.724 98.84C102.383 98.6373 102.015 98.536 101.62 98.536C101.236 98.536 100.874 98.6373 100.532 98.84C100.191 99.032 99.919 99.3093 99.7164 99.672C99.5137 100.035 99.4124 100.451 99.4124 100.92C99.4124 101.389 99.5137 101.805 99.7164 102.168C99.919 102.531 100.191 102.813 100.532 103.016C100.874 103.219 101.236 103.32 101.62 103.32ZM106.519 96.84H108.487V97.832H108.615C108.839 97.48 109.165 97.1867 109.591 96.952C110.018 96.7067 110.509 96.584 111.063 96.584C111.799 96.584 112.466 96.7707 113.063 97.144C113.671 97.5067 114.146 98.0187 114.487 98.68C114.829 99.3413 114.999 100.088 114.999 100.92C114.999 101.763 114.829 102.515 114.487 103.176C114.146 103.827 113.671 104.339 113.063 104.712C112.466 105.075 111.799 105.256 111.063 105.256C110.509 105.256 110.013 105.139 109.575 104.904C109.149 104.669 108.829 104.376 108.615 104.024H108.487L108.615 105.176V108.456H106.519V96.84ZM110.695 103.32C111.09 103.32 111.458 103.219 111.799 103.016C112.141 102.813 112.413 102.531 112.615 102.168C112.818 101.805 112.919 101.389 112.919 100.92C112.919 100.451 112.818 100.035 112.615 99.672C112.413 99.3093 112.141 99.032 111.799 98.84C111.458 98.6373 111.09 98.536 110.695 98.536C110.311 98.536 109.949 98.6373 109.607 98.84C109.266 99.032 108.994 99.3093 108.791 99.672C108.589 100.035 108.487 100.451 108.487 100.92C108.487 101.389 108.589 101.805 108.791 102.168C108.994 102.531 109.266 102.813 109.607 103.016C109.949 103.219 110.311 103.32 110.695 103.32ZM118.841 105.256C117.849 105.256 117.043 105.053 116.425 104.648C115.817 104.243 115.39 103.715 115.145 103.064L117.017 102.248C117.187 102.632 117.427 102.925 117.737 103.128C118.057 103.32 118.425 103.416 118.841 103.416C119.225 103.416 119.545 103.357 119.801 103.24C120.057 103.112 120.185 102.909 120.185 102.632C120.185 102.365 120.067 102.168 119.833 102.04C119.598 101.901 119.246 101.779 118.777 101.672L117.817 101.464C117.155 101.304 116.606 101.016 116.169 100.6C115.731 100.173 115.513 99.6453 115.513 99.016C115.513 98.5467 115.651 98.1253 115.929 97.752C116.217 97.3787 116.601 97.0907 117.081 96.888C117.571 96.6853 118.11 96.584 118.697 96.584C120.382 96.584 121.507 97.176 122.073 98.36L120.281 99.144C119.961 98.568 119.449 98.28 118.745 98.28C118.382 98.28 118.094 98.3493 117.881 98.488C117.667 98.616 117.561 98.7813 117.561 98.984C117.561 99.368 117.923 99.656 118.649 99.848L119.849 100.136C120.659 100.339 121.267 100.648 121.673 101.064C122.089 101.48 122.297 101.992 122.297 102.6C122.297 103.123 122.142 103.587 121.833 103.992C121.534 104.387 121.118 104.696 120.585 104.92C120.062 105.144 119.481 105.256 118.841 105.256Z" fill="#1C73C4"/>
<path d="M10 112.118V116.56H11.6495C11.8941 116.56 12.1159 116.511 12.3206 116.412C12.5254 116.312 12.6847 116.163 12.8041 115.977C12.9236 115.791 12.9861 115.574 12.9861 115.326C12.9861 115.078 12.9236 114.86 12.7984 114.68C12.6733 114.501 12.5027 114.37 12.2922 114.283V114.234C12.4515 114.147 12.5823 114.023 12.6847 113.861C12.787 113.7 12.8382 113.502 12.8382 113.278C12.8382 113.067 12.7814 112.875 12.6733 112.695C12.5595 112.521 12.4116 112.378 12.2183 112.273C12.0249 112.174 11.8201 112.118 11.5926 112.118H10ZM11.5357 113.93H10.7679V112.869H11.5585C11.7177 112.869 11.8429 112.925 11.9396 113.024C12.0362 113.123 12.0874 113.247 12.0874 113.396C12.0874 113.551 12.0362 113.681 11.9339 113.781C11.8315 113.88 11.7007 113.93 11.5357 113.93ZM11.621 115.797H10.7679V114.649H11.5983C11.7917 114.649 11.9452 114.705 12.0533 114.811C12.1557 114.922 12.2126 115.059 12.2126 115.226C12.2126 115.4 12.1557 115.537 12.0533 115.642C11.9509 115.748 11.803 115.797 11.621 115.797Z" fill="#70AFEB"/>
<path d="M14.9397 116.66C15.5426 116.66 15.9919 116.381 16.2877 115.816L15.6848 115.493C15.6108 115.63 15.5141 115.741 15.389 115.822C15.2639 115.903 15.1217 115.94 14.951 115.94C14.7463 115.94 14.57 115.878 14.4221 115.748C14.2742 115.617 14.1832 115.425 14.1491 115.171H16.3275C16.3389 115.084 16.3446 114.997 16.3446 114.898C16.3446 114.6 16.2877 114.333 16.1739 114.085C16.0602 113.843 15.9009 113.65 15.6848 113.508C15.4686 113.371 15.207 113.297 14.9112 113.297C14.6268 113.297 14.3766 113.377 14.1491 113.526C13.9215 113.681 13.7395 113.886 13.6144 114.147C13.4836 114.407 13.421 114.687 13.421 114.984C13.421 115.307 13.4836 115.593 13.6144 115.847C13.7452 116.101 13.9272 116.3 14.1604 116.443C14.3879 116.592 14.6496 116.66 14.9397 116.66ZM15.6279 114.594H14.1832C14.2401 114.401 14.3311 114.246 14.4562 114.134C14.5813 114.023 14.7349 113.961 14.9169 113.961C15.0534 113.961 15.1786 113.998 15.2809 114.06C15.3833 114.122 15.4686 114.203 15.5255 114.302C15.5824 114.401 15.6165 114.494 15.6279 114.594Z" fill="#70AFEB"/>
<path d="M18.0979 116.61C18.2572 116.61 18.4051 116.585 18.5302 116.529V115.748C18.462 115.785 18.4108 115.816 18.3766 115.828C18.3425 115.841 18.297 115.847 18.2401 115.847C18.115 115.847 18.0297 115.816 17.9785 115.748C17.9102 115.679 17.8818 115.562 17.8818 115.4V114.091H18.9796V115.549C18.9796 115.884 19.0649 116.151 19.2469 116.343C19.3265 116.43 19.4232 116.492 19.5426 116.542C19.6621 116.592 19.7929 116.61 19.9408 116.61C20.1228 116.61 20.2934 116.579 20.4584 116.505V115.71C20.3788 115.76 20.3162 115.797 20.2707 115.816C20.2252 115.841 20.1683 115.847 20.1001 115.847C19.9749 115.847 19.8782 115.816 19.8214 115.748C19.7531 115.673 19.7247 115.562 19.7247 115.4V114.091H20.4356V113.396H19.7247V112.503H18.9796V113.396H17.8818V112.503H17.1367V113.396H16.6305V114.091H17.1367V115.549C17.1367 115.897 17.222 116.157 17.404 116.343C17.478 116.43 17.5747 116.492 17.6998 116.542C17.8192 116.592 17.9501 116.61 18.0979 116.61Z" fill="#70AFEB"/>
<path d="M22.3161 116.66C22.919 116.66 23.3683 116.381 23.6641 115.816L23.0612 115.493C22.9873 115.63 22.8906 115.741 22.7654 115.822C22.6403 115.903 22.4981 115.94 22.3275 115.94C22.1227 115.94 21.9464 115.878 21.7985 115.748C21.6506 115.617 21.5596 115.425 21.5255 115.171H23.7039C23.7153 115.084 23.721 114.997 23.721 114.898C23.721 114.6 23.6641 114.333 23.5504 114.085C23.4366 113.843 23.2773 113.65 23.0612 113.508C22.8451 113.371 22.5834 113.297 22.2877 113.297C22.0033 113.297 21.753 113.377 21.5255 113.526C21.298 113.681 21.116 113.886 20.9908 114.147C20.86 114.407 20.7974 114.687 20.7974 114.984C20.7974 115.307 20.86 115.593 20.9908 115.847C21.1216 116.101 21.3037 116.3 21.5369 116.443C21.7644 116.592 22.026 116.66 22.3161 116.66ZM23.0043 114.594H21.5596C21.6165 114.401 21.7075 114.246 21.8326 114.134C21.9578 114.023 22.1113 113.961 22.2933 113.961C22.4298 113.961 22.555 113.998 22.6574 114.06C22.7597 114.122 22.8451 114.203 22.9019 114.302C22.9588 114.401 22.9929 114.494 23.0043 114.594Z" fill="#70AFEB"/>
<path d="M24.295 113.396V116.56H25.0401V114.984C25.0401 114.724 25.1026 114.501 25.2335 114.327C25.3586 114.153 25.5349 114.066 25.7567 114.066C25.8364 114.066 25.9103 114.079 25.9786 114.097C26.0468 114.116 26.1378 114.147 26.2402 114.184V113.371C26.1265 113.328 26.007 113.303 25.8762 113.303C25.6942 113.303 25.5235 113.353 25.3757 113.452C25.2221 113.551 25.1083 113.669 25.0401 113.818H24.9946V113.396H24.295Z" fill="#70AFEB"/>
<path d="M28.1578 112.118V116.56H30.7401V115.766H28.9256V114.736H30.558V113.942H28.9256V112.912H30.7401V112.118H28.1578Z" fill="#70AFEB"/>
<path d="M31.3715 113.396V116.56H32.1166V114.947C32.1166 114.693 32.1734 114.482 32.2986 114.308C32.4237 114.141 32.583 114.054 32.7877 114.054C32.9584 114.054 33.0892 114.11 33.1859 114.221C33.2769 114.333 33.3281 114.494 33.3281 114.693V116.56H34.0732V114.594C34.0732 114.196 33.9822 113.88 33.8002 113.644C33.6181 113.415 33.3508 113.297 33.0039 113.297C32.8162 113.297 32.6455 113.346 32.4863 113.433C32.327 113.52 32.2019 113.644 32.1166 113.793H32.0711V113.396H31.3715Z" fill="#70AFEB"/>
<path d="M35.8947 116.61C36.0767 116.61 36.2473 116.579 36.4123 116.505V115.71C36.3326 115.76 36.2701 115.797 36.2246 115.816C36.1791 115.841 36.1165 115.847 36.0482 115.847C35.9174 115.847 35.8264 115.816 35.7752 115.748C35.707 115.679 35.6785 115.562 35.6785 115.4V114.091H36.3895V113.396H35.6785V112.503H34.9334V113.396H34.4272V114.091H34.9334V115.549C34.9334 115.897 35.0187 116.157 35.2007 116.343C35.2747 116.43 35.3714 116.492 35.4965 116.542C35.616 116.592 35.7468 116.61 35.8947 116.61Z" fill="#70AFEB"/>
<path d="M38.2687 116.66C38.8716 116.66 39.321 116.381 39.6167 115.816L39.0138 115.493C38.9399 115.63 38.8432 115.741 38.7181 115.822C38.5929 115.903 38.4507 115.94 38.2801 115.94C38.0753 115.94 37.899 115.878 37.7511 115.748C37.6032 115.617 37.5122 115.425 37.4781 115.171H39.6566C39.6679 115.084 39.6736 114.997 39.6736 114.898C39.6736 114.6 39.6167 114.333 39.503 114.085C39.3892 113.843 39.23 113.65 39.0138 113.508C38.7977 113.371 38.536 113.297 38.2403 113.297C37.9559 113.297 37.7056 113.377 37.4781 113.526C37.2506 113.681 37.0686 113.886 36.9435 114.147C36.8126 114.407 36.7501 114.687 36.7501 114.984C36.7501 115.307 36.8126 115.593 36.9435 115.847C37.0743 116.101 37.2563 116.3 37.4895 116.443C37.717 116.592 37.9786 116.66 38.2687 116.66ZM38.9569 114.594H37.5122C37.5691 114.401 37.6601 114.246 37.7852 114.134C37.9104 114.023 38.064 113.961 38.246 113.961C38.3825 113.961 38.5076 113.998 38.61 114.06C38.7124 114.122 38.7977 114.203 38.8546 114.302C38.9114 114.401 38.9456 114.494 38.9569 114.594Z" fill="#70AFEB"/>
<path d="M40.2476 113.396V116.56H40.9927V114.984C40.9927 114.724 41.0553 114.501 41.1861 114.327C41.3112 114.153 41.4875 114.066 41.7094 114.066C41.789 114.066 41.8629 114.079 41.9312 114.097C41.9995 114.116 42.0905 114.147 42.1928 114.184V113.371C42.0791 113.328 41.9596 113.303 41.8288 113.303C41.6468 113.303 41.4762 113.353 41.3283 113.452C41.1747 113.551 41.061 113.669 40.9927 113.818H40.9472V113.396H40.2476Z" fill="#70AFEB"/>
<path d="M42.6522 113.396V117.901H43.3973V116.629L43.3518 116.182H43.3973C43.4712 116.319 43.585 116.436 43.7386 116.523C43.8921 116.616 44.0685 116.66 44.2675 116.66C44.5292 116.66 44.7624 116.592 44.9785 116.449C45.1946 116.306 45.3596 116.108 45.4847 115.853C45.6042 115.599 45.6667 115.307 45.6667 114.978C45.6667 114.656 45.6042 114.37 45.4847 114.11C45.3596 113.855 45.1946 113.657 44.9785 113.514C44.7624 113.371 44.5292 113.297 44.2675 113.297C44.0685 113.297 43.8921 113.346 43.7442 113.44C43.5907 113.533 43.4769 113.644 43.3973 113.781H43.3518V113.396H42.6522ZM44.1367 115.909C44.0002 115.909 43.8694 115.872 43.7499 115.791C43.6248 115.717 43.5281 115.605 43.4599 115.462C43.3859 115.326 43.3518 115.164 43.3518 114.978C43.3518 114.798 43.3859 114.637 43.4599 114.494C43.5281 114.358 43.6248 114.246 43.7499 114.172C43.8694 114.097 44.0002 114.054 44.1367 114.054C44.2732 114.054 44.404 114.097 44.5292 114.172C44.6486 114.246 44.7453 114.358 44.8192 114.494C44.8875 114.637 44.9273 114.798 44.9273 114.978C44.9273 115.164 44.8875 115.326 44.8192 115.462C44.7453 115.605 44.6486 115.717 44.5292 115.791C44.404 115.872 44.2732 115.909 44.1367 115.909Z" fill="#70AFEB"/>
<path d="M46.2132 113.396V116.56H46.9583V114.984C46.9583 114.724 47.0208 114.501 47.1517 114.327C47.2768 114.153 47.4531 114.066 47.6749 114.066C47.7546 114.066 47.8285 114.079 47.8968 114.097C47.965 114.116 48.056 114.147 48.1584 114.184V113.371C48.0447 113.328 47.9252 113.303 47.7944 113.303C47.6124 113.303 47.4417 113.353 47.2939 113.452C47.1403 113.551 47.0265 113.669 46.9583 113.818H46.9128V113.396H46.2132Z" fill="#70AFEB"/>
<path d="M49.0614 113.049C49.1922 113.049 49.306 112.999 49.397 112.893C49.488 112.794 49.5392 112.67 49.5392 112.521C49.5392 112.378 49.488 112.254 49.397 112.155C49.306 112.056 49.1922 112 49.0614 112C48.9249 112 48.8111 112.056 48.7201 112.155C48.6234 112.254 48.5779 112.378 48.5779 112.521C48.5779 112.67 48.6234 112.794 48.7201 112.893C48.8111 112.999 48.9249 113.049 49.0614 113.049ZM48.686 113.396V116.56H49.4311V113.396H48.686Z" fill="#70AFEB"/>
<path d="M51.3103 116.66C51.5378 116.66 51.7426 116.616 51.9303 116.529C52.118 116.443 52.2659 116.325 52.3739 116.17C52.482 116.014 52.5389 115.835 52.5389 115.63C52.5389 115.394 52.465 115.195 52.3171 115.034C52.1692 114.873 51.953 114.755 51.6687 114.674L51.2421 114.563C50.9804 114.488 50.8553 114.376 50.8553 114.228C50.8553 114.153 50.8894 114.085 50.9691 114.035C51.043 113.986 51.1454 113.954 51.2762 113.954C51.5265 113.954 51.7085 114.066 51.8222 114.29L52.4593 113.986C52.2545 113.526 51.8564 113.297 51.2591 113.297C51.0487 113.297 50.8553 113.34 50.6847 113.415C50.514 113.495 50.3775 113.607 50.2751 113.75C50.1728 113.899 50.1273 114.06 50.1273 114.24C50.1273 114.488 50.2012 114.693 50.3605 114.854C50.514 115.016 50.7074 115.127 50.9463 115.189L51.2876 115.27C51.4525 115.313 51.5776 115.363 51.663 115.413C51.7426 115.462 51.7881 115.543 51.7881 115.642C51.7881 115.754 51.7426 115.828 51.6516 115.878C51.5606 115.928 51.4468 115.946 51.3103 115.946C51.1624 115.946 51.0316 115.909 50.9179 115.835C50.8041 115.76 50.7188 115.642 50.6619 115.493L49.9964 115.81C50.0817 116.064 50.2353 116.269 50.4515 116.424C50.6676 116.585 50.9577 116.66 51.3103 116.66Z" fill="#70AFEB"/>
<path d="M54.4657 116.66C55.0687 116.66 55.518 116.381 55.8138 115.816L55.2108 115.493C55.1369 115.63 55.0402 115.741 54.9151 115.822C54.7899 115.903 54.6478 115.94 54.4771 115.94C54.2724 115.94 54.096 115.878 53.9481 115.748C53.8003 115.617 53.7093 115.425 53.6751 115.171H55.8536C55.865 115.084 55.8706 114.997 55.8706 114.898C55.8706 114.6 55.8138 114.333 55.7 114.085C55.5862 113.843 55.427 113.65 55.2108 113.508C54.9947 113.371 54.7331 113.297 54.4373 113.297C54.1529 113.297 53.9026 113.377 53.6751 113.526C53.4476 113.681 53.2656 113.886 53.1405 114.147C53.0097 114.407 52.9471 114.687 52.9471 114.984C52.9471 115.307 53.0097 115.593 53.1405 115.847C53.2713 116.101 53.4533 116.3 53.6865 116.443C53.914 116.592 54.1757 116.66 54.4657 116.66ZM55.154 114.594H53.7093C53.7661 114.401 53.8571 114.246 53.9823 114.134C54.1074 114.023 54.261 113.961 54.443 113.961C54.5795 113.961 54.7046 113.998 54.807 114.06C54.9094 114.122 54.9947 114.203 55.0516 114.302C55.1085 114.401 55.1426 114.494 55.154 114.594Z" fill="#70AFEB"/>
<path d="M57.8801 112.118V116.56H58.6366V114.37L58.5911 113.632H58.6366L59.6775 116.56H60.2747L61.3099 113.632H61.3554L61.3099 114.37V116.56H62.072V112.118H61.0767L59.996 115.239H59.9505L58.8698 112.118H57.8801Z" fill="#70AFEB"/>
<path d="M63.703 116.66C63.885 116.66 64.0499 116.623 64.1921 116.542C64.3343 116.467 64.4481 116.362 64.5391 116.238H64.5846V116.56H65.3183V114.612C65.3183 114.184 65.1989 113.855 64.9714 113.632C64.7382 113.408 64.4026 113.297 63.9589 113.297C63.7087 113.297 63.4755 113.353 63.265 113.458C63.0489 113.57 62.8726 113.719 62.736 113.917L63.2138 114.327C63.2935 114.215 63.4015 114.128 63.5267 114.06C63.6518 113.992 63.7883 113.954 63.9248 113.954C64.1239 113.954 64.2831 114.01 64.4026 114.116C64.522 114.228 64.5846 114.364 64.5846 114.538V114.674C64.3685 114.581 64.1125 114.532 63.8167 114.532C63.6006 114.532 63.4015 114.575 63.2252 114.662C63.0432 114.749 62.9067 114.873 62.8043 115.034C62.7019 115.195 62.6507 115.382 62.6507 115.593C62.6507 115.915 62.7474 116.17 62.9465 116.368C63.1399 116.567 63.3958 116.66 63.703 116.66ZM63.8793 116.027C63.72 116.027 63.6006 115.99 63.521 115.909C63.4357 115.828 63.3958 115.723 63.3958 115.593C63.3958 115.282 63.5892 115.121 63.976 115.121C64.1864 115.121 64.3912 115.171 64.5846 115.27C64.5846 115.475 64.5163 115.655 64.3912 115.804C64.2661 115.952 64.0954 116.027 63.8793 116.027Z" fill="#70AFEB"/>
<path d="M66.004 113.396V116.56H66.7491V114.947C66.7491 114.693 66.806 114.482 66.9311 114.308C67.0562 114.141 67.2155 114.054 67.4203 114.054C67.5909 114.054 67.7217 114.11 67.8184 114.221C67.9094 114.333 67.9606 114.494 67.9606 114.693V116.56H68.7057V114.594C68.7057 114.196 68.6147 113.88 68.4327 113.644C68.2507 113.415 67.9833 113.297 67.6364 113.297C67.4487 113.297 67.2781 113.346 67.1188 113.433C66.9595 113.52 66.8344 113.644 66.7491 113.793H66.7036V113.396H66.004Z" fill="#70AFEB"/>
<path d="M70.2684 116.66C70.4504 116.66 70.6154 116.623 70.7576 116.542C70.8998 116.467 71.0135 116.362 71.1046 116.238H71.1501V116.56H71.8838V114.612C71.8838 114.184 71.7643 113.855 71.5368 113.632C71.3036 113.408 70.968 113.297 70.5244 113.297C70.2741 113.297 70.0409 113.353 69.8305 113.458C69.6143 113.57 69.438 113.719 69.3015 113.917L69.7793 114.327C69.8589 114.215 69.967 114.128 70.0921 114.06C70.2172 113.992 70.3538 113.954 70.4903 113.954C70.6893 113.954 70.8486 114.01 70.968 114.116C71.0875 114.228 71.1501 114.364 71.1501 114.538V114.674C70.9339 114.581 70.678 114.532 70.3822 114.532C70.1661 114.532 69.967 114.575 69.7907 114.662C69.6086 114.749 69.4721 114.873 69.3698 115.034C69.2674 115.195 69.2162 115.382 69.2162 115.593C69.2162 115.915 69.3129 116.17 69.512 116.368C69.7053 116.567 69.9613 116.66 70.2684 116.66ZM70.4448 116.027C70.2855 116.027 70.1661 115.99 70.0864 115.909C70.0011 115.828 69.9613 115.723 69.9613 115.593C69.9613 115.282 70.1547 115.121 70.5415 115.121C70.7519 115.121 70.9567 115.171 71.1501 115.27C71.1501 115.475 71.0818 115.655 70.9567 115.804C70.8315 115.952 70.6609 116.027 70.4448 116.027Z" fill="#70AFEB"/>
<path d="M73.9061 118C74.2019 118 74.4635 117.938 74.691 117.801C74.9128 117.665 75.0835 117.473 75.2086 117.224C75.328 116.976 75.3906 116.685 75.3906 116.343V113.396H74.6739V113.731H74.6284C74.5374 113.595 74.418 113.483 74.2701 113.408C74.1222 113.334 73.9516 113.297 73.7639 113.297C73.525 113.297 73.2975 113.365 73.0927 113.502C72.888 113.638 72.723 113.824 72.5979 114.072C72.4727 114.321 72.4102 114.606 72.4102 114.929C72.4102 115.257 72.4727 115.543 72.5979 115.791C72.723 116.039 72.888 116.225 73.0927 116.362C73.2975 116.498 73.525 116.56 73.7639 116.56C73.9516 116.56 74.1222 116.523 74.2701 116.449C74.418 116.374 74.5374 116.269 74.6284 116.126H74.6739V116.374C74.6739 116.666 74.6 116.889 74.4635 117.044C74.327 117.206 74.1393 117.28 73.9061 117.28C73.7468 117.28 73.6046 117.237 73.4795 117.144C73.3544 117.057 73.2577 116.933 73.2008 116.771L72.5012 117.082C72.5808 117.336 72.7458 117.553 72.9903 117.733C73.2292 117.913 73.5364 118 73.9061 118ZM73.9175 115.822C73.7013 115.822 73.525 115.748 73.3771 115.586C73.2292 115.431 73.1553 115.214 73.1553 114.929C73.1553 114.649 73.2292 114.432 73.3771 114.271C73.525 114.116 73.7013 114.035 73.9175 114.035C74.1279 114.035 74.3042 114.116 74.4521 114.271C74.6 114.426 74.6739 114.643 74.6739 114.929C74.6739 115.208 74.6 115.425 74.4521 115.586C74.3042 115.748 74.1222 115.822 73.9175 115.822Z" fill="#70AFEB"/>
<path d="M77.4504 116.66C78.0533 116.66 78.5027 116.381 78.7984 115.816L78.1955 115.493C78.1216 115.63 78.0249 115.741 77.8997 115.822C77.7746 115.903 77.6324 115.94 77.4618 115.94C77.257 115.94 77.0807 115.878 76.9328 115.748C76.7849 115.617 76.6939 115.425 76.6598 115.171H78.8382C78.8496 115.084 78.8553 114.997 78.8553 114.898C78.8553 114.6 78.7984 114.333 78.6847 114.085C78.5709 113.843 78.4117 113.65 78.1955 113.508C77.9794 113.371 77.7177 113.297 77.422 113.297C77.1376 113.297 76.8873 113.377 76.6598 113.526C76.4323 113.681 76.2503 113.886 76.1251 114.147C75.9943 114.407 75.9317 114.687 75.9317 114.984C75.9317 115.307 75.9943 115.593 76.1251 115.847C76.256 116.101 76.438 116.3 76.6712 116.443C76.8987 116.592 77.1603 116.66 77.4504 116.66ZM78.1386 114.594H76.6939C76.7508 114.401 76.8418 114.246 76.9669 114.134C77.0921 114.023 77.2456 113.961 77.4277 113.961C77.5642 113.961 77.6893 113.998 77.7917 114.06C77.8941 114.122 77.9794 114.203 78.0363 114.302C78.0931 114.401 78.1273 114.494 78.1386 114.594Z" fill="#70AFEB"/>
<path d="M79.4293 113.396V116.56H80.1744V114.966C80.1744 114.693 80.2256 114.476 80.3393 114.308C80.4531 114.141 80.601 114.054 80.783 114.054C80.9423 114.054 81.0674 114.11 81.1584 114.215C81.2494 114.327 81.2949 114.476 81.2949 114.674V116.56H82.04V114.966C82.04 114.693 82.0969 114.476 82.2106 114.308C82.3244 114.141 82.4837 114.054 82.677 114.054C82.8249 114.054 82.9444 114.11 83.0297 114.215C83.115 114.327 83.1605 114.476 83.1605 114.674V116.56H83.8999V114.525C83.8999 114.153 83.8089 113.855 83.6383 113.632C83.4677 113.408 83.2174 113.297 82.8875 113.297C82.66 113.297 82.4666 113.353 82.3016 113.452C82.1367 113.557 82.0059 113.694 81.9149 113.855C81.8466 113.694 81.7386 113.564 81.5907 113.458C81.4371 113.353 81.2608 113.297 81.056 113.297C80.8626 113.297 80.692 113.346 80.5384 113.433C80.3848 113.52 80.2654 113.644 80.1744 113.793H80.1289V113.396H79.4293Z" fill="#70AFEB"/>
<path d="M85.9711 116.66C86.574 116.66 87.0233 116.381 87.3191 115.816L86.7162 115.493C86.6422 115.63 86.5455 115.741 86.4204 115.822C86.2953 115.903 86.1531 115.94 85.9824 115.94C85.7777 115.94 85.6014 115.878 85.4535 115.748C85.3056 115.617 85.2146 115.425 85.1804 115.171H87.3589C87.3703 115.084 87.376 114.997 87.376 114.898C87.376 114.6 87.3191 114.333 87.2053 114.085C87.0916 113.843 86.9323 113.65 86.7162 113.508C86.5 113.371 86.2384 113.297 85.9426 113.297C85.6582 113.297 85.408 113.377 85.1804 113.526C84.9529 113.681 84.7709 113.886 84.6458 114.147C84.515 114.407 84.4524 114.687 84.4524 114.984C84.4524 115.307 84.515 115.593 84.6458 115.847C84.7766 116.101 84.9586 116.3 85.1918 116.443C85.4193 116.592 85.681 116.66 85.9711 116.66ZM86.6593 114.594H85.2146C85.2715 114.401 85.3625 114.246 85.4876 114.134C85.6127 114.023 85.7663 113.961 85.9483 113.961C86.0848 113.961 86.21 113.998 86.3123 114.06C86.4147 114.122 86.5 114.203 86.5569 114.302C86.6138 114.401 86.6479 114.494 86.6593 114.594Z" fill="#70AFEB"/>
<path d="M87.9499 113.396V116.56H88.6951V114.947C88.6951 114.693 88.7519 114.482 88.8771 114.308C89.0022 114.141 89.1615 114.054 89.3662 114.054C89.5369 114.054 89.6677 114.11 89.7644 114.221C89.8554 114.333 89.9066 114.494 89.9066 114.693V116.56H90.6517V114.594C90.6517 114.196 90.5607 113.88 90.3787 113.644C90.1966 113.415 89.9293 113.297 89.5824 113.297C89.3947 113.297 89.224 113.346 89.0648 113.433C88.9055 113.52 88.7804 113.644 88.6951 113.793H88.6496V113.396H87.9499Z" fill="#70AFEB"/>
<path d="M92.4732 116.61C92.6552 116.61 92.8258 116.579 92.9908 116.505V115.71C92.9111 115.76 92.8486 115.797 92.8031 115.816C92.7576 115.841 92.695 115.847 92.6267 115.847C92.4959 115.847 92.4049 115.816 92.3537 115.748C92.2855 115.679 92.257 115.562 92.257 115.4V114.091H92.968V113.396H92.257V112.503H91.5119V113.396H91.0057V114.091H91.5119V115.549C91.5119 115.897 91.5972 116.157 91.7792 116.343C91.8532 116.43 91.9499 116.492 92.075 116.542C92.1945 116.592 92.3253 116.61 92.4732 116.61Z" fill="#70AFEB"/>
<path d="M96.9458 116.66C97.3439 116.66 97.7022 116.56 98.0265 116.356C98.3507 116.151 98.6066 115.872 98.7943 115.512C98.9763 115.158 99.073 114.767 99.073 114.339C99.073 113.917 98.9763 113.526 98.7943 113.166C98.6066 112.813 98.3507 112.534 98.0265 112.329C97.7022 112.124 97.3439 112.019 96.9458 112.019C96.5476 112.019 96.1836 112.124 95.8594 112.329C95.5352 112.534 95.2792 112.813 95.0972 113.166C94.9095 113.526 94.8185 113.917 94.8185 114.339C94.8185 114.767 94.9095 115.158 95.0972 115.512C95.2792 115.872 95.5352 116.151 95.8594 116.356C96.1836 116.56 96.5476 116.66 96.9458 116.66ZM96.9458 115.866C96.6955 115.866 96.4623 115.804 96.2575 115.673C96.0528 115.549 95.8878 115.369 95.7684 115.133C95.6489 114.904 95.592 114.637 95.592 114.339C95.592 114.041 95.6489 113.781 95.7684 113.545C95.8878 113.315 96.0528 113.135 96.2575 113.005C96.4623 112.881 96.6955 112.813 96.9458 112.813C97.196 112.813 97.4235 112.881 97.634 113.005C97.8388 113.135 98.0037 113.315 98.1231 113.545C98.2426 113.781 98.3052 114.041 98.3052 114.339C98.3052 114.637 98.2426 114.904 98.1231 115.133C98.0037 115.369 97.8388 115.549 97.634 115.673C97.4235 115.804 97.196 115.866 96.9458 115.866Z" fill="#70AFEB"/>
<path d="M99.675 113.396V117.901H100.42V116.629L100.375 116.182H100.42C100.494 116.319 100.608 116.436 100.761 116.523C100.915 116.616 101.091 116.66 101.29 116.66C101.552 116.66 101.785 116.592 102.001 116.449C102.218 116.306 102.382 116.108 102.508 115.853C102.627 115.599 102.69 115.307 102.69 114.978C102.69 114.656 102.627 114.37 102.508 114.11C102.382 113.855 102.218 113.657 102.001 113.514C101.785 113.371 101.552 113.297 101.29 113.297C101.091 113.297 100.915 113.346 100.767 113.44C100.614 113.533 100.5 113.644 100.42 113.781H100.375V113.396H99.675ZM101.16 115.909C101.023 115.909 100.892 115.872 100.773 115.791C100.648 115.717 100.551 115.605 100.483 115.462C100.409 115.326 100.375 115.164 100.375 114.978C100.375 114.798 100.409 114.637 100.483 114.494C100.551 114.358 100.648 114.246 100.773 114.172C100.892 114.097 101.023 114.054 101.16 114.054C101.296 114.054 101.427 114.097 101.552 114.172C101.671 114.246 101.768 114.358 101.842 114.494C101.91 114.637 101.95 114.798 101.95 114.978C101.95 115.164 101.91 115.326 101.842 115.462C101.768 115.605 101.671 115.717 101.552 115.791C101.427 115.872 101.296 115.909 101.16 115.909Z" fill="#70AFEB"/>
<path d="M104.415 116.61C104.597 116.61 104.768 116.579 104.933 116.505V115.71C104.853 115.76 104.791 115.797 104.745 115.816C104.7 115.841 104.637 115.847 104.569 115.847C104.438 115.847 104.347 115.816 104.296 115.748C104.228 115.679 104.199 115.562 104.199 115.4V114.091H104.91V113.396H104.199V112.503H103.454V113.396H102.948V114.091H103.454V115.549C103.454 115.897 103.539 116.157 103.721 116.343C103.795 116.43 103.892 116.492 104.017 116.542C104.137 116.592 104.268 116.61 104.415 116.61Z" fill="#70AFEB"/>
<path d="M105.979 113.049C106.11 113.049 106.223 112.999 106.314 112.893C106.405 112.794 106.456 112.67 106.456 112.521C106.456 112.378 106.405 112.254 106.314 112.155C106.223 112.056 106.11 112 105.979 112C105.842 112 105.728 112.056 105.637 112.155C105.541 112.254 105.495 112.378 105.495 112.521C105.495 112.67 105.541 112.794 105.637 112.893C105.728 112.999 105.842 113.049 105.979 113.049ZM105.603 113.396V116.56H106.348V113.396H105.603Z" fill="#70AFEB"/>
<path d="M107.124 113.396V116.56H107.869V114.966C107.869 114.693 107.921 114.476 108.034 114.308C108.148 114.141 108.296 114.054 108.478 114.054C108.637 114.054 108.762 114.11 108.853 114.215C108.944 114.327 108.99 114.476 108.99 114.674V116.56H109.735V114.966C109.735 114.693 109.792 114.476 109.906 114.308C110.019 114.141 110.179 114.054 110.372 114.054C110.52 114.054 110.639 114.11 110.725 114.215C110.81 114.327 110.855 114.476 110.855 114.674V116.56H111.595V114.525C111.595 114.153 111.504 113.855 111.333 113.632C111.163 113.408 110.912 113.297 110.582 113.297C110.355 113.297 110.162 113.353 109.997 113.452C109.832 113.557 109.701 113.694 109.61 113.855C109.542 113.694 109.433 113.564 109.286 113.458C109.132 113.353 108.956 113.297 108.751 113.297C108.558 113.297 108.387 113.346 108.233 113.433C108.08 113.52 107.96 113.644 107.869 113.793H107.824V113.396H107.124Z" fill="#70AFEB"/>
<path d="M112.727 113.049C112.858 113.049 112.972 112.999 113.063 112.893C113.154 112.794 113.205 112.67 113.205 112.521C113.205 112.378 113.154 112.254 113.063 112.155C112.972 112.056 112.858 112 112.727 112C112.591 112 112.477 112.056 112.386 112.155C112.29 112.254 112.244 112.378 112.244 112.521C112.244 112.67 112.29 112.794 112.386 112.893C112.477 112.999 112.591 113.049 112.727 113.049ZM112.352 113.396V116.56H113.097V113.396H112.352Z" fill="#70AFEB"/>
<path d="M113.725 115.897V116.56H116.199V115.872H114.641L116.154 114.06V113.396H113.771V114.085H115.238L113.725 115.897Z" fill="#70AFEB"/>
<path d="M117.61 116.66C117.792 116.66 117.957 116.623 118.099 116.542C118.241 116.467 118.355 116.362 118.446 116.238H118.491V116.56H119.225V114.612C119.225 114.184 119.106 113.855 118.878 113.632C118.645 113.408 118.309 113.297 117.866 113.297C117.615 113.297 117.382 113.353 117.172 113.458C116.956 113.57 116.779 113.719 116.643 113.917L117.121 114.327C117.2 114.215 117.308 114.128 117.433 114.06C117.559 113.992 117.695 113.954 117.832 113.954C118.031 113.954 118.19 114.01 118.309 114.116C118.429 114.228 118.491 114.364 118.491 114.538V114.674C118.275 114.581 118.019 114.532 117.724 114.532C117.507 114.532 117.308 114.575 117.132 114.662C116.95 114.749 116.813 114.873 116.711 115.034C116.609 115.195 116.557 115.382 116.557 115.593C116.557 115.915 116.654 116.17 116.853 116.368C117.047 116.567 117.303 116.66 117.61 116.66ZM117.786 116.027C117.627 116.027 117.507 115.99 117.428 115.909C117.342 115.828 117.303 115.723 117.303 115.593C117.303 115.282 117.496 115.121 117.883 115.121C118.093 115.121 118.298 115.171 118.491 115.27C118.491 115.475 118.423 115.655 118.298 115.804C118.173 115.952 118.002 116.027 117.786 116.027Z" fill="#70AFEB"/>
<path d="M121.173 116.61C121.355 116.61 121.526 116.579 121.691 116.505V115.71C121.611 115.76 121.549 115.797 121.503 115.816C121.458 115.841 121.395 115.847 121.327 115.847C121.196 115.847 121.105 115.816 121.054 115.748C120.986 115.679 120.957 115.562 120.957 115.4V114.091H121.668V113.396H120.957V112.503H120.212V113.396H119.706V114.091H120.212V115.549C120.212 115.897 120.298 116.157 120.48 116.343C120.553 116.43 120.65 116.492 120.775 116.542C120.895 116.592 121.026 116.61 121.173 116.61Z" fill="#70AFEB"/>
<path d="M122.737 113.049C122.868 113.049 122.981 112.999 123.072 112.893C123.163 112.794 123.215 112.67 123.215 112.521C123.215 112.378 123.163 112.254 123.072 112.155C122.981 112.056 122.868 112 122.737 112C122.6 112 122.486 112.056 122.395 112.155C122.299 112.254 122.253 112.378 122.253 112.521C122.253 112.67 122.299 112.794 122.395 112.893C122.486 112.999 122.6 113.049 122.737 113.049ZM122.361 113.396V116.56H123.106V113.396H122.361Z" fill="#70AFEB"/>
<path d="M125.242 116.66C125.538 116.66 125.8 116.592 126.039 116.443C126.272 116.294 126.454 116.095 126.585 115.841C126.715 115.586 126.784 115.301 126.784 114.978C126.784 114.668 126.715 114.383 126.585 114.122C126.454 113.868 126.272 113.669 126.039 113.52C125.8 113.371 125.538 113.297 125.242 113.297C124.941 113.297 124.674 113.371 124.44 113.52C124.201 113.669 124.019 113.868 123.889 114.122C123.758 114.383 123.695 114.668 123.695 114.978C123.695 115.301 123.758 115.586 123.889 115.841C124.019 116.095 124.201 116.294 124.44 116.443C124.674 116.592 124.941 116.66 125.242 116.66ZM125.242 115.909C125.094 115.909 124.964 115.872 124.844 115.797C124.719 115.723 124.622 115.617 124.548 115.475C124.474 115.332 124.44 115.164 124.44 114.978C124.44 114.792 124.474 114.631 124.548 114.488C124.622 114.352 124.719 114.24 124.844 114.165C124.964 114.091 125.094 114.054 125.242 114.054C125.384 114.054 125.515 114.091 125.64 114.165C125.76 114.24 125.857 114.352 125.931 114.488C125.999 114.631 126.039 114.792 126.039 114.978C126.039 115.171 125.999 115.338 125.931 115.475C125.857 115.617 125.76 115.723 125.64 115.797C125.515 115.872 125.384 115.909 125.242 115.909Z" fill="#70AFEB"/>
<path d="M127.298 113.396V116.56H128.043V114.947C128.043 114.693 128.1 114.482 128.225 114.308C128.351 114.141 128.51 114.054 128.715 114.054C128.885 114.054 129.016 114.11 129.113 114.221C129.204 114.333 129.255 114.494 129.255 114.693V116.56H130V114.594C130 114.196 129.909 113.88 129.727 113.644C129.545 113.415 129.278 113.297 128.931 113.297C128.743 113.297 128.572 113.346 128.413 113.433C128.254 113.52 128.129 113.644 128.043 113.793H127.998V113.396H127.298Z" fill="#70AFEB"/>
<g opacity="0.15">
<path d="M147.873 27.2L-7.99999 65.4147L-8 143L147.873 143L147.873 27.2Z" fill="url(#paint0_linear)" fill-opacity="0.32"/>
<path d="M-7.99999 -4.24577L147.873 143L-8 143L-7.99999 -4.24577Z" fill="url(#paint1_linear)" fill-opacity="0.43"/>
<path d="M-7.99999 -4.24577L147.873 4.83946L147.873 143L69.9332 143L-7.99999 -4.24577Z" fill="url(#paint2_linear)" fill-opacity="0.42"/>
<path d="M-7.99999 65.4147L147.767 117.231L147.873 143L-8 143L-7.99999 65.4147Z" fill="url(#paint3_linear)" fill-opacity="0.45"/>
<path d="M-8 143L147.873 143L147.873 65.0279L-8 143Z" fill="url(#paint4_linear)"/>
<path d="M-8 116.986L147.873 91.4627L147.873 143L-8 143L-8 116.986Z" fill="url(#paint5_linear)"/>
<path d="M147.873 143L-7.99999 65.4147L-8 143L147.873 143Z" fill="url(#paint6_linear)" fill-opacity="0.23"/>
<path d="M49.9639 143L147.872 4.83938L147.872 143L49.9639 143Z" fill="url(#paint7_linear)" fill-opacity="0.36"/>
</g>
</g>
<defs>
<filter id="filter0_d" x="17.5" y="20" width="105" height="69" filterUnits="userSpaceOnUse" color-interpolation-filters="sRGB">
<feFlood flood-opacity="0" result="BackgroundImageFix"/>
<feColorMatrix in="SourceAlpha" type="matrix" values="0 0 0 0 0 0 0 0 0 0 0 0 0 0 0 0 0 0 127 0"/>
<feOffset dy="3"/>
<feGaussianBlur stdDeviation="3"/>
<feColorMatrix type="matrix" values="0 0 0 0 0.0470588 0 0 0 0 0.196078 0 0 0 0 0.333333 0 0 0 0.25 0"/>
<feBlend mode="normal" in2="BackgroundImageFix" result="effect1_dropShadow"/>
<feBlend mode="normal" in="SourceGraphic" in2="effect1_dropShadow" result="shape"/>
</filter>
<linearGradient id="paint0_linear" x1="14.7919" y1="54.0387" x2="127.714" y2="185.831" gradientUnits="userSpaceOnUse">
<stop stop-color="#1FBEF2"/>
<stop offset="1" stop-color="#0047B4"/>
</linearGradient>
<linearGradient id="paint1_linear" x1="-52.21" y1="44.4734" x2="97.9699" y2="219.749" gradientUnits="userSpaceOnUse">
<stop stop-color="#007FD3" stop-opacity="0.3"/>
<stop offset="0.2738" stop-color="#0E71C5" stop-opacity="0.4917"/>
<stop offset="0.7934" stop-color="#344CA2" stop-opacity="0.8554"/>
<stop offset="1" stop-color="#453C92"/>
</linearGradient>
<linearGradient id="paint2_linear" x1="81.7516" y1="-7.15422" x2="71.8624" y2="125.55" gradientUnits="userSpaceOnUse">
<stop stop-color="#3E87E2" stop-opacity="0"/>
<stop offset="0.3834" stop-color="#2971D2" stop-opacity="0.3834"/>
<stop offset="1" stop-color="#0047B4"/>
</linearGradient>
<linearGradient id="paint3_linear" x1="-16.9271" y1="81.2162" x2="95.995" y2="213.008" gradientUnits="userSpaceOnUse">
<stop stop-color="#007FD3"/>
<stop offset="0.00613207" stop-color="#017ED2"/>
<stop offset="0.2651" stop-color="#1E61B6"/>
<stop offset="0.5203" stop-color="#344DA2"/>
<stop offset="0.7681" stop-color="#414096"/>
<stop offset="1" stop-color="#453C92"/>
</linearGradient>
<linearGradient id="paint4_linear" x1="69.9351" y1="65.0283" x2="69.9351" y2="143" gradientUnits="userSpaceOnUse">
<stop stop-color="#3E87E2"/>
<stop offset="1" stop-color="#0047B4"/>
</linearGradient>
<linearGradient id="paint5_linear" x1="-26.3006" y1="169.975" x2="124.618" y2="40.059" gradientUnits="userSpaceOnUse">
<stop stop-color="#1FBEF2"/>
<stop offset="1" stop-color="#0047B4"/>
</linearGradient>
<linearGradient id="paint6_linear" x1="-25.9796" y1="88.9726" x2="86.9424" y2="220.765" gradientUnits="userSpaceOnUse">
<stop stop-color="#007FD3"/>
<stop offset="0.1094" stop-color="#126EC2"/>
<stop offset="0.2903" stop-color="#2858AD"/>
<stop offset="0.4864" stop-color="#38489E"/>
<stop offset="0.7064" stop-color="#423F95"/>
<stop offset="1" stop-color="#453C92"/>
</linearGradient>
<linearGradient id="paint7_linear" x1="83.5643" y1="65.2708" x2="157.457" y2="151.511" gradientUnits="userSpaceOnUse">
<stop stop-color="#3C436E" stop-opacity="0"/>
<stop offset="0.1959" stop-color="#2F365A" stop-opacity="0.1959"/>
<stop offset="0.4889" stop-color="#202643" stop-opacity="0.4889"/>
<stop offset="0.7637" stop-color="#171C35" stop-opacity="0.7637"/>
<stop offset="1" stop-color="#141930"/>
</linearGradient>
<clipPath id="clip0">
<rect width="140" height="140" rx="8" fill="white"/>
</clipPath>
</defs>
</svg>
