<svg width="144" height="144" viewBox="0 0 144 144" fill="none" xmlns="http://www.w3.org/2000/svg">
<rect width="144" height="144" fill="white"/>
<path d="M121.868 78.0452C120.742 67.6069 112.308 59.3785 101.823 58.644C96.956 48.2184 86.4111 41 74.1864 41C60.2597 41 48.51 50.3713 44.8514 63.1809C43.785 62.9973 42.687 62.9023 41.5703 62.9023C32.3184 62.9023 24.567 69.3609 22.5254 78.0452C22.1825 79.5079 22 81.0307 22 82.5979C22 84.1302 22.173 85.6214 22.5033 87.0556C23.0444 89.4016 24.0008 91.5893 25.2905 93.5332C28.8013 98.8141 34.7816 102.29 41.5703 102.29H100.291C107.4 102.29 113.714 98.8489 117.671 93.5332C119.115 91.5956 120.245 89.4143 120.987 87.0556C121.645 84.9692 122 82.7467 122 80.4387C122 79.6282 121.956 78.8304 121.868 78.0452ZM111.572 87.0556C109.778 90.2121 105.711 93.5332 100.287 93.5332C99.8627 93.5332 41.9383 93.4984 41.5797 93.4984C36.6439 93.4984 30.7203 89.6074 30.7203 82.5821C30.7203 77.241 34.833 71.8509 41.5199 71.6784C42.2561 71.6784 43.0425 71.7481 43.7378 71.8874C47.2139 72.587 50.0294 74.8824 51.4608 78.0452H46.2827C45.6599 77.3835 44.9049 76.8548 44.0555 76.497C43.2753 76.1678 42.4259 76.0253 41.5294 76.0253C39.7646 76.0253 38.0344 76.8136 36.8421 78.08C35.7222 79.2641 35.0615 80.8249 35.0615 82.5852C35.0615 84.3075 35.7159 85.8842 36.8043 87.0493C37.9337 88.2587 39.6639 89.1452 41.5797 89.1452C43.4955 89.1452 45.1628 88.3758 46.3614 87.0588H56.6609C59.1178 87.0588 61.1122 85.0674 61.1374 82.6011V82.5536C61.1374 82.5314 61.1374 82.5092 61.1343 82.4871C61.1563 75.7879 57.7147 69.744 53.018 66.6097C55.2924 56.9692 63.912 49.8236 74.1864 49.8236C81.9251 49.8236 88.7201 53.8919 92.5738 60.0149C93.549 61.5631 94.4582 62.896 95.1156 64.422C95.1188 64.4283 95.2069 64.6373 95.2446 64.7354C95.9336 66.2519 97.4561 67.3062 99.221 67.3062H100.291C101.757 67.3062 103.169 67.55 104.484 67.9995C108.907 69.5097 112.264 73.3405 113.126 78.0484C113.267 78.824 113.343 79.625 113.343 80.4419C113.343 82.8512 112.682 85.1022 111.572 87.0556Z" fill="#175EA1"/>
<path d="M41.5801 85.1533C42.9908 85.1533 44.1345 84.0023 44.1345 82.5825C44.1345 81.1627 42.9908 80.0117 41.5801 80.0117C40.1693 80.0117 39.0256 81.1627 39.0256 82.5825C39.0256 84.0023 40.1693 85.1533 41.5801 85.1533Z" fill="white"/>
</svg>
