<svg width="32" height="32" viewBox="0 0 32 32" fill="none" xmlns="http://www.w3.org/2000/svg">
<path d="M6.00002 7.33333H26V12.9167C26.7084 13.0417 27.4167 13.2917 28 13.7083V7.41667C28 6.29167 27.0834 5.33333 26 5.33333H6.00002C4.87502 5.33333 4.00002 6.29167 4.00002 7.41667V13.7083C4.54169 13.2917 5.25002 13.0417 6.00002 12.9167V7.33333ZM7.16669 22.1667H6.16669C4.20835 22.1667 2.66669 23.75 2.66669 25.6667C2.66669 26.25 3.08335 26.6667 3.66669 26.6667C4.20835 26.6667 4.66669 26.25 4.66669 25.6667C4.66669 24.875 5.33335 24.1667 6.16669 24.1667H7.16669C7.95835 24.1667 8.66669 24.875 8.66669 25.6667C8.66669 26.25 9.08335 26.6667 9.66669 26.6667C10.2084 26.6667 10.6667 26.25 10.6667 25.6667C10.6667 23.75 9.08335 22.1667 7.16669 22.1667ZM25.3334 14.1667C23.4584 14.1667 22 15.6667 22 17.5C22 19.375 23.4584 20.8333 25.3334 20.8333C27.1667 20.8333 28.6667 19.375 28.6667 17.5C28.6667 15.6667 27.1667 14.1667 25.3334 14.1667ZM25.3334 18.8333C24.5834 18.8333 24 18.25 24 17.5C24 16.7917 24.5834 16.1667 25.3334 16.1667C26.0417 16.1667 26.6667 16.7917 26.6667 17.5C26.6667 18.25 26.0417 18.8333 25.3334 18.8333ZM25.8334 22.1667H24.8334C22.875 22.1667 21.3334 23.75 21.3334 25.6667C21.3334 26.25 21.75 26.6667 22.3334 26.6667C22.875 26.6667 23.3334 26.25 23.3334 25.6667C23.3334 24.875 24 24.1667 24.8334 24.1667H25.8334C26.625 24.1667 27.3334 24.875 27.3334 25.6667C27.3334 26.25 27.75 26.6667 28.3334 26.6667C28.875 26.6667 29.3334 26.25 29.3334 25.6667C29.3334 23.75 27.75 22.1667 25.8334 22.1667ZM6.66669 20.8333C8.50002 20.8333 10 19.375 10 17.5C10 15.6667 8.50002 14.1667 6.66669 14.1667C4.79169 14.1667 3.33335 15.6667 3.33335 17.5C3.33335 19.375 4.79169 20.8333 6.66669 20.8333ZM6.66669 16.1667C7.37502 16.1667 8.00002 16.7917 8.00002 17.5C8.00002 18.25 7.37502 18.8333 6.66669 18.8333C5.91669 18.8333 5.33335 18.25 5.33335 17.5C5.33335 16.7917 5.91669 16.1667 6.66669 16.1667ZM12.6667 17.5C12.6667 19.375 14.125 20.8333 16 20.8333C17.8334 20.8333 19.3334 19.375 19.3334 17.5C19.3334 15.6667 17.8334 14.1667 16 14.1667C14.125 14.1667 12.6667 15.6667 12.6667 17.5ZM17.3334 17.5C17.3334 18.25 16.7084 18.8333 16 18.8333C15.25 18.8333 14.6667 18.25 14.6667 17.5C14.6667 16.7917 15.25 16.1667 16 16.1667C16.7084 16.1667 17.3334 16.7917 17.3334 17.5ZM16.5 22.1667H15.5C13.5417 22.1667 12 23.75 12 25.6667C12 26.25 12.4167 26.6667 13 26.6667C13.5417 26.6667 14 26.25 14 25.6667C14 24.875 14.6667 24.1667 15.5 24.1667H16.5C17.2917 24.1667 18 24.875 18 25.6667C18 26.25 18.4167 26.6667 19 26.6667C19.5417 26.6667 20 26.25 20 25.6667C20 23.75 18.4167 22.1667 16.5 22.1667Z" fill="white"/>
</svg>
