<svg width="73" height="72" viewBox="0 0 73 72" fill="none" xmlns="http://www.w3.org/2000/svg">
<rect width="72" height="72" transform="translate(0.5)" fill="white"/>
<path d="M41.3322 37.275C40.0587 38.775 38.1858 39.5999 36.1632 39.5999C34.0656 39.5999 32.1928 38.775 30.9193 37.275C30.2451 36.525 29.1214 36.375 28.3722 37.05C27.6231 37.725 27.5482 38.85 28.1475 39.5999C30.1701 41.9249 33.0168 43.1999 36.1632 43.1999C39.2346 43.1999 42.0813 41.9249 44.104 39.5999C44.7033 38.85 44.6284 37.725 43.8792 37.05C43.1301 36.375 42.0064 36.525 41.3322 37.275ZM31.3688 33.6C32.6423 33.6 33.766 32.55 33.766 31.2C33.766 29.925 32.6423 28.8 31.3688 28.8C30.0203 28.8 28.9715 29.925 28.9715 31.2C28.9715 32.55 30.0203 33.6 31.3688 33.6ZM40.9576 33.6C42.2311 33.6 43.3548 32.55 43.3548 31.2C43.3548 29.925 42.2311 28.8 40.9576 28.8C39.6092 28.8 38.5604 29.925 38.5604 31.2C38.5604 32.55 39.6092 33.6 40.9576 33.6ZM36.1632 19.2C25.5255 19.2 16.9855 26.25 16.9855 34.8C16.9855 38.4 18.4088 41.6999 20.8809 44.3249C19.8322 47.2499 17.5099 49.7999 17.4349 49.7999C16.9105 50.3249 16.8356 51.0749 17.0604 51.7499C17.36 52.4249 18.0342 52.7999 18.7834 52.7999C23.3531 52.7999 27.0238 50.9249 29.1963 49.3499C31.3688 50.0249 33.6911 50.3999 36.1632 50.3999C46.7259 50.3999 55.3409 43.4249 55.3409 34.8C55.3409 26.25 46.7259 19.2 36.1632 19.2ZM36.1632 46.7999C34.1405 46.7999 32.1179 46.4999 30.2451 45.8999L28.5221 45.3749L27.0987 46.4249C26.0499 47.1749 24.5517 47.9999 22.7538 48.5999C23.3531 47.6999 23.8775 46.6499 24.252 45.5999L25.0761 43.4999L23.5029 41.8499C22.1545 40.4249 20.5813 38.025 20.5813 34.8C20.5813 28.2 27.5482 22.8 36.1632 22.8C44.7033 22.8 51.7451 28.2 51.7451 34.8C51.7451 41.4749 44.7033 46.7999 36.1632 46.7999Z" fill="#175EA1"/>
</svg>
