<svg width="80" height="60" viewBox="0 0 80 60" fill="none" xmlns="http://www.w3.org/2000/svg">
<g clip-path="url(#clip0)">
<rect width="80" height="60" fill="#0C3255"/>
<g opacity="0.15">
<path d="M80.2195 7.69489L4.02693e-06 27.2659L0 67L80.2195 67L80.2195 7.69489Z" fill="url(#paint0_linear)" fill-opacity="0.32"/>
<path d="M7.64254e-06 -8.40958L80.2195 67L0 67L7.64254e-06 -8.40958Z" fill="url(#paint1_linear)" fill-opacity="0.43"/>
<path d="M7.64254e-06 -8.40958L80.2195 -3.75672L80.2195 67L40.1082 67L7.64254e-06 -8.40958Z" fill="url(#paint2_linear)" fill-opacity="0.42"/>
<path d="M4.02693e-06 27.2659L80.1654 53.803L80.2195 67L0 67L4.02693e-06 27.2659Z" fill="url(#paint3_linear)" fill-opacity="0.45"/>
<path d="M0 67L80.2195 67L80.2195 27.0678L0 67Z" fill="url(#paint4_linear)"/>
<path d="M1.35019e-06 53.6775L80.2195 40.606L80.2195 67L0 67L1.35019e-06 53.6775Z" fill="url(#paint5_linear)"/>
<path d="M80.2195 67L4.02693e-06 27.2659L0 67L80.2195 67Z" fill="url(#paint6_linear)" fill-opacity="0.23"/>
<path d="M29.8301 67L80.2184 -3.75677L80.2184 67L29.8301 67Z" fill="url(#paint7_linear)" fill-opacity="0.36"/>
</g>
<path d="M16.656 48.192H17.976L20.28 52.032L20.216 50.968V48.192H21.368V54H20.168L17.736 49.944L17.8 51.008V54H16.656V48.192ZM24.7693 54.128C24.3426 54.128 23.9586 54.032 23.6173 53.84C23.2813 53.648 23.02 53.384 22.8333 53.048C22.6466 52.712 22.5533 52.336 22.5533 51.92C22.5533 51.5093 22.6466 51.136 22.8333 50.8C23.02 50.4587 23.2813 50.192 23.6173 50C23.9586 49.808 24.3426 49.712 24.7693 49.712C25.1906 49.712 25.5693 49.808 25.9053 50C26.2466 50.192 26.5106 50.4587 26.6973 50.8C26.884 51.136 26.9773 51.5093 26.9773 51.92C26.9773 52.336 26.884 52.712 26.6973 53.048C26.5106 53.384 26.2466 53.648 25.9053 53.84C25.5693 54.032 25.1906 54.128 24.7693 54.128ZM24.7693 53.08C24.9666 53.08 25.1453 53.0347 25.3053 52.944C25.4706 52.848 25.6013 52.7147 25.6973 52.544C25.7986 52.368 25.8493 52.16 25.8493 51.92C25.8493 51.6853 25.7986 51.4827 25.6973 51.312C25.6013 51.136 25.4706 51.0027 25.3053 50.912C25.1453 50.816 24.9666 50.768 24.7693 50.768C24.572 50.768 24.3906 50.816 24.2253 50.912C24.0653 51.0027 23.9346 51.136 23.8333 51.312C23.732 51.4827 23.6813 51.6853 23.6813 51.92C23.6813 52.1547 23.732 52.36 23.8333 52.536C23.9346 52.712 24.0653 52.848 24.2253 52.944C24.3906 53.0347 24.572 53.08 24.7693 53.08ZM29.7961 54.064C29.5881 54.064 29.3961 54.032 29.2201 53.968C29.0441 53.904 28.9028 53.8187 28.7961 53.712C28.5348 53.4613 28.4041 53.1093 28.4041 52.656V50.816H27.6921V49.84H28.4041V48.688H29.5321V49.84H30.5321V50.816H29.5321V52.464C29.5321 52.6613 29.5748 52.8027 29.6601 52.888C29.7241 52.9627 29.8415 53 30.0121 53C30.1081 53 30.1881 52.9893 30.2521 52.968C30.3161 52.9413 30.4201 52.8827 30.5641 52.792V53.912C30.3135 54.0133 30.0575 54.064 29.7961 54.064ZM32.3931 49.472C32.1957 49.472 32.0251 49.4027 31.8811 49.264C31.7424 49.12 31.6731 48.9493 31.6731 48.752C31.6731 48.5547 31.7424 48.3867 31.8811 48.248C32.0251 48.1093 32.1957 48.04 32.3931 48.04C32.5904 48.04 32.7584 48.1093 32.8971 48.248C33.0357 48.3867 33.1051 48.5547 33.1051 48.752C33.1051 48.9493 33.0357 49.12 32.8971 49.264C32.7584 49.4027 32.5904 49.472 32.3931 49.472ZM31.8251 49.84H32.9531V54H31.8251V49.84ZM38.0343 49.472C37.837 49.472 37.6663 49.4027 37.5223 49.264C37.3836 49.12 37.3143 48.9493 37.3143 48.752C37.3143 48.5547 37.3836 48.3867 37.5223 48.248C37.6663 48.1093 37.837 48.04 38.0343 48.04C38.2316 48.04 38.3996 48.1093 38.5383 48.248C38.677 48.3867 38.7463 48.5547 38.7463 48.752C38.7463 48.9493 38.677 49.12 38.5383 49.264C38.3996 49.4027 38.2316 49.472 38.0343 49.472ZM34.8023 50.816H34.0743V49.84H34.8023V49.656C34.8023 49.1813 34.9436 48.808 35.2263 48.536C35.5143 48.264 35.8876 48.128 36.3463 48.128C36.533 48.128 36.6956 48.1467 36.8343 48.184V49.272C36.781 49.2613 36.7196 49.2453 36.6503 49.224C36.581 49.2027 36.501 49.192 36.4103 49.192C36.2663 49.192 36.149 49.24 36.0583 49.336C35.973 49.4267 35.9303 49.5547 35.9303 49.72V49.84H38.5943V54H37.4663V50.816H35.9303V54H34.8023V50.816ZM41.9236 54.128C41.5076 54.128 41.1316 54.0347 40.7956 53.848C40.4649 53.6613 40.2062 53.4 40.0196 53.064C39.8329 52.7227 39.7396 52.3413 39.7396 51.92C39.7396 51.4987 39.8329 51.12 40.0196 50.784C40.2062 50.448 40.4649 50.1867 40.7956 50C41.1316 49.808 41.5076 49.712 41.9236 49.712C42.3822 49.712 42.7769 49.8133 43.1076 50.016C43.4436 50.2133 43.6889 50.5067 43.8436 50.896L42.8196 51.32C42.6436 50.952 42.3449 50.768 41.9236 50.768C41.6142 50.768 41.3609 50.8747 41.1636 51.088C40.9662 51.296 40.8676 51.5733 40.8676 51.92C40.8676 52.272 40.9662 52.5547 41.1636 52.768C41.3609 52.976 41.6142 53.08 41.9236 53.08C42.3502 53.08 42.6649 52.8853 42.8676 52.496L43.8916 52.944C43.6996 53.3333 43.4356 53.6293 43.0996 53.832C42.7689 54.0293 42.3769 54.128 41.9236 54.128ZM46.2122 54.128C45.7695 54.128 45.4042 53.9973 45.1162 53.736C44.8335 53.4747 44.6922 53.1333 44.6922 52.712C44.6922 52.4293 44.7669 52.1813 44.9162 51.968C45.0655 51.7547 45.2682 51.592 45.5242 51.48C45.7802 51.3627 46.0629 51.304 46.3722 51.304C46.7989 51.304 47.1455 51.36 47.4122 51.472V51.352C47.4122 51.1387 47.3322 50.968 47.1722 50.84C47.0122 50.7067 46.7962 50.64 46.5242 50.64C46.3375 50.64 46.1562 50.6827 45.9802 50.768C45.8095 50.8533 45.6602 50.976 45.5322 51.136L44.7962 50.56C45.0149 50.2773 45.2762 50.0667 45.5802 49.928C45.8842 49.784 46.2149 49.712 46.5722 49.712C47.2069 49.712 47.6895 49.8613 48.0202 50.16C48.3562 50.4533 48.5242 50.8827 48.5242 51.448V54H47.4122V53.584H47.4042C47.2869 53.7387 47.1242 53.8693 46.9162 53.976C46.7135 54.0773 46.4789 54.128 46.2122 54.128ZM46.4602 53.232C46.7535 53.232 46.9855 53.1387 47.1562 52.952C47.3269 52.7653 47.4122 52.5547 47.4122 52.32C47.1615 52.2027 46.8895 52.144 46.5962 52.144C46.0789 52.144 45.8202 52.3333 45.8202 52.712C45.8202 52.8667 45.8735 52.992 45.9802 53.088C46.0922 53.184 46.2522 53.232 46.4602 53.232ZM51.5524 54.064C51.3444 54.064 51.1524 54.032 50.9764 53.968C50.8004 53.904 50.659 53.8187 50.5524 53.712C50.291 53.4613 50.1604 53.1093 50.1604 52.656V50.816H49.4484V49.84H50.1604V48.688H51.2884V49.84H52.2884V50.816H51.2884V52.464C51.2884 52.6613 51.331 52.8027 51.4164 52.888C51.4804 52.9627 51.5977 53 51.7684 53C51.8644 53 51.9444 52.9893 52.0084 52.968C52.0724 52.9413 52.1764 52.8827 52.3204 52.792V53.912C52.0697 54.0133 51.8137 54.064 51.5524 54.064ZM54.1493 49.472C53.952 49.472 53.7813 49.4027 53.6373 49.264C53.4986 49.12 53.4293 48.9493 53.4293 48.752C53.4293 48.5547 53.4986 48.3867 53.6373 48.248C53.7813 48.1093 53.952 48.04 54.1493 48.04C54.3466 48.04 54.5146 48.1093 54.6533 48.248C54.792 48.3867 54.8613 48.5547 54.8613 48.752C54.8613 48.9493 54.792 49.12 54.6533 49.264C54.5146 49.4027 54.3466 49.472 54.1493 49.472ZM53.5813 49.84H54.7093V54H53.5813V49.84ZM58.0715 54.128C57.6448 54.128 57.2608 54.032 56.9195 53.84C56.5835 53.648 56.3222 53.384 56.1355 53.048C55.9488 52.712 55.8555 52.336 55.8555 51.92C55.8555 51.5093 55.9488 51.136 56.1355 50.8C56.3222 50.4587 56.5835 50.192 56.9195 50C57.2608 49.808 57.6448 49.712 58.0715 49.712C58.4928 49.712 58.8715 49.808 59.2075 50C59.5488 50.192 59.8128 50.4587 59.9995 50.8C60.1862 51.136 60.2795 51.5093 60.2795 51.92C60.2795 52.336 60.1862 52.712 59.9995 53.048C59.8128 53.384 59.5488 53.648 59.2075 53.84C58.8715 54.032 58.4928 54.128 58.0715 54.128ZM58.0715 53.08C58.2688 53.08 58.4475 53.0347 58.6075 52.944C58.7728 52.848 58.9035 52.7147 58.9995 52.544C59.1008 52.368 59.1515 52.16 59.1515 51.92C59.1515 51.6853 59.1008 51.4827 58.9995 51.312C58.9035 51.136 58.7728 51.0027 58.6075 50.912C58.4475 50.816 58.2688 50.768 58.0715 50.768C57.8742 50.768 57.6928 50.816 57.5275 50.912C57.3675 51.0027 57.2368 51.136 57.1355 51.312C57.0342 51.4827 56.9835 51.6853 56.9835 51.92C56.9835 52.1547 57.0342 52.36 57.1355 52.536C57.2368 52.712 57.3675 52.848 57.5275 52.944C57.6928 53.0347 57.8742 53.08 58.0715 53.08ZM61.3214 49.84H62.3854V50.352C62.5027 50.16 62.676 50.0053 62.9054 49.888C63.14 49.7707 63.3907 49.712 63.6574 49.712C64.1587 49.712 64.54 49.8667 64.8014 50.176C65.068 50.48 65.2014 50.896 65.2014 51.424V54H64.0734V51.552C64.0734 51.3013 64.0094 51.1093 63.8814 50.976C63.7587 50.8373 63.5827 50.768 63.3534 50.768C63.0814 50.768 62.8627 50.8747 62.6974 51.088C62.532 51.296 62.4494 51.56 62.4494 51.88V54H61.3214V49.84Z" fill="#DBEBFA"/>
<path fill-rule="evenodd" clip-rule="evenodd" d="M53.2174 34H26.7826C25.2459 34 24 32.7358 24 31.1765V12.8235C24 11.2642 25.2459 10 26.7826 10H53.2174C54.7541 10 56 11.2642 56 12.8235V31.1765C56 32.7358 54.7541 34 53.2174 34ZM54.6087 12.8235C54.6087 12.0442 53.9854 11.4118 53.2174 11.4118H26.7826C26.0146 11.4118 25.3913 12.0442 25.3913 12.8235V31.1765C25.3913 31.9558 26.0146 32.5882 26.7826 32.5882H53.2174C53.9854 32.5882 54.6087 31.9558 54.6087 31.1765V12.8235ZM52.0584 29.5635L47.6522 25.0925L45.1346 27.6471L47.4539 30.0005C47.719 30.2694 47.719 30.7056 47.4539 30.9753C47.1882 31.2442 46.7583 31.2442 46.4932 30.9753L36.5217 20.8572L27.9416 29.5635C27.6765 29.8325 27.2466 29.8325 26.9809 29.5635C26.7158 29.2939 26.7158 28.8576 26.9809 28.5887L35.9583 19.4793C35.9805 19.4454 35.9951 19.408 36.0243 19.3776C36.1614 19.2386 36.3423 19.1751 36.5217 19.1793C36.7012 19.1751 36.8821 19.2386 37.0191 19.3776C37.0483 19.408 37.0623 19.4454 37.0852 19.4793L44.1739 26.6722L47.0887 23.7146C47.1117 23.6814 47.1256 23.6433 47.1548 23.6129C47.2918 23.4746 47.4727 23.4104 47.6522 23.4146C47.8317 23.4104 48.0125 23.4746 48.1496 23.6129C48.1788 23.6433 48.1927 23.6814 48.2157 23.7146L53.0191 28.5887C53.2842 28.8576 53.2842 29.2939 53.0191 29.5635C52.7534 29.8325 52.3235 29.8325 52.0584 29.5635ZM43.4783 18.4706C41.9416 18.4706 40.6957 17.2064 40.6957 15.6471C40.6957 14.0878 41.9416 12.8235 43.4783 12.8235C45.015 12.8235 46.2609 14.0878 46.2609 15.6471C46.2609 17.2064 45.015 18.4706 43.4783 18.4706ZM43.4783 14.2353C42.7103 14.2353 42.087 14.8678 42.087 15.6471C42.087 16.4264 42.7103 17.0588 43.4783 17.0588C44.2463 17.0588 44.8696 16.4264 44.8696 15.6471C44.8696 14.8678 44.2463 14.2353 43.4783 14.2353Z" fill="#DBEBFA"/>
</g>
<defs>
<linearGradient id="paint0_linear" x1="11.7298" y1="21.4399" x2="69.517" y2="89.2146" gradientUnits="userSpaceOnUse">
<stop stop-color="#1FBEF2"/>
<stop offset="1" stop-color="#0047B4"/>
</linearGradient>
<linearGradient id="paint1_linear" x1="-22.7526" y1="16.5412" x2="54.1011" y2="106.678" gradientUnits="userSpaceOnUse">
<stop stop-color="#007FD3" stop-opacity="0.3"/>
<stop offset="0.2738" stop-color="#0E71C5" stop-opacity="0.4917"/>
<stop offset="0.7934" stop-color="#344CA2" stop-opacity="0.8554"/>
<stop offset="1" stop-color="#453C92"/>
</linearGradient>
<linearGradient id="paint2_linear" x1="46.1905" y1="-9.89909" x2="41.1504" y2="58.0671" gradientUnits="userSpaceOnUse">
<stop stop-color="#3E87E2" stop-opacity="0"/>
<stop offset="0.3834" stop-color="#2971D2" stop-opacity="0.3834"/>
<stop offset="1" stop-color="#0047B4"/>
</linearGradient>
<linearGradient id="paint3_linear" x1="-4.59432" y1="35.3584" x2="53.1928" y2="103.133" gradientUnits="userSpaceOnUse">
<stop stop-color="#007FD3"/>
<stop offset="0.00613207" stop-color="#017ED2"/>
<stop offset="0.2651" stop-color="#1E61B6"/>
<stop offset="0.5203" stop-color="#344DA2"/>
<stop offset="0.7681" stop-color="#414096"/>
<stop offset="1" stop-color="#453C92"/>
</linearGradient>
<linearGradient id="paint4_linear" x1="40.1091" y1="27.068" x2="40.1091" y2="67" gradientUnits="userSpaceOnUse">
<stop stop-color="#3E87E2"/>
<stop offset="1" stop-color="#0047B4"/>
</linearGradient>
<linearGradient id="paint5_linear" x1="-9.41835" y1="80.8151" x2="67.9278" y2="13.9059" gradientUnits="userSpaceOnUse">
<stop stop-color="#1FBEF2"/>
<stop offset="1" stop-color="#0047B4"/>
</linearGradient>
<linearGradient id="paint6_linear" x1="-9.25318" y1="39.3307" x2="48.534" y2="107.106" gradientUnits="userSpaceOnUse">
<stop stop-color="#007FD3"/>
<stop offset="0.1094" stop-color="#126EC2"/>
<stop offset="0.2903" stop-color="#2858AD"/>
<stop offset="0.4864" stop-color="#38489E"/>
<stop offset="0.7064" stop-color="#423F95"/>
<stop offset="1" stop-color="#453C92"/>
</linearGradient>
<linearGradient id="paint7_linear" x1="47.1225" y1="27.1922" x2="84.9366" y2="71.5419" gradientUnits="userSpaceOnUse">
<stop stop-color="#3C436E" stop-opacity="0"/>
<stop offset="0.1959" stop-color="#2F365A" stop-opacity="0.1959"/>
<stop offset="0.4889" stop-color="#202643" stop-opacity="0.4889"/>
<stop offset="0.7637" stop-color="#171C35" stop-opacity="0.7637"/>
<stop offset="1" stop-color="#141930"/>
</linearGradient>
<clipPath id="clip0">
<rect width="80" height="60" fill="white"/>
</clipPath>
</defs>
</svg>
