<svg width="80" height="60" viewBox="0 0 80 60" fill="none" xmlns="http://www.w3.org/2000/svg">
<g clip-path="url(#clip0)">
<rect width="80" height="60" fill="#0C3255"/>
<g opacity="0.15">
<path d="M80.2195 7.69489L4.02693e-06 27.2659L0 67L80.2195 67L80.2195 7.69489Z" fill="url(#paint0_linear)" fill-opacity="0.32"/>
<path d="M7.64254e-06 -8.40958L80.2195 67L0 67L7.64254e-06 -8.40958Z" fill="url(#paint1_linear)" fill-opacity="0.43"/>
<path d="M7.64254e-06 -8.40958L80.2195 -3.75672L80.2195 67L40.1082 67L7.64254e-06 -8.40958Z" fill="url(#paint2_linear)" fill-opacity="0.42"/>
<path d="M4.02693e-06 27.2659L80.1654 53.803L80.2195 67L0 67L4.02693e-06 27.2659Z" fill="url(#paint3_linear)" fill-opacity="0.45"/>
<path d="M0 67L80.2195 67L80.2195 27.0678L0 67Z" fill="url(#paint4_linear)"/>
<path d="M1.35019e-06 53.6775L80.2195 40.606L80.2195 67L0 67L1.35019e-06 53.6775Z" fill="url(#paint5_linear)"/>
<path d="M80.2195 67L4.02693e-06 27.2659L0 67L80.2195 67Z" fill="url(#paint6_linear)" fill-opacity="0.23"/>
<path d="M29.8301 67L80.2184 -3.75677L80.2184 67L29.8301 67Z" fill="url(#paint7_linear)" fill-opacity="0.36"/>
</g>
<path d="M17.408 54.128C16.848 54.128 16.3333 53.9947 15.864 53.728C15.4 53.4613 15.0347 53.096 14.768 52.632C14.5013 52.168 14.368 51.656 14.368 51.096C14.368 50.536 14.5013 50.024 14.768 49.56C15.0347 49.096 15.4 48.7307 15.864 48.464C16.3333 48.1973 16.848 48.064 17.408 48.064C18.2827 48.064 19.016 48.3893 19.608 49.04L18.792 49.832C18.4133 49.3893 17.9547 49.168 17.416 49.168C17.064 49.168 16.744 49.248 16.456 49.408C16.1733 49.568 15.9493 49.7947 15.784 50.088C15.6187 50.376 15.536 50.712 15.536 51.096C15.536 51.48 15.6187 51.8187 15.784 52.112C15.9493 52.4 16.1733 52.624 16.456 52.784C16.744 52.944 17.064 53.024 17.416 53.024C18.008 53.024 18.512 52.768 18.928 52.256L19.752 53.04C19.448 53.4027 19.0987 53.6747 18.704 53.856C18.3147 54.0373 17.8827 54.128 17.408 54.128ZM21.5978 54.048C21.3951 54.048 21.2218 53.976 21.0778 53.832C20.9338 53.688 20.8618 53.5147 20.8618 53.312C20.8618 53.1093 20.9338 52.9387 21.0778 52.8C21.2218 52.656 21.3951 52.584 21.5978 52.584C21.8004 52.584 21.9738 52.656 22.1178 52.8C22.2618 52.9387 22.3338 53.1093 22.3338 53.312C22.3338 53.5147 22.2618 53.688 22.1178 53.832C21.9738 53.976 21.8004 54.048 21.5978 54.048ZM23.7569 48.192H25.8129C26.1809 48.192 26.5169 48.2693 26.8209 48.424C27.1303 48.5787 27.3703 48.7973 27.5409 49.08C27.7169 49.3627 27.8049 49.6827 27.8049 50.04C27.8049 50.3973 27.7169 50.72 27.5409 51.008C27.3703 51.2907 27.1303 51.5093 26.8209 51.664C26.5169 51.8187 26.1809 51.896 25.8129 51.896H24.9169V54H23.7569V48.192ZM25.8449 50.792C26.1009 50.792 26.3009 50.72 26.4449 50.576C26.5889 50.4267 26.6609 50.248 26.6609 50.04C26.6609 49.832 26.5889 49.656 26.4449 49.512C26.3009 49.368 26.1009 49.296 25.8449 49.296H24.9169V50.792H25.8449ZM31.2329 48.192H32.3929V54H31.2329V48.192ZM33.8698 49.84H34.9338V50.352C35.0511 50.16 35.2245 50.0053 35.4538 49.888C35.6885 49.7707 35.9391 49.712 36.2058 49.712C36.7071 49.712 37.0885 49.8667 37.3498 50.176C37.6165 50.48 37.7498 50.896 37.7498 51.424V54H36.6218V51.552C36.6218 51.3013 36.5578 51.1093 36.4298 50.976C36.3071 50.8373 36.1311 50.768 35.9018 50.768C35.6298 50.768 35.4111 50.8747 35.2458 51.088C35.0805 51.296 34.9978 51.56 34.9978 51.88V54H33.8698V49.84ZM40.6777 54.064C40.4697 54.064 40.2777 54.032 40.1017 53.968C39.9257 53.904 39.7844 53.8187 39.6777 53.712C39.4164 53.4613 39.2857 53.1093 39.2857 52.656V50.816H38.5737V49.84H39.2857V48.688H40.4137V49.84H41.4137V50.816H40.4137V52.464C40.4137 52.6613 40.4564 52.8027 40.5417 52.888C40.6057 52.9627 40.723 53 40.8937 53C40.9897 53 41.0697 52.9893 41.1337 52.968C41.1977 52.9413 41.3017 52.8827 41.4457 52.792V53.912C41.195 54.0133 40.939 54.064 40.6777 54.064ZM44.4149 54.128C44.0043 54.128 43.6309 54.0347 43.2949 53.848C42.9643 53.656 42.7056 53.392 42.5189 53.056C42.3323 52.72 42.2389 52.344 42.2389 51.928C42.2389 51.5333 42.3296 51.1653 42.5109 50.824C42.6976 50.4827 42.9536 50.2133 43.2789 50.016C43.6096 49.8133 43.9749 49.712 44.3749 49.712C44.8016 49.712 45.1696 49.8053 45.4789 49.992C45.7936 50.1733 46.0309 50.4267 46.1909 50.752C46.3509 51.072 46.4309 51.4267 46.4309 51.816C46.4309 51.9387 46.4203 52.0693 46.3989 52.208H43.3509C43.3989 52.4907 43.5216 52.7147 43.7189 52.88C43.9163 53.04 44.1536 53.12 44.4309 53.12C44.6656 53.12 44.8656 53.0693 45.0309 52.968C45.1963 52.8667 45.3349 52.72 45.4469 52.528L46.3669 52.984C45.9296 53.7467 45.2789 54.128 44.4149 54.128ZM45.3429 51.384C45.3323 51.2933 45.2869 51.1893 45.2069 51.072C45.1269 50.9493 45.0176 50.848 44.8789 50.768C44.7403 50.688 44.5749 50.648 44.3829 50.648C44.1429 50.648 43.9349 50.72 43.7589 50.864C43.5883 51.0027 43.4709 51.176 43.4069 51.384H45.3429ZM47.5564 49.84H48.6204V50.352C48.7377 50.16 48.911 50.0053 49.1404 49.888C49.375 49.7707 49.6257 49.712 49.8924 49.712C50.3937 49.712 50.775 49.8667 51.0364 50.176C51.303 50.48 51.4364 50.896 51.4364 51.424V54H50.3084V51.552C50.3084 51.3013 50.2444 51.1093 50.1164 50.976C49.9937 50.8373 49.8177 50.768 49.5884 50.768C49.3164 50.768 49.0977 50.8747 48.9324 51.088C48.767 51.296 48.6844 51.56 48.6844 51.88V54H47.5564V49.84ZM54.3643 54.064C54.1563 54.064 53.9643 54.032 53.7883 53.968C53.6123 53.904 53.4709 53.8187 53.3643 53.712C53.1029 53.4613 52.9723 53.1093 52.9723 52.656V50.816H52.2603V49.84H52.9723V48.688H54.1003V49.84H55.1003V50.816H54.1003V52.464C54.1003 52.6613 54.1429 52.8027 54.2283 52.888C54.2923 52.9627 54.4096 53 54.5803 53C54.6763 53 54.7563 52.9893 54.8203 52.968C54.8843 52.9413 54.9883 52.8827 55.1323 52.792V53.912C54.8816 54.0133 54.6256 54.064 54.3643 54.064ZM56.9612 49.472C56.7639 49.472 56.5932 49.4027 56.4492 49.264C56.3105 49.12 56.2412 48.9493 56.2412 48.752C56.2412 48.5547 56.3105 48.3867 56.4492 48.248C56.5932 48.1093 56.7639 48.04 56.9612 48.04C57.1585 48.04 57.3265 48.1093 57.4652 48.248C57.6039 48.3867 57.6732 48.5547 57.6732 48.752C57.6732 48.9493 57.6039 49.12 57.4652 49.264C57.3265 49.4027 57.1585 49.472 56.9612 49.472ZM56.3932 49.84H57.5212V54H56.3932V49.84ZM60.8834 54.128C60.4567 54.128 60.0727 54.032 59.7314 53.84C59.3954 53.648 59.134 53.384 58.9474 53.048C58.7607 52.712 58.6674 52.336 58.6674 51.92C58.6674 51.5093 58.7607 51.136 58.9474 50.8C59.134 50.4587 59.3954 50.192 59.7314 50C60.0727 49.808 60.4567 49.712 60.8834 49.712C61.3047 49.712 61.6834 49.808 62.0194 50C62.3607 50.192 62.6247 50.4587 62.8114 50.8C62.998 51.136 63.0914 51.5093 63.0914 51.92C63.0914 52.336 62.998 52.712 62.8114 53.048C62.6247 53.384 62.3607 53.648 62.0194 53.84C61.6834 54.032 61.3047 54.128 60.8834 54.128ZM60.8834 53.08C61.0807 53.08 61.2594 53.0347 61.4194 52.944C61.5847 52.848 61.7154 52.7147 61.8114 52.544C61.9127 52.368 61.9634 52.16 61.9634 51.92C61.9634 51.6853 61.9127 51.4827 61.8114 51.312C61.7154 51.136 61.5847 51.0027 61.4194 50.912C61.2594 50.816 61.0807 50.768 60.8834 50.768C60.686 50.768 60.5047 50.816 60.3394 50.912C60.1794 51.0027 60.0487 51.136 59.9474 51.312C59.846 51.4827 59.7954 51.6853 59.7954 51.92C59.7954 52.1547 59.846 52.36 59.9474 52.536C60.0487 52.712 60.1794 52.848 60.3394 52.944C60.5047 53.0347 60.686 53.08 60.8834 53.08ZM64.1333 49.84H65.1973V50.352C65.3146 50.16 65.4879 50.0053 65.7173 49.888C65.9519 49.7707 66.2026 49.712 66.4693 49.712C66.9706 49.712 67.3519 49.8667 67.6133 50.176C67.8799 50.48 68.0133 50.896 68.0133 51.424V54H66.8853V51.552C66.8853 51.3013 66.8213 51.1093 66.6933 50.976C66.5706 50.8373 66.3946 50.768 66.1653 50.768C65.8933 50.768 65.6746 50.8747 65.5093 51.088C65.3439 51.296 65.2613 51.56 65.2613 51.88V54H64.1333V49.84Z" fill="#DBEBFA"/>
<path d="M32.5 10L31 11.5H26.5V35.5H36.1914L36.751 34H28V13H31V14.5H41.5V13H44.5V17.5H46V11.5H41.5L40 10H32.5ZM33.1211 11.5H39.3789L40 12.1211V13H32.5V12.1211L33.1211 11.5ZM29.5 19V20.5H41.8135L42.376 19H29.5ZM43.9785 19L37.0469 37.4863L38.4531 38.0137L40.5215 32.5H49.9785L52.0469 38.0137L53.4531 37.4863L46.5215 19H43.9785ZM45.0215 20.5029H45.4785L49.416 31H41.084L45.0215 20.5029ZM29.5 22V23.5H40.6885L41.251 22H29.5ZM29.5 25V26.5H39.5635L40.126 25H29.5ZM29.5 28V29.5H38.4385L39.001 28H29.5Z" fill="#DBEBFA"/>
</g>
<defs>
<linearGradient id="paint0_linear" x1="11.7298" y1="21.4399" x2="69.517" y2="89.2146" gradientUnits="userSpaceOnUse">
<stop stop-color="#1FBEF2"/>
<stop offset="1" stop-color="#0047B4"/>
</linearGradient>
<linearGradient id="paint1_linear" x1="-22.7526" y1="16.5412" x2="54.1011" y2="106.678" gradientUnits="userSpaceOnUse">
<stop stop-color="#007FD3" stop-opacity="0.3"/>
<stop offset="0.2738" stop-color="#0E71C5" stop-opacity="0.4917"/>
<stop offset="0.7934" stop-color="#344CA2" stop-opacity="0.8554"/>
<stop offset="1" stop-color="#453C92"/>
</linearGradient>
<linearGradient id="paint2_linear" x1="46.1905" y1="-9.89909" x2="41.1504" y2="58.0671" gradientUnits="userSpaceOnUse">
<stop stop-color="#3E87E2" stop-opacity="0"/>
<stop offset="0.3834" stop-color="#2971D2" stop-opacity="0.3834"/>
<stop offset="1" stop-color="#0047B4"/>
</linearGradient>
<linearGradient id="paint3_linear" x1="-4.59432" y1="35.3584" x2="53.1928" y2="103.133" gradientUnits="userSpaceOnUse">
<stop stop-color="#007FD3"/>
<stop offset="0.00613207" stop-color="#017ED2"/>
<stop offset="0.2651" stop-color="#1E61B6"/>
<stop offset="0.5203" stop-color="#344DA2"/>
<stop offset="0.7681" stop-color="#414096"/>
<stop offset="1" stop-color="#453C92"/>
</linearGradient>
<linearGradient id="paint4_linear" x1="40.1091" y1="27.068" x2="40.1091" y2="67" gradientUnits="userSpaceOnUse">
<stop stop-color="#3E87E2"/>
<stop offset="1" stop-color="#0047B4"/>
</linearGradient>
<linearGradient id="paint5_linear" x1="-9.41835" y1="80.8151" x2="67.9278" y2="13.9059" gradientUnits="userSpaceOnUse">
<stop stop-color="#1FBEF2"/>
<stop offset="1" stop-color="#0047B4"/>
</linearGradient>
<linearGradient id="paint6_linear" x1="-9.25318" y1="39.3307" x2="48.534" y2="107.106" gradientUnits="userSpaceOnUse">
<stop stop-color="#007FD3"/>
<stop offset="0.1094" stop-color="#126EC2"/>
<stop offset="0.2903" stop-color="#2858AD"/>
<stop offset="0.4864" stop-color="#38489E"/>
<stop offset="0.7064" stop-color="#423F95"/>
<stop offset="1" stop-color="#453C92"/>
</linearGradient>
<linearGradient id="paint7_linear" x1="47.1225" y1="27.1922" x2="84.9366" y2="71.5419" gradientUnits="userSpaceOnUse">
<stop stop-color="#3C436E" stop-opacity="0"/>
<stop offset="0.1959" stop-color="#2F365A" stop-opacity="0.1959"/>
<stop offset="0.4889" stop-color="#202643" stop-opacity="0.4889"/>
<stop offset="0.7637" stop-color="#171C35" stop-opacity="0.7637"/>
<stop offset="1" stop-color="#141930"/>
</linearGradient>
<clipPath id="clip0">
<rect width="80" height="60" fill="white"/>
</clipPath>
</defs>
</svg>
