<svg width="80" height="60" viewBox="0 0 80 60" fill="none" xmlns="http://www.w3.org/2000/svg">
<g clip-path="url(#clip0)">
<rect width="80" height="60" fill="#0C3255"/>
<g opacity="0.15">
<path d="M80.2195 7.69489L4.02693e-06 27.2659L0 67L80.2195 67L80.2195 7.69489Z" fill="url(#paint0_linear)" fill-opacity="0.32"/>
<path d="M7.64254e-06 -8.40958L80.2195 67L0 67L7.64254e-06 -8.40958Z" fill="url(#paint1_linear)" fill-opacity="0.43"/>
<path d="M7.64254e-06 -8.40958L80.2195 -3.75672L80.2195 67L40.1082 67L7.64254e-06 -8.40958Z" fill="url(#paint2_linear)" fill-opacity="0.42"/>
<path d="M4.02693e-06 27.2659L80.1654 53.803L80.2195 67L0 67L4.02693e-06 27.2659Z" fill="url(#paint3_linear)" fill-opacity="0.45"/>
<path d="M0 67L80.2195 67L80.2195 27.0678L0 67Z" fill="url(#paint4_linear)"/>
<path d="M1.35019e-06 53.6775L80.2195 40.606L80.2195 67L0 67L1.35019e-06 53.6775Z" fill="url(#paint5_linear)"/>
<path d="M80.2195 67L4.02693e-06 27.2659L0 67L80.2195 67Z" fill="url(#paint6_linear)" fill-opacity="0.23"/>
<path d="M29.8301 67L80.2184 -3.75677L80.2184 67L29.8301 67Z" fill="url(#paint7_linear)" fill-opacity="0.36"/>
</g>
<path fill-rule="evenodd" clip-rule="evenodd" d="M53.2174 34H26.7826C25.2459 34 24 32.7358 24 31.1765V12.8235C24 11.2642 25.2459 10 26.7826 10H53.2174C54.7541 10 56 11.2642 56 12.8235V31.1765C56 32.7358 54.7541 34 53.2174 34ZM54.6087 12.8235C54.6087 12.0442 53.9854 11.4118 53.2174 11.4118H26.7826C26.0146 11.4118 25.3913 12.0442 25.3913 12.8235V31.1765C25.3913 31.9558 26.0146 32.5882 26.7826 32.5882H53.2174C53.9854 32.5882 54.6087 31.9558 54.6087 31.1765V12.8235ZM52.0584 29.5635L47.6522 25.0925L45.1346 27.6471L47.4539 30.0005C47.719 30.2694 47.719 30.7056 47.4539 30.9753C47.1882 31.2442 46.7583 31.2442 46.4932 30.9753L36.5217 20.8572L27.9416 29.5635C27.6765 29.8325 27.2466 29.8325 26.9809 29.5635C26.7158 29.2939 26.7158 28.8576 26.9809 28.5887L35.9583 19.4793C35.9805 19.4454 35.9951 19.408 36.0243 19.3776C36.1614 19.2386 36.3423 19.1751 36.5217 19.1793C36.7012 19.1751 36.8821 19.2386 37.0191 19.3776C37.0483 19.408 37.0623 19.4454 37.0852 19.4793L44.1739 26.6722L47.0887 23.7146C47.1117 23.6814 47.1256 23.6433 47.1548 23.6129C47.2918 23.4746 47.4727 23.4104 47.6522 23.4146C47.8317 23.4104 48.0125 23.4746 48.1496 23.6129C48.1788 23.6433 48.1927 23.6814 48.2157 23.7146L53.0191 28.5887C53.2842 28.8576 53.2842 29.2939 53.0191 29.5635C52.7534 29.8325 52.3235 29.8325 52.0584 29.5635ZM43.4783 18.4706C41.9416 18.4706 40.6957 17.2064 40.6957 15.6471C40.6957 14.0878 41.9416 12.8235 43.4783 12.8235C45.015 12.8235 46.2609 14.0878 46.2609 15.6471C46.2609 17.2064 45.015 18.4706 43.4783 18.4706ZM43.4783 14.2353C42.7103 14.2353 42.087 14.8678 42.087 15.6471C42.087 16.4264 42.7103 17.0588 43.4783 17.0588C44.2463 17.0588 44.8696 16.4264 44.8696 15.6471C44.8696 14.8678 44.2463 14.2353 43.4783 14.2353Z" fill="#DBEBFA"/>
<path d="M14.656 48.192H15.816V50.48H18.144V48.192H19.304V54H18.144V51.584H15.816V54H14.656V48.192ZM22.6668 54.128C22.2561 54.128 21.8828 54.0347 21.5468 53.848C21.2161 53.656 20.9575 53.392 20.7708 53.056C20.5841 52.72 20.4908 52.344 20.4908 51.928C20.4908 51.5333 20.5815 51.1653 20.7628 50.824C20.9495 50.4827 21.2055 50.2133 21.5308 50.016C21.8615 49.8133 22.2268 49.712 22.6268 49.712C23.0535 49.712 23.4215 49.8053 23.7308 49.992C24.0455 50.1733 24.2828 50.4267 24.4428 50.752C24.6028 51.072 24.6828 51.4267 24.6828 51.816C24.6828 51.9387 24.6721 52.0693 24.6508 52.208H21.6028C21.6508 52.4907 21.7735 52.7147 21.9708 52.88C22.1681 53.04 22.4055 53.12 22.6828 53.12C22.9175 53.12 23.1175 53.0693 23.2828 52.968C23.4481 52.8667 23.5868 52.72 23.6988 52.528L24.6188 52.984C24.1815 53.7467 23.5308 54.128 22.6668 54.128ZM23.5948 51.384C23.5841 51.2933 23.5388 51.1893 23.4588 51.072C23.3788 50.9493 23.2695 50.848 23.1308 50.768C22.9921 50.688 22.8268 50.648 22.6348 50.648C22.3948 50.648 22.1868 50.72 22.0108 50.864C21.8401 51.0027 21.7228 51.176 21.6588 51.384H23.5948ZM25.8083 49.84H26.8723V50.384C26.9683 50.1973 27.1256 50.04 27.3443 49.912C27.5683 49.784 27.8109 49.72 28.0723 49.72C28.2643 49.72 28.4483 49.7547 28.6243 49.824V50.952C28.4483 50.888 28.3096 50.8453 28.2083 50.824C28.1123 50.7973 28.0109 50.784 27.9043 50.784C27.6056 50.784 27.3683 50.8933 27.1923 51.112C27.0216 51.3253 26.9363 51.5973 26.9363 51.928V54H25.8083V49.84ZM31.3703 54.128C30.9436 54.128 30.5596 54.032 30.2183 53.84C29.8823 53.648 29.6209 53.384 29.4343 53.048C29.2476 52.712 29.1543 52.336 29.1543 51.92C29.1543 51.5093 29.2476 51.136 29.4343 50.8C29.6209 50.4587 29.8823 50.192 30.2183 50C30.5596 49.808 30.9436 49.712 31.3703 49.712C31.7916 49.712 32.1703 49.808 32.5063 50C32.8476 50.192 33.1116 50.4587 33.2983 50.8C33.4849 51.136 33.5783 51.5093 33.5783 51.92C33.5783 52.336 33.4849 52.712 33.2983 53.048C33.1116 53.384 32.8476 53.648 32.5063 53.84C32.1703 54.032 31.7916 54.128 31.3703 54.128ZM31.3703 53.08C31.5676 53.08 31.7463 53.0347 31.9063 52.944C32.0716 52.848 32.2023 52.7147 32.2983 52.544C32.3996 52.368 32.4503 52.16 32.4503 51.92C32.4503 51.6853 32.3996 51.4827 32.2983 51.312C32.2023 51.136 32.0716 51.0027 31.9063 50.912C31.7463 50.816 31.5676 50.768 31.3703 50.768C31.1729 50.768 30.9916 50.816 30.8263 50.912C30.6663 51.0027 30.5356 51.136 30.4343 51.312C30.3329 51.4827 30.2823 51.6853 30.2823 51.92C30.2823 52.1547 30.3329 52.36 30.4343 52.536C30.5356 52.712 30.6663 52.848 30.8263 52.944C30.9916 53.0347 31.1729 53.08 31.3703 53.08ZM37.0373 48.192H39.3173C39.6426 48.192 39.9413 48.2613 40.2133 48.4C40.4906 48.5333 40.7093 48.7173 40.8693 48.952C41.0293 49.1867 41.1093 49.4453 41.1093 49.728C41.1093 50.0267 41.0346 50.2853 40.8853 50.504C40.7413 50.7173 40.5599 50.8773 40.3413 50.984V50.992C40.6293 51.0987 40.8639 51.272 41.0453 51.512C41.2266 51.7467 41.3173 52.032 41.3173 52.368C41.3173 52.6933 41.2293 52.9813 41.0533 53.232C40.8826 53.4773 40.6506 53.6667 40.3573 53.8C40.0693 53.9333 39.7493 54 39.3973 54H37.0373V48.192ZM39.2373 50.528C39.4613 50.528 39.6399 50.4667 39.7733 50.344C39.9066 50.2213 39.9733 50.0667 39.9733 49.88C39.9733 49.6987 39.9093 49.5467 39.7813 49.424C39.6533 49.3013 39.4826 49.24 39.2693 49.24H38.1973V50.528H39.2373ZM39.3573 52.936C39.6079 52.936 39.8026 52.872 39.9413 52.744C40.0799 52.616 40.1493 52.448 40.1493 52.24C40.1493 52.032 40.0773 51.864 39.9333 51.736C39.7946 51.6027 39.5919 51.536 39.3253 51.536H38.1973V52.936H39.3573ZM43.7591 54.128C43.3164 54.128 42.9511 53.9973 42.6631 53.736C42.3804 53.4747 42.2391 53.1333 42.2391 52.712C42.2391 52.4293 42.3137 52.1813 42.4631 51.968C42.6124 51.7547 42.8151 51.592 43.0711 51.48C43.3271 51.3627 43.6097 51.304 43.9191 51.304C44.3457 51.304 44.6924 51.36 44.9591 51.472V51.352C44.9591 51.1387 44.8791 50.968 44.7191 50.84C44.5591 50.7067 44.3431 50.64 44.0711 50.64C43.8844 50.64 43.7031 50.6827 43.5271 50.768C43.3564 50.8533 43.2071 50.976 43.0791 51.136L42.3431 50.56C42.5617 50.2773 42.8231 50.0667 43.1271 49.928C43.4311 49.784 43.7617 49.712 44.1191 49.712C44.7537 49.712 45.2364 49.8613 45.5671 50.16C45.9031 50.4533 46.0711 50.8827 46.0711 51.448V54H44.9591V53.584H44.9511C44.8337 53.7387 44.6711 53.8693 44.4631 53.976C44.2604 54.0773 44.0257 54.128 43.7591 54.128ZM44.0071 53.232C44.3004 53.232 44.5324 53.1387 44.7031 52.952C44.8737 52.7653 44.9591 52.5547 44.9591 52.32C44.7084 52.2027 44.4364 52.144 44.1431 52.144C43.6257 52.144 43.3671 52.3333 43.3671 52.712C43.3671 52.8667 43.4204 52.992 43.5271 53.088C43.6391 53.184 43.7991 53.232 44.0071 53.232ZM47.3614 49.84H48.4254V50.352C48.5427 50.16 48.716 50.0053 48.9454 49.888C49.18 49.7707 49.4307 49.712 49.6974 49.712C50.1987 49.712 50.58 49.8667 50.8414 50.176C51.108 50.48 51.2414 50.896 51.2414 51.424V54H50.1134V51.552C50.1134 51.3013 50.0494 51.1093 49.9214 50.976C49.7987 50.8373 49.6227 50.768 49.3934 50.768C49.1214 50.768 48.9027 50.8747 48.7374 51.088C48.572 51.296 48.4894 51.56 48.4894 51.88V54H47.3614V49.84ZM52.5564 49.84H53.6204V50.352C53.7377 50.16 53.911 50.0053 54.1404 49.888C54.375 49.7707 54.6257 49.712 54.8924 49.712C55.3937 49.712 55.775 49.8667 56.0364 50.176C56.303 50.48 56.4364 50.896 56.4364 51.424V54H55.3084V51.552C55.3084 51.3013 55.2444 51.1093 55.1164 50.976C54.9937 50.8373 54.8177 50.768 54.5884 50.768C54.3164 50.768 54.0977 50.8747 53.9324 51.088C53.767 51.296 53.6844 51.56 53.6844 51.88V54H52.5564V49.84ZM59.7034 54.128C59.2927 54.128 58.9194 54.0347 58.5834 53.848C58.2527 53.656 57.994 53.392 57.8074 53.056C57.6207 52.72 57.5274 52.344 57.5274 51.928C57.5274 51.5333 57.618 51.1653 57.7994 50.824C57.986 50.4827 58.242 50.2133 58.5674 50.016C58.898 49.8133 59.2634 49.712 59.6634 49.712C60.09 49.712 60.458 49.8053 60.7674 49.992C61.082 50.1733 61.3194 50.4267 61.4794 50.752C61.6394 51.072 61.7194 51.4267 61.7194 51.816C61.7194 51.9387 61.7087 52.0693 61.6874 52.208H58.6394C58.6874 52.4907 58.81 52.7147 59.0074 52.88C59.2047 53.04 59.442 53.12 59.7194 53.12C59.954 53.12 60.154 53.0693 60.3194 52.968C60.4847 52.8667 60.6234 52.72 60.7354 52.528L61.6554 52.984C61.218 53.7467 60.5674 54.128 59.7034 54.128ZM60.6314 51.384C60.6207 51.2933 60.5754 51.1893 60.4954 51.072C60.4154 50.9493 60.306 50.848 60.1674 50.768C60.0287 50.688 59.8634 50.648 59.6714 50.648C59.4314 50.648 59.2234 50.72 59.0474 50.864C58.8767 51.0027 58.7594 51.176 58.6954 51.384H60.6314ZM62.8448 49.84H63.9088V50.384C64.0048 50.1973 64.1621 50.04 64.3808 49.912C64.6048 49.784 64.8475 49.72 65.1088 49.72C65.3008 49.72 65.4848 49.7547 65.6608 49.824V50.952C65.4848 50.888 65.3461 50.8453 65.2448 50.824C65.1488 50.7973 65.0475 50.784 64.9408 50.784C64.6421 50.784 64.4048 50.8933 64.2288 51.112C64.0581 51.3253 63.9728 51.5973 63.9728 51.928V54H62.8448V49.84Z" fill="#DBEBFA"/>
<path d="M14.5591 21.8674C14.4803 21.9454 14.4803 22.0546 14.5591 22.1326L16.874 24.4415C16.937 24.5195 17.063 24.5195 17.1417 24.4415L17.4409 24.1295C17.5197 24.0515 17.5197 23.9423 17.4409 23.8643L15.5827 21.9922L17.4409 20.1357C17.5197 20.0577 17.5197 19.9329 17.4409 19.8705L17.1417 19.5585C17.063 19.4805 16.937 19.4805 16.874 19.5585L14.5591 21.8674Z" fill="#DBEBFA"/>
<path d="M65.4409 22.1326C65.5197 22.0546 65.5197 21.9454 65.4409 21.8674L63.126 19.5585C63.063 19.4805 62.937 19.4805 62.8583 19.5585L62.5591 19.8705C62.4803 19.9485 62.4803 20.0577 62.5591 20.1357L64.4173 22.0078L62.5591 23.8643C62.4803 23.9423 62.4803 24.0671 62.5591 24.1295L62.8583 24.4415C62.937 24.5195 63.063 24.5195 63.126 24.4415L65.4409 22.1326Z" fill="#DBEBFA"/>
<rect x="33" y="38" width="2" height="2" rx="1" fill="#DBEBFA"/>
<rect x="39" y="38" width="2" height="2" rx="1" fill="#DBEBFA"/>
<rect x="45" y="38" width="2" height="2" rx="1" fill="#DBEBFA"/>
</g>
<defs>
<linearGradient id="paint0_linear" x1="11.7298" y1="21.4399" x2="69.517" y2="89.2146" gradientUnits="userSpaceOnUse">
<stop stop-color="#1FBEF2"/>
<stop offset="1" stop-color="#0047B4"/>
</linearGradient>
<linearGradient id="paint1_linear" x1="-22.7526" y1="16.5412" x2="54.1011" y2="106.678" gradientUnits="userSpaceOnUse">
<stop stop-color="#007FD3" stop-opacity="0.3"/>
<stop offset="0.2738" stop-color="#0E71C5" stop-opacity="0.4917"/>
<stop offset="0.7934" stop-color="#344CA2" stop-opacity="0.8554"/>
<stop offset="1" stop-color="#453C92"/>
</linearGradient>
<linearGradient id="paint2_linear" x1="46.1905" y1="-9.89909" x2="41.1504" y2="58.0671" gradientUnits="userSpaceOnUse">
<stop stop-color="#3E87E2" stop-opacity="0"/>
<stop offset="0.3834" stop-color="#2971D2" stop-opacity="0.3834"/>
<stop offset="1" stop-color="#0047B4"/>
</linearGradient>
<linearGradient id="paint3_linear" x1="-4.59432" y1="35.3584" x2="53.1928" y2="103.133" gradientUnits="userSpaceOnUse">
<stop stop-color="#007FD3"/>
<stop offset="0.00613207" stop-color="#017ED2"/>
<stop offset="0.2651" stop-color="#1E61B6"/>
<stop offset="0.5203" stop-color="#344DA2"/>
<stop offset="0.7681" stop-color="#414096"/>
<stop offset="1" stop-color="#453C92"/>
</linearGradient>
<linearGradient id="paint4_linear" x1="40.1091" y1="27.068" x2="40.1091" y2="67" gradientUnits="userSpaceOnUse">
<stop stop-color="#3E87E2"/>
<stop offset="1" stop-color="#0047B4"/>
</linearGradient>
<linearGradient id="paint5_linear" x1="-9.41835" y1="80.8151" x2="67.9278" y2="13.9059" gradientUnits="userSpaceOnUse">
<stop stop-color="#1FBEF2"/>
<stop offset="1" stop-color="#0047B4"/>
</linearGradient>
<linearGradient id="paint6_linear" x1="-9.25318" y1="39.3307" x2="48.534" y2="107.106" gradientUnits="userSpaceOnUse">
<stop stop-color="#007FD3"/>
<stop offset="0.1094" stop-color="#126EC2"/>
<stop offset="0.2903" stop-color="#2858AD"/>
<stop offset="0.4864" stop-color="#38489E"/>
<stop offset="0.7064" stop-color="#423F95"/>
<stop offset="1" stop-color="#453C92"/>
</linearGradient>
<linearGradient id="paint7_linear" x1="47.1225" y1="27.1922" x2="84.9366" y2="71.5419" gradientUnits="userSpaceOnUse">
<stop stop-color="#3C436E" stop-opacity="0"/>
<stop offset="0.1959" stop-color="#2F365A" stop-opacity="0.1959"/>
<stop offset="0.4889" stop-color="#202643" stop-opacity="0.4889"/>
<stop offset="0.7637" stop-color="#171C35" stop-opacity="0.7637"/>
<stop offset="1" stop-color="#141930"/>
</linearGradient>
<clipPath id="clip0">
<rect width="80" height="60" fill="white"/>
</clipPath>
</defs>
</svg>
