<svg width="86" height="64" viewBox="0 0 86 64" fill="none" xmlns="http://www.w3.org/2000/svg">
<g clip-path="url(#clip0)">
<rect width="86" height="64" fill="#0C3255"/>
<g opacity="0.15">
<path d="M86.236 8.20802L4.02693e-06 29.0838L0 71.4668L86.236 71.4668L86.236 8.20802Z" fill="url(#paint0_linear)" fill-opacity="0.32"/>
<path d="M7.64254e-06 -8.97008L86.2359 71.4668L0 71.4668L7.64254e-06 -8.97008Z" fill="url(#paint1_linear)" fill-opacity="0.43"/>
<path d="M7.64254e-06 -8.97009L86.2359 -4.00704L86.2359 71.4668L43.1163 71.4668L7.64254e-06 -8.97009Z" fill="url(#paint2_linear)" fill-opacity="0.42"/>
<path d="M4.02693e-06 29.0838L86.1778 57.39L86.236 71.4668L0 71.4668L4.02693e-06 29.0838Z" fill="url(#paint3_linear)" fill-opacity="0.45"/>
<path d="M0 71.4668L86.236 71.4668L86.236 28.8725L0 71.4668Z" fill="url(#paint4_linear)"/>
<path d="M1.35019e-06 57.2562L86.2359 43.3132L86.2359 71.4668L0 71.4668L1.35019e-06 57.2562Z" fill="url(#paint5_linear)"/>
<path d="M86.236 71.4668L4.02693e-06 29.0838L0 71.4668L86.236 71.4668Z" fill="url(#paint6_linear)" fill-opacity="0.23"/>
<path d="M32.0684 71.4668L86.2358 -4.00708L86.2358 71.4668L32.0684 71.4668Z" fill="url(#paint7_linear)" fill-opacity="0.36"/>
</g>
<path fill-rule="evenodd" clip-rule="evenodd" d="M28.4348 34H13.5652C12.7008 34 12 33.2625 12 32.3529V21.6471C12 20.7375 12.7008 20 13.5652 20H28.4348C29.2992 20 30 20.7375 30 21.6471V32.3529C30 33.2625 29.2992 34 28.4348 34ZM29.2174 21.6471C29.2174 21.1925 28.8668 20.8235 28.4348 20.8235H13.5652C13.1332 20.8235 12.7826 21.1925 12.7826 21.6471V32.3529C12.7826 32.8075 13.1332 33.1765 13.5652 33.1765H28.4348C28.8668 33.1765 29.2174 32.8075 29.2174 32.3529V21.6471ZM27.7829 31.4121L25.3043 28.8039L23.8882 30.2941L25.1928 31.6669C25.3419 31.8238 25.3419 32.0783 25.1928 32.2356C25.0433 32.3925 24.8015 32.3925 24.6524 32.2356L19.0435 26.3334L14.2171 31.4121C14.068 31.5689 13.8262 31.5689 13.6767 31.4121C13.5277 31.2548 13.5277 31.0003 13.6767 30.8434L18.7265 25.5296C18.739 25.5098 18.7473 25.488 18.7637 25.4703C18.8408 25.3892 18.9425 25.3521 19.0435 25.3546C19.1444 25.3521 19.2462 25.3892 19.3233 25.4703C19.3397 25.488 19.3475 25.5098 19.3604 25.5296L23.3478 29.7255L24.9874 28.0002C25.0003 27.9808 25.0081 27.9586 25.0246 27.9409C25.1017 27.8602 25.2034 27.8227 25.3043 27.8252C25.4053 27.8227 25.507 27.8602 25.5841 27.9409C25.6006 27.9586 25.6084 27.9808 25.6213 28.0002L28.3233 30.8434C28.4723 31.0003 28.4723 31.2548 28.3233 31.4121C28.1738 31.5689 27.932 31.5689 27.7829 31.4121ZM22.9565 24.9412C22.0921 24.9412 21.3913 24.2037 21.3913 23.2941C21.3913 22.3845 22.0921 21.6471 22.9565 21.6471C23.8209 21.6471 24.5217 22.3845 24.5217 23.2941C24.5217 24.2037 23.8209 24.9412 22.9565 24.9412ZM22.9565 22.4706C22.5245 22.4706 22.1739 22.8395 22.1739 23.2941C22.1739 23.7487 22.5245 24.1176 22.9565 24.1176C23.3885 24.1176 23.7391 23.7487 23.7391 23.2941C23.7391 22.8395 23.3885 22.4706 22.9565 22.4706Z" fill="#B8D7F5"/>
<rect x="14" y="38" width="14" height="1" fill="#B8D7F5"/>
<rect x="15" y="40" width="12" height="1" fill="#B8D7F5"/>
<rect x="13" y="42" width="16" height="1" fill="#B8D7F5"/>
<rect x="17" y="44" width="8" height="1" fill="#B8D7F5"/>
<path fill-rule="evenodd" clip-rule="evenodd" d="M50.4348 34H35.5652C34.7008 34 34 33.2625 34 32.3529V21.6471C34 20.7375 34.7008 20 35.5652 20H50.4348C51.2992 20 52 20.7375 52 21.6471V32.3529C52 33.2625 51.2992 34 50.4348 34ZM51.2174 21.6471C51.2174 21.1925 50.8668 20.8235 50.4348 20.8235H35.5652C35.1332 20.8235 34.7826 21.1925 34.7826 21.6471V32.3529C34.7826 32.8075 35.1332 33.1765 35.5652 33.1765H50.4348C50.8668 33.1765 51.2174 32.8075 51.2174 32.3529V21.6471ZM49.7829 31.4121L47.3043 28.8039L45.8882 30.2941L47.1928 31.6669C47.3419 31.8238 47.3419 32.0783 47.1928 32.2356C47.0433 32.3925 46.8015 32.3925 46.6524 32.2356L41.0435 26.3334L36.2171 31.4121C36.068 31.5689 35.8262 31.5689 35.6767 31.4121C35.5277 31.2548 35.5277 31.0003 35.6767 30.8434L40.7265 25.5296C40.739 25.5098 40.7473 25.488 40.7637 25.4703C40.8408 25.3892 40.9425 25.3521 41.0435 25.3546C41.1444 25.3521 41.2462 25.3892 41.3233 25.4703C41.3397 25.488 41.3475 25.5098 41.3604 25.5296L45.3478 29.7255L46.9874 28.0002C47.0003 27.9808 47.0081 27.9586 47.0246 27.9409C47.1017 27.8602 47.2034 27.8227 47.3043 27.8252C47.4053 27.8227 47.507 27.8602 47.5841 27.9409C47.6006 27.9586 47.6084 27.9808 47.6213 28.0002L50.3233 30.8434C50.4723 31.0003 50.4723 31.2548 50.3233 31.4121C50.1738 31.5689 49.932 31.5689 49.7829 31.4121ZM44.9565 24.9412C44.0921 24.9412 43.3913 24.2037 43.3913 23.2941C43.3913 22.3845 44.0921 21.6471 44.9565 21.6471C45.8209 21.6471 46.5217 22.3845 46.5217 23.2941C46.5217 24.2037 45.8209 24.9412 44.9565 24.9412ZM44.9565 22.4706C44.5245 22.4706 44.1739 22.8395 44.1739 23.2941C44.1739 23.7487 44.5245 24.1176 44.9565 24.1176C45.3885 24.1176 45.7391 23.7487 45.7391 23.2941C45.7391 22.8395 45.3885 22.4706 44.9565 22.4706Z" fill="#B8D7F5"/>
<rect x="36" y="38" width="14" height="1" fill="#B8D7F5"/>
<rect x="37" y="40" width="12" height="1" fill="#B8D7F5"/>
<rect x="35" y="42" width="16" height="1" fill="#B8D7F5"/>
<rect x="39" y="44" width="8" height="1" fill="#B8D7F5"/>
<path fill-rule="evenodd" clip-rule="evenodd" d="M72.4348 34H57.5652C56.7008 34 56 33.2625 56 32.3529V21.6471C56 20.7375 56.7008 20 57.5652 20H72.4348C73.2992 20 74 20.7375 74 21.6471V32.3529C74 33.2625 73.2992 34 72.4348 34ZM73.2174 21.6471C73.2174 21.1925 72.8668 20.8235 72.4348 20.8235H57.5652C57.1332 20.8235 56.7826 21.1925 56.7826 21.6471V32.3529C56.7826 32.8075 57.1332 33.1765 57.5652 33.1765H72.4348C72.8668 33.1765 73.2174 32.8075 73.2174 32.3529V21.6471ZM71.7829 31.4121L69.3043 28.8039L67.8882 30.2941L69.1928 31.6669C69.3419 31.8238 69.3419 32.0783 69.1928 32.2356C69.0433 32.3925 68.8015 32.3925 68.6524 32.2356L63.0435 26.3334L58.2171 31.4121C58.068 31.5689 57.8262 31.5689 57.6767 31.4121C57.5277 31.2548 57.5277 31.0003 57.6767 30.8434L62.7265 25.5296C62.739 25.5098 62.7473 25.488 62.7637 25.4703C62.8408 25.3892 62.9425 25.3521 63.0435 25.3546C63.1444 25.3521 63.2462 25.3892 63.3233 25.4703C63.3397 25.488 63.3475 25.5098 63.3604 25.5296L67.3478 29.7255L68.9874 28.0002C69.0003 27.9808 69.0081 27.9586 69.0246 27.9409C69.1017 27.8602 69.2034 27.8227 69.3043 27.8252C69.4053 27.8227 69.507 27.8602 69.5841 27.9409C69.6006 27.9586 69.6084 27.9808 69.6213 28.0002L72.3233 30.8434C72.4723 31.0003 72.4723 31.2548 72.3233 31.4121C72.1738 31.5689 71.932 31.5689 71.7829 31.4121ZM66.9565 24.9412C66.0921 24.9412 65.3913 24.2037 65.3913 23.2941C65.3913 22.3845 66.0921 21.6471 66.9565 21.6471C67.8209 21.6471 68.5217 22.3845 68.5217 23.2941C68.5217 24.2037 67.8209 24.9412 66.9565 24.9412ZM66.9565 22.4706C66.5245 22.4706 66.1739 22.8395 66.1739 23.2941C66.1739 23.7487 66.5245 24.1176 66.9565 24.1176C67.3885 24.1176 67.7391 23.7487 67.7391 23.2941C67.7391 22.8395 67.3885 22.4706 66.9565 22.4706Z" fill="#B8D7F5"/>
<rect x="58" y="38" width="14" height="1" fill="#B8D7F5"/>
<rect x="59" y="40" width="12" height="1" fill="#B8D7F5"/>
<rect x="57" y="42" width="16" height="1" fill="#B8D7F5"/>
<rect x="61" y="44" width="8" height="1" fill="#B8D7F5"/>
<path d="M79 33.7305V30.2695C79 30.0299 79.2555 29.9099 79.4049 30.0793L80.9305 31.8098C81.0232 31.9148 81.0232 32.0852 80.9305 32.1902L79.4049 33.9207C79.2555 34.0901 79 33.9701 79 33.7305Z" fill="#B8D7F5"/>
<path d="M7 30.2695L7 33.7305C7 33.9701 6.74454 34.0901 6.59514 33.9207L5.06946 32.1902C4.97685 32.0852 4.97685 31.9148 5.06946 31.8098L6.59514 30.0793C6.74454 29.9099 7 30.0299 7 30.2695Z" fill="#B8D7F5"/>
</g>
<defs>
<linearGradient id="paint0_linear" x1="12.6095" y1="22.8693" x2="74.1716" y2="95.6355" gradientUnits="userSpaceOnUse">
<stop stop-color="#1FBEF2"/>
<stop offset="1" stop-color="#0047B4"/>
</linearGradient>
<linearGradient id="paint1_linear" x1="-24.459" y1="17.6441" x2="57.415" y2="114.419" gradientUnits="userSpaceOnUse">
<stop stop-color="#007FD3" stop-opacity="0.3"/>
<stop offset="0.2738" stop-color="#0E71C5" stop-opacity="0.4917"/>
<stop offset="0.7934" stop-color="#344CA2" stop-opacity="0.8554"/>
<stop offset="1" stop-color="#453C92"/>
</linearGradient>
<linearGradient id="paint2_linear" x1="49.6548" y1="-10.5589" x2="44.3199" y2="61.9445" gradientUnits="userSpaceOnUse">
<stop stop-color="#3E87E2" stop-opacity="0"/>
<stop offset="0.3834" stop-color="#2971D2" stop-opacity="0.3834"/>
<stop offset="1" stop-color="#0047B4"/>
</linearGradient>
<linearGradient id="paint3_linear" x1="-4.9389" y1="37.7158" x2="56.6231" y2="110.482" gradientUnits="userSpaceOnUse">
<stop stop-color="#007FD3"/>
<stop offset="0.00613207" stop-color="#017ED2"/>
<stop offset="0.2651" stop-color="#1E61B6"/>
<stop offset="0.5203" stop-color="#344DA2"/>
<stop offset="0.7681" stop-color="#414096"/>
<stop offset="1" stop-color="#453C92"/>
</linearGradient>
<linearGradient id="paint4_linear" x1="43.1173" y1="28.8727" x2="43.1173" y2="71.4668" gradientUnits="userSpaceOnUse">
<stop stop-color="#3E87E2"/>
<stop offset="1" stop-color="#0047B4"/>
</linearGradient>
<linearGradient id="paint5_linear" x1="-10.1247" y1="86.2029" x2="72.4679" y2="14.197" gradientUnits="userSpaceOnUse">
<stop stop-color="#1FBEF2"/>
<stop offset="1" stop-color="#0047B4"/>
</linearGradient>
<linearGradient id="paint6_linear" x1="-9.94716" y1="41.9529" x2="51.6148" y2="114.719" gradientUnits="userSpaceOnUse">
<stop stop-color="#007FD3"/>
<stop offset="0.1094" stop-color="#126EC2"/>
<stop offset="0.2903" stop-color="#2858AD"/>
<stop offset="0.4864" stop-color="#38489E"/>
<stop offset="0.7064" stop-color="#423F95"/>
<stop offset="1" stop-color="#453C92"/>
</linearGradient>
<linearGradient id="paint7_linear" x1="50.6577" y1="29.0052" x2="90.942" y2="76.6211" gradientUnits="userSpaceOnUse">
<stop stop-color="#3C436E" stop-opacity="0"/>
<stop offset="0.1959" stop-color="#2F365A" stop-opacity="0.1959"/>
<stop offset="0.4889" stop-color="#202643" stop-opacity="0.4889"/>
<stop offset="0.7637" stop-color="#171C35" stop-opacity="0.7637"/>
<stop offset="1" stop-color="#141930"/>
</linearGradient>
<clipPath id="clip0">
<rect width="86" height="64" fill="white"/>
</clipPath>
</defs>
</svg>
