<svg width="80" height="60" viewBox="0 0 80 60" fill="none" xmlns="http://www.w3.org/2000/svg">
<g clip-path="url(#clip0)">
<rect width="80" height="60" fill="#0C3255"/>
<g opacity="0.15">
<path d="M80.2195 7.69489L4.02693e-06 27.2659L0 67L80.2195 67L80.2195 7.69489Z" fill="url(#paint0_linear)" fill-opacity="0.32"/>
<path d="M7.64254e-06 -8.40958L80.2195 67L0 67L7.64254e-06 -8.40958Z" fill="url(#paint1_linear)" fill-opacity="0.43"/>
<path d="M7.64254e-06 -8.40958L80.2195 -3.75672L80.2195 67L40.1082 67L7.64254e-06 -8.40958Z" fill="url(#paint2_linear)" fill-opacity="0.42"/>
<path d="M4.02693e-06 27.2659L80.1654 53.803L80.2195 67L0 67L4.02693e-06 27.2659Z" fill="url(#paint3_linear)" fill-opacity="0.45"/>
<path d="M0 67L80.2195 67L80.2195 27.0678L0 67Z" fill="url(#paint4_linear)"/>
<path d="M1.35019e-06 53.6775L80.2195 40.606L80.2195 67L0 67L1.35019e-06 53.6775Z" fill="url(#paint5_linear)"/>
<path d="M80.2195 67L4.02693e-06 27.2659L0 67L80.2195 67Z" fill="url(#paint6_linear)" fill-opacity="0.23"/>
<path d="M29.8301 67L80.2184 -3.75677L80.2184 67L29.8301 67Z" fill="url(#paint7_linear)" fill-opacity="0.36"/>
</g>
<g clip-path="url(#clip1)">
<path d="M35.2227 21.0953L32.5977 18.7984L29.9727 21.0953V10.2812H35.2227V21.0953Z" fill="#DBEBFA"/>
<path d="M49.6781 15.7746H47.0109C45.9656 15.7746 45.1172 14.9262 45.1172 13.8809V11.209H45.8109V13.8762C45.8109 14.5371 46.35 15.0762 47.0109 15.0762H49.6781V15.7746V15.7746Z" fill="#DBEBFA"/>
<path d="M48.1312 33.7186H34.1438C33.0984 33.7186 32.25 32.8701 32.25 31.8248V20.0217H32.9438V31.8248C32.9438 32.4857 33.4828 33.0248 34.1438 33.0248H48.1266C48.7875 33.0248 49.3266 32.4857 49.3266 31.8248V15.5686L45.4875 11.5607H35.9578V10.8623H45.7875L50.0203 15.2873V31.8248C50.025 32.8701 49.1766 33.7186 48.1312 33.7186Z" fill="#DBEBFA"/>
<path d="M47.8598 23.5049H34.3691V24.1986H47.8598V23.5049Z" fill="#DBEBFA"/>
<path d="M43.9691 25.291H34.3691V25.9848H43.9691V25.291Z" fill="#DBEBFA"/>
<path d="M40.6926 27.0723H34.3691V27.766H40.6926V27.0723Z" fill="#DBEBFA"/>
<path d="M47.3723 28.8584H34.3691V29.5521H47.3723V28.8584Z" fill="#DBEBFA"/>
<path d="M46.3129 30.6436H34.3691V31.3373H46.3129V30.6436Z" fill="#DBEBFA"/>
<path d="M39.2875 17.8707H38.2891V20.6691H37.75V17.8707H36.7656V17.4395H39.2875V17.8707Z" fill="#DBEBFA"/>
<path d="M40.9367 18.6299L41.6164 17.4346H42.2539L41.2648 19.0424L42.2961 20.6736H41.6492L40.9461 19.4596L40.243 20.6736H39.6055L40.6227 19.0424L39.6289 17.4393H40.2617L40.9367 18.6299Z" fill="#DBEBFA"/>
<path d="M45.1137 17.8707H44.1152V20.6691H43.5762V17.8707H42.5918V17.4395H45.1137V17.8707Z" fill="#DBEBFA"/>
</g>
<path d="M20.656 48.192H22.712C23.08 48.192 23.416 48.2693 23.72 48.424C24.0293 48.5787 24.2693 48.7973 24.44 49.08C24.616 49.3627 24.704 49.6827 24.704 50.04C24.704 50.3973 24.616 50.72 24.44 51.008C24.2693 51.2907 24.0293 51.5093 23.72 51.664C23.416 51.8187 23.08 51.896 22.712 51.896H21.816V54H20.656V48.192ZM22.744 50.792C23 50.792 23.2 50.72 23.344 50.576C23.488 50.4267 23.56 50.248 23.56 50.04C23.56 49.832 23.488 49.656 23.344 49.512C23.2 49.368 23 49.296 22.744 49.296H21.816V50.792H22.744ZM26.9247 54.128C26.482 54.128 26.1167 53.9973 25.8287 53.736C25.546 53.4747 25.4047 53.1333 25.4047 52.712C25.4047 52.4293 25.4794 52.1813 25.6287 51.968C25.778 51.7547 25.9807 51.592 26.2367 51.48C26.4927 51.3627 26.7754 51.304 27.0847 51.304C27.5114 51.304 27.858 51.36 28.1247 51.472V51.352C28.1247 51.1387 28.0447 50.968 27.8847 50.84C27.7247 50.7067 27.5087 50.64 27.2367 50.64C27.05 50.64 26.8687 50.6827 26.6927 50.768C26.522 50.8533 26.3727 50.976 26.2447 51.136L25.5087 50.56C25.7274 50.2773 25.9887 50.0667 26.2927 49.928C26.5967 49.784 26.9274 49.712 27.2847 49.712C27.9194 49.712 28.402 49.8613 28.7327 50.16C29.0687 50.4533 29.2367 50.8827 29.2367 51.448V54H28.1247V53.584H28.1167C27.9994 53.7387 27.8367 53.8693 27.6287 53.976C27.426 54.0773 27.1914 54.128 26.9247 54.128ZM27.1727 53.232C27.466 53.232 27.698 53.1387 27.8687 52.952C28.0394 52.7653 28.1247 52.5547 28.1247 52.32C27.874 52.2027 27.602 52.144 27.3087 52.144C26.7914 52.144 26.5327 52.3333 26.5327 52.712C26.5327 52.8667 26.586 52.992 26.6927 53.088C26.8047 53.184 26.9647 53.232 27.1727 53.232ZM32.4079 55.856C31.8799 55.856 31.4426 55.736 31.0959 55.496C30.7493 55.2613 30.5119 54.9653 30.3839 54.608L31.4399 54.184C31.5306 54.4027 31.6613 54.568 31.8319 54.68C32.0026 54.792 32.1946 54.848 32.4079 54.848C32.7279 54.848 32.9813 54.7493 33.1679 54.552C33.3546 54.36 33.4479 54.0827 33.4479 53.72V53.44C33.3199 53.616 33.1493 53.7547 32.9359 53.856C32.7226 53.952 32.4799 54 32.2079 54C31.8666 54 31.5466 53.912 31.2479 53.736C30.9493 53.56 30.7093 53.3093 30.5279 52.984C30.3519 52.6587 30.2639 52.2827 30.2639 51.856C30.2639 51.4293 30.3519 51.0533 30.5279 50.728C30.7093 50.4027 30.9493 50.152 31.2479 49.976C31.5466 49.8 31.8666 49.712 32.2079 49.712C32.4799 49.712 32.7226 49.7627 32.9359 49.864C33.1493 49.96 33.3199 50.096 33.4479 50.272V49.84H34.5359V53.68C34.5359 54.1227 34.4479 54.5067 34.2719 54.832C34.1013 55.1627 33.8533 55.416 33.5279 55.592C33.2079 55.768 32.8346 55.856 32.4079 55.856ZM32.4239 52.968C32.7066 52.968 32.9466 52.8693 33.1439 52.672C33.3466 52.4747 33.4479 52.2027 33.4479 51.856C33.4479 51.4987 33.3493 51.224 33.1519 51.032C32.9546 50.84 32.7119 50.744 32.4239 50.744C32.1359 50.744 31.8906 50.8427 31.6879 51.04C31.4906 51.232 31.3919 51.504 31.3919 51.856C31.3919 52.208 31.4906 52.4827 31.6879 52.68C31.8906 52.872 32.1359 52.968 32.4239 52.968ZM37.7912 54.128C37.3805 54.128 37.0072 54.0347 36.6712 53.848C36.3405 53.656 36.0819 53.392 35.8952 53.056C35.7085 52.72 35.6152 52.344 35.6152 51.928C35.6152 51.5333 35.7059 51.1653 35.8872 50.824C36.0739 50.4827 36.3299 50.2133 36.6552 50.016C36.9859 49.8133 37.3512 49.712 37.7512 49.712C38.1779 49.712 38.5459 49.8053 38.8552 49.992C39.1699 50.1733 39.4072 50.4267 39.5672 50.752C39.7272 51.072 39.8072 51.4267 39.8072 51.816C39.8072 51.9387 39.7965 52.0693 39.7752 52.208H36.7272C36.7752 52.4907 36.8979 52.7147 37.0952 52.88C37.2925 53.04 37.5299 53.12 37.8072 53.12C38.0419 53.12 38.2419 53.0693 38.4072 52.968C38.5725 52.8667 38.7112 52.72 38.8232 52.528L39.7432 52.984C39.3059 53.7467 38.6552 54.128 37.7912 54.128ZM38.7192 51.384C38.7085 51.2933 38.6632 51.1893 38.5832 51.072C38.5032 50.9493 38.3939 50.848 38.2552 50.768C38.1165 50.688 37.9512 50.648 37.7592 50.648C37.5192 50.648 37.3112 50.72 37.1352 50.864C36.9645 51.0027 36.8472 51.176 36.7832 51.384H38.7192ZM44.1113 49.296H42.5113V48.192H46.8713V49.296H45.2713V54H44.1113V49.296ZM48.4468 49.472C48.2495 49.472 48.0788 49.4027 47.9348 49.264C47.7961 49.12 47.7268 48.9493 47.7268 48.752C47.7268 48.5547 47.7961 48.3867 47.9348 48.248C48.0788 48.1093 48.2495 48.04 48.4468 48.04C48.6441 48.04 48.8121 48.1093 48.9508 48.248C49.0895 48.3867 49.1588 48.5547 49.1588 48.752C49.1588 48.9493 49.0895 49.12 48.9508 49.264C48.8121 49.4027 48.6441 49.472 48.4468 49.472ZM47.8788 49.84H49.0068V54H47.8788V49.84ZM52.193 54.064C51.985 54.064 51.793 54.032 51.617 53.968C51.441 53.904 51.2997 53.8187 51.193 53.712C50.9317 53.4613 50.801 53.1093 50.801 52.656V50.816H50.089V49.84H50.801V48.688H51.929V49.84H52.929V50.816H51.929V52.464C51.929 52.6613 51.9717 52.8027 52.057 52.888C52.121 52.9627 52.2383 53 52.409 53C52.505 53 52.585 52.9893 52.649 52.968C52.713 52.9413 52.817 52.8827 52.961 52.792V53.912C52.7103 54.0133 52.4543 54.064 52.193 54.064ZM54.1579 48.192L55.2859 47.952V54H54.1579V48.192ZM58.5471 54.128C58.1365 54.128 57.7631 54.0347 57.4271 53.848C57.0965 53.656 56.8378 53.392 56.6511 53.056C56.4645 52.72 56.3711 52.344 56.3711 51.928C56.3711 51.5333 56.4618 51.1653 56.6431 50.824C56.8298 50.4827 57.0858 50.2133 57.4111 50.016C57.7418 49.8133 58.1071 49.712 58.5071 49.712C58.9338 49.712 59.3018 49.8053 59.6111 49.992C59.9258 50.1733 60.1631 50.4267 60.3231 50.752C60.4831 51.072 60.5631 51.4267 60.5631 51.816C60.5631 51.9387 60.5525 52.0693 60.5311 52.208H57.4831C57.5311 52.4907 57.6538 52.7147 57.8511 52.88C58.0485 53.04 58.2858 53.12 58.5631 53.12C58.7978 53.12 58.9978 53.0693 59.1631 52.968C59.3285 52.8667 59.4671 52.72 59.5791 52.528L60.4991 52.984C60.0618 53.7467 59.4111 54.128 58.5471 54.128ZM59.4751 51.384C59.4645 51.2933 59.4191 51.1893 59.3391 51.072C59.2591 50.9493 59.1498 50.848 59.0111 50.768C58.8725 50.688 58.7071 50.648 58.5151 50.648C58.2751 50.648 58.0671 50.72 57.8911 50.864C57.7205 51.0027 57.6031 51.176 57.5391 51.384H59.4751Z" fill="#DBEBFA"/>
</g>
<defs>
<linearGradient id="paint0_linear" x1="11.7298" y1="21.4399" x2="69.517" y2="89.2146" gradientUnits="userSpaceOnUse">
<stop stop-color="#1FBEF2"/>
<stop offset="1" stop-color="#0047B4"/>
</linearGradient>
<linearGradient id="paint1_linear" x1="-22.7526" y1="16.5412" x2="54.1011" y2="106.678" gradientUnits="userSpaceOnUse">
<stop stop-color="#007FD3" stop-opacity="0.3"/>
<stop offset="0.2738" stop-color="#0E71C5" stop-opacity="0.4917"/>
<stop offset="0.7934" stop-color="#344CA2" stop-opacity="0.8554"/>
<stop offset="1" stop-color="#453C92"/>
</linearGradient>
<linearGradient id="paint2_linear" x1="46.1905" y1="-9.89909" x2="41.1504" y2="58.0671" gradientUnits="userSpaceOnUse">
<stop stop-color="#3E87E2" stop-opacity="0"/>
<stop offset="0.3834" stop-color="#2971D2" stop-opacity="0.3834"/>
<stop offset="1" stop-color="#0047B4"/>
</linearGradient>
<linearGradient id="paint3_linear" x1="-4.59432" y1="35.3584" x2="53.1928" y2="103.133" gradientUnits="userSpaceOnUse">
<stop stop-color="#007FD3"/>
<stop offset="0.00613207" stop-color="#017ED2"/>
<stop offset="0.2651" stop-color="#1E61B6"/>
<stop offset="0.5203" stop-color="#344DA2"/>
<stop offset="0.7681" stop-color="#414096"/>
<stop offset="1" stop-color="#453C92"/>
</linearGradient>
<linearGradient id="paint4_linear" x1="40.1091" y1="27.068" x2="40.1091" y2="67" gradientUnits="userSpaceOnUse">
<stop stop-color="#3E87E2"/>
<stop offset="1" stop-color="#0047B4"/>
</linearGradient>
<linearGradient id="paint5_linear" x1="-9.41835" y1="80.8151" x2="67.9278" y2="13.9059" gradientUnits="userSpaceOnUse">
<stop stop-color="#1FBEF2"/>
<stop offset="1" stop-color="#0047B4"/>
</linearGradient>
<linearGradient id="paint6_linear" x1="-9.25318" y1="39.3307" x2="48.534" y2="107.106" gradientUnits="userSpaceOnUse">
<stop stop-color="#007FD3"/>
<stop offset="0.1094" stop-color="#126EC2"/>
<stop offset="0.2903" stop-color="#2858AD"/>
<stop offset="0.4864" stop-color="#38489E"/>
<stop offset="0.7064" stop-color="#423F95"/>
<stop offset="1" stop-color="#453C92"/>
</linearGradient>
<linearGradient id="paint7_linear" x1="47.1225" y1="27.1922" x2="84.9366" y2="71.5419" gradientUnits="userSpaceOnUse">
<stop stop-color="#3C436E" stop-opacity="0"/>
<stop offset="0.1959" stop-color="#2F365A" stop-opacity="0.1959"/>
<stop offset="0.4889" stop-color="#202643" stop-opacity="0.4889"/>
<stop offset="0.7637" stop-color="#171C35" stop-opacity="0.7637"/>
<stop offset="1" stop-color="#141930"/>
</linearGradient>
<clipPath id="clip0">
<rect width="80" height="60" fill="white"/>
</clipPath>
<clipPath id="clip1">
<rect width="24" height="24" fill="white" transform="translate(28 10)"/>
</clipPath>
</defs>
</svg>
