<svg width="86" height="64" viewBox="0 0 86 64" fill="none" xmlns="http://www.w3.org/2000/svg">
<g clip-path="url(#clip0)">
<rect width="86" height="64" fill="#0C3255"/>
<g opacity="0.15">
<path d="M86.236 8.20802L4.02693e-06 29.0838L0 71.4668L86.236 71.4668L86.236 8.20802Z" fill="url(#paint0_linear)" fill-opacity="0.32"/>
<path d="M7.64254e-06 -8.97008L86.2359 71.4668L0 71.4668L7.64254e-06 -8.97008Z" fill="url(#paint1_linear)" fill-opacity="0.43"/>
<path d="M7.64254e-06 -8.97009L86.2359 -4.00704L86.2359 71.4668L43.1163 71.4668L7.64254e-06 -8.97009Z" fill="url(#paint2_linear)" fill-opacity="0.42"/>
<path d="M4.02693e-06 29.0838L86.1778 57.39L86.236 71.4668L0 71.4668L4.02693e-06 29.0838Z" fill="url(#paint3_linear)" fill-opacity="0.45"/>
<path d="M0 71.4668L86.236 71.4668L86.236 28.8725L0 71.4668Z" fill="url(#paint4_linear)"/>
<path d="M1.35019e-06 57.2562L86.2359 43.3132L86.2359 71.4668L0 71.4668L1.35019e-06 57.2562Z" fill="url(#paint5_linear)"/>
<path d="M86.236 71.4668L4.02693e-06 29.0838L0 71.4668L86.236 71.4668Z" fill="url(#paint6_linear)" fill-opacity="0.23"/>
<path d="M32.0684 71.4668L86.2358 -4.00708L86.2358 71.4668L32.0684 71.4668Z" fill="url(#paint7_linear)" fill-opacity="0.36"/>
</g>
<path fill-rule="evenodd" clip-rule="evenodd" d="M19.6087 34H6.3913C5.62296 34 5 33.3679 5 32.5882V23.4118C5 22.6321 5.62296 22 6.3913 22H19.6087C20.377 22 21 22.6321 21 23.4118V32.5882C21 33.3679 20.377 34 19.6087 34ZM20.3043 23.4118C20.3043 23.0221 19.9927 22.7059 19.6087 22.7059H6.3913C6.0073 22.7059 5.69565 23.0221 5.69565 23.4118V32.5882C5.69565 32.9779 6.0073 33.2941 6.3913 33.2941H19.6087C19.9927 33.2941 20.3043 32.9779 20.3043 32.5882V23.4118ZM19.0292 31.7818L16.8261 29.5462L15.5673 30.8235L16.727 32.0002C16.8595 32.1347 16.8595 32.3528 16.727 32.4876C16.5941 32.6221 16.3791 32.6221 16.2466 32.4876L11.2609 27.4286L6.97078 31.7818C6.83826 31.9162 6.6233 31.9162 6.49043 31.7818C6.35791 31.6469 6.35791 31.4288 6.49043 31.2944L10.9791 26.7396C10.9903 26.7227 10.9976 26.704 11.0122 26.6888C11.0807 26.6193 11.1711 26.5875 11.2609 26.5896C11.3506 26.5875 11.441 26.6193 11.5096 26.6888C11.5242 26.704 11.5311 26.7227 11.5426 26.7396L15.087 30.3361L16.5443 28.8573C16.5558 28.8407 16.5628 28.8216 16.5774 28.8065C16.6459 28.7373 16.7363 28.7052 16.8261 28.7073C16.9158 28.7052 17.0063 28.7373 17.0748 28.8065C17.0894 28.8216 17.0963 28.8407 17.1078 28.8573L19.5096 31.2944C19.6421 31.4288 19.6421 31.6469 19.5096 31.7818C19.3767 31.9162 19.1617 31.9162 19.0292 31.7818ZM14.7391 26.2353C13.9708 26.2353 13.3478 25.6032 13.3478 24.8235C13.3478 24.0439 13.9708 23.4118 14.7391 23.4118C15.5075 23.4118 16.1304 24.0439 16.1304 24.8235C16.1304 25.6032 15.5075 26.2353 14.7391 26.2353ZM14.7391 24.1176C14.3551 24.1176 14.0435 24.4339 14.0435 24.8235C14.0435 25.2132 14.3551 25.5294 14.7391 25.5294C15.1231 25.5294 15.4348 25.2132 15.4348 24.8235C15.4348 24.4339 15.1231 24.1176 14.7391 24.1176Z" fill="#B8D7F5"/>
<rect x="7" y="36" width="12" height="1" fill="#B8D7F5"/>
<rect x="6" y="38" width="14" height="1" fill="#B8D7F5"/>
<rect x="8" y="40" width="10" height="1" fill="#B8D7F5"/>
<rect x="5.5" y="42" width="15" height="1" fill="#B8D7F5"/>
<path fill-rule="evenodd" clip-rule="evenodd" d="M39.6087 34H26.3913C25.623 34 25 33.3679 25 32.5882V23.4118C25 22.6321 25.623 22 26.3913 22H39.6087C40.377 22 41 22.6321 41 23.4118V32.5882C41 33.3679 40.377 34 39.6087 34ZM40.3043 23.4118C40.3043 23.0221 39.9927 22.7059 39.6087 22.7059H26.3913C26.0073 22.7059 25.6957 23.0221 25.6957 23.4118V32.5882C25.6957 32.9779 26.0073 33.2941 26.3913 33.2941H39.6087C39.9927 33.2941 40.3043 32.9779 40.3043 32.5882V23.4118ZM39.0292 31.7818L36.8261 29.5462L35.5673 30.8235L36.727 32.0002C36.8595 32.1347 36.8595 32.3528 36.727 32.4876C36.5941 32.6221 36.3791 32.6221 36.2466 32.4876L31.2609 27.4286L26.9708 31.7818C26.8383 31.9162 26.6233 31.9162 26.4904 31.7818C26.3579 31.6469 26.3579 31.4288 26.4904 31.2944L30.9791 26.7396C30.9903 26.7227 30.9976 26.704 31.0122 26.6888C31.0807 26.6193 31.1711 26.5875 31.2609 26.5896C31.3506 26.5875 31.441 26.6193 31.5096 26.6888C31.5242 26.704 31.5311 26.7227 31.5426 26.7396L35.087 30.3361L36.5443 28.8573C36.5558 28.8407 36.5628 28.8216 36.5774 28.8065C36.6459 28.7373 36.7363 28.7052 36.8261 28.7073C36.9158 28.7052 37.0063 28.7373 37.0748 28.8065C37.0894 28.8216 37.0963 28.8407 37.1078 28.8573L39.5096 31.2944C39.6421 31.4288 39.6421 31.6469 39.5096 31.7818C39.3767 31.9162 39.1617 31.9162 39.0292 31.7818ZM34.7391 26.2353C33.9708 26.2353 33.3478 25.6032 33.3478 24.8235C33.3478 24.0439 33.9708 23.4118 34.7391 23.4118C35.5075 23.4118 36.1304 24.0439 36.1304 24.8235C36.1304 25.6032 35.5075 26.2353 34.7391 26.2353ZM34.7391 24.1176C34.3551 24.1176 34.0435 24.4339 34.0435 24.8235C34.0435 25.2132 34.3551 25.5294 34.7391 25.5294C35.1231 25.5294 35.4348 25.2132 35.4348 24.8235C35.4348 24.4339 35.1231 24.1176 34.7391 24.1176Z" fill="#B8D7F5"/>
<rect x="27" y="36" width="12" height="1" fill="#B8D7F5"/>
<rect x="26" y="38" width="14" height="1" fill="#B8D7F5"/>
<rect x="28" y="40" width="10" height="1" fill="#B8D7F5"/>
<rect x="25.5" y="42" width="15" height="1" fill="#B8D7F5"/>
<path fill-rule="evenodd" clip-rule="evenodd" d="M59.6087 34H46.3913C45.623 34 45 33.3679 45 32.5882V23.4118C45 22.6321 45.623 22 46.3913 22H59.6087C60.377 22 61 22.6321 61 23.4118V32.5882C61 33.3679 60.377 34 59.6087 34ZM60.3043 23.4118C60.3043 23.0221 59.9927 22.7059 59.6087 22.7059H46.3913C46.0073 22.7059 45.6957 23.0221 45.6957 23.4118V32.5882C45.6957 32.9779 46.0073 33.2941 46.3913 33.2941H59.6087C59.9927 33.2941 60.3043 32.9779 60.3043 32.5882V23.4118ZM59.0292 31.7818L56.8261 29.5462L55.5673 30.8235L56.727 32.0002C56.8595 32.1347 56.8595 32.3528 56.727 32.4876C56.5941 32.6221 56.3791 32.6221 56.2466 32.4876L51.2609 27.4286L46.9708 31.7818C46.8383 31.9162 46.6233 31.9162 46.4904 31.7818C46.3579 31.6469 46.3579 31.4288 46.4904 31.2944L50.9791 26.7396C50.9903 26.7227 50.9976 26.704 51.0122 26.6888C51.0807 26.6193 51.1711 26.5875 51.2609 26.5896C51.3506 26.5875 51.441 26.6193 51.5096 26.6888C51.5242 26.704 51.5311 26.7227 51.5426 26.7396L55.087 30.3361L56.5443 28.8573C56.5558 28.8407 56.5628 28.8216 56.5774 28.8065C56.6459 28.7373 56.7363 28.7052 56.8261 28.7073C56.9158 28.7052 57.0063 28.7373 57.0748 28.8065C57.0894 28.8216 57.0963 28.8407 57.1078 28.8573L59.5096 31.2944C59.6421 31.4288 59.6421 31.6469 59.5096 31.7818C59.3767 31.9162 59.1617 31.9162 59.0292 31.7818ZM54.7391 26.2353C53.9708 26.2353 53.3478 25.6032 53.3478 24.8235C53.3478 24.0439 53.9708 23.4118 54.7391 23.4118C55.5075 23.4118 56.1304 24.0439 56.1304 24.8235C56.1304 25.6032 55.5075 26.2353 54.7391 26.2353ZM54.7391 24.1176C54.3551 24.1176 54.0435 24.4339 54.0435 24.8235C54.0435 25.2132 54.3551 25.5294 54.7391 25.5294C55.1231 25.5294 55.4348 25.2132 55.4348 24.8235C55.4348 24.4339 55.1231 24.1176 54.7391 24.1176Z" fill="#B8D7F5"/>
<rect x="47" y="36" width="12" height="1" fill="#B8D7F5"/>
<rect x="46" y="38" width="14" height="1" fill="#B8D7F5"/>
<rect x="48" y="40" width="10" height="1" fill="#B8D7F5"/>
<rect x="45.5" y="42" width="15" height="1" fill="#B8D7F5"/>
<path fill-rule="evenodd" clip-rule="evenodd" d="M79.6087 34H66.3913C65.623 34 65 33.3679 65 32.5882V23.4118C65 22.6321 65.623 22 66.3913 22H79.6087C80.377 22 81 22.6321 81 23.4118V32.5882C81 33.3679 80.377 34 79.6087 34ZM80.3043 23.4118C80.3043 23.0221 79.9927 22.7059 79.6087 22.7059H66.3913C66.0073 22.7059 65.6957 23.0221 65.6957 23.4118V32.5882C65.6957 32.9779 66.0073 33.2941 66.3913 33.2941H79.6087C79.9927 33.2941 80.3043 32.9779 80.3043 32.5882V23.4118ZM79.0292 31.7818L76.8261 29.5462L75.5673 30.8235L76.727 32.0002C76.8595 32.1347 76.8595 32.3528 76.727 32.4876C76.5941 32.6221 76.3791 32.6221 76.2466 32.4876L71.2609 27.4286L66.9708 31.7818C66.8383 31.9162 66.6233 31.9162 66.4904 31.7818C66.3579 31.6469 66.3579 31.4288 66.4904 31.2944L70.9791 26.7396C70.9903 26.7227 70.9976 26.704 71.0122 26.6888C71.0807 26.6193 71.1711 26.5875 71.2609 26.5896C71.3506 26.5875 71.441 26.6193 71.5096 26.6888C71.5242 26.704 71.5311 26.7227 71.5426 26.7396L75.087 30.3361L76.5443 28.8573C76.5558 28.8407 76.5628 28.8216 76.5774 28.8065C76.6459 28.7373 76.7363 28.7052 76.8261 28.7073C76.9158 28.7052 77.0063 28.7373 77.0748 28.8065C77.0894 28.8216 77.0963 28.8407 77.1078 28.8573L79.5096 31.2944C79.6421 31.4288 79.6421 31.6469 79.5096 31.7818C79.3767 31.9162 79.1617 31.9162 79.0292 31.7818ZM74.7391 26.2353C73.9708 26.2353 73.3478 25.6032 73.3478 24.8235C73.3478 24.0439 73.9708 23.4118 74.7391 23.4118C75.5075 23.4118 76.1304 24.0439 76.1304 24.8235C76.1304 25.6032 75.5075 26.2353 74.7391 26.2353ZM74.7391 24.1176C74.3551 24.1176 74.0435 24.4339 74.0435 24.8235C74.0435 25.2132 74.3551 25.5294 74.7391 25.5294C75.1231 25.5294 75.4348 25.2132 75.4348 24.8235C75.4348 24.4339 75.1231 24.1176 74.7391 24.1176Z" fill="#B8D7F5"/>
<rect x="67" y="36" width="12" height="1" fill="#B8D7F5"/>
<rect x="66" y="38" width="14" height="1" fill="#B8D7F5"/>
<rect x="68" y="40" width="10" height="1" fill="#B8D7F5"/>
<rect x="65.5" y="42" width="15" height="1" fill="#B8D7F5"/>
</g>
<defs>
<linearGradient id="paint0_linear" x1="12.6095" y1="22.8693" x2="74.1716" y2="95.6355" gradientUnits="userSpaceOnUse">
<stop stop-color="#1FBEF2"/>
<stop offset="1" stop-color="#0047B4"/>
</linearGradient>
<linearGradient id="paint1_linear" x1="-24.459" y1="17.6441" x2="57.415" y2="114.419" gradientUnits="userSpaceOnUse">
<stop stop-color="#007FD3" stop-opacity="0.3"/>
<stop offset="0.2738" stop-color="#0E71C5" stop-opacity="0.4917"/>
<stop offset="0.7934" stop-color="#344CA2" stop-opacity="0.8554"/>
<stop offset="1" stop-color="#453C92"/>
</linearGradient>
<linearGradient id="paint2_linear" x1="49.6548" y1="-10.5589" x2="44.3199" y2="61.9445" gradientUnits="userSpaceOnUse">
<stop stop-color="#3E87E2" stop-opacity="0"/>
<stop offset="0.3834" stop-color="#2971D2" stop-opacity="0.3834"/>
<stop offset="1" stop-color="#0047B4"/>
</linearGradient>
<linearGradient id="paint3_linear" x1="-4.9389" y1="37.7158" x2="56.6231" y2="110.482" gradientUnits="userSpaceOnUse">
<stop stop-color="#007FD3"/>
<stop offset="0.00613207" stop-color="#017ED2"/>
<stop offset="0.2651" stop-color="#1E61B6"/>
<stop offset="0.5203" stop-color="#344DA2"/>
<stop offset="0.7681" stop-color="#414096"/>
<stop offset="1" stop-color="#453C92"/>
</linearGradient>
<linearGradient id="paint4_linear" x1="43.1173" y1="28.8727" x2="43.1173" y2="71.4668" gradientUnits="userSpaceOnUse">
<stop stop-color="#3E87E2"/>
<stop offset="1" stop-color="#0047B4"/>
</linearGradient>
<linearGradient id="paint5_linear" x1="-10.1247" y1="86.2029" x2="72.4679" y2="14.197" gradientUnits="userSpaceOnUse">
<stop stop-color="#1FBEF2"/>
<stop offset="1" stop-color="#0047B4"/>
</linearGradient>
<linearGradient id="paint6_linear" x1="-9.94716" y1="41.9529" x2="51.6148" y2="114.719" gradientUnits="userSpaceOnUse">
<stop stop-color="#007FD3"/>
<stop offset="0.1094" stop-color="#126EC2"/>
<stop offset="0.2903" stop-color="#2858AD"/>
<stop offset="0.4864" stop-color="#38489E"/>
<stop offset="0.7064" stop-color="#423F95"/>
<stop offset="1" stop-color="#453C92"/>
</linearGradient>
<linearGradient id="paint7_linear" x1="50.6577" y1="29.0052" x2="90.942" y2="76.6211" gradientUnits="userSpaceOnUse">
<stop stop-color="#3C436E" stop-opacity="0"/>
<stop offset="0.1959" stop-color="#2F365A" stop-opacity="0.1959"/>
<stop offset="0.4889" stop-color="#202643" stop-opacity="0.4889"/>
<stop offset="0.7637" stop-color="#171C35" stop-opacity="0.7637"/>
<stop offset="1" stop-color="#141930"/>
</linearGradient>
<clipPath id="clip0">
<rect width="86" height="64" fill="white"/>
</clipPath>
</defs>
</svg>
