<svg width="80" height="60" viewBox="0 0 80 60" fill="none" xmlns="http://www.w3.org/2000/svg">
<g clip-path="url(#clip0)">
<rect width="80" height="60" fill="#0C3255"/>
<g opacity="0.15">
<path d="M80.2195 7.69489L4.02693e-06 27.2659L0 67L80.2195 67L80.2195 7.69489Z" fill="url(#paint0_linear)" fill-opacity="0.32"/>
<path d="M7.64254e-06 -8.40958L80.2195 67L0 67L7.64254e-06 -8.40958Z" fill="url(#paint1_linear)" fill-opacity="0.43"/>
<path d="M7.64254e-06 -8.40958L80.2195 -3.75672L80.2195 67L40.1082 67L7.64254e-06 -8.40958Z" fill="url(#paint2_linear)" fill-opacity="0.42"/>
<path d="M4.02693e-06 27.2659L80.1654 53.803L80.2195 67L0 67L4.02693e-06 27.2659Z" fill="url(#paint3_linear)" fill-opacity="0.45"/>
<path d="M0 67L80.2195 67L80.2195 27.0678L0 67Z" fill="url(#paint4_linear)"/>
<path d="M1.35019e-06 53.6775L80.2195 40.606L80.2195 67L0 67L1.35019e-06 53.6775Z" fill="url(#paint5_linear)"/>
<path d="M80.2195 67L4.02693e-06 27.2659L0 67L80.2195 67Z" fill="url(#paint6_linear)" fill-opacity="0.23"/>
<path d="M29.8301 67L80.2184 -3.75677L80.2184 67L29.8301 67Z" fill="url(#paint7_linear)" fill-opacity="0.36"/>
</g>
<path d="M16.656 48.192H17.816V50.48H20.144V48.192H21.304V54H20.144V51.584H17.816V54H16.656V48.192ZM24.7068 54.128C24.2801 54.128 23.8961 54.032 23.5548 53.84C23.2188 53.648 22.9575 53.384 22.7708 53.048C22.5841 52.712 22.4908 52.336 22.4908 51.92C22.4908 51.5093 22.5841 51.136 22.7708 50.8C22.9575 50.4587 23.2188 50.192 23.5548 50C23.8961 49.808 24.2801 49.712 24.7068 49.712C25.1281 49.712 25.5068 49.808 25.8428 50C26.1841 50.192 26.4481 50.4587 26.6348 50.8C26.8215 51.136 26.9148 51.5093 26.9148 51.92C26.9148 52.336 26.8215 52.712 26.6348 53.048C26.4481 53.384 26.1841 53.648 25.8428 53.84C25.5068 54.032 25.1281 54.128 24.7068 54.128ZM24.7068 53.08C24.9041 53.08 25.0828 53.0347 25.2428 52.944C25.4081 52.848 25.5388 52.7147 25.6348 52.544C25.7361 52.368 25.7868 52.16 25.7868 51.92C25.7868 51.6853 25.7361 51.4827 25.6348 51.312C25.5388 51.136 25.4081 51.0027 25.2428 50.912C25.0828 50.816 24.9041 50.768 24.7068 50.768C24.5095 50.768 24.3281 50.816 24.1628 50.912C24.0028 51.0027 23.8721 51.136 23.7708 51.312C23.6695 51.4827 23.6188 51.6853 23.6188 51.92C23.6188 52.1547 23.6695 52.36 23.7708 52.536C23.8721 52.712 24.0028 52.848 24.1628 52.944C24.3281 53.0347 24.5095 53.08 24.7068 53.08ZM27.9567 49.84H29.0207V50.352C29.1487 50.16 29.322 50.0053 29.5407 49.888C29.7647 49.7707 30.0127 49.712 30.2847 49.712C30.578 49.712 30.834 49.784 31.0527 49.928C31.2767 50.0667 31.426 50.2187 31.5007 50.384C31.6074 50.208 31.7807 50.0533 32.0207 49.92C32.2607 49.7813 32.5407 49.712 32.8607 49.712C33.3354 49.712 33.698 49.8587 33.9487 50.152C34.1994 50.4453 34.3247 50.84 34.3247 51.336V54H33.2047V51.528C33.2047 51.2827 33.1487 51.096 33.0367 50.968C32.9247 50.8347 32.7674 50.768 32.5647 50.768C32.3034 50.768 32.0954 50.872 31.9407 51.08C31.786 51.288 31.7087 51.5627 31.7087 51.904V54H30.5807V51.528C30.5807 51.2827 30.522 51.096 30.4047 50.968C30.2874 50.8347 30.1194 50.768 29.9007 50.768C29.6607 50.768 29.4634 50.872 29.3087 51.08C29.1594 51.288 29.0847 51.5627 29.0847 51.904V54H27.9567V49.84ZM37.5959 54.128C37.1852 54.128 36.8119 54.0347 36.4759 53.848C36.1452 53.656 35.8865 53.392 35.6999 53.056C35.5132 52.72 35.4199 52.344 35.4199 51.928C35.4199 51.5333 35.5105 51.1653 35.6919 50.824C35.8785 50.4827 36.1345 50.2133 36.4599 50.016C36.7905 49.8133 37.1559 49.712 37.5559 49.712C37.9825 49.712 38.3505 49.8053 38.6599 49.992C38.9745 50.1733 39.2119 50.4267 39.3719 50.752C39.5319 51.072 39.6119 51.4267 39.6119 51.816C39.6119 51.9387 39.6012 52.0693 39.5799 52.208H36.5319C36.5799 52.4907 36.7025 52.7147 36.8999 52.88C37.0972 53.04 37.3345 53.12 37.6119 53.12C37.8465 53.12 38.0465 53.0693 38.2119 52.968C38.3772 52.8667 38.5159 52.72 38.6279 52.528L39.5479 52.984C39.1105 53.7467 38.4599 54.128 37.5959 54.128ZM38.5239 51.384C38.5132 51.2933 38.4679 51.1893 38.3879 51.072C38.3079 50.9493 38.1985 50.848 38.0599 50.768C37.9212 50.688 37.7559 50.648 37.5639 50.648C37.3239 50.648 37.1159 50.72 36.9399 50.864C36.7692 51.0027 36.6519 51.176 36.5879 51.384H38.5239ZM43.0763 48.192H44.3963L46.7003 52.032L46.6363 50.968V48.192H47.7883V54H46.5883L44.1563 49.944L44.2203 51.008V54H43.0763V48.192ZM51.1496 54.128C50.739 54.128 50.3656 54.0347 50.0296 53.848C49.699 53.656 49.4403 53.392 49.2536 53.056C49.067 52.72 48.9736 52.344 48.9736 51.928C48.9736 51.5333 49.0643 51.1653 49.2456 50.824C49.4323 50.4827 49.6883 50.2133 50.0136 50.016C50.3443 49.8133 50.7096 49.712 51.1096 49.712C51.5363 49.712 51.9043 49.8053 52.2136 49.992C52.5283 50.1733 52.7656 50.4267 52.9256 50.752C53.0856 51.072 53.1656 51.4267 53.1656 51.816C53.1656 51.9387 53.155 52.0693 53.1336 52.208H50.0856C50.1336 52.4907 50.2563 52.7147 50.4536 52.88C50.651 53.04 50.8883 53.12 51.1656 53.12C51.4003 53.12 51.6003 53.0693 51.7656 52.968C51.931 52.8667 52.0696 52.72 52.1816 52.528L53.1016 52.984C52.6643 53.7467 52.0136 54.128 51.1496 54.128ZM52.0776 51.384C52.067 51.2933 52.0216 51.1893 51.9416 51.072C51.8616 50.9493 51.7523 50.848 51.6136 50.768C51.475 50.688 51.3096 50.648 51.1176 50.648C50.8776 50.648 50.6696 50.72 50.4936 50.864C50.323 51.0027 50.2056 51.176 50.1416 51.384H52.0776ZM53.7569 49.84H55.0209L55.7249 52.488H55.7169L56.5329 49.84H57.6689L58.4849 52.488H58.4769L59.1809 49.84H60.4289L59.1009 54H57.9089L57.0769 51.36H57.0849L56.2609 54H55.0769L53.7569 49.84ZM62.9064 54.128C62.3997 54.128 61.989 54.024 61.6744 53.816C61.365 53.608 61.1437 53.3253 61.0104 52.968L62.0184 52.528C62.109 52.7413 62.229 52.896 62.3784 52.992C62.5277 53.0827 62.7037 53.128 62.9064 53.128C63.093 53.128 63.245 53.1013 63.3624 53.048C63.4797 52.9893 63.5384 52.8987 63.5384 52.776C63.5384 52.6587 63.4824 52.5707 63.3704 52.512C63.2637 52.448 63.0957 52.3893 62.8664 52.336L62.3864 52.232C62.0504 52.152 61.7677 52.0027 61.5384 51.784C61.3144 51.5653 61.2024 51.2933 61.2024 50.968C61.2024 50.7227 61.2744 50.504 61.4184 50.312C61.5677 50.12 61.765 49.9733 62.0104 49.872C62.261 49.7653 62.5357 49.712 62.8344 49.712C63.693 49.712 64.2744 50.0293 64.5784 50.664L63.6104 51.08C63.445 50.7867 63.1944 50.64 62.8584 50.64C62.6824 50.64 62.5464 50.672 62.4504 50.736C62.3544 50.7947 62.3064 50.8667 62.3064 50.952C62.3064 51.1227 62.477 51.2533 62.8184 51.344L63.4184 51.488C63.8344 51.5893 64.1464 51.7493 64.3544 51.968C64.5677 52.1813 64.6744 52.4453 64.6744 52.76C64.6744 53.032 64.5944 53.272 64.4344 53.48C64.2797 53.6827 64.0664 53.8427 63.7944 53.96C63.5277 54.072 63.2317 54.128 62.9064 54.128Z" fill="#DBEBFA"/>
<path fill-rule="evenodd" clip-rule="evenodd" d="M53.2174 34H26.7826C25.2459 34 24 32.7358 24 31.1765V12.8235C24 11.2642 25.2459 10 26.7826 10H53.2174C54.7541 10 56 11.2642 56 12.8235V31.1765C56 32.7358 54.7541 34 53.2174 34ZM54.6087 12.8235C54.6087 12.0442 53.9854 11.4118 53.2174 11.4118H26.7826C26.0146 11.4118 25.3913 12.0442 25.3913 12.8235V31.1765C25.3913 31.9558 26.0146 32.5882 26.7826 32.5882H53.2174C53.9854 32.5882 54.6087 31.9558 54.6087 31.1765V12.8235ZM52.0584 29.5635L47.6522 25.0925L45.1346 27.6471L47.4539 30.0005C47.719 30.2694 47.719 30.7056 47.4539 30.9753C47.1882 31.2442 46.7583 31.2442 46.4932 30.9753L36.5217 20.8572L27.9416 29.5635C27.6765 29.8325 27.2466 29.8325 26.9809 29.5635C26.7158 29.2939 26.7158 28.8576 26.9809 28.5887L35.9583 19.4793C35.9805 19.4454 35.9951 19.408 36.0243 19.3776C36.1614 19.2386 36.3423 19.1751 36.5217 19.1793C36.7012 19.1751 36.8821 19.2386 37.0191 19.3776C37.0483 19.408 37.0623 19.4454 37.0852 19.4793L44.1739 26.6722L47.0887 23.7146C47.1117 23.6814 47.1256 23.6433 47.1548 23.6129C47.2918 23.4746 47.4727 23.4104 47.6522 23.4146C47.8317 23.4104 48.0125 23.4746 48.1496 23.6129C48.1788 23.6433 48.1927 23.6814 48.2157 23.7146L53.0191 28.5887C53.2842 28.8576 53.2842 29.2939 53.0191 29.5635C52.7534 29.8325 52.3235 29.8325 52.0584 29.5635ZM43.4783 18.4706C41.9416 18.4706 40.6957 17.2064 40.6957 15.6471C40.6957 14.0878 41.9416 12.8235 43.4783 12.8235C45.015 12.8235 46.2609 14.0878 46.2609 15.6471C46.2609 17.2064 45.015 18.4706 43.4783 18.4706ZM43.4783 14.2353C42.7103 14.2353 42.087 14.8678 42.087 15.6471C42.087 16.4264 42.7103 17.0588 43.4783 17.0588C44.2463 17.0588 44.8696 16.4264 44.8696 15.6471C44.8696 14.8678 44.2463 14.2353 43.4783 14.2353Z" fill="#DBEBFA"/>
</g>
<defs>
<linearGradient id="paint0_linear" x1="11.7298" y1="21.4399" x2="69.517" y2="89.2146" gradientUnits="userSpaceOnUse">
<stop stop-color="#1FBEF2"/>
<stop offset="1" stop-color="#0047B4"/>
</linearGradient>
<linearGradient id="paint1_linear" x1="-22.7526" y1="16.5412" x2="54.1011" y2="106.678" gradientUnits="userSpaceOnUse">
<stop stop-color="#007FD3" stop-opacity="0.3"/>
<stop offset="0.2738" stop-color="#0E71C5" stop-opacity="0.4917"/>
<stop offset="0.7934" stop-color="#344CA2" stop-opacity="0.8554"/>
<stop offset="1" stop-color="#453C92"/>
</linearGradient>
<linearGradient id="paint2_linear" x1="46.1905" y1="-9.89909" x2="41.1504" y2="58.0671" gradientUnits="userSpaceOnUse">
<stop stop-color="#3E87E2" stop-opacity="0"/>
<stop offset="0.3834" stop-color="#2971D2" stop-opacity="0.3834"/>
<stop offset="1" stop-color="#0047B4"/>
</linearGradient>
<linearGradient id="paint3_linear" x1="-4.59432" y1="35.3584" x2="53.1928" y2="103.133" gradientUnits="userSpaceOnUse">
<stop stop-color="#007FD3"/>
<stop offset="0.00613207" stop-color="#017ED2"/>
<stop offset="0.2651" stop-color="#1E61B6"/>
<stop offset="0.5203" stop-color="#344DA2"/>
<stop offset="0.7681" stop-color="#414096"/>
<stop offset="1" stop-color="#453C92"/>
</linearGradient>
<linearGradient id="paint4_linear" x1="40.1091" y1="27.068" x2="40.1091" y2="67" gradientUnits="userSpaceOnUse">
<stop stop-color="#3E87E2"/>
<stop offset="1" stop-color="#0047B4"/>
</linearGradient>
<linearGradient id="paint5_linear" x1="-9.41835" y1="80.8151" x2="67.9278" y2="13.9059" gradientUnits="userSpaceOnUse">
<stop stop-color="#1FBEF2"/>
<stop offset="1" stop-color="#0047B4"/>
</linearGradient>
<linearGradient id="paint6_linear" x1="-9.25318" y1="39.3307" x2="48.534" y2="107.106" gradientUnits="userSpaceOnUse">
<stop stop-color="#007FD3"/>
<stop offset="0.1094" stop-color="#126EC2"/>
<stop offset="0.2903" stop-color="#2858AD"/>
<stop offset="0.4864" stop-color="#38489E"/>
<stop offset="0.7064" stop-color="#423F95"/>
<stop offset="1" stop-color="#453C92"/>
</linearGradient>
<linearGradient id="paint7_linear" x1="47.1225" y1="27.1922" x2="84.9366" y2="71.5419" gradientUnits="userSpaceOnUse">
<stop stop-color="#3C436E" stop-opacity="0"/>
<stop offset="0.1959" stop-color="#2F365A" stop-opacity="0.1959"/>
<stop offset="0.4889" stop-color="#202643" stop-opacity="0.4889"/>
<stop offset="0.7637" stop-color="#171C35" stop-opacity="0.7637"/>
<stop offset="1" stop-color="#141930"/>
</linearGradient>
<clipPath id="clip0">
<rect width="80" height="60" fill="white"/>
</clipPath>
</defs>
</svg>
