<svg width="86" height="64" viewBox="0 0 86 64" fill="none" xmlns="http://www.w3.org/2000/svg">
<g clip-path="url(#clip0)">
<rect width="86" height="64" fill="#0C3255"/>
<g opacity="0.15">
<path d="M86.236 8.20802L4.02693e-06 29.0838L0 71.4668L86.236 71.4668L86.236 8.20802Z" fill="url(#paint0_linear)" fill-opacity="0.32"/>
<path d="M7.64254e-06 -8.97008L86.2359 71.4668L0 71.4668L7.64254e-06 -8.97008Z" fill="url(#paint1_linear)" fill-opacity="0.43"/>
<path d="M7.64254e-06 -8.97009L86.2359 -4.00704L86.2359 71.4668L43.1163 71.4668L7.64254e-06 -8.97009Z" fill="url(#paint2_linear)" fill-opacity="0.42"/>
<path d="M4.02693e-06 29.0838L86.1778 57.39L86.236 71.4668L0 71.4668L4.02693e-06 29.0838Z" fill="url(#paint3_linear)" fill-opacity="0.45"/>
<path d="M0 71.4668L86.236 71.4668L86.236 28.8725L0 71.4668Z" fill="url(#paint4_linear)"/>
<path d="M1.35019e-06 57.2562L86.2359 43.3132L86.2359 71.4668L0 71.4668L1.35019e-06 57.2562Z" fill="url(#paint5_linear)"/>
<path d="M86.236 71.4668L4.02693e-06 29.0838L0 71.4668L86.236 71.4668Z" fill="url(#paint6_linear)" fill-opacity="0.23"/>
<path d="M32.0684 71.4668L86.2358 -4.00708L86.2358 71.4668L32.0684 71.4668Z" fill="url(#paint7_linear)" fill-opacity="0.36"/>
</g>
<path d="M49.8124 24.376H32.8887V25.7993H49.8124V24.376Z" fill="#B8D7F5"/>
<path d="M49.8124 26.6865H32.8887V28.1099H49.8124V26.6865Z" fill="#B8D7F5"/>
<path d="M49.8124 29.0029H32.8887V30.4263H49.8124V29.0029Z" fill="#B8D7F5"/>
<path d="M49.8124 31.3135H32.8887V32.7368H49.8124V31.3135Z" fill="#B8D7F5"/>
<path d="M46.0416 33.624H32.8887V35.0474H46.0416V33.624Z" fill="#B8D7F5"/>
<path d="M57.913 18.1531L53.5536 13.1006C53.4194 12.9665 53.1884 12.9665 53.0543 13.1006L48.6948 18.1531C48.501 18.3469 48.6501 18.6524 48.9407 18.6524H50.9826V22.617H55.6103V18.6524H57.6522C57.9578 18.6524 58.1068 18.3469 57.913 18.1531Z" fill="#B8D7F5"/>
<path d="M55.618 23.332H50.9902V25.1354H55.618V23.332Z" fill="#B8D7F5"/>
<path d="M50.9902 26.5148C50.9902 26.6787 51.1393 26.8129 51.3256 26.8129H55.2827C55.469 26.8129 55.618 26.6787 55.618 26.5148V25.8516H50.9902V26.5148Z" fill="#B8D7F5"/>
<path d="M52.741 47.1489C52.741 48.3263 51.7871 49.2802 50.6097 49.2802H32.0837C30.9063 49.2802 29.9524 48.3263 29.9524 47.1489V46.4931H28.9688V47.5066C28.9688 49.0343 30.2058 50.2639 31.726 50.2639H50.9599C52.4876 50.2639 53.7172 49.0268 53.7172 47.5066V27.4902H52.7335V47.1489H52.741Z" fill="#B8D7F5"/>
<path d="M29.9528 20.7755C29.9528 19.5981 30.9067 18.6442 32.0841 18.6442H47.972C47.8677 18.3163 47.9496 17.9511 48.1956 17.6978L48.2254 17.668H31.7338C30.2062 17.668 28.9766 18.905 28.9766 20.4253V37.3714H29.9602V20.7755H29.9528Z" fill="#B8D7F5"/>
<path d="M49.6633 41.9402C49.6633 39.8014 47.927 38.0576 45.7807 38.0576H28V45.8153H45.7882C47.927 45.8153 49.6633 44.0789 49.6633 41.9402ZM36.3538 40.1666H34.8559V44.3621H34.0511V40.1666H32.5756V39.5182H36.3538V40.1666ZM39.8936 44.3621L38.8428 42.5438L37.7921 44.3621H36.8308L38.351 41.9178L36.8606 39.5182H37.8144L38.8279 41.3067L39.8489 39.5182H40.8102L39.3198 41.9178L40.8698 44.3621H39.8936ZM45.0877 40.1666H43.5898V44.3621H42.785V40.1666H41.3095V39.5182H45.0877V40.1666Z" fill="#B8D7F5"/>
</g>
<defs>
<linearGradient id="paint0_linear" x1="12.6095" y1="22.8693" x2="74.1716" y2="95.6355" gradientUnits="userSpaceOnUse">
<stop stop-color="#1FBEF2"/>
<stop offset="1" stop-color="#0047B4"/>
</linearGradient>
<linearGradient id="paint1_linear" x1="-24.459" y1="17.6441" x2="57.415" y2="114.419" gradientUnits="userSpaceOnUse">
<stop stop-color="#007FD3" stop-opacity="0.3"/>
<stop offset="0.2738" stop-color="#0E71C5" stop-opacity="0.4917"/>
<stop offset="0.7934" stop-color="#344CA2" stop-opacity="0.8554"/>
<stop offset="1" stop-color="#453C92"/>
</linearGradient>
<linearGradient id="paint2_linear" x1="49.6548" y1="-10.5589" x2="44.3199" y2="61.9445" gradientUnits="userSpaceOnUse">
<stop stop-color="#3E87E2" stop-opacity="0"/>
<stop offset="0.3834" stop-color="#2971D2" stop-opacity="0.3834"/>
<stop offset="1" stop-color="#0047B4"/>
</linearGradient>
<linearGradient id="paint3_linear" x1="-4.9389" y1="37.7158" x2="56.6231" y2="110.482" gradientUnits="userSpaceOnUse">
<stop stop-color="#007FD3"/>
<stop offset="0.00613207" stop-color="#017ED2"/>
<stop offset="0.2651" stop-color="#1E61B6"/>
<stop offset="0.5203" stop-color="#344DA2"/>
<stop offset="0.7681" stop-color="#414096"/>
<stop offset="1" stop-color="#453C92"/>
</linearGradient>
<linearGradient id="paint4_linear" x1="43.1173" y1="28.8727" x2="43.1173" y2="71.4668" gradientUnits="userSpaceOnUse">
<stop stop-color="#3E87E2"/>
<stop offset="1" stop-color="#0047B4"/>
</linearGradient>
<linearGradient id="paint5_linear" x1="-10.1247" y1="86.2029" x2="72.4679" y2="14.197" gradientUnits="userSpaceOnUse">
<stop stop-color="#1FBEF2"/>
<stop offset="1" stop-color="#0047B4"/>
</linearGradient>
<linearGradient id="paint6_linear" x1="-9.94716" y1="41.9529" x2="51.6148" y2="114.719" gradientUnits="userSpaceOnUse">
<stop stop-color="#007FD3"/>
<stop offset="0.1094" stop-color="#126EC2"/>
<stop offset="0.2903" stop-color="#2858AD"/>
<stop offset="0.4864" stop-color="#38489E"/>
<stop offset="0.7064" stop-color="#423F95"/>
<stop offset="1" stop-color="#453C92"/>
</linearGradient>
<linearGradient id="paint7_linear" x1="50.6577" y1="29.0052" x2="90.942" y2="76.6211" gradientUnits="userSpaceOnUse">
<stop stop-color="#3C436E" stop-opacity="0"/>
<stop offset="0.1959" stop-color="#2F365A" stop-opacity="0.1959"/>
<stop offset="0.4889" stop-color="#202643" stop-opacity="0.4889"/>
<stop offset="0.7637" stop-color="#171C35" stop-opacity="0.7637"/>
<stop offset="1" stop-color="#141930"/>
</linearGradient>
<clipPath id="clip0">
<rect width="86" height="64" fill="white"/>
</clipPath>
</defs>
</svg>
