<svg width="80" height="60" viewBox="0 0 80 60" fill="none" xmlns="http://www.w3.org/2000/svg">
<g clip-path="url(#clip0)">
<rect width="80" height="60" fill="#0C3255"/>
<g opacity="0.15">
<path d="M80.2195 7.69489L4.02693e-06 27.2659L0 67L80.2195 67L80.2195 7.69489Z" fill="url(#paint0_linear)" fill-opacity="0.32"/>
<path d="M7.64254e-06 -8.40958L80.2195 67L0 67L7.64254e-06 -8.40958Z" fill="url(#paint1_linear)" fill-opacity="0.43"/>
<path d="M7.64254e-06 -8.40958L80.2195 -3.75672L80.2195 67L40.1082 67L7.64254e-06 -8.40958Z" fill="url(#paint2_linear)" fill-opacity="0.42"/>
<path d="M4.02693e-06 27.2659L80.1654 53.803L80.2195 67L0 67L4.02693e-06 27.2659Z" fill="url(#paint3_linear)" fill-opacity="0.45"/>
<path d="M0 67L80.2195 67L80.2195 27.0678L0 67Z" fill="url(#paint4_linear)"/>
<path d="M1.35019e-06 53.6775L80.2195 40.606L80.2195 67L0 67L1.35019e-06 53.6775Z" fill="url(#paint5_linear)"/>
<path d="M80.2195 67L4.02693e-06 27.2659L0 67L80.2195 67Z" fill="url(#paint6_linear)" fill-opacity="0.23"/>
<path d="M29.8301 67L80.2184 -3.75677L80.2184 67L29.8301 67Z" fill="url(#paint7_linear)" fill-opacity="0.36"/>
</g>
<path fill-rule="evenodd" clip-rule="evenodd" d="M53.2174 34H26.7826C25.2459 34 24 32.7358 24 31.1765V12.8235C24 11.2642 25.2459 10 26.7826 10H53.2174C54.7541 10 56 11.2642 56 12.8235V31.1765C56 32.7358 54.7541 34 53.2174 34ZM54.6087 12.8235C54.6087 12.0442 53.9854 11.4118 53.2174 11.4118H26.7826C26.0146 11.4118 25.3913 12.0442 25.3913 12.8235V31.1765C25.3913 31.9558 26.0146 32.5882 26.7826 32.5882H53.2174C53.9854 32.5882 54.6087 31.9558 54.6087 31.1765V12.8235ZM52.0584 29.5635L47.6522 25.0925L45.1346 27.6471L47.4539 30.0005C47.719 30.2694 47.719 30.7056 47.4539 30.9753C47.1882 31.2442 46.7583 31.2442 46.4932 30.9753L36.5217 20.8572L27.9416 29.5635C27.6765 29.8325 27.2466 29.8325 26.9809 29.5635C26.7158 29.2939 26.7158 28.8576 26.9809 28.5887L35.9583 19.4793C35.9805 19.4454 35.9951 19.408 36.0243 19.3776C36.1614 19.2386 36.3423 19.1751 36.5217 19.1793C36.7012 19.1751 36.8821 19.2386 37.0191 19.3776C37.0483 19.408 37.0623 19.4454 37.0852 19.4793L44.1739 26.6722L47.0887 23.7146C47.1117 23.6814 47.1256 23.6433 47.1548 23.6129C47.2918 23.4746 47.4727 23.4104 47.6522 23.4146C47.8317 23.4104 48.0125 23.4746 48.1496 23.6129C48.1788 23.6433 48.1927 23.6814 48.2157 23.7146L53.0191 28.5887C53.2842 28.8576 53.2842 29.2939 53.0191 29.5635C52.7534 29.8325 52.3235 29.8325 52.0584 29.5635ZM43.4783 18.4706C41.9416 18.4706 40.6957 17.2064 40.6957 15.6471C40.6957 14.0878 41.9416 12.8235 43.4783 12.8235C45.015 12.8235 46.2609 14.0878 46.2609 15.6471C46.2609 17.2064 45.015 18.4706 43.4783 18.4706ZM43.4783 14.2353C42.7103 14.2353 42.087 14.8678 42.087 15.6471C42.087 16.4264 42.7103 17.0588 43.4783 17.0588C44.2463 17.0588 44.8696 16.4264 44.8696 15.6471C44.8696 14.8678 44.2463 14.2353 43.4783 14.2353Z" fill="#DBEBFA"/>
<path d="M15.656 48.192H16.816V50.48H19.144V48.192H20.304V54H19.144V51.584H16.816V54H15.656V48.192ZM23.6668 54.128C23.2561 54.128 22.8828 54.0347 22.5468 53.848C22.2161 53.656 21.9575 53.392 21.7708 53.056C21.5841 52.72 21.4908 52.344 21.4908 51.928C21.4908 51.5333 21.5815 51.1653 21.7628 50.824C21.9495 50.4827 22.2055 50.2133 22.5308 50.016C22.8615 49.8133 23.2268 49.712 23.6268 49.712C24.0535 49.712 24.4215 49.8053 24.7308 49.992C25.0455 50.1733 25.2828 50.4267 25.4428 50.752C25.6028 51.072 25.6828 51.4267 25.6828 51.816C25.6828 51.9387 25.6721 52.0693 25.6508 52.208H22.6028C22.6508 52.4907 22.7735 52.7147 22.9708 52.88C23.1681 53.04 23.4055 53.12 23.6828 53.12C23.9175 53.12 24.1175 53.0693 24.2828 52.968C24.4481 52.8667 24.5868 52.72 24.6988 52.528L25.6188 52.984C25.1815 53.7467 24.5308 54.128 23.6668 54.128ZM24.5948 51.384C24.5841 51.2933 24.5388 51.1893 24.4588 51.072C24.3788 50.9493 24.2695 50.848 24.1308 50.768C23.9921 50.688 23.8268 50.648 23.6348 50.648C23.3948 50.648 23.1868 50.72 23.0108 50.864C22.8401 51.0027 22.7228 51.176 22.6588 51.384H24.5948ZM26.8083 49.84H27.8723V50.384C27.9683 50.1973 28.1256 50.04 28.3443 49.912C28.5683 49.784 28.8109 49.72 29.0723 49.72C29.2643 49.72 29.4483 49.7547 29.6243 49.824V50.952C29.4483 50.888 29.3096 50.8453 29.2083 50.824C29.1123 50.7973 29.0109 50.784 28.9043 50.784C28.6056 50.784 28.3683 50.8933 28.1923 51.112C28.0216 51.3253 27.9363 51.5973 27.9363 51.928V54H26.8083V49.84ZM32.3703 54.128C31.9436 54.128 31.5596 54.032 31.2183 53.84C30.8823 53.648 30.6209 53.384 30.4343 53.048C30.2476 52.712 30.1543 52.336 30.1543 51.92C30.1543 51.5093 30.2476 51.136 30.4343 50.8C30.6209 50.4587 30.8823 50.192 31.2183 50C31.5596 49.808 31.9436 49.712 32.3703 49.712C32.7916 49.712 33.1703 49.808 33.5063 50C33.8476 50.192 34.1116 50.4587 34.2983 50.8C34.4849 51.136 34.5783 51.5093 34.5783 51.92C34.5783 52.336 34.4849 52.712 34.2983 53.048C34.1116 53.384 33.8476 53.648 33.5063 53.84C33.1703 54.032 32.7916 54.128 32.3703 54.128ZM32.3703 53.08C32.5676 53.08 32.7463 53.0347 32.9063 52.944C33.0716 52.848 33.2023 52.7147 33.2983 52.544C33.3996 52.368 33.4503 52.16 33.4503 51.92C33.4503 51.6853 33.3996 51.4827 33.2983 51.312C33.2023 51.136 33.0716 51.0027 32.9063 50.912C32.7463 50.816 32.5676 50.768 32.3703 50.768C32.1729 50.768 31.9916 50.816 31.8263 50.912C31.6663 51.0027 31.5356 51.136 31.4343 51.312C31.3329 51.4827 31.2823 51.6853 31.2823 51.92C31.2823 52.1547 31.3329 52.36 31.4343 52.536C31.5356 52.712 31.6663 52.848 31.8263 52.944C31.9916 53.0347 32.1729 53.08 32.3703 53.08ZM38.0373 48.192H40.3173C40.6426 48.192 40.9413 48.2613 41.2133 48.4C41.4906 48.5333 41.7093 48.7173 41.8693 48.952C42.0293 49.1867 42.1093 49.4453 42.1093 49.728C42.1093 50.0267 42.0346 50.2853 41.8853 50.504C41.7413 50.7173 41.5599 50.8773 41.3413 50.984V50.992C41.6293 51.0987 41.8639 51.272 42.0453 51.512C42.2266 51.7467 42.3173 52.032 42.3173 52.368C42.3173 52.6933 42.2293 52.9813 42.0533 53.232C41.8826 53.4773 41.6506 53.6667 41.3573 53.8C41.0693 53.9333 40.7493 54 40.3973 54H38.0373V48.192ZM40.2373 50.528C40.4613 50.528 40.6399 50.4667 40.7733 50.344C40.9066 50.2213 40.9733 50.0667 40.9733 49.88C40.9733 49.6987 40.9093 49.5467 40.7813 49.424C40.6533 49.3013 40.4826 49.24 40.2693 49.24H39.1973V50.528H40.2373ZM40.3573 52.936C40.6079 52.936 40.8026 52.872 40.9413 52.744C41.0799 52.616 41.1493 52.448 41.1493 52.24C41.1493 52.032 41.0773 51.864 40.9333 51.736C40.7946 51.6027 40.5919 51.536 40.3253 51.536H39.1973V52.936H40.3573ZM44.7591 54.128C44.3164 54.128 43.9511 53.9973 43.6631 53.736C43.3804 53.4747 43.2391 53.1333 43.2391 52.712C43.2391 52.4293 43.3137 52.1813 43.4631 51.968C43.6124 51.7547 43.8151 51.592 44.0711 51.48C44.3271 51.3627 44.6097 51.304 44.9191 51.304C45.3457 51.304 45.6924 51.36 45.9591 51.472V51.352C45.9591 51.1387 45.8791 50.968 45.7191 50.84C45.5591 50.7067 45.3431 50.64 45.0711 50.64C44.8844 50.64 44.7031 50.6827 44.5271 50.768C44.3564 50.8533 44.2071 50.976 44.0791 51.136L43.3431 50.56C43.5617 50.2773 43.8231 50.0667 44.1271 49.928C44.4311 49.784 44.7617 49.712 45.1191 49.712C45.7537 49.712 46.2364 49.8613 46.5671 50.16C46.9031 50.4533 47.0711 50.8827 47.0711 51.448V54H45.9591V53.584H45.9511C45.8337 53.7387 45.6711 53.8693 45.4631 53.976C45.2604 54.0773 45.0257 54.128 44.7591 54.128ZM45.0071 53.232C45.3004 53.232 45.5324 53.1387 45.7031 52.952C45.8737 52.7653 45.9591 52.5547 45.9591 52.32C45.7084 52.2027 45.4364 52.144 45.1431 52.144C44.6257 52.144 44.3671 52.3333 44.3671 52.712C44.3671 52.8667 44.4204 52.992 44.5271 53.088C44.6391 53.184 44.7991 53.232 45.0071 53.232ZM48.3614 49.84H49.4254V50.352C49.5427 50.16 49.716 50.0053 49.9454 49.888C50.18 49.7707 50.4307 49.712 50.6974 49.712C51.1987 49.712 51.58 49.8667 51.8414 50.176C52.108 50.48 52.2414 50.896 52.2414 51.424V54H51.1134V51.552C51.1134 51.3013 51.0494 51.1093 50.9214 50.976C50.7987 50.8373 50.6227 50.768 50.3934 50.768C50.1214 50.768 49.9027 50.8747 49.7374 51.088C49.572 51.296 49.4894 51.56 49.4894 51.88V54H48.3614V49.84ZM53.5564 49.84H54.6204V50.352C54.7377 50.16 54.911 50.0053 55.1404 49.888C55.375 49.7707 55.6257 49.712 55.8924 49.712C56.3937 49.712 56.775 49.8667 57.0364 50.176C57.303 50.48 57.4364 50.896 57.4364 51.424V54H56.3084V51.552C56.3084 51.3013 56.2444 51.1093 56.1164 50.976C55.9937 50.8373 55.8177 50.768 55.5884 50.768C55.3164 50.768 55.0977 50.8747 54.9324 51.088C54.767 51.296 54.6844 51.56 54.6844 51.88V54H53.5564V49.84ZM60.7034 54.128C60.2927 54.128 59.9194 54.0347 59.5834 53.848C59.2527 53.656 58.994 53.392 58.8074 53.056C58.6207 52.72 58.5274 52.344 58.5274 51.928C58.5274 51.5333 58.618 51.1653 58.7994 50.824C58.986 50.4827 59.242 50.2133 59.5674 50.016C59.898 49.8133 60.2634 49.712 60.6634 49.712C61.09 49.712 61.458 49.8053 61.7674 49.992C62.082 50.1733 62.3194 50.4267 62.4794 50.752C62.6394 51.072 62.7194 51.4267 62.7194 51.816C62.7194 51.9387 62.7087 52.0693 62.6874 52.208H59.6394C59.6874 52.4907 59.81 52.7147 60.0074 52.88C60.2047 53.04 60.442 53.12 60.7194 53.12C60.954 53.12 61.154 53.0693 61.3194 52.968C61.4847 52.8667 61.6234 52.72 61.7354 52.528L62.6554 52.984C62.218 53.7467 61.5674 54.128 60.7034 54.128ZM61.6314 51.384C61.6207 51.2933 61.5754 51.1893 61.4954 51.072C61.4154 50.9493 61.306 50.848 61.1674 50.768C61.0287 50.688 60.8634 50.648 60.6714 50.648C60.4314 50.648 60.2234 50.72 60.0474 50.864C59.8767 51.0027 59.7594 51.176 59.6954 51.384H61.6314ZM63.8448 49.84H64.9088V50.384C65.0048 50.1973 65.1621 50.04 65.3808 49.912C65.6048 49.784 65.8475 49.72 66.1088 49.72C66.3008 49.72 66.4848 49.7547 66.6608 49.824V50.952C66.4848 50.888 66.3461 50.8453 66.2448 50.824C66.1488 50.7973 66.0475 50.784 65.9408 50.784C65.6421 50.784 65.4048 50.8933 65.2288 51.112C65.0581 51.3253 64.9728 51.5973 64.9728 51.928V54H63.8448V49.84Z" fill="#DBEBFA"/>
</g>
<defs>
<linearGradient id="paint0_linear" x1="11.7298" y1="21.4399" x2="69.517" y2="89.2146" gradientUnits="userSpaceOnUse">
<stop stop-color="#1FBEF2"/>
<stop offset="1" stop-color="#0047B4"/>
</linearGradient>
<linearGradient id="paint1_linear" x1="-22.7526" y1="16.5412" x2="54.1011" y2="106.678" gradientUnits="userSpaceOnUse">
<stop stop-color="#007FD3" stop-opacity="0.3"/>
<stop offset="0.2738" stop-color="#0E71C5" stop-opacity="0.4917"/>
<stop offset="0.7934" stop-color="#344CA2" stop-opacity="0.8554"/>
<stop offset="1" stop-color="#453C92"/>
</linearGradient>
<linearGradient id="paint2_linear" x1="46.1905" y1="-9.89909" x2="41.1504" y2="58.0671" gradientUnits="userSpaceOnUse">
<stop stop-color="#3E87E2" stop-opacity="0"/>
<stop offset="0.3834" stop-color="#2971D2" stop-opacity="0.3834"/>
<stop offset="1" stop-color="#0047B4"/>
</linearGradient>
<linearGradient id="paint3_linear" x1="-4.59432" y1="35.3584" x2="53.1928" y2="103.133" gradientUnits="userSpaceOnUse">
<stop stop-color="#007FD3"/>
<stop offset="0.00613207" stop-color="#017ED2"/>
<stop offset="0.2651" stop-color="#1E61B6"/>
<stop offset="0.5203" stop-color="#344DA2"/>
<stop offset="0.7681" stop-color="#414096"/>
<stop offset="1" stop-color="#453C92"/>
</linearGradient>
<linearGradient id="paint4_linear" x1="40.1091" y1="27.068" x2="40.1091" y2="67" gradientUnits="userSpaceOnUse">
<stop stop-color="#3E87E2"/>
<stop offset="1" stop-color="#0047B4"/>
</linearGradient>
<linearGradient id="paint5_linear" x1="-9.41835" y1="80.8151" x2="67.9278" y2="13.9059" gradientUnits="userSpaceOnUse">
<stop stop-color="#1FBEF2"/>
<stop offset="1" stop-color="#0047B4"/>
</linearGradient>
<linearGradient id="paint6_linear" x1="-9.25318" y1="39.3307" x2="48.534" y2="107.106" gradientUnits="userSpaceOnUse">
<stop stop-color="#007FD3"/>
<stop offset="0.1094" stop-color="#126EC2"/>
<stop offset="0.2903" stop-color="#2858AD"/>
<stop offset="0.4864" stop-color="#38489E"/>
<stop offset="0.7064" stop-color="#423F95"/>
<stop offset="1" stop-color="#453C92"/>
</linearGradient>
<linearGradient id="paint7_linear" x1="47.1225" y1="27.1922" x2="84.9366" y2="71.5419" gradientUnits="userSpaceOnUse">
<stop stop-color="#3C436E" stop-opacity="0"/>
<stop offset="0.1959" stop-color="#2F365A" stop-opacity="0.1959"/>
<stop offset="0.4889" stop-color="#202643" stop-opacity="0.4889"/>
<stop offset="0.7637" stop-color="#171C35" stop-opacity="0.7637"/>
<stop offset="1" stop-color="#141930"/>
</linearGradient>
<clipPath id="clip0">
<rect width="80" height="60" fill="white"/>
</clipPath>
</defs>
</svg>
