<svg width="80" height="60" viewBox="0 0 80 60" fill="none" xmlns="http://www.w3.org/2000/svg">
<g clip-path="url(#clip0)">
<rect width="80" height="60" fill="#0C3255"/>
<g opacity="0.15">
<path d="M80.2195 7.69489L4.02693e-06 27.2659L0 67L80.2195 67L80.2195 7.69489Z" fill="url(#paint0_linear)" fill-opacity="0.32"/>
<path d="M7.64254e-06 -8.40958L80.2195 67L0 67L7.64254e-06 -8.40958Z" fill="url(#paint1_linear)" fill-opacity="0.43"/>
<path d="M7.64254e-06 -8.40958L80.2195 -3.75672L80.2195 67L40.1082 67L7.64254e-06 -8.40958Z" fill="url(#paint2_linear)" fill-opacity="0.42"/>
<path d="M4.02693e-06 27.2659L80.1654 53.803L80.2195 67L0 67L4.02693e-06 27.2659Z" fill="url(#paint3_linear)" fill-opacity="0.45"/>
<path d="M0 67L80.2195 67L80.2195 27.0678L0 67Z" fill="url(#paint4_linear)"/>
<path d="M1.35019e-06 53.6775L80.2195 40.606L80.2195 67L0 67L1.35019e-06 53.6775Z" fill="url(#paint5_linear)"/>
<path d="M80.2195 67L4.02693e-06 27.2659L0 67L80.2195 67Z" fill="url(#paint6_linear)" fill-opacity="0.23"/>
<path d="M29.8301 67L80.2184 -3.75677L80.2184 67L29.8301 67Z" fill="url(#paint7_linear)" fill-opacity="0.36"/>
</g>
<path d="M49.8073 17.9157H30.2154C29.4052 17.9157 28.7461 17.2566 28.7461 16.4464V12.5279C28.7461 11.7177 29.4052 11.0586 30.2154 11.0586H49.8073C50.6175 11.0586 51.2766 11.7177 51.2766 12.5279V16.4462C51.2766 17.2566 50.6175 17.9157 49.8073 17.9157V17.9157ZM30.2154 12.038C29.9454 12.038 29.7255 12.2579 29.7255 12.5279V16.4462C29.7255 16.7162 29.9454 16.936 30.2154 16.936H49.8073C50.0775 16.936 50.2971 16.7162 50.2971 16.4462V12.5279C50.2971 12.2579 50.0775 12.038 49.8073 12.038H30.2154V12.038Z" fill="#DBEBFA"/>
<path d="M47.3593 15.9568C47.2053 15.9568 47.0598 15.8843 46.9677 15.7608L45.4984 13.8017C45.3357 13.5854 45.3798 13.2781 45.5963 13.1159C45.812 12.9528 46.1197 12.9975 46.2816 13.2136L47.3593 14.6506L48.437 13.2136C48.5996 12.9978 48.9062 12.9533 49.1223 13.1159C49.3388 13.2781 49.3829 13.5851 49.2202 13.8017L47.7509 15.7608C47.7054 15.8217 47.6463 15.8711 47.5783 15.9051C47.5103 15.9391 47.4353 15.9568 47.3593 15.9568V15.9568ZM40.2573 14.9771H32.4205C32.15 14.9771 31.9306 14.7577 31.9306 14.4872C31.9306 14.2168 32.15 13.9974 32.4205 13.9974H40.2573C40.528 13.9974 40.7471 14.2168 40.7471 14.4872C40.7471 14.7577 40.528 14.9771 40.2573 14.9771ZM49.8083 25.1403H39.0327C38.7622 25.1403 38.5428 24.9211 38.5428 24.6504C38.5428 24.3797 38.7622 24.1606 39.0327 24.1606H49.8083C50.079 24.1606 50.2981 24.3797 50.2981 24.6504C50.2981 24.9211 50.079 25.1403 49.8083 25.1403ZM49.8083 32.9771H30.2164C29.9459 32.9771 29.7266 32.7579 29.7266 32.4872C29.7266 32.2165 29.9459 31.9974 30.2164 31.9974H49.8083C50.079 31.9974 50.2981 32.2165 50.2981 32.4872C50.2981 32.7579 50.079 32.9771 49.8083 32.9771ZM32.9103 27.5893C31.2898 27.5893 29.9715 26.2711 29.9715 24.6504C29.9715 23.0297 31.2896 21.7116 32.9103 21.7116C34.531 21.7116 35.8491 23.0297 35.8491 24.6504C35.8491 26.2711 34.5308 27.5893 32.9103 27.5893V27.5893ZM32.9103 22.6913C31.8301 22.6913 30.9512 23.57 30.9512 24.6504C30.9512 25.7309 31.8301 26.6096 32.9103 26.6096C33.9905 26.6096 34.8695 25.7309 34.8695 24.6504C34.8695 23.57 33.9905 22.6913 32.9103 22.6913Z" fill="#DBEBFA"/>
<path d="M14.656 48.192H18.368V49.296H15.816V50.544H18.112V51.648H15.816V52.896H18.368V54H14.656V48.192ZM19.5742 49.84H20.6382V50.352C20.7662 50.16 20.9395 50.0053 21.1582 49.888C21.3822 49.7707 21.6302 49.712 21.9022 49.712C22.1955 49.712 22.4515 49.784 22.6702 49.928C22.8942 50.0667 23.0435 50.2187 23.1182 50.384C23.2249 50.208 23.3982 50.0533 23.6382 49.92C23.8782 49.7813 24.1582 49.712 24.4782 49.712C24.9529 49.712 25.3155 49.8587 25.5662 50.152C25.8169 50.4453 25.9422 50.84 25.9422 51.336V54H24.8222V51.528C24.8222 51.2827 24.7662 51.096 24.6542 50.968C24.5422 50.8347 24.3849 50.768 24.1822 50.768C23.9209 50.768 23.7129 50.872 23.5582 51.08C23.4035 51.288 23.3262 51.5627 23.3262 51.904V54H22.1982V51.528C22.1982 51.2827 22.1395 51.096 22.0222 50.968C21.9049 50.8347 21.7369 50.768 21.5182 50.768C21.2782 50.768 21.0809 50.872 20.9262 51.08C20.7769 51.288 20.7022 51.5627 20.7022 51.904V54H19.5742V49.84ZM27.2294 49.84H28.2934V50.336C28.4 50.1653 28.5627 50.0187 28.7814 49.896C29.0054 49.7733 29.2587 49.712 29.5414 49.712C29.9147 49.712 30.256 49.8053 30.5654 49.992C30.8747 50.1787 31.1147 50.4427 31.2854 50.784C31.4614 51.12 31.5494 51.4987 31.5494 51.92C31.5494 52.3467 31.4614 52.728 31.2854 53.064C31.1147 53.4 30.8747 53.6613 30.5654 53.848C30.256 54.0347 29.9147 54.128 29.5414 54.128C29.2587 54.128 29.0054 54.0693 28.7814 53.952C28.5574 53.8293 28.3947 53.6827 28.2934 53.512H28.3014L28.3574 54.048V55.728H27.2294V49.84ZM29.3574 53.08C29.5494 53.08 29.7254 53.032 29.8854 52.936C30.0507 52.8347 30.1814 52.6987 30.2774 52.528C30.3787 52.352 30.4294 52.1493 30.4294 51.92C30.4294 51.6907 30.3787 51.4907 30.2774 51.32C30.1814 51.144 30.0507 51.008 29.8854 50.912C29.7254 50.816 29.5494 50.768 29.3574 50.768C29.1707 50.768 28.9947 50.816 28.8294 50.912C28.6694 51.008 28.5387 51.144 28.4374 51.32C28.3414 51.4907 28.2934 51.6907 28.2934 51.92C28.2934 52.1493 28.3414 52.352 28.4374 52.528C28.5387 52.6987 28.6694 52.8347 28.8294 52.936C28.9947 53.032 29.1707 53.08 29.3574 53.08ZM32.597 48.192L33.725 47.952V54H32.597V48.192ZM37.0262 54.128C36.5995 54.128 36.2155 54.032 35.8742 53.84C35.5382 53.648 35.2769 53.384 35.0902 53.048C34.9035 52.712 34.8102 52.336 34.8102 51.92C34.8102 51.5093 34.9035 51.136 35.0902 50.8C35.2769 50.4587 35.5382 50.192 35.8742 50C36.2155 49.808 36.5995 49.712 37.0262 49.712C37.4475 49.712 37.8262 49.808 38.1622 50C38.5035 50.192 38.7675 50.4587 38.9542 50.8C39.1409 51.136 39.2342 51.5093 39.2342 51.92C39.2342 52.336 39.1409 52.712 38.9542 53.048C38.7675 53.384 38.5035 53.648 38.1622 53.84C37.8262 54.032 37.4475 54.128 37.0262 54.128ZM37.0262 53.08C37.2235 53.08 37.4022 53.0347 37.5622 52.944C37.7275 52.848 37.8582 52.7147 37.9542 52.544C38.0555 52.368 38.1062 52.16 38.1062 51.92C38.1062 51.6853 38.0555 51.4827 37.9542 51.312C37.8582 51.136 37.7275 51.0027 37.5622 50.912C37.4022 50.816 37.2235 50.768 37.0262 50.768C36.8289 50.768 36.6475 50.816 36.4822 50.912C36.3222 51.0027 36.1915 51.136 36.0902 51.312C35.9889 51.4827 35.9382 51.6853 35.9382 51.92C35.9382 52.1547 35.9889 52.36 36.0902 52.536C36.1915 52.712 36.3222 52.848 36.4822 52.944C36.6475 53.0347 36.8289 53.08 37.0262 53.08ZM41.4939 53.768L39.7499 49.84H41.0299L42.0859 52.376H42.1019L43.1179 49.84H44.3739L41.8139 55.728H40.5979L41.4939 53.768ZM47.6069 48.192H51.3189V49.296H48.7669V50.608H51.0629V51.712H48.7669V54H47.6069V48.192ZM54.1968 54.128C53.7701 54.128 53.3861 54.032 53.0448 53.84C52.7088 53.648 52.4475 53.384 52.2608 53.048C52.0741 52.712 51.9808 52.336 51.9808 51.92C51.9808 51.5093 52.0741 51.136 52.2608 50.8C52.4475 50.4587 52.7088 50.192 53.0448 50C53.3861 49.808 53.7701 49.712 54.1968 49.712C54.6181 49.712 54.9968 49.808 55.3328 50C55.6741 50.192 55.9381 50.4587 56.1248 50.8C56.3115 51.136 56.4048 51.5093 56.4048 51.92C56.4048 52.336 56.3115 52.712 56.1248 53.048C55.9381 53.384 55.6741 53.648 55.3328 53.84C54.9968 54.032 54.6181 54.128 54.1968 54.128ZM54.1968 53.08C54.3941 53.08 54.5728 53.0347 54.7328 52.944C54.8981 52.848 55.0288 52.7147 55.1248 52.544C55.2261 52.368 55.2768 52.16 55.2768 51.92C55.2768 51.6853 55.2261 51.4827 55.1248 51.312C55.0288 51.136 54.8981 51.0027 54.7328 50.912C54.5728 50.816 54.3941 50.768 54.1968 50.768C53.9995 50.768 53.8181 50.816 53.6528 50.912C53.4928 51.0027 53.3621 51.136 53.2608 51.312C53.1595 51.4827 53.1088 51.6853 53.1088 51.92C53.1088 52.1547 53.1595 52.36 53.2608 52.536C53.3621 52.712 53.4928 52.848 53.6528 52.944C53.8181 53.0347 53.9995 53.08 54.1968 53.08ZM57.4467 49.84H58.5107V50.384C58.6067 50.1973 58.764 50.04 58.9827 49.912C59.2067 49.784 59.4494 49.72 59.7107 49.72C59.9027 49.72 60.0867 49.7547 60.2627 49.824V50.952C60.0867 50.888 59.948 50.8453 59.8467 50.824C59.7507 50.7973 59.6494 50.784 59.5427 50.784C59.244 50.784 59.0067 50.8933 58.8307 51.112C58.66 51.3253 58.5747 51.5973 58.5747 51.928V54H57.4467V49.84ZM61.2589 49.84H62.3229V50.352C62.4509 50.16 62.6242 50.0053 62.8429 49.888C63.0669 49.7707 63.3149 49.712 63.5869 49.712C63.8802 49.712 64.1362 49.784 64.3549 49.928C64.5789 50.0667 64.7282 50.2187 64.8029 50.384C64.9095 50.208 65.0829 50.0533 65.3229 49.92C65.5629 49.7813 65.8429 49.712 66.1629 49.712C66.6375 49.712 67.0002 49.8587 67.2509 50.152C67.5015 50.4453 67.6269 50.84 67.6269 51.336V54H66.5069V51.528C66.5069 51.2827 66.4509 51.096 66.3389 50.968C66.2269 50.8347 66.0695 50.768 65.8669 50.768C65.6055 50.768 65.3975 50.872 65.2429 51.08C65.0882 51.288 65.0109 51.5627 65.0109 51.904V54H63.8829V51.528C63.8829 51.2827 63.8242 51.096 63.7069 50.968C63.5895 50.8347 63.4215 50.768 63.2029 50.768C62.9629 50.768 62.7655 50.872 62.6109 51.08C62.4615 51.288 62.3869 51.5627 62.3869 51.904V54H61.2589V49.84Z" fill="#DBEBFA"/>
</g>
<defs>
<linearGradient id="paint0_linear" x1="11.7298" y1="21.4399" x2="69.517" y2="89.2146" gradientUnits="userSpaceOnUse">
<stop stop-color="#1FBEF2"/>
<stop offset="1" stop-color="#0047B4"/>
</linearGradient>
<linearGradient id="paint1_linear" x1="-22.7526" y1="16.5412" x2="54.1011" y2="106.678" gradientUnits="userSpaceOnUse">
<stop stop-color="#007FD3" stop-opacity="0.3"/>
<stop offset="0.2738" stop-color="#0E71C5" stop-opacity="0.4917"/>
<stop offset="0.7934" stop-color="#344CA2" stop-opacity="0.8554"/>
<stop offset="1" stop-color="#453C92"/>
</linearGradient>
<linearGradient id="paint2_linear" x1="46.1905" y1="-9.89909" x2="41.1504" y2="58.0671" gradientUnits="userSpaceOnUse">
<stop stop-color="#3E87E2" stop-opacity="0"/>
<stop offset="0.3834" stop-color="#2971D2" stop-opacity="0.3834"/>
<stop offset="1" stop-color="#0047B4"/>
</linearGradient>
<linearGradient id="paint3_linear" x1="-4.59432" y1="35.3584" x2="53.1928" y2="103.133" gradientUnits="userSpaceOnUse">
<stop stop-color="#007FD3"/>
<stop offset="0.00613207" stop-color="#017ED2"/>
<stop offset="0.2651" stop-color="#1E61B6"/>
<stop offset="0.5203" stop-color="#344DA2"/>
<stop offset="0.7681" stop-color="#414096"/>
<stop offset="1" stop-color="#453C92"/>
</linearGradient>
<linearGradient id="paint4_linear" x1="40.1091" y1="27.068" x2="40.1091" y2="67" gradientUnits="userSpaceOnUse">
<stop stop-color="#3E87E2"/>
<stop offset="1" stop-color="#0047B4"/>
</linearGradient>
<linearGradient id="paint5_linear" x1="-9.41835" y1="80.8151" x2="67.9278" y2="13.9059" gradientUnits="userSpaceOnUse">
<stop stop-color="#1FBEF2"/>
<stop offset="1" stop-color="#0047B4"/>
</linearGradient>
<linearGradient id="paint6_linear" x1="-9.25318" y1="39.3307" x2="48.534" y2="107.106" gradientUnits="userSpaceOnUse">
<stop stop-color="#007FD3"/>
<stop offset="0.1094" stop-color="#126EC2"/>
<stop offset="0.2903" stop-color="#2858AD"/>
<stop offset="0.4864" stop-color="#38489E"/>
<stop offset="0.7064" stop-color="#423F95"/>
<stop offset="1" stop-color="#453C92"/>
</linearGradient>
<linearGradient id="paint7_linear" x1="47.1225" y1="27.1922" x2="84.9366" y2="71.5419" gradientUnits="userSpaceOnUse">
<stop stop-color="#3C436E" stop-opacity="0"/>
<stop offset="0.1959" stop-color="#2F365A" stop-opacity="0.1959"/>
<stop offset="0.4889" stop-color="#202643" stop-opacity="0.4889"/>
<stop offset="0.7637" stop-color="#171C35" stop-opacity="0.7637"/>
<stop offset="1" stop-color="#141930"/>
</linearGradient>
<clipPath id="clip0">
<rect width="80" height="60" fill="white"/>
</clipPath>
</defs>
</svg>
