<svg width="86" height="64" viewBox="0 0 86 64" fill="none" xmlns="http://www.w3.org/2000/svg">
<g clip-path="url(#clip0)">
<rect width="86" height="64" fill="#0C3255"/>
<g opacity="0.15">
<path d="M86.236 8.20802L4.02693e-06 29.0838L0 71.4668L86.236 71.4668L86.236 8.20802Z" fill="url(#paint0_linear)" fill-opacity="0.32"/>
<path d="M7.64254e-06 -8.97008L86.2359 71.4668L0 71.4668L7.64254e-06 -8.97008Z" fill="url(#paint1_linear)" fill-opacity="0.43"/>
<path d="M7.64254e-06 -8.97009L86.2359 -4.00704L86.2359 71.4668L43.1163 71.4668L7.64254e-06 -8.97009Z" fill="url(#paint2_linear)" fill-opacity="0.42"/>
<path d="M4.02693e-06 29.0838L86.1778 57.39L86.236 71.4668L0 71.4668L4.02693e-06 29.0838Z" fill="url(#paint3_linear)" fill-opacity="0.45"/>
<path d="M0 71.4668L86.236 71.4668L86.236 28.8725L0 71.4668Z" fill="url(#paint4_linear)"/>
<path d="M1.35019e-06 57.2562L86.2359 43.3132L86.2359 71.4668L0 71.4668L1.35019e-06 57.2562Z" fill="url(#paint5_linear)"/>
<path d="M86.236 71.4668L4.02693e-06 29.0838L0 71.4668L86.236 71.4668Z" fill="url(#paint6_linear)" fill-opacity="0.23"/>
<path d="M32.0684 71.4668L86.2358 -4.00708L86.2358 71.4668L32.0684 71.4668Z" fill="url(#paint7_linear)" fill-opacity="0.36"/>
</g>
<path d="M50.2443 24.6006H32.9863V26.052H50.2443V24.6006Z" fill="#B8D7F5"/>
<path d="M50.2443 26.9561H32.9863V28.4075H50.2443V26.9561Z" fill="#B8D7F5"/>
<path d="M50.2443 29.3193H32.9863V30.7708H50.2443V29.3193Z" fill="#B8D7F5"/>
<path d="M50.2443 31.6748H32.9863V33.1263H50.2443V31.6748Z" fill="#B8D7F5"/>
<path d="M46.399 34.0312H32.9863V35.4827H46.399V34.0312Z" fill="#B8D7F5"/>
<path d="M58.503 18.2549L54.0575 13.1026C53.9207 12.9658 53.6851 12.9658 53.5483 13.1026L49.1028 18.2549C48.9052 18.4525 49.0572 18.764 49.3535 18.764H51.4357V22.8068H56.1549V18.764H58.2371C58.5486 18.764 58.7006 18.4525 58.503 18.2549Z" fill="#B8D7F5"/>
<path d="M56.1625 23.5361H51.4434V25.3752H56.1625V23.5361Z" fill="#B8D7F5"/>
<path d="M51.4434 26.7818C51.4434 26.949 51.5953 27.0858 51.7853 27.0858H55.8205C56.0105 27.0858 56.1625 26.949 56.1625 26.7818V26.1055H51.4434V26.7818Z" fill="#B8D7F5"/>
<path d="M53.2299 47.8242C53.2299 49.0249 52.2572 49.9976 51.0565 49.9976H32.1648C30.9641 49.9976 29.9914 49.0249 29.9914 47.8242V47.1555H28.9883V48.189C28.9883 49.7468 30.2498 51.0007 31.8 51.0007H51.4137C52.9716 51.0007 54.2254 49.7392 54.2254 48.189V27.7773H53.2223V47.8242H53.2299Z" fill="#B8D7F5"/>
<path d="M29.9916 20.9296C29.9916 19.729 30.9643 18.7562 32.165 18.7562H48.3666C48.2602 18.4219 48.3438 18.0495 48.5946 17.7911L48.625 17.7607H31.8078C30.25 17.7607 28.9961 19.0222 28.9961 20.5725V37.8532H29.9992V20.9296H29.9916Z" fill="#B8D7F5"/>
<path d="M36.4286 40.7031H35.623V44.3204H36.4286C36.8237 44.3204 37.1353 44.1836 37.3709 43.9176C37.6065 43.6516 37.7204 43.3021 37.7204 42.8841V42.1242C37.7204 41.7062 37.6065 41.3643 37.3709 41.0983C37.1353 40.8323 36.8237 40.7031 36.4286 40.7031Z" fill="#B8D7F5"/>
<path d="M41.6184 42.7334H41.5728H40.4785V44.3216H41.588C41.8768 44.3216 42.0896 44.2532 42.2491 44.1241C42.4011 43.9949 42.4771 43.8049 42.4771 43.5617C42.4771 43.3109 42.4011 43.1134 42.2491 42.969C42.1048 42.8246 41.892 42.741 41.6184 42.7334Z" fill="#B8D7F5"/>
<path d="M41.968 41.934C42.1124 41.8124 42.1883 41.6452 42.1883 41.4172C42.1883 41.1741 42.1124 40.9917 41.9528 40.8701C41.7932 40.7485 41.5728 40.6953 41.2688 40.6953H40.4785V42.1164H41.36C41.6184 42.1164 41.816 42.0556 41.968 41.934Z" fill="#B8D7F5"/>
<path d="M50.0911 42.5119C50.0911 40.331 48.3204 38.5527 46.1318 38.5527H28V46.4636H46.1394C48.3204 46.4636 50.0911 44.6929 50.0911 42.5119ZM38.5402 42.8843C38.5402 43.4999 38.3426 44.0014 37.955 44.3966C37.5599 44.7841 37.0507 44.9817 36.4276 44.9817H34.7937V40.0422H36.4276C37.0507 40.0422 37.5599 40.2398 37.955 40.6273C38.3502 41.0149 38.5402 41.524 38.5402 42.1396V42.8843ZM42.849 44.6169C42.545 44.8601 42.127 44.9817 41.5951 44.9817H39.6573V40.0422H41.2759C41.8231 40.0422 42.2486 40.1562 42.5526 40.3766C42.8566 40.6045 43.0161 40.9389 43.0161 41.3873C43.0161 41.6076 42.9553 41.7976 42.8338 41.9724C42.7122 42.1472 42.5374 42.2764 42.317 42.3676C42.6362 42.4208 42.8794 42.5575 43.0465 42.7779C43.2137 42.9983 43.3049 43.2567 43.3049 43.5606C43.3049 44.0242 43.1529 44.3738 42.849 44.6169Z" fill="#B8D7F5"/>
</g>
<defs>
<linearGradient id="paint0_linear" x1="12.6095" y1="22.8693" x2="74.1716" y2="95.6355" gradientUnits="userSpaceOnUse">
<stop stop-color="#1FBEF2"/>
<stop offset="1" stop-color="#0047B4"/>
</linearGradient>
<linearGradient id="paint1_linear" x1="-24.459" y1="17.6441" x2="57.415" y2="114.419" gradientUnits="userSpaceOnUse">
<stop stop-color="#007FD3" stop-opacity="0.3"/>
<stop offset="0.2738" stop-color="#0E71C5" stop-opacity="0.4917"/>
<stop offset="0.7934" stop-color="#344CA2" stop-opacity="0.8554"/>
<stop offset="1" stop-color="#453C92"/>
</linearGradient>
<linearGradient id="paint2_linear" x1="49.6548" y1="-10.5589" x2="44.3199" y2="61.9445" gradientUnits="userSpaceOnUse">
<stop stop-color="#3E87E2" stop-opacity="0"/>
<stop offset="0.3834" stop-color="#2971D2" stop-opacity="0.3834"/>
<stop offset="1" stop-color="#0047B4"/>
</linearGradient>
<linearGradient id="paint3_linear" x1="-4.9389" y1="37.7158" x2="56.6231" y2="110.482" gradientUnits="userSpaceOnUse">
<stop stop-color="#007FD3"/>
<stop offset="0.00613207" stop-color="#017ED2"/>
<stop offset="0.2651" stop-color="#1E61B6"/>
<stop offset="0.5203" stop-color="#344DA2"/>
<stop offset="0.7681" stop-color="#414096"/>
<stop offset="1" stop-color="#453C92"/>
</linearGradient>
<linearGradient id="paint4_linear" x1="43.1173" y1="28.8727" x2="43.1173" y2="71.4668" gradientUnits="userSpaceOnUse">
<stop stop-color="#3E87E2"/>
<stop offset="1" stop-color="#0047B4"/>
</linearGradient>
<linearGradient id="paint5_linear" x1="-10.1247" y1="86.2029" x2="72.4679" y2="14.197" gradientUnits="userSpaceOnUse">
<stop stop-color="#1FBEF2"/>
<stop offset="1" stop-color="#0047B4"/>
</linearGradient>
<linearGradient id="paint6_linear" x1="-9.94716" y1="41.9529" x2="51.6148" y2="114.719" gradientUnits="userSpaceOnUse">
<stop stop-color="#007FD3"/>
<stop offset="0.1094" stop-color="#126EC2"/>
<stop offset="0.2903" stop-color="#2858AD"/>
<stop offset="0.4864" stop-color="#38489E"/>
<stop offset="0.7064" stop-color="#423F95"/>
<stop offset="1" stop-color="#453C92"/>
</linearGradient>
<linearGradient id="paint7_linear" x1="50.6577" y1="29.0052" x2="90.942" y2="76.6211" gradientUnits="userSpaceOnUse">
<stop stop-color="#3C436E" stop-opacity="0"/>
<stop offset="0.1959" stop-color="#2F365A" stop-opacity="0.1959"/>
<stop offset="0.4889" stop-color="#202643" stop-opacity="0.4889"/>
<stop offset="0.7637" stop-color="#171C35" stop-opacity="0.7637"/>
<stop offset="1" stop-color="#141930"/>
</linearGradient>
<clipPath id="clip0">
<rect width="86" height="64" fill="white"/>
</clipPath>
</defs>
</svg>
