<svg width="86" height="64" viewBox="0 0 86 64" fill="none" xmlns="http://www.w3.org/2000/svg">
<g clip-path="url(#clip0)">
<rect width="86" height="64" fill="#0C3255"/>
<g opacity="0.15">
<path d="M86.236 8.20802L4.02693e-06 29.0838L0 71.4668L86.236 71.4668L86.236 8.20802Z" fill="url(#paint0_linear)" fill-opacity="0.32"/>
<path d="M7.64254e-06 -8.97008L86.2359 71.4668L0 71.4668L7.64254e-06 -8.97008Z" fill="url(#paint1_linear)" fill-opacity="0.43"/>
<path d="M7.64254e-06 -8.97009L86.2359 -4.00704L86.2359 71.4668L43.1163 71.4668L7.64254e-06 -8.97009Z" fill="url(#paint2_linear)" fill-opacity="0.42"/>
<path d="M4.02693e-06 29.0838L86.1778 57.39L86.236 71.4668L0 71.4668L4.02693e-06 29.0838Z" fill="url(#paint3_linear)" fill-opacity="0.45"/>
<path d="M0 71.4668L86.236 71.4668L86.236 28.8725L0 71.4668Z" fill="url(#paint4_linear)"/>
<path d="M1.35019e-06 57.2562L86.2359 43.3132L86.2359 71.4668L0 71.4668L1.35019e-06 57.2562Z" fill="url(#paint5_linear)"/>
<path d="M86.236 71.4668L4.02693e-06 29.0838L0 71.4668L86.236 71.4668Z" fill="url(#paint6_linear)" fill-opacity="0.23"/>
<path d="M32.0684 71.4668L86.2358 -4.00708L86.2358 71.4668L32.0684 71.4668Z" fill="url(#paint7_linear)" fill-opacity="0.36"/>
</g>
<rect x="10" y="23" width="2" height="2" rx="1" fill="#B8D7F5"/>
<rect x="13" y="23" width="27" height="2" fill="#B8D7F5"/>
<rect x="10" y="27" width="2" height="2" rx="1" fill="#B8D7F5"/>
<rect x="13" y="27" width="11" height="2" fill="#B8D7F5"/>
<rect x="10" y="31" width="2" height="2" rx="1" fill="#B8D7F5"/>
<rect x="13" y="31" width="21" height="2" fill="#B8D7F5"/>
<rect x="10" y="35" width="2" height="2" rx="1" fill="#B8D7F5"/>
<rect x="13" y="35" width="18" height="2" fill="#B8D7F5"/>
<rect x="10" y="39" width="2" height="2" rx="1" fill="#B8D7F5"/>
<rect x="13" y="39" width="24" height="2" fill="#B8D7F5"/>
<path opacity="0.8" fill-rule="evenodd" clip-rule="evenodd" d="M75.2174 44H48.7826C47.2459 44 46 42.7358 46 41.1765V22.8235C46 21.2642 47.2459 20 48.7826 20H75.2174C76.7541 20 78 21.2642 78 22.8235V41.1765C78 42.7358 76.7541 44 75.2174 44ZM76.6087 22.8235C76.6087 22.0442 75.9854 21.4118 75.2174 21.4118H48.7826C48.0146 21.4118 47.3913 22.0442 47.3913 22.8235V41.1765C47.3913 41.9558 48.0146 42.5882 48.7826 42.5882H75.2174C75.9854 42.5882 76.6087 41.9558 76.6087 41.1765V22.8235ZM74.0584 39.5635L69.6522 35.0925L67.1346 37.6471L69.4539 40.0005C69.719 40.2694 69.719 40.7056 69.4539 40.9753C69.1882 41.2442 68.7583 41.2442 68.4932 40.9753L58.5217 30.8572L49.9416 39.5635C49.6765 39.8325 49.2466 39.8325 48.9809 39.5635C48.7158 39.2939 48.7158 38.8576 48.9809 38.5887L57.9583 29.4793C57.9805 29.4454 57.9951 29.408 58.0243 29.3776C58.1614 29.2386 58.3423 29.1751 58.5217 29.1793C58.7012 29.1751 58.8821 29.2386 59.0191 29.3776C59.0483 29.408 59.0623 29.4454 59.0852 29.4793L66.1739 36.6722L69.0887 33.7146C69.1117 33.6814 69.1256 33.6433 69.1548 33.6129C69.2918 33.4746 69.4727 33.4104 69.6522 33.4146C69.8317 33.4104 70.0125 33.4746 70.1496 33.6129C70.1788 33.6433 70.1927 33.6814 70.2157 33.7146L75.0191 38.5887C75.2842 38.8576 75.2842 39.2939 75.0191 39.5635C74.7534 39.8325 74.3235 39.8325 74.0584 39.5635ZM65.4783 28.4706C63.9416 28.4706 62.6957 27.2064 62.6957 25.6471C62.6957 24.0878 63.9416 22.8235 65.4783 22.8235C67.015 22.8235 68.2609 24.0878 68.2609 25.6471C68.2609 27.2064 67.015 28.4706 65.4783 28.4706ZM65.4783 24.2353C64.7103 24.2353 64.087 24.8678 64.087 25.6471C64.087 26.4264 64.7103 27.0588 65.4783 27.0588C66.2463 27.0588 66.8696 26.4264 66.8696 25.6471C66.8696 24.8678 66.2463 24.2353 65.4783 24.2353Z" fill="#B8D7F5"/>
</g>
<defs>
<linearGradient id="paint0_linear" x1="12.6095" y1="22.8693" x2="74.1716" y2="95.6355" gradientUnits="userSpaceOnUse">
<stop stop-color="#1FBEF2"/>
<stop offset="1" stop-color="#0047B4"/>
</linearGradient>
<linearGradient id="paint1_linear" x1="-24.459" y1="17.6441" x2="57.415" y2="114.419" gradientUnits="userSpaceOnUse">
<stop stop-color="#007FD3" stop-opacity="0.3"/>
<stop offset="0.2738" stop-color="#0E71C5" stop-opacity="0.4917"/>
<stop offset="0.7934" stop-color="#344CA2" stop-opacity="0.8554"/>
<stop offset="1" stop-color="#453C92"/>
</linearGradient>
<linearGradient id="paint2_linear" x1="49.6548" y1="-10.5589" x2="44.3199" y2="61.9445" gradientUnits="userSpaceOnUse">
<stop stop-color="#3E87E2" stop-opacity="0"/>
<stop offset="0.3834" stop-color="#2971D2" stop-opacity="0.3834"/>
<stop offset="1" stop-color="#0047B4"/>
</linearGradient>
<linearGradient id="paint3_linear" x1="-4.9389" y1="37.7158" x2="56.6231" y2="110.482" gradientUnits="userSpaceOnUse">
<stop stop-color="#007FD3"/>
<stop offset="0.00613207" stop-color="#017ED2"/>
<stop offset="0.2651" stop-color="#1E61B6"/>
<stop offset="0.5203" stop-color="#344DA2"/>
<stop offset="0.7681" stop-color="#414096"/>
<stop offset="1" stop-color="#453C92"/>
</linearGradient>
<linearGradient id="paint4_linear" x1="43.1173" y1="28.8727" x2="43.1173" y2="71.4668" gradientUnits="userSpaceOnUse">
<stop stop-color="#3E87E2"/>
<stop offset="1" stop-color="#0047B4"/>
</linearGradient>
<linearGradient id="paint5_linear" x1="-10.1247" y1="86.2029" x2="72.4679" y2="14.197" gradientUnits="userSpaceOnUse">
<stop stop-color="#1FBEF2"/>
<stop offset="1" stop-color="#0047B4"/>
</linearGradient>
<linearGradient id="paint6_linear" x1="-9.94716" y1="41.9529" x2="51.6148" y2="114.719" gradientUnits="userSpaceOnUse">
<stop stop-color="#007FD3"/>
<stop offset="0.1094" stop-color="#126EC2"/>
<stop offset="0.2903" stop-color="#2858AD"/>
<stop offset="0.4864" stop-color="#38489E"/>
<stop offset="0.7064" stop-color="#423F95"/>
<stop offset="1" stop-color="#453C92"/>
</linearGradient>
<linearGradient id="paint7_linear" x1="50.6577" y1="29.0052" x2="90.942" y2="76.6211" gradientUnits="userSpaceOnUse">
<stop stop-color="#3C436E" stop-opacity="0"/>
<stop offset="0.1959" stop-color="#2F365A" stop-opacity="0.1959"/>
<stop offset="0.4889" stop-color="#202643" stop-opacity="0.4889"/>
<stop offset="0.7637" stop-color="#171C35" stop-opacity="0.7637"/>
<stop offset="1" stop-color="#141930"/>
</linearGradient>
<clipPath id="clip0">
<rect width="86" height="64" fill="white"/>
</clipPath>
</defs>
</svg>
