<svg width="86" height="64" viewBox="0 0 86 64" fill="none" xmlns="http://www.w3.org/2000/svg">
<g clip-path="url(#clip0)">
<rect width="86" height="64" fill="#0C3255"/>
<g opacity="0.15">
<path d="M86.236 8.20802L4.02693e-06 29.0838L0 71.4668L86.236 71.4668L86.236 8.20802Z" fill="url(#paint0_linear)" fill-opacity="0.32"/>
<path d="M7.64254e-06 -8.97008L86.2359 71.4668L0 71.4668L7.64254e-06 -8.97008Z" fill="url(#paint1_linear)" fill-opacity="0.43"/>
<path d="M7.64254e-06 -8.97009L86.2359 -4.00704L86.2359 71.4668L43.1163 71.4668L7.64254e-06 -8.97009Z" fill="url(#paint2_linear)" fill-opacity="0.42"/>
<path d="M4.02693e-06 29.0838L86.1778 57.39L86.236 71.4668L0 71.4668L4.02693e-06 29.0838Z" fill="url(#paint3_linear)" fill-opacity="0.45"/>
<path d="M0 71.4668L86.236 71.4668L86.236 28.8725L0 71.4668Z" fill="url(#paint4_linear)"/>
<path d="M1.35019e-06 57.2562L86.2359 43.3132L86.2359 71.4668L0 71.4668L1.35019e-06 57.2562Z" fill="url(#paint5_linear)"/>
<path d="M86.236 71.4668L4.02693e-06 29.0838L0 71.4668L86.236 71.4668Z" fill="url(#paint6_linear)" fill-opacity="0.23"/>
<path d="M32.0684 71.4668L86.2358 -4.00708L86.2358 71.4668L32.0684 71.4668Z" fill="url(#paint7_linear)" fill-opacity="0.36"/>
</g>
<path d="M79 33.7305V30.2695C79 30.0299 79.2555 29.9099 79.4049 30.0793L80.9305 31.8098C81.0232 31.9148 81.0232 32.0852 80.9305 32.1902L79.4049 33.9207C79.2555 34.0901 79 33.9701 79 33.7305Z" fill="#B8D7F5"/>
<path d="M7 30.2695L7 33.7305C7 33.9701 6.74454 34.0901 6.59514 33.9207L5.06946 32.1902C4.97685 32.0852 4.97685 31.9148 5.06946 31.8098L6.59514 30.0793C6.74454 29.9099 7 30.0299 7 30.2695Z" fill="#B8D7F5"/>
<rect x="12" y="22" width="24" height="2" fill="#B8D7F5"/>
<rect x="12" y="26" width="18" height="1" fill="#B8D7F5"/>
<rect x="12" y="29" width="8" height="1" fill="#B8D7F5"/>
<rect x="12" y="32" width="16" height="1" fill="#B8D7F5"/>
<rect x="12" y="35" width="19" height="1" fill="#B8D7F5"/>
<rect x="12" y="38" width="13" height="1" fill="#B8D7F5"/>
<rect x="12" y="41" width="4" height="2" rx="1" fill="#8BE5B0"/>
<rect x="18" y="41" width="4" height="2" rx="1" fill="#ED6E6E"/>
<path opacity="0.8" fill-rule="evenodd" clip-rule="evenodd" d="M69.2174 44H42.7826C41.2459 44 40 42.7358 40 41.1765V22.8235C40 21.2642 41.2459 20 42.7826 20H69.2174C70.7541 20 72 21.2642 72 22.8235V41.1765C72 42.7358 70.7541 44 69.2174 44ZM70.6087 22.8235C70.6087 22.0442 69.9854 21.4118 69.2174 21.4118H42.7826C42.0146 21.4118 41.3913 22.0442 41.3913 22.8235V41.1765C41.3913 41.9558 42.0146 42.5882 42.7826 42.5882H69.2174C69.9854 42.5882 70.6087 41.9558 70.6087 41.1765V22.8235ZM68.0584 39.5635L63.6522 35.0925L61.1346 37.6471L63.4539 40.0005C63.719 40.2694 63.719 40.7056 63.4539 40.9753C63.1882 41.2442 62.7583 41.2442 62.4932 40.9753L52.5217 30.8572L43.9416 39.5635C43.6765 39.8325 43.2466 39.8325 42.9809 39.5635C42.7158 39.2939 42.7158 38.8576 42.9809 38.5887L51.9583 29.4793C51.9805 29.4454 51.9951 29.408 52.0243 29.3776C52.1614 29.2386 52.3423 29.1751 52.5217 29.1793C52.7012 29.1751 52.8821 29.2386 53.0191 29.3776C53.0483 29.408 53.0623 29.4454 53.0852 29.4793L60.1739 36.6722L63.0887 33.7146C63.1117 33.6814 63.1256 33.6433 63.1548 33.6129C63.2918 33.4746 63.4727 33.4104 63.6522 33.4146C63.8317 33.4104 64.0125 33.4746 64.1496 33.6129C64.1788 33.6433 64.1927 33.6814 64.2157 33.7146L69.0191 38.5887C69.2842 38.8576 69.2842 39.2939 69.0191 39.5635C68.7534 39.8325 68.3235 39.8325 68.0584 39.5635ZM59.4783 28.4706C57.9416 28.4706 56.6957 27.2064 56.6957 25.6471C56.6957 24.0878 57.9416 22.8235 59.4783 22.8235C61.015 22.8235 62.2609 24.0878 62.2609 25.6471C62.2609 27.2064 61.015 28.4706 59.4783 28.4706ZM59.4783 24.2353C58.7103 24.2353 58.087 24.8678 58.087 25.6471C58.087 26.4264 58.7103 27.0588 59.4783 27.0588C60.2463 27.0588 60.8696 26.4264 60.8696 25.6471C60.8696 24.8678 60.2463 24.2353 59.4783 24.2353Z" fill="#B8D7F5"/>
</g>
<defs>
<linearGradient id="paint0_linear" x1="12.6095" y1="22.8693" x2="74.1716" y2="95.6355" gradientUnits="userSpaceOnUse">
<stop stop-color="#1FBEF2"/>
<stop offset="1" stop-color="#0047B4"/>
</linearGradient>
<linearGradient id="paint1_linear" x1="-24.459" y1="17.6441" x2="57.415" y2="114.419" gradientUnits="userSpaceOnUse">
<stop stop-color="#007FD3" stop-opacity="0.3"/>
<stop offset="0.2738" stop-color="#0E71C5" stop-opacity="0.4917"/>
<stop offset="0.7934" stop-color="#344CA2" stop-opacity="0.8554"/>
<stop offset="1" stop-color="#453C92"/>
</linearGradient>
<linearGradient id="paint2_linear" x1="49.6548" y1="-10.5589" x2="44.3199" y2="61.9445" gradientUnits="userSpaceOnUse">
<stop stop-color="#3E87E2" stop-opacity="0"/>
<stop offset="0.3834" stop-color="#2971D2" stop-opacity="0.3834"/>
<stop offset="1" stop-color="#0047B4"/>
</linearGradient>
<linearGradient id="paint3_linear" x1="-4.9389" y1="37.7158" x2="56.6231" y2="110.482" gradientUnits="userSpaceOnUse">
<stop stop-color="#007FD3"/>
<stop offset="0.00613207" stop-color="#017ED2"/>
<stop offset="0.2651" stop-color="#1E61B6"/>
<stop offset="0.5203" stop-color="#344DA2"/>
<stop offset="0.7681" stop-color="#414096"/>
<stop offset="1" stop-color="#453C92"/>
</linearGradient>
<linearGradient id="paint4_linear" x1="43.1173" y1="28.8727" x2="43.1173" y2="71.4668" gradientUnits="userSpaceOnUse">
<stop stop-color="#3E87E2"/>
<stop offset="1" stop-color="#0047B4"/>
</linearGradient>
<linearGradient id="paint5_linear" x1="-10.1247" y1="86.2029" x2="72.4679" y2="14.197" gradientUnits="userSpaceOnUse">
<stop stop-color="#1FBEF2"/>
<stop offset="1" stop-color="#0047B4"/>
</linearGradient>
<linearGradient id="paint6_linear" x1="-9.94716" y1="41.9529" x2="51.6148" y2="114.719" gradientUnits="userSpaceOnUse">
<stop stop-color="#007FD3"/>
<stop offset="0.1094" stop-color="#126EC2"/>
<stop offset="0.2903" stop-color="#2858AD"/>
<stop offset="0.4864" stop-color="#38489E"/>
<stop offset="0.7064" stop-color="#423F95"/>
<stop offset="1" stop-color="#453C92"/>
</linearGradient>
<linearGradient id="paint7_linear" x1="50.6577" y1="29.0052" x2="90.942" y2="76.6211" gradientUnits="userSpaceOnUse">
<stop stop-color="#3C436E" stop-opacity="0"/>
<stop offset="0.1959" stop-color="#2F365A" stop-opacity="0.1959"/>
<stop offset="0.4889" stop-color="#202643" stop-opacity="0.4889"/>
<stop offset="0.7637" stop-color="#171C35" stop-opacity="0.7637"/>
<stop offset="1" stop-color="#141930"/>
</linearGradient>
<clipPath id="clip0">
<rect width="86" height="64" fill="white"/>
</clipPath>
</defs>
</svg>
