<svg width="80" height="60" viewBox="0 0 80 60" fill="none" xmlns="http://www.w3.org/2000/svg">
<g clip-path="url(#clip0)">
<rect width="80" height="60" fill="#0C3255"/>
<g opacity="0.15">
<path d="M80.2195 7.69489L4.02693e-06 27.2659L0 67L80.2195 67L80.2195 7.69489Z" fill="url(#paint0_linear)" fill-opacity="0.32"/>
<path d="M7.64254e-06 -8.40958L80.2195 67L0 67L7.64254e-06 -8.40958Z" fill="url(#paint1_linear)" fill-opacity="0.43"/>
<path d="M7.64254e-06 -8.40958L80.2195 -3.75672L80.2195 67L40.1082 67L7.64254e-06 -8.40958Z" fill="url(#paint2_linear)" fill-opacity="0.42"/>
<path d="M4.02693e-06 27.2659L80.1654 53.803L80.2195 67L0 67L4.02693e-06 27.2659Z" fill="url(#paint3_linear)" fill-opacity="0.45"/>
<path d="M0 67L80.2195 67L80.2195 27.0678L0 67Z" fill="url(#paint4_linear)"/>
<path d="M1.35019e-06 53.6775L80.2195 40.606L80.2195 67L0 67L1.35019e-06 53.6775Z" fill="url(#paint5_linear)"/>
<path d="M80.2195 67L4.02693e-06 27.2659L0 67L80.2195 67Z" fill="url(#paint6_linear)" fill-opacity="0.23"/>
<path d="M29.8301 67L80.2184 -3.75677L80.2184 67L29.8301 67Z" fill="url(#paint7_linear)" fill-opacity="0.36"/>
</g>
<path d="M14.656 48.192H18.368V49.296H15.816V50.544H18.112V51.648H15.816V52.896H18.368V54H14.656V48.192ZM19.5742 49.84H20.6382V50.352C20.7662 50.16 20.9395 50.0053 21.1582 49.888C21.3822 49.7707 21.6302 49.712 21.9022 49.712C22.1955 49.712 22.4515 49.784 22.6702 49.928C22.8942 50.0667 23.0435 50.2187 23.1182 50.384C23.2249 50.208 23.3982 50.0533 23.6382 49.92C23.8782 49.7813 24.1582 49.712 24.4782 49.712C24.9529 49.712 25.3155 49.8587 25.5662 50.152C25.8169 50.4453 25.9422 50.84 25.9422 51.336V54H24.8222V51.528C24.8222 51.2827 24.7662 51.096 24.6542 50.968C24.5422 50.8347 24.3849 50.768 24.1822 50.768C23.9209 50.768 23.7129 50.872 23.5582 51.08C23.4035 51.288 23.3262 51.5627 23.3262 51.904V54H22.1982V51.528C22.1982 51.2827 22.1395 51.096 22.0222 50.968C21.9049 50.8347 21.7369 50.768 21.5182 50.768C21.2782 50.768 21.0809 50.872 20.9262 51.08C20.7769 51.288 20.7022 51.5627 20.7022 51.904V54H19.5742V49.84ZM27.2294 49.84H28.2934V50.336C28.4 50.1653 28.5627 50.0187 28.7814 49.896C29.0054 49.7733 29.2587 49.712 29.5414 49.712C29.9147 49.712 30.256 49.8053 30.5654 49.992C30.8747 50.1787 31.1147 50.4427 31.2854 50.784C31.4614 51.12 31.5494 51.4987 31.5494 51.92C31.5494 52.3467 31.4614 52.728 31.2854 53.064C31.1147 53.4 30.8747 53.6613 30.5654 53.848C30.256 54.0347 29.9147 54.128 29.5414 54.128C29.2587 54.128 29.0054 54.0693 28.7814 53.952C28.5574 53.8293 28.3947 53.6827 28.2934 53.512H28.3014L28.3574 54.048V55.728H27.2294V49.84ZM29.3574 53.08C29.5494 53.08 29.7254 53.032 29.8854 52.936C30.0507 52.8347 30.1814 52.6987 30.2774 52.528C30.3787 52.352 30.4294 52.1493 30.4294 51.92C30.4294 51.6907 30.3787 51.4907 30.2774 51.32C30.1814 51.144 30.0507 51.008 29.8854 50.912C29.7254 50.816 29.5494 50.768 29.3574 50.768C29.1707 50.768 28.9947 50.816 28.8294 50.912C28.6694 51.008 28.5387 51.144 28.4374 51.32C28.3414 51.4907 28.2934 51.6907 28.2934 51.92C28.2934 52.1493 28.3414 52.352 28.4374 52.528C28.5387 52.6987 28.6694 52.8347 28.8294 52.936C28.9947 53.032 29.1707 53.08 29.3574 53.08ZM32.597 48.192L33.725 47.952V54H32.597V48.192ZM37.0262 54.128C36.5995 54.128 36.2155 54.032 35.8742 53.84C35.5382 53.648 35.2769 53.384 35.0902 53.048C34.9035 52.712 34.8102 52.336 34.8102 51.92C34.8102 51.5093 34.9035 51.136 35.0902 50.8C35.2769 50.4587 35.5382 50.192 35.8742 50C36.2155 49.808 36.5995 49.712 37.0262 49.712C37.4475 49.712 37.8262 49.808 38.1622 50C38.5035 50.192 38.7675 50.4587 38.9542 50.8C39.1409 51.136 39.2342 51.5093 39.2342 51.92C39.2342 52.336 39.1409 52.712 38.9542 53.048C38.7675 53.384 38.5035 53.648 38.1622 53.84C37.8262 54.032 37.4475 54.128 37.0262 54.128ZM37.0262 53.08C37.2235 53.08 37.4022 53.0347 37.5622 52.944C37.7275 52.848 37.8582 52.7147 37.9542 52.544C38.0555 52.368 38.1062 52.16 38.1062 51.92C38.1062 51.6853 38.0555 51.4827 37.9542 51.312C37.8582 51.136 37.7275 51.0027 37.5622 50.912C37.4022 50.816 37.2235 50.768 37.0262 50.768C36.8289 50.768 36.6475 50.816 36.4822 50.912C36.3222 51.0027 36.1915 51.136 36.0902 51.312C35.9889 51.4827 35.9382 51.6853 35.9382 51.92C35.9382 52.1547 35.9889 52.36 36.0902 52.536C36.1915 52.712 36.3222 52.848 36.4822 52.944C36.6475 53.0347 36.8289 53.08 37.0262 53.08ZM41.4939 53.768L39.7499 49.84H41.0299L42.0859 52.376H42.1019L43.1179 49.84H44.3739L41.8139 55.728H40.5979L41.4939 53.768ZM47.6069 48.192H51.3189V49.296H48.7669V50.608H51.0629V51.712H48.7669V54H47.6069V48.192ZM54.1968 54.128C53.7701 54.128 53.3861 54.032 53.0448 53.84C52.7088 53.648 52.4475 53.384 52.2608 53.048C52.0741 52.712 51.9808 52.336 51.9808 51.92C51.9808 51.5093 52.0741 51.136 52.2608 50.8C52.4475 50.4587 52.7088 50.192 53.0448 50C53.3861 49.808 53.7701 49.712 54.1968 49.712C54.6181 49.712 54.9968 49.808 55.3328 50C55.6741 50.192 55.9381 50.4587 56.1248 50.8C56.3115 51.136 56.4048 51.5093 56.4048 51.92C56.4048 52.336 56.3115 52.712 56.1248 53.048C55.9381 53.384 55.6741 53.648 55.3328 53.84C54.9968 54.032 54.6181 54.128 54.1968 54.128ZM54.1968 53.08C54.3941 53.08 54.5728 53.0347 54.7328 52.944C54.8981 52.848 55.0288 52.7147 55.1248 52.544C55.2261 52.368 55.2768 52.16 55.2768 51.92C55.2768 51.6853 55.2261 51.4827 55.1248 51.312C55.0288 51.136 54.8981 51.0027 54.7328 50.912C54.5728 50.816 54.3941 50.768 54.1968 50.768C53.9995 50.768 53.8181 50.816 53.6528 50.912C53.4928 51.0027 53.3621 51.136 53.2608 51.312C53.1595 51.4827 53.1088 51.6853 53.1088 51.92C53.1088 52.1547 53.1595 52.36 53.2608 52.536C53.3621 52.712 53.4928 52.848 53.6528 52.944C53.8181 53.0347 53.9995 53.08 54.1968 53.08ZM57.4467 49.84H58.5107V50.384C58.6067 50.1973 58.764 50.04 58.9827 49.912C59.2067 49.784 59.4494 49.72 59.7107 49.72C59.9027 49.72 60.0867 49.7547 60.2627 49.824V50.952C60.0867 50.888 59.948 50.8453 59.8467 50.824C59.7507 50.7973 59.6494 50.784 59.5427 50.784C59.244 50.784 59.0067 50.8933 58.8307 51.112C58.66 51.3253 58.5747 51.5973 58.5747 51.928V54H57.4467V49.84ZM61.2589 49.84H62.3229V50.352C62.4509 50.16 62.6242 50.0053 62.8429 49.888C63.0669 49.7707 63.3149 49.712 63.5869 49.712C63.8802 49.712 64.1362 49.784 64.3549 49.928C64.5789 50.0667 64.7282 50.2187 64.8029 50.384C64.9095 50.208 65.0829 50.0533 65.3229 49.92C65.5629 49.7813 65.8429 49.712 66.1629 49.712C66.6375 49.712 67.0002 49.8587 67.2509 50.152C67.5015 50.4453 67.6269 50.84 67.6269 51.336V54H66.5069V51.528C66.5069 51.2827 66.4509 51.096 66.3389 50.968C66.2269 50.8347 66.0695 50.768 65.8669 50.768C65.6055 50.768 65.3975 50.872 65.2429 51.08C65.0882 51.288 65.0109 51.5627 65.0109 51.904V54H63.8829V51.528C63.8829 51.2827 63.8242 51.096 63.7069 50.968C63.5895 50.8347 63.4215 50.768 63.2029 50.768C62.9629 50.768 62.7655 50.872 62.6109 51.08C62.4615 51.288 62.3869 51.5627 62.3869 51.904V54H61.2589V49.84Z" fill="#DBEBFA"/>
<path d="M43.8358 21.6523H32.1563C32.0626 21.6523 31.9726 21.6896 31.9063 21.7559C31.84 21.8222 31.8027 21.9122 31.8027 22.006C31.8027 22.0997 31.84 22.1897 31.9063 22.256C31.9726 22.3223 32.0626 22.3596 32.1563 22.3596H43.8358C43.9296 22.3596 44.0196 22.3223 44.0859 22.256C44.1522 22.1897 44.1895 22.0997 44.1895 22.006C44.1895 21.9122 44.1522 21.8222 44.0859 21.7559C44.0196 21.6896 43.9296 21.6523 43.8358 21.6523Z" fill="#DBEBFA"/>
<path d="M43.8375 24.8057H32.158C32.0643 24.8057 31.9744 24.8429 31.9082 24.9091C31.8419 24.9754 31.8047 25.0653 31.8047 25.159C31.8047 25.2527 31.8419 25.3426 31.9082 25.4088C31.9744 25.4751 32.0643 25.5123 32.158 25.5123H43.8375C43.9312 25.5123 44.0211 25.4751 44.0873 25.4088C44.1536 25.3426 44.1908 25.2527 44.1908 25.159C44.1908 25.0653 44.1536 24.9754 44.0873 24.9091C44.0211 24.8429 43.9312 24.8057 43.8375 24.8057V24.8057Z" fill="#DBEBFA"/>
<path d="M43.8375 27.959H32.158C32.0643 27.959 31.9744 27.9962 31.9082 28.0625C31.8419 28.1287 31.8047 28.2186 31.8047 28.3123C31.8047 28.406 31.8419 28.4959 31.9082 28.5621C31.9744 28.6284 32.0643 28.6656 32.158 28.6656H43.8375C43.9312 28.6656 44.0211 28.6284 44.0873 28.5621C44.1536 28.4959 44.1908 28.406 44.1908 28.3123C44.1908 28.2186 44.1536 28.1287 44.0873 28.0625C44.0211 27.9962 43.9312 27.959 43.8375 27.959V27.959Z" fill="#DBEBFA"/>
<path d="M43.8375 31.1133H32.158C32.0643 31.1133 31.9744 31.1505 31.9082 31.2168C31.8419 31.283 31.8047 31.3729 31.8047 31.4666C31.8047 31.5603 31.8419 31.6502 31.9082 31.7164C31.9744 31.7827 32.0643 31.8199 32.158 31.8199H43.8375C43.9312 31.8199 44.0211 31.7827 44.0873 31.7164C44.1536 31.6502 44.1908 31.5603 44.1908 31.4666C44.1908 31.3729 44.1536 31.283 44.0873 31.2168C44.0211 31.1505 43.9312 31.1133 43.8375 31.1133Z" fill="#DBEBFA"/>
<path d="M39.5479 34.2666H32.158C32.0643 34.2666 31.9744 34.3038 31.9082 34.3701C31.8419 34.4363 31.8047 34.5262 31.8047 34.6199C31.8047 34.7136 31.8419 34.8035 31.9082 34.8698C31.9744 34.936 32.0643 34.9732 32.158 34.9732H39.5479C39.6416 34.9732 39.7314 34.936 39.7977 34.8698C39.8639 34.8035 39.9012 34.7136 39.9012 34.6199C39.9012 34.5262 39.8639 34.4363 39.7977 34.3701C39.7314 34.3038 39.6416 34.2666 39.5479 34.2666V34.2666Z" fill="#DBEBFA"/>
<path d="M51.2182 15.6613C51.2182 15.6537 51.2182 15.6461 51.2182 15.6385V15.6238C51.2182 15.6174 51.2182 15.6109 51.2146 15.6039C51.214 15.5988 51.213 15.5937 51.2117 15.5887C51.2117 15.5828 51.2088 15.5764 51.207 15.5705L51.2018 15.5559C51.2 15.5497 51.1978 15.5436 51.1953 15.5377C51.1934 15.5329 51.1913 15.5282 51.1889 15.5236C51.1865 15.5178 51.1837 15.5121 51.1807 15.5066L51.173 15.4932L51.1631 15.4768L51.1537 15.4633L51.1426 15.4492L51.1309 15.4352L51.1215 15.4246L47.0785 11.2539L47.0662 11.2422L47.0527 11.2299L47.041 11.2211C47.036 11.2169 47.0307 11.2129 47.0252 11.2094L47.0076 11.1982C47.0035 11.1982 47 11.1936 46.9965 11.1918C46.9446 11.1633 46.8863 11.1484 46.8271 11.1484H33.1402C33.047 11.1484 32.9576 11.1855 32.8916 11.2514C32.8257 11.3173 32.7887 11.4068 32.7887 11.5V15.25H29.1348C29.0415 15.25 28.9521 15.287 28.8862 15.353C28.8202 15.4189 28.7832 15.5083 28.7832 15.6016V38.4994C28.7832 38.5927 28.8202 38.6821 28.8862 38.748C28.9521 38.8139 29.0415 38.851 29.1348 38.851H46.8594C46.9526 38.851 47.042 38.8139 47.108 38.748C47.1739 38.6821 47.2109 38.5927 47.2109 38.4994V34.7494H50.8625C50.9557 34.7494 51.0452 34.7124 51.1111 34.6464C51.177 34.5805 51.2141 34.4911 51.2141 34.3978V15.6713C51.2187 15.6678 51.2182 15.6648 51.2182 15.6613ZM47.1752 12.3725L50.0305 15.3174H47.1746L47.1752 12.3725ZM29.4881 38.1461V15.9572H42.4607V19.7746C42.4607 19.8678 42.4978 19.9573 42.5637 20.0232C42.6296 20.0891 42.7191 20.1262 42.8123 20.1262H46.5037V34.3961C46.5037 34.399 46.5037 34.4019 46.5037 34.4055V38.1461H29.4881ZM43.1686 16.4758L46.0244 19.4213H43.1686V16.4758ZM50.5115 34.0428H47.2133V19.7746C47.2133 19.7711 47.2133 19.7682 47.2133 19.7646C47.2133 19.7611 47.2133 19.7494 47.2133 19.7418V19.7277C47.2124 19.721 47.2113 19.7144 47.2098 19.7078C47.2091 19.7027 47.2081 19.6976 47.2068 19.6926C47.2068 19.6861 47.2039 19.6803 47.2016 19.6738C47.2003 19.6689 47.1987 19.664 47.1969 19.6592L47.1904 19.6416C47.1886 19.6368 47.1865 19.6321 47.184 19.6275C47.184 19.6217 47.1787 19.6158 47.1758 19.61L47.1682 19.5965L47.1582 19.5801L47.1488 19.5672C47.1454 19.5621 47.1417 19.5572 47.1377 19.5525C47.1341 19.5478 47.1302 19.5433 47.126 19.5391C47.1232 19.5353 47.12 19.5317 47.1166 19.5285L43.0736 15.3578L43.0607 15.3461L43.0473 15.3344C43.0437 15.3309 43.0396 15.3285 43.0361 15.3256L43.0197 15.3133L43.0021 15.3027L42.991 15.2957C42.9392 15.2675 42.8812 15.2528 42.8223 15.2529H33.4959V11.8545H46.4674V15.6713C46.4674 15.7645 46.5044 15.8539 46.5704 15.9199C46.6363 15.9858 46.7257 16.0229 46.8189 16.0229H50.5104L50.5115 34.0428Z" fill="#DBEBFA"/>
</g>
<defs>
<linearGradient id="paint0_linear" x1="11.7298" y1="21.4399" x2="69.517" y2="89.2146" gradientUnits="userSpaceOnUse">
<stop stop-color="#1FBEF2"/>
<stop offset="1" stop-color="#0047B4"/>
</linearGradient>
<linearGradient id="paint1_linear" x1="-22.7526" y1="16.5412" x2="54.1011" y2="106.678" gradientUnits="userSpaceOnUse">
<stop stop-color="#007FD3" stop-opacity="0.3"/>
<stop offset="0.2738" stop-color="#0E71C5" stop-opacity="0.4917"/>
<stop offset="0.7934" stop-color="#344CA2" stop-opacity="0.8554"/>
<stop offset="1" stop-color="#453C92"/>
</linearGradient>
<linearGradient id="paint2_linear" x1="46.1905" y1="-9.89909" x2="41.1504" y2="58.0671" gradientUnits="userSpaceOnUse">
<stop stop-color="#3E87E2" stop-opacity="0"/>
<stop offset="0.3834" stop-color="#2971D2" stop-opacity="0.3834"/>
<stop offset="1" stop-color="#0047B4"/>
</linearGradient>
<linearGradient id="paint3_linear" x1="-4.59432" y1="35.3584" x2="53.1928" y2="103.133" gradientUnits="userSpaceOnUse">
<stop stop-color="#007FD3"/>
<stop offset="0.00613207" stop-color="#017ED2"/>
<stop offset="0.2651" stop-color="#1E61B6"/>
<stop offset="0.5203" stop-color="#344DA2"/>
<stop offset="0.7681" stop-color="#414096"/>
<stop offset="1" stop-color="#453C92"/>
</linearGradient>
<linearGradient id="paint4_linear" x1="40.1091" y1="27.068" x2="40.1091" y2="67" gradientUnits="userSpaceOnUse">
<stop stop-color="#3E87E2"/>
<stop offset="1" stop-color="#0047B4"/>
</linearGradient>
<linearGradient id="paint5_linear" x1="-9.41835" y1="80.8151" x2="67.9278" y2="13.9059" gradientUnits="userSpaceOnUse">
<stop stop-color="#1FBEF2"/>
<stop offset="1" stop-color="#0047B4"/>
</linearGradient>
<linearGradient id="paint6_linear" x1="-9.25318" y1="39.3307" x2="48.534" y2="107.106" gradientUnits="userSpaceOnUse">
<stop stop-color="#007FD3"/>
<stop offset="0.1094" stop-color="#126EC2"/>
<stop offset="0.2903" stop-color="#2858AD"/>
<stop offset="0.4864" stop-color="#38489E"/>
<stop offset="0.7064" stop-color="#423F95"/>
<stop offset="1" stop-color="#453C92"/>
</linearGradient>
<linearGradient id="paint7_linear" x1="47.1225" y1="27.1922" x2="84.9366" y2="71.5419" gradientUnits="userSpaceOnUse">
<stop stop-color="#3C436E" stop-opacity="0"/>
<stop offset="0.1959" stop-color="#2F365A" stop-opacity="0.1959"/>
<stop offset="0.4889" stop-color="#202643" stop-opacity="0.4889"/>
<stop offset="0.7637" stop-color="#171C35" stop-opacity="0.7637"/>
<stop offset="1" stop-color="#141930"/>
</linearGradient>
<clipPath id="clip0">
<rect width="80" height="60" fill="white"/>
</clipPath>
</defs>
</svg>
